<svg width="42" height="42" viewBox="0 0 42 42" fill="none" xmlns="http://www.w3.org/2000/svg">
<circle cx="21" cy="21" r="21" fill="#0072BA"/>
<path d="M13 29V15.7C12.9999 15.4947 13.0631 15.2944 13.1808 15.1263C13.2985 14.9581 13.4651 14.8302 13.658 14.76L23.329 11.244C23.4045 11.2165 23.4856 11.2077 23.5653 11.2182C23.645 11.2287 23.721 11.2582 23.7869 11.3043C23.8527 11.3505 23.9065 11.4118 23.9436 11.4831C23.9807 11.5544 24 11.6336 24 11.714V16.667L30.316 18.772C30.5152 18.8384 30.6885 18.9657 30.8112 19.1361C30.934 19.3064 31.0001 19.5111 31 19.721V29H33V31H11V29H13ZM15 29H22V13.855L15 16.401V29ZM29 29V20.442L24 18.775V29H29Z" fill="white"/>
</svg>
