<svg width="42" height="42" viewBox="0 0 42 42" fill="none" xmlns="http://www.w3.org/2000/svg">
<circle cx="21" cy="21" r="21" fill="#0072BA"/>
<path d="M20.892 10.7478C15.3186 10.7478 10.793 15.2747 10.793 20.8482C10.793 26.4216 15.3186 30.9484 20.8919 30.9484C26.4653 30.9484 30.9923 26.4216 30.9923 20.8482C30.9923 15.2747 26.4653 10.7478 20.892 10.7478ZM25.8078 12.954C28.4395 14.595 30.1894 17.5147 30.1894 20.8482C30.1894 21.5848 30.1037 22.3015 29.9423 22.9885L28.4706 22.2125L29.4159 24.5703C29.0097 25.5005 28.4551 26.3506 27.7831 27.092L25.9287 25.7628L23.1518 27.8132L20.5025 28.1126L19.905 26.3174L17.7686 27.4708L14.8427 26.6571L15.2362 28.2295C14.0155 27.293 13.0349 26.061 12.4003 24.6389L13.492 23.0826L14.8777 23.8184L17.4223 23.3941L17.5445 21.6363L15.9399 21.5625L16.1506 20.7957L17.4732 19.7081L16.395 19.0367L19.2833 17.3784L17.3349 16.1041L14.4721 17.8309L12.3479 17.1743C12.9414 15.7933 13.8608 14.5867 15.0079 13.6481L14.8468 15.5548L16.7106 14.0886L19.8043 15.0433L18.8375 13.8657L20.0125 13.2467L21.1646 14.4699L24.2154 14.893L24.065 13.4118L25.8468 13.9557L25.8079 12.954H25.8078ZM25.8575 18.1115L21.9461 18.5709L23.1881 20.4279L23.3237 23.198L24.5779 23.7929L25.0694 22.5736L27.7616 24.6643L27.0069 22.6327L27.2823 20.5554L25.4024 19.5792L25.8576 18.1116L25.8575 18.1115ZM19.4968 18.2687L18.1393 19.1791L19.7064 19.8142L20.4233 19.1791L19.4968 18.2687V18.2687ZM20.4502 24.4858L21.2532 26.7457L22.1031 24.9167L20.4502 24.4858Z" fill="white"/>
</svg>
