<svg width="385" height="348" viewBox="0 0 385 348" fill="none" xmlns="http://www.w3.org/2000/svg">
<path d="M331.267 140.136C323.004 138.822 315.716 144.507 314.741 151.82C314.601 153.32 314.601 154.83 314.741 156.331C314.955 158.806 314.66 161.299 313.873 163.655C313.086 166.011 311.824 168.181 310.166 170.031C308.508 171.881 306.488 173.371 304.231 174.41C301.974 175.448 299.529 176.013 297.045 176.07C294.561 176.127 292.093 175.673 289.791 174.739C287.489 173.804 285.404 172.407 283.663 170.635C281.922 168.863 280.563 166.752 279.669 164.434C278.776 162.116 278.367 159.639 278.468 157.157C278.509 154.741 279.026 152.357 279.99 150.142C280.953 147.926 282.345 145.923 284.084 144.245C285.823 142.568 287.876 141.251 290.125 140.369C292.375 139.486 294.776 139.056 297.191 139.103C299.67 139.103 302.215 139.194 304.512 138.484C310.337 136.699 313.651 131.27 313.419 124.668C313.014 113.018 320.657 104.351 331.341 104.326C342.223 104.326 350.039 113.216 349.403 124.933C348.932 133.609 355.187 139.632 364.169 139.178C373.431 138.707 381.124 143.813 383.561 152.051C384.759 156.046 384.547 160.332 382.96 164.19C381.373 168.047 378.507 171.241 374.844 173.236C362.45 180.003 347.701 170.758 348.213 156.397C348.445 149.787 346.561 144.573 340.463 141.797C337.703 140.566 334.349 140.657 331.267 140.136Z" fill="white"/>
<path d="M296.902 106.101C294.47 106.112 292.059 105.643 289.809 104.72C287.559 103.796 285.513 102.438 283.789 100.722C281.568 98.4589 278.879 96.7093 275.91 95.5959C272.941 94.4826 269.764 94.0324 266.603 94.2771C263.72 94.4671 260.827 94.4671 257.944 94.2771C250.64 93.7648 244.624 96.1444 239.229 101.152C236.227 103.914 232.38 105.583 228.312 105.888C224.244 106.192 220.192 105.115 216.812 102.831C213.432 100.546 210.922 97.1877 209.688 93.2991C208.454 89.4106 208.568 85.2194 210.012 81.4039C213.317 73.1412 221.365 68.1175 229.644 69.9022C233.343 70.7984 236.784 72.5375 239.7 74.9838C244.6 79.016 249.739 81.5939 256.167 81.3378C259.324 81.2221 262.505 81.1725 265.653 81.3378C269.087 81.6211 272.542 81.1529 275.776 79.9657C279.011 78.7785 281.949 76.9008 284.384 74.4632C290.292 68.8364 297.861 68.0514 304.967 71.6622C311.577 74.9673 315.22 81.7344 314.642 89.3443C314.368 93.0032 312.986 96.4919 310.68 99.3464C308.375 102.201 305.255 104.286 301.736 105.324C300.146 105.701 298.53 105.96 296.902 106.101Z" fill="white"/>
<path d="M175.599 87.7753C175.871 92.6751 173.872 96.9717 170.385 100.549C165.915 105.127 163.643 110.465 163.948 116.885C164.064 119.772 164.014 122.663 163.8 125.544C163.296 133.236 165.65 139.59 171.021 145.374C179.152 154.116 176.367 168.055 165.94 173.467C159.743 176.69 147.696 174.128 143.3 168.667C137.904 161.949 137.632 152.191 143.498 145.903C149.166 139.822 151.678 133.088 150.827 124.891C150.668 122.689 150.703 120.477 150.935 118.281C151.439 111.117 148.927 105.267 144.077 99.971C142.064 97.7947 140.613 95.159 139.852 92.2937C139.091 89.4284 139.043 86.4205 139.711 83.5322C140.379 80.6438 141.743 77.9626 143.685 75.7223C145.626 73.482 148.086 71.7506 150.851 70.679C153.615 69.6074 156.599 69.2281 159.543 69.5742C162.488 69.9203 165.303 70.9813 167.743 72.6646C170.183 74.348 172.175 76.6026 173.544 79.2321C174.913 81.8616 175.619 84.786 175.599 87.7505V87.7753Z" fill="white"/>
<path d="M175.649 19.6906C175.475 30.1511 180.383 34.803 191.497 34.7369C200.842 34.6708 208.89 41.0248 210.212 49.4857C211.74 59.31 206.56 67.7379 197.239 70.6051C185.548 74.1993 173.608 64.8212 173.98 52.1711C174.104 48.0398 173.914 44.2637 170.981 41C167.676 37.3148 163.685 36.2241 158.793 36.3977C147.597 36.7943 139.161 28.7712 139.169 18.2198C139.182 13.4326 141.077 8.84253 144.446 5.44125C147.815 2.03996 152.387 0.100535 157.174 0.0419588C167.609 0.0419588 175.566 7.78408 175.649 18.0876V19.6906Z" fill="white"/>
<path d="M36.5636 89.9402C36.2496 99.6241 41.265 104.582 51.1554 104.4C63.3428 104.177 71.4816 111.836 71.275 123.272C71.1229 127.845 69.2303 132.188 65.9838 135.413C62.7374 138.638 58.3821 140.502 53.8077 140.623C43.7108 140.78 35.4977 133.377 34.9854 123.735C34.8284 120.743 34.9854 117.595 34.0765 114.819C32.2257 109.126 27.1441 106.259 21.1041 105.771C16.9728 105.433 12.4696 104.945 8.93322 103.012C5.20645 100.963 2.36859 97.6092 0.965342 93.5947C-0.437907 89.5802 -0.307466 85.1886 1.33158 81.2644C4.77711 72.8365 13.3951 68.0442 21.9221 69.8289C26.1382 70.6925 29.9161 73.0117 32.5944 76.3803C35.2727 79.749 36.6807 83.9524 36.5718 88.2547C36.5636 88.833 36.5636 89.3866 36.5636 89.9402Z" fill="white"/>
<path d="M263.489 34.8451C273.726 35.0599 278.998 29.5652 278.411 19.2947C277.841 9.32996 285.625 0.513706 295.358 0.100573C305.943 -0.378662 314.362 7.20646 314.808 17.7C315.255 27.6648 307.008 36.2662 296.862 36.4728C294.267 36.5306 291.549 36.3158 289.12 37.0347C282.815 38.8938 279.651 44.3223 279.957 51.9075C280.337 61.3269 274.173 69.3169 265.158 71.0107C260.849 71.7977 256.401 71.0109 252.623 68.7938C248.845 66.5766 245.99 63.0765 244.576 58.9307C240.304 46.3715 249.6 34.5393 263.489 34.8451Z" fill="white"/>
<path d="M121.148 71.0685C111.166 70.8041 105.804 76.1252 106.002 86.09C106.184 95.6169 101.59 102.409 92.9471 105.35C84.5191 108.234 74.4304 103.136 70.9188 94.2287C69.296 89.9385 69.3654 85.1916 71.1131 80.9507C72.8607 76.7097 76.1557 73.2921 80.33 71.3907C82.8515 70.3246 85.5576 69.7632 88.2952 69.7382C100.4 69.606 104.655 65.4664 104.573 53.4277C104.515 44.1157 111.29 36.1174 120.181 35.0185C124.729 34.4113 129.34 35.5414 133.092 38.1832C136.844 40.8251 139.462 44.7845 140.424 49.2716C143.002 61.0293 133.847 71.399 121.148 71.0685Z" fill="white"/>
<path d="M69.8527 158.561C69.7205 148.704 75.3722 141.433 84.6264 139.557C88.7805 138.772 93.0782 139.472 96.7691 141.533C100.46 143.595 103.31 146.887 104.82 150.835C107.993 158.9 105.118 168.542 97.3261 172.599C93.5087 174.591 88.6751 175.186 84.2628 175.351C75.7027 175.657 73.0173 180.201 71.2739 186.183C70.6129 188.472 70.869 191.066 70.9351 193.52C71.1252 200.337 67.2087 204.981 62.3089 208.666C57.7479 212.095 46.4364 210.261 41.4044 205.956C38.5015 203.489 36.4521 200.168 35.5484 196.468C34.6448 192.767 34.9332 188.876 36.3724 185.349C39.1404 178.292 46.3289 173.029 53.8562 174.144C62.6807 175.45 71.4392 167.832 69.8527 158.561Z" fill="white"/>
<path d="M69.7293 17.8736C69.7789 7.72703 77.992 -0.122492 88.3616 0.00144757C93.1501 0.0862374 97.7099 2.06503 101.043 5.50455C104.375 8.94407 106.209 13.564 106.143 18.3528C106.035 28.3754 97.8802 36.5968 88.0807 36.5307C77.5128 36.3902 69.6798 28.4498 69.7293 17.8736Z" fill="white"/>
<path d="M331.226 71.2005C328.831 71.1934 326.461 70.7147 324.251 69.7918C322.041 68.8689 320.035 67.5197 318.347 65.8214C316.658 64.123 315.321 62.1088 314.411 59.8936C313.501 57.6785 313.036 55.3058 313.044 52.911C313.051 50.5163 313.529 48.1464 314.452 45.9366C315.375 43.7269 316.724 41.7206 318.423 40.0322C320.121 38.3438 322.135 37.0065 324.35 36.0966C326.566 35.1867 328.938 34.722 331.333 34.7291C333.78 34.7322 336.203 35.2203 338.461 36.1651C340.718 37.1099 342.766 38.4927 344.487 40.2336C346.207 41.9745 347.565 44.0391 348.483 46.3079C349.4 48.5768 349.859 51.005 349.833 53.4523C349.66 63.1774 341.24 71.217 331.226 71.2005Z" fill="white"/>
<path d="M122.56 140.682C112.273 140.682 104.457 132.717 104.448 122.297C104.579 117.526 106.576 112.995 110.01 109.68C113.443 106.364 118.04 104.526 122.814 104.562C127.587 104.598 132.156 106.503 135.54 109.87C138.923 113.237 140.852 117.797 140.912 122.57C140.946 124.978 140.493 127.369 139.58 129.597C138.667 131.826 137.312 133.847 135.598 135.539C133.884 137.231 131.845 138.559 129.604 139.442C127.364 140.326 124.968 140.748 122.56 140.682Z" fill="white"/>
<path d="M0.20669 157.24C0.197826 154.832 0.667235 152.447 1.58767 150.223C2.50811 147.998 3.86124 145.979 5.56852 144.282C7.27579 142.584 9.3032 141.243 11.533 140.336C13.7629 139.428 16.1508 138.973 18.5581 138.996C23.3502 139.067 27.925 141.007 31.3069 144.403C34.6889 147.799 36.6104 152.381 36.6615 157.174C36.6615 167.626 28.5559 175.542 17.9714 175.467C7.8827 175.418 0.181902 167.502 0.20669 157.24Z" fill="white"/>
<path d="M262.142 140.715C251.285 139.888 243.7 133.518 243.477 122.289C243.303 112.597 251.921 104.21 261.712 104.21C264.12 104.191 266.508 104.651 268.737 105.563C270.966 106.475 272.991 107.821 274.695 109.522C276.4 111.223 277.749 113.246 278.665 115.473C279.581 117.7 280.045 120.087 280.031 122.495C279.973 132.749 272.173 140.673 262.142 140.715Z" fill="white"/>
<path d="M35.0257 53.0219C34.9955 50.6133 35.4491 48.2231 36.3597 45.993C37.2704 43.7629 38.6194 41.7384 40.3269 40.0393C42.0345 38.3403 44.0657 37.0013 46.3003 36.1018C48.5349 35.2023 50.9273 34.7605 53.3358 34.8028C58.1569 34.8521 62.7609 36.8145 66.135 40.2584C69.5092 43.7023 71.377 48.3455 71.3277 53.1665C71.2784 57.9876 69.316 62.5916 65.8721 65.9658C62.4282 69.3399 57.785 71.2078 52.964 71.1585C50.5909 71.1608 48.2409 70.6919 46.0505 69.7788C43.8601 68.8657 41.8729 67.5267 40.2041 65.8395C38.5353 64.1523 37.2183 62.1504 36.3293 59.9501C35.4404 57.7498 34.9973 55.3949 35.0257 53.0219Z" fill="white"/>
<path d="M192.215 140.672C189.809 140.679 187.425 140.208 185.202 139.286C182.978 138.364 180.961 137.01 179.265 135.302C177.569 133.594 176.23 131.566 175.324 129.336C174.418 127.107 173.964 124.719 173.988 122.313C174.099 117.523 176.07 112.964 179.482 109.601C182.895 106.237 187.482 104.334 192.273 104.292C194.648 104.291 197 104.758 199.194 105.668C201.388 106.577 203.381 107.91 205.059 109.591C206.737 111.272 208.067 113.268 208.972 115.464C209.878 117.659 210.341 120.012 210.335 122.387C210.377 132.823 202.593 140.681 192.215 140.672Z" fill="white"/>
<path d="M330.928 210.17C321.715 210.74 313.221 201.775 313.411 192.644C313.634 181.68 321.244 173.797 331.639 173.847C341.554 173.896 349.66 182.382 349.536 192.686C349.412 202.634 341.223 210.335 330.928 210.17Z" fill="white"/>
<path d="M365.797 105.861C355.783 105.77 348.041 97.7061 348.115 87.4273C348.153 85.0437 348.661 82.6911 349.611 80.5045C350.56 78.3179 351.933 76.3405 353.649 74.686C355.365 73.0314 357.391 71.7322 359.611 70.8631C361.831 69.994 364.201 69.5721 366.584 69.6217C368.967 69.6712 371.318 70.1912 373.499 71.1517C375.681 72.1123 377.652 73.4945 379.298 75.219C380.944 76.9434 382.233 78.9761 383.091 81.2002C383.949 83.4244 384.359 85.7961 384.297 88.1792C384.082 98.2266 376.043 105.911 365.797 105.861Z" fill="white"/>
<g filter="url(#filter0_i_126_201)">
<path d="M111.676 195.71C117.857 201.032 123.029 205.683 128.425 210.071C142.571 221.573 157.047 232.678 173.547 240.643C192.824 249.955 203.293 247.914 217.976 232.107C232.981 215.979 244.16 197.222 254.331 177.805C255.662 175.26 256.942 172.682 258.397 169.823L262.586 171.6C255.331 192.513 248.341 213.426 240.822 234.14C234.914 250.417 227.924 266.315 222.19 282.65C215.497 301.704 215.439 321.253 220.041 340.861C220.446 342.596 220.868 344.339 221.256 346.083C221.305 346.306 221.148 346.578 221.049 346.983H179.306C181.165 339.927 183.198 333.003 184.793 325.971C188.296 310.52 185.875 296.226 177.546 282.452C167.326 265.53 154.32 251.054 140.571 237.164C129.202 225.646 119.377 213.037 112.693 198.164C112.494 197.718 112.321 197.264 111.676 195.71Z" fill="url(#paint0_linear_126_201)"/>
<path d="M243.211 346.909H226.281C218.919 313.032 228.974 282.154 242.137 251.492C242.616 253.359 243.071 255.243 243.591 257.102C245.004 262.184 246.475 267.563 251.127 270.43C254.291 272.371 258.563 273.867 262.141 273.553C277.096 272.256 289.052 263.737 301.116 255.838C307.66 251.55 313.758 246.592 320.029 241.882C321.434 240.825 322.681 239.552 324.292 238.123L331.002 241.601C325.507 248.261 320.756 255.177 314.873 260.928C298.463 276.982 281.475 292.45 264.909 308.347C253.878 318.94 245.582 331.243 243.211 346.909Z" fill="url(#paint1_linear_126_201)"/>
<path d="M66.7524 239.651C79.3282 250.756 91.0199 261.811 103.538 271.875C110.355 277.191 117.835 281.596 125.789 284.98C139.241 290.863 151.767 286.426 159.732 274.131C160.178 273.445 160.616 272.751 161.062 272.049C179.67 287.533 185.189 320.724 173.456 347.165C166.846 347.165 160.104 347.247 153.378 347.057C152.795 346.923 152.254 346.651 151.799 346.262C151.344 345.874 150.99 345.381 150.767 344.826C147.462 333.474 140.811 324.492 132.168 316.667C119.427 305.1 106.678 293.59 94.2588 281.708C83.0689 270.877 73.7765 258.244 66.7689 244.336C65.8187 242.444 64.4306 240.543 66.7524 239.651Z" fill="url(#paint2_linear_126_201)"/>
<path d="M212.73 218.135C213.688 229.703 201.699 239.561 191.759 238.668C182.463 237.842 173.143 228.803 173.713 219.532C174.473 207.27 183.529 199.768 194.312 199.768C202.137 199.768 214.192 209.683 212.73 218.135Z" fill="url(#paint3_linear_126_201)"/>
<path d="M147.537 260.605C147.522 264.207 146.442 267.724 144.433 270.713C142.423 273.702 139.574 276.03 136.245 277.403C132.915 278.777 129.253 279.134 125.721 278.431C122.188 277.728 118.943 275.995 116.393 273.451C113.843 270.907 112.103 267.665 111.392 264.134C110.681 260.604 111.03 256.941 112.396 253.608C113.762 250.276 116.083 247.421 119.068 245.405C122.053 243.389 125.567 242.301 129.169 242.278C134.035 242.274 138.703 244.202 142.147 247.639C145.592 251.075 147.53 255.739 147.537 260.605Z" fill="url(#paint4_linear_126_201)"/>
<path d="M283.953 248.443C284 250.849 283.573 253.24 282.695 255.481C281.817 257.721 280.506 259.767 278.837 261.501C277.168 263.234 275.173 264.622 272.967 265.584C270.762 266.546 268.388 267.064 265.982 267.108C256.348 267.24 248.052 258.754 247.804 248.93C247.548 238.238 257.223 230.422 265.932 230.422C268.308 230.389 270.665 230.834 272.866 231.728C275.067 232.622 277.067 233.948 278.747 235.628C280.427 237.308 281.753 239.307 282.647 241.508C283.541 243.709 283.985 246.067 283.953 248.443Z" fill="url(#paint5_linear_126_201)"/>
</g>
<defs>
<filter id="filter0_i_126_201" x="65.4814" y="169.823" width="265.521" height="186.381" filterUnits="userSpaceOnUse" color-interpolation-filters="sRGB">
<feFlood flood-opacity="0" result="BackgroundImageFix"/>
<feBlend mode="normal" in="SourceGraphic" in2="BackgroundImageFix" result="shape"/>
<feColorMatrix in="SourceAlpha" type="matrix" values="0 0 0 0 0 0 0 0 0 0 0 0 0 0 0 0 0 0 127 0" result="hardAlpha"/>
<feOffset dy="9.02186"/>
<feGaussianBlur stdDeviation="9.02186"/>
<feComposite in2="hardAlpha" operator="arithmetic" k2="-1" k3="1"/>
<feColorMatrix type="matrix" values="0 0 0 0 0 0 0 0 0 0 0 0 0 0 0 0 0 0 0.25 0"/>
<feBlend mode="normal" in2="shape" result="effect1_innerShadow_126_201"/>
</filter>
<linearGradient id="paint0_linear_126_201" x1="57.1913" y1="347.183" x2="336.686" y2="347.183" gradientUnits="userSpaceOnUse">
<stop stop-color="#AE8625"/>
<stop offset="0.311864" stop-color="#F7EF8A"/>
<stop offset="0.728814" stop-color="#D2AC47"/>
<stop offset="1" stop-color="#EDC967"/>
</linearGradient>
<linearGradient id="paint1_linear_126_201" x1="57.1913" y1="347.183" x2="336.686" y2="347.183" gradientUnits="userSpaceOnUse">
<stop stop-color="#AE8625"/>
<stop offset="0.311864" stop-color="#F7EF8A"/>
<stop offset="0.728814" stop-color="#D2AC47"/>
<stop offset="1" stop-color="#EDC967"/>
</linearGradient>
<linearGradient id="paint2_linear_126_201" x1="57.1913" y1="347.183" x2="336.686" y2="347.183" gradientUnits="userSpaceOnUse">
<stop stop-color="#AE8625"/>
<stop offset="0.311864" stop-color="#F7EF8A"/>
<stop offset="0.728814" stop-color="#D2AC47"/>
<stop offset="1" stop-color="#EDC967"/>
</linearGradient>
<linearGradient id="paint3_linear_126_201" x1="57.1913" y1="347.183" x2="336.686" y2="347.183" gradientUnits="userSpaceOnUse">
<stop stop-color="#AE8625"/>
<stop offset="0.311864" stop-color="#F7EF8A"/>
<stop offset="0.728814" stop-color="#D2AC47"/>
<stop offset="1" stop-color="#EDC967"/>
</linearGradient>
<linearGradient id="paint4_linear_126_201" x1="57.1913" y1="347.183" x2="336.686" y2="347.183" gradientUnits="userSpaceOnUse">
<stop stop-color="#AE8625"/>
<stop offset="0.311864" stop-color="#F7EF8A"/>
<stop offset="0.728814" stop-color="#D2AC47"/>
<stop offset="1" stop-color="#EDC967"/>
</linearGradient>
<linearGradient id="paint5_linear_126_201" x1="57.1913" y1="347.183" x2="336.686" y2="347.183" gradientUnits="userSpaceOnUse">
<stop stop-color="#AE8625"/>
<stop offset="0.311864" stop-color="#F7EF8A"/>
<stop offset="0.728814" stop-color="#D2AC47"/>
<stop offset="1" stop-color="#EDC967"/>
</linearGradient>
</defs>
</svg>
