<svg width="30" height="31" viewBox="0 0 30 31" fill="none" xmlns="http://www.w3.org/2000/svg">
<path d="M17.4408 10.5378V13.0271H13.7068L10.3587 11.5584L8.72815 16.45V27.9631H3.74951V15.5165L5.71608 9.75368C5.82678 9.42365 6.00538 9.12046 6.24036 8.86364C6.47535 8.60681 6.76151 8.40205 7.08043 8.26252C7.39935 8.12299 7.74395 8.0518 8.09205 8.05352C8.44015 8.05525 8.78403 8.12986 9.10155 8.27254L14.2669 10.5503L17.4408 10.5378ZM9.97282 1.8252C8.60369 1.8252 7.48349 2.94539 7.48349 4.31452C7.48349 5.68364 8.60369 6.80384 9.97282 6.80384C11.3419 6.80384 12.4621 5.68364 12.4621 4.31452C12.4621 2.94539 11.3419 1.8252 9.97282 1.8252ZM11.2175 24.2291H26.1534V21.7398H11.2175V24.2291ZM24.2864 20.4951C25.3195 20.4951 26.1534 19.6612 26.1534 18.6281C26.1534 17.595 25.3195 16.7611 24.2864 16.7611C23.2533 16.7611 22.4194 17.595 22.4194 18.6281C22.4194 19.6612 23.2533 20.4951 24.2864 20.4951ZM16.1961 15.5165C16.1961 14.8319 15.636 14.2718 14.9515 14.2718H11.2175V16.7611H13.7068V18.0058C13.7068 19.3749 14.827 20.4951 16.1961 20.4951H18.6854C20.0546 20.4951 21.1748 19.3749 21.1748 18.0058V14.2718H18.6854V16.7611H16.1961V15.5165Z" fill="#283E5B"/>
</svg>
