<svg width="32" height="32" viewBox="0 0 32 32" fill="none" xmlns="http://www.w3.org/2000/svg">
<path d="M27.4015 6.36935C27.4015 5.33475 26.5609 4.49414 25.5263 4.49414H5.99825C4.96366 4.49414 4.12305 5.33475 4.12305 6.36935C4.12305 6.82198 4.29117 7.27462 4.60155 7.61086L14.469 18.7198V25.1861H9.29603C8.58474 25.1861 8.00278 25.768 8.00278 26.4793C8.00278 27.1906 8.58474 27.7726 9.29603 27.7726H22.2285C22.9398 27.7726 23.5217 27.1906 23.5217 26.4793C23.5217 25.768 22.9398 25.1861 22.2285 25.1861H17.0555V18.7198L26.923 7.61086C27.2333 7.27462 27.4015 6.82198 27.4015 6.36935ZM9.85212 9.66712L7.56308 7.08063H23.9744L21.6724 9.66712H9.85212Z" fill="#283E5B"/>
</svg>
