<svg width="30" height="31" viewBox="0 0 30 31" fill="none" xmlns="http://www.w3.org/2000/svg">
<path d="M19.9731 7.806C19.9731 7.806 21.2193 6.48381 21.2193 5.31365C21.2193 3.65249 19.9731 2.82129 19.9731 2.82129M10.6268 18.3985L6.26514 27.7449L10.6268 18.3985ZM10.0037 7.806C10.0037 7.806 11.2499 6.48381 11.2499 5.31365C11.2499 3.65249 10.0037 2.82129 10.0037 2.82129V7.806ZM14.9884 7.806C14.9884 7.806 16.2346 6.48381 16.2346 5.31365C16.2346 3.65249 14.9884 2.82129 14.9884 2.82129V7.806Z" stroke="#283E5B" stroke-width="1.77937" stroke-linecap="round" stroke-linejoin="round"/>
<path d="M20.5962 22.1367H9.38062" stroke="#283E5B" stroke-width="1.77937" stroke-linejoin="round"/>
<path d="M19.3499 18.3984L21.9668 24.0062L19.3499 18.3984ZM23.0884 27.7448C23.5842 27.7448 24.0596 27.5478 24.4102 27.1973C24.7607 26.8467 24.9577 26.3713 24.9577 25.8755C24.9577 25.3798 24.7607 24.9043 24.4102 24.5537C24.0596 24.2032 23.5842 24.0062 23.0884 24.0062C22.5926 24.0062 22.1172 24.2032 21.7666 24.5537C21.4161 24.9043 21.2191 25.3798 21.2191 25.8755C21.2191 26.3713 21.4161 26.8467 21.7666 27.1973C22.1172 27.5478 22.5926 27.7448 23.0884 27.7448Z" stroke="#283E5B" stroke-width="1.77937" stroke-linecap="round" stroke-linejoin="round"/>
<path d="M14.9883 19.0223C17.1726 19.0225 19.2775 18.2033 20.8869 16.7265C22.4963 15.2498 23.4932 13.223 23.6804 11.0467C23.6868 10.9495 23.6729 10.852 23.6396 10.7605C23.6063 10.6689 23.5543 10.5853 23.4869 10.515C23.4195 10.4446 23.3382 10.3891 23.2481 10.3519C23.1581 10.3148 23.0612 10.2967 22.9638 10.299H7.01276C6.91536 10.2967 6.81856 10.3148 6.72851 10.3519C6.63846 10.3891 6.55714 10.4446 6.48973 10.515C6.42232 10.5853 6.3703 10.6689 6.33698 10.7605C6.30366 10.852 6.28978 10.9495 6.29621 11.0467C6.48343 13.223 7.48028 15.2498 9.08971 16.7265C10.6991 18.2033 12.804 19.0225 14.9883 19.0223V19.0223Z" stroke="#283E5B" stroke-width="1.77937"/>
</svg>
