<svg width="24" height="19" viewBox="0 0 24 19" fill="none" xmlns="http://www.w3.org/2000/svg">
<path d="M1 18V12.05C1.00265 11.1491 1.36009 10.2858 1.99426 9.64878C2.62842 9.01173 3.48777 8.65266 4.38462 8.65H19.6154C20.5122 8.65266 21.3716 9.01173 22.0057 9.64878C22.6399 10.2858 22.9973 11.1491 23 12.05V18M18.7692 8.65H3.53846V3.125C3.54014 2.56193 3.76354 2.02241 4.15989 1.62426C4.55624 1.2261 5.09333 1.00168 5.65385 1H18.3462C18.9067 1.00168 19.4438 1.2261 19.8401 1.62426C20.2365 2.02241 20.4599 2.56193 20.4615 3.125V8.65H18.7692Z" stroke="#004AAD" stroke-width="1.67647" stroke-linecap="round" stroke-linejoin="round"/>
<path d="M1 18.0006V17.5756C1.00098 17.2377 1.13501 16.914 1.37283 16.6751C1.61064 16.4362 1.93291 16.3016 2.26923 16.3006H21.7308C22.0671 16.3016 22.3894 16.4362 22.6272 16.6751C22.865 16.914 22.999 17.2377 23 17.5756V18.0006M4.38462 8.65059V7.80059C4.38587 7.35011 4.56457 6.91844 4.88167 6.5999C5.19877 6.28136 5.62848 6.10185 6.07692 6.10059H10.3077C10.7561 6.10185 11.1858 6.28136 11.5029 6.5999C11.82 6.91844 11.9987 7.35011 12 7.80059V8.65059M12 8.65059V7.80059C12.0013 7.35011 12.18 6.91844 12.4971 6.5999C12.8141 6.28136 13.2439 6.10185 13.6923 6.10059H17.9231C18.3715 6.10185 18.8012 6.28136 19.1183 6.5999C19.4354 6.91844 19.6141 7.35011 19.6154 7.80059V8.65059" stroke="#004AAD" stroke-width="1.67647" stroke-linecap="round" stroke-linejoin="round"/>
</svg>
