<svg width="69" height="57" viewBox="0 0 69 57" fill="none" xmlns="http://www.w3.org/2000/svg">
<g filter="url(#filter0_i_203_3370)">
<path d="M58.9012 25.2313V7.97692H42.1283L34.3698 0L26.6212 7.97692H9.87808V25.2214L0 35.3923H9.86319V57H30.6767V40.7384H38.1026V57H58.8962V35.3923H68.7743L58.8962 25.2263L58.9012 25.2313ZM55.4265 11.4566V21.6573L45.5087 11.4566H55.4265ZM13.3528 11.4566H23.2507L13.3528 21.6474V11.4516V11.4566ZM46.7794 53.5253H41.5822V37.2637H27.2069V53.5253H22.0098V31.1433L34.3003 18.0883L46.7844 31.1532V53.5303L46.7794 53.5253ZM55.4116 31.9176V53.5253H50.2541V29.7583L34.2705 13.0401L18.5251 29.7683V53.5303H13.3329V31.9226H8.21519L34.3747 4.98868L60.5591 31.9226H55.4116V31.9176Z" fill="#9A9A9A"/>
</g>
<defs>
<filter id="filter0_i_203_3370" x="0" y="0" width="68.7743" height="61.4477" filterUnits="userSpaceOnUse" color-interpolation-filters="sRGB">
<feFlood flood-opacity="0" result="BackgroundImageFix"/>
<feBlend mode="normal" in="SourceGraphic" in2="BackgroundImageFix" result="shape"/>
<feColorMatrix in="SourceAlpha" type="matrix" values="0 0 0 0 0 0 0 0 0 0 0 0 0 0 0 0 0 0 127 0" result="hardAlpha"/>
<feOffset dy="4.44773"/>
<feGaussianBlur stdDeviation="2.22387"/>
<feComposite in2="hardAlpha" operator="arithmetic" k2="-1" k3="1"/>
<feColorMatrix type="matrix" values="0 0 0 0 0 0 0 0 0 0 0 0 0 0 0 0 0 0 0.25 0"/>
<feBlend mode="normal" in2="shape" result="effect1_innerShadow_203_3370"/>
</filter>
</defs>
</svg>
