<svg width="30" height="30" viewBox="0 0 30 30" fill="none" xmlns="http://www.w3.org/2000/svg">
<g clip-path="url(#clip0_602_84630)">
<path d="M25.3201 6.81348H18.8198V8.43854H25.3201V25.5017H18.8198V27.1267H26.9451V8.43854C26.9451 8.00754 26.7739 7.5942 26.4692 7.28945C26.1644 6.98469 25.7511 6.81348 25.3201 6.81348Z" fill="#ABABAB"/>
<path d="M16.2841 2.75098H5.10367C4.64681 2.75098 4.20867 2.93246 3.88563 3.2555C3.56259 3.57855 3.3811 4.01669 3.3811 4.47354V27.1269H18.0066V4.47354C18.0066 4.01669 17.8252 3.57855 17.5021 3.2555C17.1791 2.93246 16.7409 2.75098 16.2841 2.75098ZM16.3816 25.5018H13.944V23.0642H7.44375V25.5018H5.00616V4.47354C5.00616 4.46073 5.00868 4.44806 5.01358 4.43623C5.01848 4.4244 5.02567 4.41365 5.03472 4.40459C5.04378 4.39554 5.05452 4.38836 5.06635 4.38346C5.07818 4.37856 5.09086 4.37604 5.10367 4.37604H16.2841C16.2969 4.37604 16.3096 4.37856 16.3214 4.38346C16.3332 4.38836 16.344 4.39554 16.353 4.40459C16.3621 4.41365 16.3693 4.4244 16.3742 4.43623C16.3791 4.44806 16.3816 4.46073 16.3816 4.47354V25.5018Z" fill="#ABABAB"/>
<path d="M6.63159 6.81445H8.25665V8.43951H6.63159V6.81445Z" fill="#ABABAB"/>
<path d="M9.88257 6.81445H11.5076V8.43951H9.88257V6.81445Z" fill="#ABABAB"/>
<path d="M13.1313 6.81348H14.7564V8.43854H13.1313V6.81348Z" fill="#ABABAB"/>
<path d="M6.63159 10.877H8.25665V12.502H6.63159V10.877Z" fill="#ABABAB"/>
<path d="M9.88257 10.877H11.5076V12.502H9.88257V10.877Z" fill="#ABABAB"/>
<path d="M13.1313 10.877H14.7564V12.502H13.1313V10.877Z" fill="#ABABAB"/>
<path d="M6.63159 14.9395H8.25665V16.5645H6.63159V14.9395Z" fill="#ABABAB"/>
<path d="M9.88257 14.9395H11.5076V16.5645H9.88257V14.9395Z" fill="#ABABAB"/>
<path d="M13.1313 14.9395H14.7564V16.5645H13.1313V14.9395Z" fill="#ABABAB"/>
<path d="M6.63159 19.001H8.25665V20.626H6.63159V19.001Z" fill="#ABABAB"/>
<path d="M9.88257 19.001H11.5076V20.626H9.88257V19.001Z" fill="#ABABAB"/>
<path d="M13.1313 19.001H14.7564V20.626H13.1313V19.001Z" fill="#ABABAB"/>
<path d="M18.8198 10.877H20.4449V12.502H18.8198V10.877Z" fill="#ABABAB"/>
<path d="M22.0696 10.877H23.6946V12.502H22.0696V10.877Z" fill="#ABABAB"/>
<path d="M18.8198 14.9395H20.4449V16.5645H18.8198V14.9395Z" fill="#ABABAB"/>
<path d="M22.0696 14.9395H23.6946V16.5645H22.0696V14.9395Z" fill="#ABABAB"/>
<path d="M18.8198 19.001H20.4449V20.626H18.8198V19.001Z" fill="#ABABAB"/>
<path d="M22.0696 19.001H23.6946V20.626H22.0696V19.001Z" fill="#ABABAB"/>
</g>
<defs>
<clipPath id="clip0_602_84630">
<rect width="29.2511" height="29.2511" fill="white" transform="translate(0.131836 0.313477)"/>
</clipPath>
</defs>
</svg>
