<svg width="30" height="31" viewBox="0 0 30 31" fill="none" xmlns="http://www.w3.org/2000/svg">
<path d="M7.56487 3.38184C6.90385 3.38184 6.26991 3.64442 5.8025 4.11183C5.3351 4.57924 5.07251 5.21318 5.07251 5.87419V24.5669C5.07251 25.9501 6.18161 27.0592 7.56487 27.0592V28.3054H10.0572V27.0592H20.0267V28.3054H22.519V27.0592C23.9023 27.0592 25.0114 25.9501 25.0114 24.5669V5.87419C25.0114 5.21318 24.7488 4.57924 24.2814 4.11183C23.814 3.64442 23.18 3.38184 22.519 3.38184H7.56487ZM7.56487 5.87419H13.7958V24.5669H7.56487V5.87419ZM16.2881 5.87419H22.519V24.5669H16.2881V5.87419ZM10.0572 13.3513V17.0898H12.5496V13.3513H10.0572ZM17.5343 13.3513V17.0898H20.0267V13.3513H17.5343Z" fill="#283E5B"/>
</svg>
