<svg width="24" height="22" viewBox="0 0 24 22" fill="none" xmlns="http://www.w3.org/2000/svg">
<path d="M21.0603 5.47931V3.17423C21.0603 1.90297 20.026 0.869141 18.7542 0.869141H3.76477C1.85765 0.869141 0.305664 2.42046 0.305664 4.32677V18.1573C0.305664 20.694 2.37421 21.6149 3.76477 21.6149H21.0603C22.3321 21.6149 23.3664 20.5811 23.3664 19.3098V7.7844C23.3664 6.51314 22.3321 5.47931 21.0603 5.47931ZM18.7542 15.8522H16.4481V11.242H18.7542V15.8522ZM3.76477 5.47931C3.46788 5.46604 3.18756 5.33881 2.98218 5.12412C2.77679 4.90943 2.66216 4.62382 2.66216 4.32677C2.66216 4.02972 2.77679 3.74411 2.98218 3.52942C3.18756 3.31473 3.46788 3.1875 3.76477 3.17423H18.7542V5.47931H3.76477Z" fill="white"/>
</svg>
