<svg width="30" height="30" viewBox="0 0 30 30" fill="none" xmlns="http://www.w3.org/2000/svg">
<path d="M11.8837 14.0248C13.2411 14.0248 14.2183 15.3932 15.253 16.8412C16.4523 18.5204 17.8125 20.4235 20.1105 20.4235C25.2935 20.4235 27.2222 10.5604 27.4233 9.45437L25.6244 9.12712C25.1838 11.5403 23.213 18.5953 20.1105 18.5953C18.7531 18.5953 17.7759 17.2269 16.7412 15.779C15.5419 14.0998 14.1817 12.1967 11.8837 12.1967C8.05726 12.1967 5.07822 18.9646 3.65681 22.9482V2.1416H1.82861V25.9081C1.8291 26.3928 2.02187 26.8575 2.36461 27.2003C2.70736 27.543 3.17209 27.7358 3.65681 27.7363H27.4233V25.9081H4.61112C5.99141 21.2069 9.10847 14.0248 11.8837 14.0248Z" fill="#ABABAB"/>
</svg>
