<svg width="36" height="36" viewBox="0 0 36 36" fill="none" xmlns="http://www.w3.org/2000/svg">
<path d="M18 9V27M13.5 22.773L14.8185 23.7615C16.575 25.08 19.4235 25.08 21.1815 23.7615C22.9395 22.443 22.9395 20.307 21.1815 18.9885C20.304 18.3285 19.152 18 18 18C16.9125 18 15.825 17.67 14.9955 17.0115C13.3365 15.693 13.3365 13.557 14.9955 12.2385C16.6545 10.92 19.3455 10.92 21.0045 12.2385L21.627 12.7335M31.5 18C31.5 19.7728 31.1508 21.5283 30.4724 23.1662C29.7939 24.8041 28.7995 26.2923 27.5459 27.5459C26.2923 28.7995 24.8041 29.7939 23.1662 30.4724C21.5283 31.1508 19.7728 31.5 18 31.5C16.2272 31.5 14.4717 31.1508 12.8338 30.4724C11.1959 29.7939 9.70765 28.7995 8.45406 27.5459C7.20047 26.2923 6.20606 24.8041 5.52763 23.1662C4.84919 21.5283 4.5 19.7728 4.5 18C4.5 14.4196 5.92232 10.9858 8.45406 8.45406C10.9858 5.92232 14.4196 4.5 18 4.5C21.5804 4.5 25.0142 5.92232 27.5459 8.45406C30.0777 10.9858 31.5 14.4196 31.5 18Z" stroke="#2892F3" stroke-width="2" stroke-linecap="round" stroke-linejoin="round"/>
</svg>
