<svg width="24" height="25" viewBox="0 0 24 25" fill="none" xmlns="http://www.w3.org/2000/svg">
<path d="M2 7.86719C2 7.33675 2.21071 6.82805 2.58579 6.45297C2.96086 6.0779 3.46957 5.86719 4 5.86719H20C20.5304 5.86719 21.0391 6.0779 21.4142 6.45297C21.7893 6.82805 22 7.33675 22 7.86719V17.8672C22 18.3976 21.7893 18.9063 21.4142 19.2814C21.0391 19.6565 20.5304 19.8672 20 19.8672H4C3.46957 19.8672 2.96086 19.6565 2.58579 19.2814C2.21071 18.9063 2 18.3976 2 17.8672V7.86719Z" stroke="#283E5B" stroke-width="2" stroke-linecap="round" stroke-linejoin="round"/>
<path d="M2 9.86719C3.06087 9.86719 4.07828 9.44576 4.82843 8.69561C5.57857 7.94547 6 6.92805 6 5.86719M18 19.8672C18 18.8063 18.4214 17.7889 19.1716 17.0388C19.9217 16.2886 20.9391 15.8672 22 15.8672" stroke="#283E5B" stroke-width="2" stroke-linecap="round" stroke-linejoin="round"/>
<circle cx="11.25" cy="13.6172" r="3.2625" stroke="#283E5B" stroke-width="0.975"/>
</svg>
