<svg width="20" height="23" viewBox="0 0 20 23" fill="none" xmlns="http://www.w3.org/2000/svg">
<path d="M8.64605 0.784858C8.75294 0.697511 8.87788 0.634959 9.01186 0.601707C9.14583 0.568454 9.28552 0.56533 9.42085 0.592558L18.7558 2.45955C18.9673 2.50183 19.1577 2.61607 19.2945 2.78285C19.4314 2.94963 19.5062 3.15865 19.5063 3.37437V20.1717C19.5062 20.3874 19.4314 20.5964 19.2945 20.7632C19.1577 20.93 18.9673 21.0442 18.7558 21.0865L9.42085 22.9535C9.28547 22.9806 9.14578 22.9773 9.01183 22.9438C8.87788 22.9104 8.75302 22.8477 8.64623 22.7602C8.53945 22.6727 8.4534 22.5626 8.39429 22.4378C8.33518 22.3131 8.30447 22.1767 8.30439 22.0387V1.50738L8.64605 0.784858ZM13.9054 11.7721C13.9054 11.5245 13.807 11.2871 13.6319 11.112C13.4569 10.937 13.2194 10.8386 12.9719 10.8386C12.7243 10.8386 12.4868 10.937 12.3118 11.112C12.1367 11.2871 12.0384 11.5245 12.0384 11.7721C12.0384 12.0197 12.1367 12.2571 12.3118 12.4322C12.4868 12.6072 12.7243 12.7056 12.9719 12.7056C13.2194 12.7056 13.4569 12.6072 13.6319 12.4322C13.807 12.2571 13.9054 12.0197 13.9054 11.7721ZM6.4374 2.44088H1.76992C1.52234 2.44088 1.2849 2.53923 1.10984 2.71429C0.934776 2.88936 0.836426 3.1268 0.836426 3.37437V20.1717C0.836426 20.4193 0.934776 20.6567 1.10984 20.8318C1.2849 21.0068 1.52234 21.1052 1.76992 21.1052H6.4374V2.44088ZM8.64605 0.784858C8.53916 0.872487 8.45307 0.982757 8.39398 1.10771C8.3349 1.23266 8.3043 1.36917 8.30439 1.50738L8.64605 0.784858Z" fill="#283E5B"/>
</svg>
