<svg width="37" height="36" viewBox="0 0 37 36" fill="none" xmlns="http://www.w3.org/2000/svg">
<g id="emojione:flag-for-china">
<path id="Vector" d="M18.7907 34.6571C28.0122 34.6571 35.4876 27.1816 35.4876 17.9601C35.4876 8.73866 28.0122 1.26318 18.7907 1.26318C9.56923 1.26318 2.09375 8.73866 2.09375 17.9601C2.09375 27.1816 9.56923 34.6571 18.7907 34.6571Z" fill="#ED4C5C"/>
<path id="Vector_2" d="M13.2236 15.957L17.6761 19.0738L16.0064 13.9534L20.459 10.7253H14.949L13.2236 5.71623L11.5539 10.7253H5.98828L10.4408 13.9534L8.77111 19.0738L13.2236 15.957ZM20.6259 19.7973L19.3458 20.0756L20.5703 20.5765V21.8566L21.4051 20.9105L22.6296 21.3557L21.906 20.2982L22.6852 19.2964L21.4051 19.5747L20.6259 18.5172V19.7973ZM22.5183 16.0127L21.5721 16.8475L22.8522 16.7362L23.4088 17.9607L23.6314 16.6806L24.9115 16.5692L23.7984 15.9014L24.0766 14.6213L23.1305 15.4561L22.0173 14.7882L22.5183 16.0127ZM22.8522 11.6715L23.2418 12.9516L23.6314 11.7271H24.9115L23.9097 10.9479L24.2993 9.66784L23.2418 10.447L22.24 9.61219L22.6296 10.8923L21.5721 11.6158L22.8522 11.6715ZM20.6259 7.21896V8.49906L21.4051 7.44158L22.6852 7.71987L21.906 6.71805L22.6296 5.66058L21.4051 6.16148L20.5703 5.15967V6.43977L19.3458 6.94068L20.6259 7.21896Z" fill="#FFE62E"/>
</g>
</svg>
