<svg width="36" height="35" viewBox="0 0 36 35" fill="none" xmlns="http://www.w3.org/2000/svg">
<g id="emojione:flag-for-russia">
<path id="Vector" d="M18.4258 1.21289C11.3164 1.21289 5.24609 5.67539 3.00391 11.8379H33.957C31.6602 5.67539 25.5898 1.21289 18.4258 1.21289Z" fill="#F9F9F9"/>
<path id="Vector_2" d="M18.4258 33.0879C25.5898 33.0879 31.6602 28.6254 33.9023 22.4629H3.00391C5.24609 28.6785 11.3164 33.0879 18.4258 33.0879Z" fill="#ED4C5C"/>
<path id="Vector_3" d="M3.00391 11.8379C2.40234 13.4848 2.07422 15.291 2.07422 17.1504C2.07422 19.0098 2.40234 20.816 3.00391 22.4629H33.957C34.5586 20.816 34.8867 19.0098 34.8867 17.1504C34.8867 15.291 34.5586 13.4848 33.957 11.8379H3.00391Z" fill="#428BC1"/>
</g>
</svg>
