<svg width="37" height="36" viewBox="0 0 37 36" fill="none" xmlns="http://www.w3.org/2000/svg">
<g id="emojione:flag-for-turkey">
<path id="Vector" d="M18.7907 34.6698C28.0122 34.6698 35.4876 27.1943 35.4876 17.9728C35.4876 8.75136 28.0122 1.27588 18.7907 1.27588C9.56923 1.27588 2.09375 8.75136 2.09375 17.9728C2.09375 27.1943 9.56923 34.6698 18.7907 34.6698Z" fill="#ED4C5C"/>
<g id="Group">
<path id="Vector_2" d="M23.9654 21.8691L24.0211 18.8636L21.0156 17.9731L24.0211 17.0826L23.9654 14.0771L25.8021 16.4704L28.8075 15.5799L26.9709 17.9731L28.8075 20.3663L25.8021 19.4758L23.9654 21.8691Z" fill="white"/>
<path id="Vector_3" d="M19.4595 24.6523C15.7862 24.6523 12.8364 21.6468 12.8364 17.9735C12.8364 14.3001 15.7862 11.2947 19.4595 11.2947C20.8509 11.2947 22.131 11.7399 23.2441 12.4635C21.7414 10.7381 19.5151 9.625 17.0106 9.625C12.4468 9.625 8.77344 13.354 8.77344 17.9735C8.77344 22.593 12.4468 26.3219 17.0106 26.3219C19.5151 26.3219 21.7414 25.2088 23.2441 23.4835C22.1867 24.207 20.9066 24.6523 19.4595 24.6523Z" fill="white"/>
</g>
</g>
</svg>
