<svg width="37" height="37" viewBox="0 0 37 37" fill="none" xmlns="http://www.w3.org/2000/svg">
<g id="emojione:flag-for-portugal">
<path id="Vector" d="M10.4422 33.0512V4.10986C5.43314 7.004 2.09375 12.4027 2.09375 18.5806C2.09375 24.7584 5.43314 30.1571 10.4422 33.0512Z" fill="#699635"/>
<path id="Vector_2" d="M18.7899 1.8833C15.7288 1.8833 12.8903 2.71815 10.4414 4.10956V33.0509C12.8903 34.498 15.7288 35.2772 18.7899 35.2772C28.0289 35.2772 35.4868 27.8192 35.4868 18.5802C35.4868 9.34127 28.0289 1.8833 18.7899 1.8833Z" fill="#ED4C5C"/>
<g id="Group">
<path id="Vector_3" d="M10.4444 11.9014C6.77108 11.9014 3.76562 14.9068 3.76562 18.5801C3.76562 22.2535 6.77108 25.2589 10.4444 25.2589C14.1177 25.2589 17.1232 22.2535 17.1232 18.5801C17.1232 14.9068 14.1177 11.9014 10.4444 11.9014ZM10.4444 24.4241C7.21633 24.4241 4.60047 21.8082 4.60047 18.5801C4.60047 15.3521 7.21633 12.7362 10.4444 12.7362C13.6725 12.7362 16.2883 15.3521 16.2883 18.5801C16.2883 21.8082 13.6725 24.4241 10.4444 24.4241Z" fill="#FFE62E"/>
<path id="Vector_4" d="M12.723 25.0918C12.6117 25.2031 12.4447 25.2031 12.3334 25.0918L4.70848 15.018C4.59717 14.9067 4.59717 14.7397 4.70848 14.6284L4.87545 14.4614C4.98677 14.3501 5.15374 14.3501 5.26505 14.4614L12.89 24.5352C13.0013 24.6466 13.0013 24.8135 12.89 24.9248L12.723 25.0918Z" fill="#FFE62E"/>
<path id="Vector_5" d="M10.5527 11.623C10.7196 11.623 10.8309 11.7344 10.8309 11.9013V25.2589C10.8309 25.4259 10.7196 25.5372 10.5527 25.5372H10.2744C10.1074 25.5372 9.99609 25.4259 9.99609 25.2589V11.9013C9.99609 11.7344 10.1074 11.623 10.2744 11.623H10.5527Z" fill="#FFE62E"/>
<path id="Vector_6" d="M17.0658 19.3037L10.4427 18.1349V18.9697L16.9545 20.1385C17.1215 20.1385 17.2328 20.0829 17.2884 19.9159L17.3441 19.6376C17.3441 19.5263 17.2328 19.3593 17.0658 19.3037ZM10.4427 18.0792L5.21099 14.4059C5.09968 14.2946 4.93271 14.3502 4.82139 14.4615L4.65443 14.6842C4.54311 14.7955 4.59877 14.9625 4.71008 15.0738L10.4427 19.081V18.0792Z" fill="#FFE62E"/>
<path id="Vector_7" d="M10.22 17.4669L4.98827 22.6987C4.87696 22.81 4.87696 22.9769 4.98827 23.0882L5.2109 23.3109C5.32221 23.4222 5.48918 23.4222 5.60049 23.3109L10.22 18.6914V17.4669ZM10.4426 14.9624L3.48555 18.2461C3.37423 18.3018 3.26292 18.4688 3.37423 18.6357L3.48555 18.914C3.5412 19.0253 3.70817 19.1366 3.87514 19.0253L10.4426 15.9086V14.9624Z" fill="#FFE62E"/>
<path id="Vector_8" d="M16.6194 15.9085L9.99628 14.7397V15.5746L16.5081 16.7434C16.6751 16.7434 16.7864 16.6877 16.842 16.5208L16.8977 16.2425C16.842 16.0755 16.7307 15.9085 16.6194 15.9085ZM10.3859 22.4203C10.2746 22.476 10.1632 22.643 10.2746 22.8099L10.3859 23.0882C10.4415 23.1995 10.6085 23.3108 10.7755 23.1995L16.3411 20.6393L16.6194 19.5819L10.3859 22.4203ZM10.3859 20.528L4.15234 18.2461V19.1366L10.3859 21.4185V20.528Z" fill="#FFE62E"/>
<path id="Vector_9" d="M6.04688 22.3647V23.1996L14.284 23.7562C14.618 23.5335 14.8963 23.2553 15.1745 22.977L6.04688 22.3647Z" fill="#FFE62E"/>
</g>
<path id="Vector_10" d="M7.65625 15.7979V19.6938C7.65625 21.2522 8.88069 22.4766 10.4391 22.4766C11.9975 22.4766 13.2219 21.2522 13.2219 19.6938V15.7979H7.65625Z" fill="white"/>
<path id="Vector_11" d="M10.4389 23.5896C8.26832 23.5896 6.54297 21.8643 6.54297 19.6937V14.6846H14.3349V19.6937C14.3349 21.8643 12.6095 23.5896 10.4389 23.5896ZM8.76923 16.9108V19.6937C8.76923 20.6398 9.49276 21.3633 10.4389 21.3633C11.3851 21.3633 12.1086 20.6398 12.1086 19.6937V16.9108H8.76923Z" fill="#ED4C5C"/>
<path id="Vector_12" d="M9.94125 17.1333V18.0238C9.94125 18.1908 10.0526 18.3021 10.2195 18.3021H10.6648C10.8318 18.3021 10.9431 18.1908 10.9431 18.0238V17.0776H9.94125V17.1333ZM9.94125 18.5247V19.4709C9.94125 19.6378 10.0526 19.7491 10.2195 19.7491H10.6648C10.8318 19.7491 10.9431 19.6378 10.9431 19.4709V18.5247H9.94125ZM8.82812 18.5247V19.4709C8.82812 19.6378 8.93944 19.7491 9.10641 19.7491H9.55166C9.71863 19.7491 9.82994 19.6378 9.82994 19.4709V18.5247H8.82812ZM11.0544 18.5247V19.4709C11.0544 19.6378 11.1657 19.7491 11.3327 19.7491H11.7779C11.9449 19.7491 12.0562 19.6378 12.0562 19.4709V18.5247H11.0544ZM9.94125 19.8605V20.8066C9.94125 20.9736 10.0526 21.0849 10.2195 21.0849H10.6648C10.8318 21.0849 10.9431 20.9736 10.9431 20.8066V19.8605H9.94125Z" fill="#0071BC"/>
<g id="Group_2">
<path id="Vector_13" d="M10.4433 19.1933C10.5048 19.1933 10.5547 19.1435 10.5547 19.082C10.5547 19.0205 10.5048 18.9707 10.4433 18.9707C10.3819 18.9707 10.332 19.0205 10.332 19.082C10.332 19.1435 10.3819 19.1933 10.4433 19.1933Z" fill="white"/>
<path id="Vector_14" d="M10.2207 19.4712C10.2822 19.4712 10.332 19.4213 10.332 19.3598C10.332 19.2984 10.2822 19.2485 10.2207 19.2485C10.1592 19.2485 10.1094 19.2984 10.1094 19.3598C10.1094 19.4213 10.1592 19.4712 10.2207 19.4712Z" fill="white"/>
<path id="Vector_15" d="M10.666 19.4712C10.7275 19.4712 10.7773 19.4213 10.7773 19.3598C10.7773 19.2984 10.7275 19.2485 10.666 19.2485C10.6045 19.2485 10.5547 19.2984 10.5547 19.3598C10.5547 19.4213 10.6045 19.4712 10.666 19.4712Z" fill="white"/>
<path id="Vector_16" d="M10.2207 18.915C10.2822 18.915 10.332 18.8652 10.332 18.8037C10.332 18.7422 10.2822 18.6924 10.2207 18.6924C10.1592 18.6924 10.1094 18.7422 10.1094 18.8037C10.1094 18.8652 10.1592 18.915 10.2207 18.915Z" fill="white"/>
<path id="Vector_17" d="M10.666 18.915C10.7275 18.915 10.7773 18.8652 10.7773 18.8037C10.7773 18.7422 10.7275 18.6924 10.666 18.6924C10.6045 18.6924 10.5547 18.7422 10.5547 18.8037C10.5547 18.8652 10.6045 18.915 10.666 18.915Z" fill="white"/>
<path id="Vector_18" d="M10.4433 17.8017C10.5048 17.8017 10.5547 17.7519 10.5547 17.6904C10.5547 17.6289 10.5048 17.5791 10.4433 17.5791C10.3819 17.5791 10.332 17.6289 10.332 17.6904C10.332 17.7519 10.3819 17.8017 10.4433 17.8017Z" fill="white"/>
<path id="Vector_19" d="M10.2207 18.08C10.2822 18.08 10.332 18.0302 10.332 17.9687C10.332 17.9073 10.2822 17.8574 10.2207 17.8574C10.1592 17.8574 10.1094 17.9073 10.1094 17.9687C10.1094 18.0302 10.1592 18.08 10.2207 18.08Z" fill="white"/>
<path id="Vector_20" d="M10.666 18.08C10.7275 18.08 10.7773 18.0302 10.7773 17.9687C10.7773 17.9073 10.7275 17.8574 10.666 17.8574C10.6045 17.8574 10.5547 17.9073 10.5547 17.9687C10.5547 18.0302 10.6045 18.08 10.666 18.08Z" fill="white"/>
<path id="Vector_21" d="M10.2207 17.5234C10.2822 17.5234 10.332 17.4736 10.332 17.4121C10.332 17.3506 10.2822 17.3008 10.2207 17.3008C10.1592 17.3008 10.1094 17.3506 10.1094 17.4121C10.1094 17.4736 10.1592 17.5234 10.2207 17.5234Z" fill="white"/>
<path id="Vector_22" d="M10.666 17.5234C10.7275 17.5234 10.7773 17.4736 10.7773 17.4121C10.7773 17.3506 10.7275 17.3008 10.666 17.3008C10.6045 17.3008 10.5547 17.3506 10.5547 17.4121C10.5547 17.4736 10.6045 17.5234 10.666 17.5234Z" fill="white"/>
<path id="Vector_23" d="M11.5566 19.1933C11.6181 19.1933 11.6679 19.1435 11.6679 19.082C11.6679 19.0205 11.6181 18.9707 11.5566 18.9707C11.4951 18.9707 11.4453 19.0205 11.4453 19.082C11.4453 19.1435 11.4951 19.1933 11.5566 19.1933Z" fill="white"/>
<path id="Vector_24" d="M11.334 19.4712C11.3954 19.4712 11.4453 19.4213 11.4453 19.3598C11.4453 19.2984 11.3954 19.2485 11.334 19.2485C11.2725 19.2485 11.2227 19.2984 11.2227 19.3598C11.2227 19.4213 11.2725 19.4712 11.334 19.4712Z" fill="white"/>
<path id="Vector_25" d="M11.7793 19.4712C11.8408 19.4712 11.8906 19.4213 11.8906 19.3598C11.8906 19.2984 11.8408 19.2485 11.7793 19.2485C11.7178 19.2485 11.668 19.2984 11.668 19.3598C11.668 19.4213 11.7178 19.4712 11.7793 19.4712Z" fill="white"/>
<path id="Vector_26" d="M11.334 18.915C11.3954 18.915 11.4453 18.8652 11.4453 18.8037C11.4453 18.7422 11.3954 18.6924 11.334 18.6924C11.2725 18.6924 11.2227 18.7422 11.2227 18.8037C11.2227 18.8652 11.2725 18.915 11.334 18.915Z" fill="white"/>
<path id="Vector_27" d="M11.7793 18.915C11.8408 18.915 11.8906 18.8652 11.8906 18.8037C11.8906 18.7422 11.8408 18.6924 11.7793 18.6924C11.7178 18.6924 11.668 18.7422 11.668 18.8037C11.668 18.8652 11.7178 18.915 11.7793 18.915Z" fill="white"/>
<path id="Vector_28" d="M9.33006 19.1933C9.39154 19.1933 9.44138 19.1435 9.44138 19.082C9.44138 19.0205 9.39154 18.9707 9.33006 18.9707C9.26859 18.9707 9.21875 19.0205 9.21875 19.082C9.21875 19.1435 9.26859 19.1933 9.33006 19.1933Z" fill="white"/>
<path id="Vector_29" d="M9.10741 19.4712C9.16888 19.4712 9.21872 19.4213 9.21872 19.3598C9.21872 19.2984 9.16888 19.2485 9.10741 19.2485C9.04593 19.2485 8.99609 19.2984 8.99609 19.3598C8.99609 19.4213 9.04593 19.4712 9.10741 19.4712Z" fill="white"/>
<path id="Vector_30" d="M9.55272 19.4712C9.6142 19.4712 9.66403 19.4213 9.66403 19.3598C9.66403 19.2984 9.6142 19.2485 9.55272 19.2485C9.49124 19.2485 9.44141 19.2984 9.44141 19.3598C9.44141 19.4213 9.49124 19.4712 9.55272 19.4712Z" fill="white"/>
<path id="Vector_31" d="M9.10741 18.915C9.16888 18.915 9.21872 18.8652 9.21872 18.8037C9.21872 18.7422 9.16888 18.6924 9.10741 18.6924C9.04593 18.6924 8.99609 18.7422 8.99609 18.8037C8.99609 18.8652 9.04593 18.915 9.10741 18.915Z" fill="white"/>
<path id="Vector_32" d="M9.55272 18.915C9.6142 18.915 9.66403 18.8652 9.66403 18.8037C9.66403 18.7422 9.6142 18.6924 9.55272 18.6924C9.49124 18.6924 9.44141 18.7422 9.44141 18.8037C9.44141 18.8652 9.49124 18.915 9.55272 18.915Z" fill="white"/>
<path id="Vector_33" d="M10.4433 20.5844C10.5048 20.5844 10.5547 20.5346 10.5547 20.4731C10.5547 20.4117 10.5048 20.3618 10.4433 20.3618C10.3819 20.3618 10.332 20.4117 10.332 20.4731C10.332 20.5346 10.3819 20.5844 10.4433 20.5844Z" fill="white"/>
<path id="Vector_34" d="M10.2207 20.8628C10.2822 20.8628 10.332 20.8129 10.332 20.7515C10.332 20.69 10.2822 20.6401 10.2207 20.6401C10.1592 20.6401 10.1094 20.69 10.1094 20.7515C10.1094 20.8129 10.1592 20.8628 10.2207 20.8628Z" fill="white"/>
<path id="Vector_35" d="M10.666 20.8628C10.7275 20.8628 10.7773 20.8129 10.7773 20.7515C10.7773 20.69 10.7275 20.6401 10.666 20.6401C10.6045 20.6401 10.5547 20.69 10.5547 20.7515C10.5547 20.8129 10.6045 20.8628 10.666 20.8628Z" fill="white"/>
<path id="Vector_36" d="M10.2207 20.3061C10.2822 20.3061 10.332 20.2563 10.332 20.1948C10.332 20.1333 10.2822 20.0835 10.2207 20.0835C10.1592 20.0835 10.1094 20.1333 10.1094 20.1948C10.1094 20.2563 10.1592 20.3061 10.2207 20.3061Z" fill="white"/>
<path id="Vector_37" d="M10.666 20.3061C10.7275 20.3061 10.7773 20.2563 10.7773 20.1948C10.7773 20.1333 10.7275 20.0835 10.666 20.0835C10.6045 20.0835 10.5547 20.1333 10.5547 20.1948C10.5547 20.2563 10.6045 20.3061 10.666 20.3061Z" fill="white"/>
</g>
<path id="Vector_38" d="M9.88281 16.3543H10.9959L10.8846 15.7977V15.2412H10.9959V14.9629H10.829V15.1299H10.7733V14.9629H10.6063V15.1299H10.495V14.9629H10.3837V15.1299H10.2724V14.9629H10.1054V15.1299H9.99413V14.9629H9.88281V15.2412H9.99413V15.7977L9.88281 16.3543Z" fill="#FFE62E"/>
<path id="Vector_39" d="M10.6103 16.3543H10.5546V16.1317C10.5546 16.0761 10.499 16.0204 10.4433 16.0204C10.3877 16.0204 10.332 16.0761 10.332 16.1317V16.3543H10.2763V16.1317C10.2763 16.0204 10.332 15.9648 10.4433 15.9648C10.5546 15.9648 10.6103 16.0204 10.6103 16.1317V16.3543ZM10.4433 15.7421H10.1094V15.4638C10.1094 15.3525 10.165 15.2969 10.2763 15.2969C10.3877 15.2969 10.4433 15.3525 10.4433 15.4638V15.7421ZM10.165 15.6865H10.3877V15.4638C10.3877 15.4082 10.332 15.3525 10.2763 15.3525C10.2207 15.3525 10.165 15.4082 10.165 15.4638V15.6865ZM10.7773 15.7421H10.4433V15.4638C10.4433 15.3525 10.499 15.2969 10.6103 15.2969C10.7216 15.2969 10.7773 15.3525 10.7773 15.4638V15.7421ZM10.499 15.6865H10.7216V15.4638C10.7216 15.4082 10.6659 15.3525 10.6103 15.3525C10.5546 15.3525 10.499 15.4082 10.499 15.4638V15.6865Z" fill="#3E4347"/>
<path id="Vector_40" d="M7.10156 16.3543H8.21469L8.10338 15.7977V15.2412H8.21469V14.9629H8.04772V15.1299H7.99207V14.9629H7.8251V15.1299H7.71378V14.9629H7.60247V15.1299H7.49116V14.9629H7.32419V15.1299H7.21288V14.9629H7.10156V15.2412H7.21288V15.7977L7.10156 16.3543Z" fill="#FFE62E"/>
<g id="Group_3">
<path id="Vector_41" d="M7.82513 16.3543H7.76947V16.1317C7.76947 16.0761 7.71381 16.0204 7.65816 16.0204C7.6025 16.0204 7.54685 16.0761 7.54685 16.1317V16.3543H7.49119V16.1317C7.49119 16.0204 7.54684 15.9648 7.65816 15.9648C7.76947 15.9648 7.82513 16.0204 7.82513 16.1317V16.3543ZM7.65816 15.7421H7.32422V15.4638C7.32422 15.3525 7.37988 15.2969 7.49119 15.2969C7.6025 15.2969 7.65816 15.3525 7.65816 15.4638V15.7421ZM7.37988 15.6865H7.6025V15.4638C7.6025 15.4082 7.54684 15.3525 7.49119 15.3525C7.43553 15.3525 7.37988 15.4082 7.37988 15.4638V15.6865Z" fill="#3E4347"/>
<path id="Vector_42" d="M7.99019 15.7421H7.65625V15.4638C7.65625 15.3525 7.71191 15.2969 7.82322 15.2969C7.93453 15.2969 7.99019 15.3525 7.99019 15.4638V15.7421ZM7.71191 15.6865H7.93453V15.4638C7.93453 15.4082 7.87888 15.3525 7.82322 15.3525C7.76756 15.3525 7.71191 15.4082 7.71191 15.4638V15.6865Z" fill="#3E4347"/>
</g>
<path id="Vector_43" d="M7.10156 19.638H8.21469L8.10338 19.0814V18.5249H8.21469V18.2466H8.10338V18.4136H7.99207V18.2466H7.88075V18.4136H7.71378V18.2466H7.60247V18.4136H7.49116V18.2466H7.37984V18.4136H7.26853V18.2466H7.10156V18.5249H7.26853V19.0814L7.10156 19.638Z" fill="#FFE62E"/>
<path id="Vector_44" d="M7.82513 19.638H7.76947V19.4154C7.76947 19.3598 7.71381 19.3041 7.65816 19.3041C7.6025 19.3041 7.54685 19.3598 7.54685 19.4154V19.638H7.49119V19.4154C7.49119 19.3041 7.54684 19.2484 7.65816 19.2484C7.76947 19.2484 7.82513 19.3041 7.82513 19.4154V19.638ZM7.65816 19.0258H7.32422V18.7475C7.32422 18.6362 7.37988 18.5806 7.49119 18.5806C7.6025 18.5806 7.65816 18.6362 7.65816 18.7475V19.0258ZM7.37988 18.9702H7.6025V18.7475C7.6025 18.6919 7.54684 18.6362 7.49119 18.6362C7.43553 18.6362 7.37988 18.6919 7.37988 18.7475V18.9702ZM8.04775 19.0258H7.71381V18.7475C7.71381 18.6362 7.76947 18.5806 7.88078 18.5806C7.9921 18.5806 8.04775 18.6362 8.04775 18.7475V19.0258ZM7.76947 18.9702H7.9921V18.7475C7.9921 18.6919 7.93644 18.6362 7.88078 18.6362C7.82513 18.6362 7.76947 18.6919 7.76947 18.7475V18.9702Z" fill="#3E4347"/>
<path id="Vector_45" d="M12.668 19.6937H13.7811L13.6698 19.1371V18.5805H13.7811V18.3579H13.6141V18.4692H13.5585V18.3579H13.3915V18.4692H13.2802V18.3579H13.1689V18.4692H13.0576V18.3579H12.8906V18.4692H12.7793V18.3579H12.668V18.5805H12.7793V19.1371L12.668 19.6937Z" fill="#FFE62E"/>
<path id="Vector_46" d="M13.3915 19.6937H13.3359V19.4711C13.3359 19.4154 13.2802 19.3598 13.2246 19.3598C13.1689 19.3598 13.1133 19.4154 13.1133 19.4711V19.6937H13.0576V19.4711C13.0576 19.3598 13.1133 19.3041 13.2246 19.3041C13.3359 19.3041 13.3915 19.3598 13.3915 19.4711V19.6937ZM13.2246 19.0815H12.8906V18.8032C12.8906 18.6919 12.9463 18.6362 13.0576 18.6362C13.1689 18.6362 13.2246 18.6919 13.2246 18.8032V19.0815ZM12.9463 19.0258H13.1689V18.8032C13.1689 18.7475 13.1133 18.6919 13.0576 18.6919C13.0019 18.6919 12.9463 18.7475 12.9463 18.8032V19.0258ZM13.5585 19.0815H13.2246V18.8032C13.2246 18.6919 13.2802 18.6362 13.3915 18.6362C13.5028 18.6362 13.5585 18.6919 13.5585 18.8032V19.0815ZM13.2802 19.0258H13.5028V18.8032C13.5028 18.7475 13.4472 18.6919 13.3915 18.6919C13.3359 18.6919 13.2802 18.7475 13.2802 18.8032V19.0258Z" fill="#3E4347"/>
<path id="Vector_47" d="M12.668 16.3543H13.7811L13.6698 15.7977V15.2412H13.7811V14.9629H13.6141V15.1299H13.5585V14.9629H13.3915V15.1299H13.2802V14.9629H13.1689V15.1299H13.0576V14.9629H12.8906V15.1299H12.7793V14.9629H12.668V15.2412H12.7793V15.7977L12.668 16.3543Z" fill="#FFE62E"/>
<path id="Vector_48" d="M13.3915 16.3543H13.3359V16.1317C13.3359 16.0761 13.2802 16.0204 13.2246 16.0204C13.1689 16.0204 13.1133 16.0761 13.1133 16.1317V16.3543H13.0576V16.1317C13.0576 16.0204 13.1133 15.9648 13.2246 15.9648C13.3359 15.9648 13.3915 16.0204 13.3915 16.1317V16.3543ZM13.2246 15.7421H12.8906V15.4638C12.8906 15.3525 12.9463 15.2969 13.0576 15.2969C13.1689 15.2969 13.2246 15.3525 13.2246 15.4638V15.7421ZM12.9463 15.6865H13.1689V15.4638C13.1689 15.4082 13.1133 15.3525 13.0576 15.3525C13.0019 15.3525 12.9463 15.4082 12.9463 15.4638V15.6865ZM13.5585 15.7421H13.2246V15.4638C13.2246 15.3525 13.2802 15.2969 13.3915 15.2969C13.5028 15.2969 13.5585 15.3525 13.5585 15.4638V15.7421ZM13.2802 15.6865H13.5028V15.4638C13.5028 15.4082 13.4472 15.3525 13.3915 15.3525C13.3359 15.3525 13.2802 15.4082 13.2802 15.4638V15.6865Z" fill="#3E4347"/>
<path id="Vector_49" d="M8.88366 22.8103L9.66285 21.9755L9.16194 21.6972L8.77235 21.3076L8.88366 21.1963L8.71669 21.0293L8.60538 21.1406L8.71669 21.2519L8.66103 21.3076L8.54972 21.1963L8.43841 21.3076L8.54972 21.3632L8.43841 21.4745L8.38275 21.3632L8.27144 21.4745L8.38275 21.5859L8.27144 21.6415L8.21578 21.5302L8.10447 21.6415L8.16013 21.7528L8.10447 21.8085L8.04881 21.6972L7.9375 21.8085L8.10447 21.9755H8.16013L8.21578 21.9198L8.60538 22.3094L8.88366 22.8103Z" fill="#FFE62E"/>
<path id="Vector_50" d="M9.15981 22.1427C9.10415 22.0871 9.0485 22.0871 8.99284 22.1427C8.93718 22.1984 8.93718 22.254 8.99284 22.3097L9.15981 22.4767L9.10415 22.5323L8.93718 22.3654C8.88153 22.3097 8.88153 22.1984 8.93718 22.1427C8.99284 22.0871 9.10415 22.0871 9.15981 22.1427ZM8.82587 21.9758L8.60324 22.1984L8.43627 22.0314C8.38062 21.9758 8.38062 21.8645 8.43627 21.8088C8.49193 21.7531 8.60324 21.7531 8.6589 21.8088L8.82587 21.9758ZM8.60324 22.1427L8.77021 21.9758L8.60324 21.8088C8.54759 21.7531 8.49193 21.7531 8.43627 21.8088C8.38062 21.8645 8.38062 21.9201 8.43627 21.9758L8.60324 22.1427ZM9.10415 21.6975L8.88153 21.9201L8.71456 21.7531C8.6589 21.6975 8.6589 21.5862 8.71456 21.5305C8.77021 21.4749 8.88153 21.4749 8.93718 21.5305L9.10415 21.6975ZM8.88153 21.8645L9.0485 21.6975L8.88153 21.5305C8.82587 21.4749 8.77021 21.4749 8.71456 21.5305C8.6589 21.5862 8.6589 21.6418 8.71456 21.6975L8.88153 21.8645Z" fill="#3E4347"/>
<path id="Vector_51" d="M11.9979 22.8103L11.2188 21.9755L11.664 21.6972L12.0536 21.3076L11.9979 21.1963L12.1649 21.0293L12.2762 21.1406L12.1649 21.2519L12.2206 21.3076L12.3319 21.1963L12.4432 21.3076L12.3319 21.3632L12.4432 21.4745L12.4988 21.3632L12.6102 21.4745L12.4988 21.5859L12.6102 21.6415L12.6658 21.5302L12.7771 21.6415L12.6658 21.7528L12.7771 21.8085L12.8328 21.6972L12.9441 21.8085L12.7771 21.9755H12.7215L12.6658 21.9198L12.2762 22.3094L11.9979 22.8103Z" fill="#FFE62E"/>
<path id="Vector_52" d="M11.5 22.254L11.7226 22.1427C11.7783 22.0871 11.8339 22.0871 11.8896 22.1427C11.9453 22.1984 11.9453 22.254 11.8896 22.3097L11.667 22.4767L11.7226 22.5323L11.8896 22.3654C11.9453 22.3097 11.9453 22.1984 11.8896 22.1427C11.8339 22.0871 11.7226 22.0871 11.667 22.1427L11.5 22.254ZM12.2235 21.8088C12.2792 21.7531 12.3905 21.7531 12.4462 21.8088C12.5018 21.8645 12.5018 21.9758 12.4462 22.0314L12.2792 22.1984L12.0566 21.9758L12.2235 21.8088ZM12.3905 21.9758C12.4462 21.9201 12.4462 21.8645 12.3905 21.8088C12.3348 21.7531 12.2792 21.7531 12.2235 21.8088L12.1122 21.9758L12.2792 22.1427L12.3905 21.9758ZM11.9453 21.5305C12.0009 21.4749 12.1122 21.4749 12.1679 21.5305C12.2235 21.5862 12.2235 21.6975 12.1679 21.7531L12.0009 21.9201L11.7783 21.6975L11.9453 21.5305ZM12.1679 21.6975C12.2235 21.6418 12.2235 21.5862 12.1679 21.5305C12.1122 21.4749 12.0566 21.4749 12.0009 21.5305L11.8339 21.6975L12.0009 21.8645L12.1679 21.6975Z" fill="#3E4347"/>
</g>
</svg>
