<svg width="36" height="36" viewBox="0 0 36 36" fill="none" xmlns="http://www.w3.org/2000/svg">
<g id="emojione:flag-for-norway">
<g id="Group">
<path id="Vector" d="M34.7227 15.4629C34.668 14.916 34.5586 14.3691 34.4492 13.8223H2.51172C2.40234 14.3691 2.29297 14.916 2.23828 15.4629H34.7227ZM2.23828 19.8379C2.29297 20.3848 2.40234 20.9316 2.51172 21.4785H34.3945C34.5039 20.9316 34.6133 20.3848 34.668 19.8379H2.23828Z" fill="white"/>
<path id="Vector_2" d="M11.918 2.61133C11.3711 2.83008 10.8242 3.1582 10.2773 3.43164V31.8691C10.8242 32.1973 11.3711 32.4707 11.918 32.6895V2.61133ZM16.293 1.4082V33.9473L17.9336 34.1113V1.24414C17.3867 1.24414 16.8398 1.29883 16.293 1.4082Z" fill="white"/>
</g>
<g id="Group_2">
<path id="Vector_3" d="M2.07422 17.6504C2.07422 18.416 2.12891 19.127 2.23828 19.8379H34.7773C34.8867 19.127 34.9414 18.416 34.9414 17.6504C34.9414 16.8848 34.8867 16.1738 34.7773 15.4629H2.23828C2.12891 16.1738 2.07422 16.8848 2.07422 17.6504Z" fill="#428BC1"/>
<path id="Vector_4" d="M11.918 32.6895C13.2852 33.291 14.7617 33.7285 16.293 33.8926V1.4082C14.7617 1.62695 13.2852 2.00977 11.918 2.61133V32.6895Z" fill="#428BC1"/>
</g>
<path id="Vector_5" d="M10.2773 13.8223V3.43164C6.44922 5.67383 3.60547 9.39258 2.51172 13.8223H10.2773ZM10.2773 21.4785V31.8691C6.44922 29.627 3.60547 25.9082 2.51172 21.4785H10.2773ZM18.4805 1.24414H17.9336V13.8223H34.4492C32.6992 6.60352 26.2461 1.24414 18.4805 1.24414ZM17.9336 21.4785V34.0566H18.4805C26.2461 34.0566 32.6992 28.6973 34.4492 21.4785H17.9336Z" fill="#ED4C5C"/>
</g>
</svg>
