<svg width="37" height="37" viewBox="0 0 37 37" fill="none" xmlns="http://www.w3.org/2000/svg">
<g id="emojione:flag-for-south-korea">
<path id="Vector" d="M18.7907 35.0374C28.0122 35.0374 35.4876 27.562 35.4876 18.3405C35.4876 9.11903 28.0122 1.64355 18.7907 1.64355C9.56923 1.64355 2.09375 9.11903 2.09375 18.3405C2.09375 27.562 9.56923 35.0374 18.7907 35.0374Z" fill="#F5F5F5"/>
<path id="Vector_2" d="M14.0033 19.2864C15.5617 20.3439 17.7323 19.8986 18.7897 18.3402C19.8472 16.7819 21.9622 16.3366 23.5762 17.3941C25.0789 18.3959 25.5242 20.3439 24.6893 21.8466C26.526 18.7298 25.6911 14.6669 22.5744 12.6076C19.402 10.4927 15.1164 11.3275 13.0015 14.4999C12.9458 14.6113 12.8901 14.7226 12.8345 14.7782C12.0553 16.3923 12.5562 18.2846 14.0033 19.2864Z" fill="#ED4C5C"/>
<path id="Vector_3" d="M23.5765 17.3942C22.0182 16.3367 19.8476 16.782 18.7901 18.3403C17.7326 19.8987 15.6177 20.344 14.0036 19.2865C12.5009 18.2847 12.0557 16.3367 12.8905 14.834C10.9982 17.9507 11.8887 22.0137 15.0054 24.073C18.1779 26.1879 22.4634 25.3531 24.5784 22.1806C24.634 22.0693 24.6897 21.958 24.7453 21.9024C25.5245 20.2883 25.0236 18.396 23.5765 17.3942Z" fill="#428BC1"/>
<path id="Vector_4" d="M5.32216 13.4982L9.16246 7.76556L8.77286 7.48727L8.38327 7.26465L4.54297 12.9973L4.93256 13.2199L5.32216 13.4982ZM6.37963 14.2217L6.76923 14.4443L10.5539 8.71172L10.2199 8.48909L9.83034 8.21081L5.99004 13.9434L6.37963 14.2217ZM11.2217 9.15697L7.43711 14.8896L7.8267 15.1679L8.2163 15.3905L12.0009 9.65788L11.6113 9.43525L11.2217 9.15697ZM27.9744 24.1842L28.3639 24.4625L30.145 21.791L29.7554 21.5127L29.3658 21.2901L27.5848 23.9616L27.9744 24.1842ZM32.2599 23.1824L30.4789 25.8539L30.8685 26.1322L31.2581 26.3548L33.0391 23.6833L32.6495 23.4607L32.2599 23.1824ZM29.811 25.4087L31.592 22.7372L31.2024 22.4589L30.8128 22.2362L29.0318 24.9078L29.4214 25.1304L29.811 25.4087ZM27.7517 24.5738L27.3621 24.3512L25.5811 27.0227L25.9707 27.2453L26.3603 27.5236L28.1413 24.8521L27.7517 24.5738ZM29.1431 25.52L28.8092 25.2974L27.0282 27.9689L27.3621 28.1915L27.7517 28.4698L29.5327 25.7983L29.1431 25.52ZM30.2006 26.2435L28.4196 28.915L28.8092 29.1933L29.1988 29.4159L30.9798 26.7444L30.5902 26.4661L30.2006 26.2435ZM4.93256 23.4607L4.54297 23.6833L8.38327 29.4159L8.77286 29.1933L9.16246 28.915L5.32216 23.1824L4.93256 23.4607ZM8.43892 25.52L8.04933 25.7983L9.83034 28.4698L10.2199 28.1915L10.5539 27.9689L8.77286 25.2974L8.43892 25.52ZM7.8267 21.5127L7.43711 21.791L11.2217 27.5236L11.6113 27.2453L12.0009 27.0227L8.2163 21.2901L7.8267 21.5127ZM5.99004 22.7372L7.77105 25.4087L8.16064 25.1304L8.55024 24.9078L6.76923 22.2362L6.37963 22.4589L5.99004 22.7372ZM30.5902 10.2144L30.9798 9.93616L29.1988 7.26465L28.8092 7.48727L28.4196 7.76556L30.2006 10.4371L30.5902 10.2144ZM27.7517 12.1068L28.1413 11.8285L26.3603 9.15697L25.9707 9.43525L25.5811 9.65788L27.3621 12.3294L27.7517 12.1068ZM30.4789 10.8267L32.2599 13.4982L32.6495 13.2199L33.0391 12.9973L31.2581 10.3258L30.8685 10.5484L30.4789 10.8267ZM31.2024 14.2217L31.592 13.9434L27.7517 8.21081L27.3621 8.48909L27.0282 8.71172L30.8128 14.4443L31.2024 14.2217ZM29.7554 15.1679L30.145 14.8896L28.3639 12.2181L27.9744 12.4964L27.5848 12.719L29.3658 15.3905L29.7554 15.1679Z" fill="#3E4347"/>
</g>
</svg>
