<svg width="37" height="37" viewBox="0 0 37 37" fill="none" xmlns="http://www.w3.org/2000/svg">
<g id="emojione:flag-for-france">
<path id="Vector" d="M2.03516 18.3401C2.03516 25.6311 6.7103 31.809 13.1665 34.0909V2.58936C6.7103 4.87127 2.03516 11.0491 2.03516 18.3401Z" fill="#428BC1"/>
<path id="Vector_2" d="M35.4321 18.3401C35.4321 11.0491 30.8126 4.87127 24.3008 2.58936V34.0909C30.8126 31.809 35.4321 25.6311 35.4321 18.3401Z" fill="#ED4C5C"/>
<path id="Vector_3" d="M13.168 34.0908C14.8933 34.703 16.7856 35.037 18.7336 35.037C20.6816 35.037 22.5739 34.703 24.2993 34.0908V2.58923C22.5739 1.97701 20.7373 1.64307 18.7336 1.64307C16.73 1.64307 14.8933 1.97701 13.168 2.58923V34.0908Z" fill="white"/>
</g>
</svg>
