<svg width="37" height="37" viewBox="0 0 37 37" fill="none" xmlns="http://www.w3.org/2000/svg">
<g id="emojione:flag-for-germany">
<path id="Vector" d="M18.7352 2.02295C11.4442 2.02295 5.26629 6.69809 2.98438 13.1542H34.4859C32.204 6.69809 26.0262 2.02295 18.7352 2.02295Z" fill="#3E4347"/>
<path id="Vector_2" d="M18.7352 35.4169C26.0262 35.4169 32.204 30.7975 34.4859 24.2856H2.98438C5.26629 30.7975 11.4442 35.4169 18.7352 35.4169Z" fill="#FFE62E"/>
<path id="Vector_3" d="M2.98132 13.1543C2.3691 14.8796 2.03516 16.772 2.03516 18.7199C2.03516 20.6679 2.3691 22.5602 2.98132 24.2856H34.4829C35.0951 22.5602 35.4291 20.6679 35.4291 18.7199C35.4291 16.772 35.0951 14.8796 34.4829 13.1543H2.98132Z" fill="#ED4C5C"/>
</g>
</svg>
