<svg width="37" height="37" viewBox="0 0 37 37" fill="none" xmlns="http://www.w3.org/2000/svg">
<g id="emojione:flag-for-italy">
<path id="Vector" d="M1.92578 18.5804C1.92578 25.8714 6.60093 32.0492 13.0571 34.3312V2.82959C6.60093 5.11151 1.92578 11.2894 1.92578 18.5804Z" fill="#75A843"/>
<path id="Vector_2" d="M35.3188 18.5804C35.3188 11.2894 30.6437 5.11151 24.1875 2.82959V34.3312C30.6993 32.0492 35.3188 25.8714 35.3188 18.5804Z" fill="#ED4C5C"/>
<path id="Vector_3" d="M13.0547 34.331C14.78 34.9433 16.6724 35.2772 18.6203 35.2772C20.5683 35.2772 22.4606 34.9433 24.186 34.331V2.82946C22.4606 2.21724 20.5683 1.8833 18.6203 1.8833C16.6724 1.8833 14.78 2.21724 13.0547 2.82946V34.331Z" fill="white"/>
</g>
</svg>
