<svg width="37" height="36" viewBox="0 0 37 36" fill="none" xmlns="http://www.w3.org/2000/svg">
<g id="emojione:flag-for-spain">
<path id="Vector" d="M2.09375 17.9602C2.09375 21.2439 3.03991 24.3051 4.65395 26.8653H32.8718C34.4858 24.3051 35.432 21.2439 35.432 17.9602C35.432 14.6765 34.4858 11.6154 32.8718 9.05518H4.65395C3.03991 11.6154 2.09375 14.6765 2.09375 17.9602Z" fill="#FFCE31"/>
<path id="Vector_2" d="M32.9258 9.05509C29.976 4.37995 24.7443 1.26318 18.7891 1.26318C12.8338 1.26318 7.60214 4.37995 4.65234 9.05509H32.9258ZM4.65234 26.8652C7.60214 31.5403 12.8338 34.6571 18.7891 34.6571C24.7443 34.6571 29.976 31.5403 32.9258 26.8652H4.65234Z" fill="#ED4C5C"/>
<path id="Vector_3" d="M6.09766 16.1235H7.87866V17.1254H6.09766V16.1235ZM6.09766 23.4702H7.93432V24.4164H6.09766V23.4702Z" fill="#C8B100"/>
<path id="Vector_4" d="M5.93063 21.9121C5.76366 22.0234 5.65234 22.1347 5.65234 22.1904C5.65234 22.246 5.708 22.3017 5.81931 22.3574C5.93063 22.413 6.04194 22.5243 5.98628 22.6356C6.0976 22.5243 6.15325 22.413 6.15325 22.3017C6.15325 22.1347 6.04194 21.9678 5.93063 21.9121Z" fill="#ED4C5C"/>
<path id="Vector_5" d="M6.37891 17.1255H7.65901V23.4703H6.37891V17.1255Z" fill="white"/>
<g id="Group">
<path id="Vector_6" d="M8.99495 19.4628C8.71666 19.3514 8.21576 19.2401 7.65919 19.2401C7.49222 19.2401 7.26959 19.2401 7.04697 19.2958C6.26778 19.4071 5.65556 19.741 5.71121 19.9637L5.43293 19.3514C5.37727 19.0732 6.04515 18.7392 6.88 18.5723C7.15828 18.5166 7.43656 18.5166 7.65919 18.5166C8.21576 18.5166 8.71666 18.5723 8.99495 18.6836V19.4628Z" fill="#ED4C5C"/>
<path id="Vector_7" d="M6.37785 20.2973C6.04391 20.2973 5.76562 20.186 5.76562 20.019C5.76562 19.9077 5.87694 19.7407 6.09956 19.6294H6.4335L6.37785 20.2973ZM7.65795 19.7964C7.88057 19.852 8.04754 19.9077 8.15885 19.9633C8.21451 20.019 7.99188 20.2416 7.65795 20.4086V19.7964Z" fill="#ED4C5C"/>
<path id="Vector_8" d="M5.54436 21.5223C5.48871 21.4109 5.8783 21.1883 6.37921 21.0213C6.60184 20.9657 6.76881 20.8544 7.04709 20.7431C7.71497 20.4648 8.27153 20.0752 8.16022 19.9639L8.27153 20.6317C8.32719 20.7431 7.88194 21.077 7.21406 21.4109C6.99143 21.5223 6.60184 21.6892 6.37921 21.7449C5.98962 21.8562 5.65568 22.0788 5.65568 22.1345L5.54436 21.5223Z" fill="#ED4C5C"/>
</g>
<path id="Vector_9" d="M18.0674 16.1235H19.8484V17.1254H18.0674V16.1235ZM18.0117 23.4702H19.8484V24.4164H18.0117V23.4702Z" fill="#C8B100"/>
<path id="Vector_10" d="M20.0156 21.9121C20.1826 22.0234 20.2939 22.1347 20.2939 22.1904C20.2939 22.246 20.2382 22.3017 20.1269 22.3574C20.0156 22.4687 19.9043 22.6356 19.9599 22.6913C19.8486 22.58 19.793 22.4687 19.793 22.3574C19.793 22.1347 19.9043 21.9678 20.0156 21.9121Z" fill="#ED4C5C"/>
<path id="Vector_11" d="M18.2891 17.1255H19.5692V23.4703H18.2891V17.1255Z" fill="white"/>
<g id="Group_2">
<path id="Vector_12" d="M16.9531 19.4633C17.2314 19.3519 17.7323 19.2406 18.2889 19.2406C18.4558 19.2406 18.6785 19.2406 18.9011 19.2963C19.6803 19.4076 20.2925 19.7415 20.2369 19.9642L20.5151 19.2963C20.5708 19.018 19.9029 18.6841 19.0681 18.5171H18.2889C17.7323 18.5171 17.2314 18.5727 16.9531 18.6841V19.4633Z" fill="#ED4C5C"/>
<path id="Vector_13" d="M19.5669 20.2978C19.9008 20.2978 20.1791 20.1864 20.1791 20.0195C20.1791 19.9082 20.0678 19.7412 19.8452 19.6299H19.5112L19.5669 20.2978ZM18.2868 19.7969C18.0641 19.8525 17.8972 19.9082 17.7859 19.9638C17.7302 20.0195 17.9528 20.2421 18.2868 20.4091V19.7969Z" fill="#ED4C5C"/>
<path id="Vector_14" d="M20.4027 21.5222C20.4584 21.4109 20.0688 21.1883 19.5679 21.0213C19.3453 20.9657 19.1783 20.8543 18.9 20.743C18.2321 20.4647 17.6756 20.0751 17.7869 19.9638L17.6756 20.6317C17.6199 20.743 18.0652 21.077 18.733 21.4109C18.9557 21.5222 19.3453 21.6892 19.5679 21.7448C19.9575 21.8562 20.2914 22.1344 20.2358 22.1901L20.4027 21.5222ZM12.9448 12.5615C14.0022 12.5615 16.1728 12.7842 16.952 13.5633C16.1172 15.567 14.7814 14.7321 12.9448 14.7321C11.1638 14.7321 9.77235 15.567 8.9375 13.5633C9.71669 12.7842 11.8316 12.5615 12.9448 12.5615Z" fill="#ED4C5C"/>
</g>
<path id="Vector_15" d="M15.6736 14.7881C15.0057 14.3985 14.0039 14.3429 12.9464 14.3429C11.889 14.3429 10.8872 14.4542 10.2193 14.7881L10.4419 15.7343C11.0541 15.9013 11.9446 16.0126 12.9464 16.0126C13.9483 16.0126 14.7831 15.9013 15.451 15.7343L15.6736 14.7881ZM16.6198 12.3949C16.3972 12.2279 15.9519 12.061 15.5623 12.061C15.3953 12.061 15.2284 12.061 15.0614 12.1166C15.0614 12.1166 14.7275 11.6714 13.9483 11.6714C13.67 11.6714 13.4474 11.727 13.2247 11.8383V11.7827C13.1691 11.6714 13.0578 11.5601 12.9464 11.5601C12.8351 11.5601 12.6682 11.727 12.6682 11.8383V11.894C12.4455 11.7827 12.2229 11.727 11.9446 11.727C11.1654 11.727 10.8315 12.2279 10.8315 12.1723C10.6645 12.1166 10.4976 12.1166 10.3306 12.1166C7.77039 12.1166 9.05049 13.842 9.05049 13.842L9.32878 13.508C8.71655 12.7288 9.27312 12.2836 10.3862 12.2836C10.5532 12.2836 10.6645 12.2836 10.7758 12.3392C10.3862 12.8958 11.1098 13.3967 11.1098 13.3967L11.2768 13.1184C10.8872 12.8402 10.8315 11.894 11.9446 11.894C12.2229 11.894 12.4455 11.9497 12.6682 12.1166C12.6682 12.1723 12.6125 12.9515 12.5569 13.0628L13.0021 13.4524L13.4474 13.0628C13.3917 12.8958 13.336 12.1723 13.336 12.1166C13.503 12.0053 13.7813 11.894 14.0596 11.894C15.2284 11.894 15.2284 12.8402 14.7275 13.1184L14.8944 13.3967C14.8944 13.3967 15.5066 12.8958 15.2284 12.3392C15.3397 12.3392 15.5066 12.2836 15.618 12.2836C16.9537 12.2836 17.0094 13.2854 16.6754 13.508L16.8981 13.842C16.7867 13.842 17.399 13.0628 16.6198 12.3949Z" fill="#C8B100"/>
<path id="Vector_16" d="M12.6094 11.3369C12.6094 11.1699 12.7763 11.0029 12.9433 11.0029C13.1659 11.0029 13.2773 11.1699 13.2773 11.3369C13.2773 11.5038 13.1103 11.6708 12.9433 11.6708C12.7763 11.6708 12.6094 11.5038 12.6094 11.3369Z" fill="#005BBF"/>
<path id="Vector_17" d="M12.832 10.3911V10.5581H12.665V10.7251H12.832V11.2816H12.6094V11.4486H13.2773L13.3329 11.3373L13.2773 11.2816H13.0546V10.7251H13.2216V10.5581H13.0546V10.3911H12.832Z" fill="#C8B100"/>
<path id="Vector_18" d="M12.946 15.9008C12.0555 15.9008 11.2763 15.7895 10.6641 15.6225C11.2763 15.4556 12.0555 15.3442 12.946 15.3442C13.8365 15.3442 14.6157 15.4556 15.2279 15.6225C14.6713 15.7895 13.8365 15.9008 12.946 15.9008Z" fill="#ED4C5C"/>
<path id="Vector_19" d="M12.9995 25.5295C11.942 25.5295 10.9402 25.2512 10.0497 24.8616C9.38178 24.5277 8.99219 23.9154 8.99219 23.1919V20.5204H17.0067V23.1919C17.0067 23.9154 16.5615 24.5833 15.9492 24.8616C15.0587 25.3068 14.0569 25.5295 12.9995 25.5295ZM12.9438 16.0679H16.9511V20.5204H12.9438V16.0679Z" fill="white"/>
<path id="Vector_20" d="M12.9995 23.192C12.9995 24.2495 12.109 25.0843 10.9958 25.0843C9.88269 25.0843 8.99219 24.2495 8.99219 23.192V20.5205H12.9995V23.192Z" fill="#ED4C5C"/>
<path id="Vector_21" d="M9.828 24.7504C9.93932 24.806 10.1063 24.9174 10.3289 24.973V20.4092H9.88366L9.828 24.7504ZM8.9375 23.1363C8.9375 23.6929 9.16013 24.1382 9.38275 24.3608V20.4092H8.9375V23.1363Z" fill="#C8B100"/>
<path id="Vector_22" d="M10.7188 25.0843H11.164V20.4092H10.7188V25.0843Z" fill="#C7B500"/>
<path id="Vector_23" d="M11.6094 24.973C11.7763 24.9174 11.999 24.806 12.1103 24.7504V20.4092H11.665L11.6094 24.973Z" fill="#C8B100"/>
<path id="Vector_24" d="M8.9375 16.0679H12.9448V20.5204H8.9375V16.0679Z" fill="#ED4C5C"/>
<path id="Vector_25" d="M12.5547 24.3608C12.7773 24.1938 12.9443 23.8042 12.9999 23.359V20.4648H12.5547V24.3608Z" fill="#C8B100"/>
<path id="Vector_26" d="M17.0092 20.5204V23.1919C17.0092 24.2494 16.1187 25.0843 15.0056 25.0843C13.8924 25.0843 13.0019 24.2494 13.0019 23.1919V20.5204H17.0092ZM15.5621 16.8471C15.7291 17.181 15.7291 18.0159 15.2282 17.8489C15.3395 17.9046 15.3952 18.2942 15.5621 18.5168C15.8404 18.8507 16.1744 18.5724 16.1187 18.1828C16.0074 17.5706 16.063 17.181 16.1744 16.5688C16.1744 16.6245 16.4526 16.6245 16.564 16.5132C16.5083 16.6801 16.4526 16.9027 16.564 16.9027C16.4526 17.0697 16.1744 17.348 16.1187 17.515C16.063 17.9046 16.6753 18.6281 16.0074 18.7951C15.5621 18.9064 15.8404 19.2403 16.0074 19.4073C16.0074 19.4073 15.7848 20.1308 15.8961 20.0752C15.4508 20.2421 15.5621 19.8525 15.5621 19.8525C15.7848 19.1847 15.1725 19.129 15.2282 19.0177C14.6716 18.962 15.2839 19.5186 14.7829 19.5186C14.6716 19.5186 14.449 19.6299 14.449 19.6299C13.8368 19.5743 14.1707 19.0177 14.3934 19.0734C14.5603 19.129 14.7273 19.4073 14.7273 19.0177C14.7273 19.0177 14.449 18.5724 15.1725 18.5724C14.8943 18.5724 14.7273 18.3498 14.616 18.0715C14.5047 18.1272 14.3377 18.4055 13.7255 18.4611C13.7255 18.4611 13.5585 17.8489 13.7255 17.9602C13.9481 18.0715 14.0594 18.0715 14.282 17.8489C14.1707 17.6819 13.5028 17.4593 13.6142 17.0697C13.6142 16.9584 13.9481 16.7914 13.9481 16.7914C13.8924 17.0697 14.0594 17.348 14.3934 17.348C14.8386 17.4037 14.6716 17.2367 14.7273 17.1254C14.7829 17.0141 15.1169 17.181 15.0056 16.9027C15.0056 16.8471 14.616 16.7914 14.7273 16.6245C14.9499 16.3462 15.2839 16.5688 15.5621 16.8471ZM13.0019 24.9729L12.8906 24.6947L13.0019 24.3607L13.1133 24.6947L13.0019 24.9729Z" fill="#ED4C5C"/>
<path id="Vector_27" d="M10.1621 17.0146V17.2929H10.2734V17.5155H9.9951V18.0721H10.1621V19.2965H9.82812V19.9087H12.11V19.2965H11.8318V18.0721H11.9431V17.5155H11.6648V17.2929H11.8318V17.0146H11.2752V17.2929H11.3865V17.5155H11.1082V16.8476H11.2752V16.5693H10.663V16.8476H10.8299V17.5155H10.5517V17.2929H10.663V17.0146H10.1621ZM16.4512 23.8603V21.0775H13.5571V23.8603L14.8929 24.4726H15.0598L16.4512 23.8603ZM14.8929 21.3001V22.2463L13.9467 21.3001H14.8929ZM13.7241 21.3558L14.8372 22.4689L13.7241 23.5821V21.3558ZM13.8354 23.8047L14.8929 22.7472V24.3056L13.8354 23.8047ZM15.0598 24.2499V22.6916L16.1173 23.749L15.0598 24.2499ZM16.2286 23.5821L15.1155 22.4689L16.2286 21.3558V23.5821ZM15.0598 21.3001H16.006L15.0598 22.2463V21.3001Z" fill="#C8B100"/>
<path id="Vector_28" d="M11.6641 20.4651C11.6641 19.6303 12.2206 19.0181 12.9442 19.0181C13.6677 19.0181 14.2243 19.6859 14.2243 20.4651C14.2243 21.2443 13.6677 21.9122 12.9442 21.9122C12.2206 21.9122 11.6641 21.3 11.6641 20.4651Z" fill="#ED4C5C"/>
<path id="Vector_29" d="M12.0547 20.4647C12.0547 19.8525 12.4443 19.4072 12.9452 19.4072C13.4461 19.4072 13.8357 19.9081 13.8357 20.4647C13.8357 21.0769 13.4461 21.5222 12.9452 21.5222C12.4999 21.5778 12.0547 21.0769 12.0547 20.4647Z" fill="#005BBF"/>
<path id="Vector_30" d="M12.5547 19.7412L12.332 20.3534L12.499 20.4091L12.3877 20.6317H12.7216L12.6103 20.4091L12.7773 20.3534L12.5547 19.7412ZM13.3895 19.7412L13.1669 20.3534L13.3338 20.4091L13.2225 20.6317H13.5565L13.5008 20.4091L13.6678 20.3534L13.3895 19.7412ZM12.9999 20.4647L12.7216 21.077L12.8886 21.1326L12.8329 21.3552H13.1112L13.0556 21.1326L13.2225 21.077L12.9999 20.4647Z" fill="#C8B100"/>
</g>
</svg>
