<svg width="24" height="23" viewBox="0 0 24 23" fill="none" xmlns="http://www.w3.org/2000/svg">
<path d="M12.085 22.9706V11.0218M12.085 11.7686V16.2494M12.085 11.7686C12.085 10.1841 11.4556 8.66452 10.3352 7.54411C9.21477 6.4237 7.69516 5.79425 6.11066 5.79425H1.62988V10.275C1.62988 11.8595 2.25932 13.3791 3.37974 14.4996C4.50015 15.62 6.01975 16.2494 7.60425 16.2494H12.085M12.085 11.7686H16.5658C18.1503 11.7686 19.6699 11.1392 20.7903 10.0188C21.9107 8.89836 22.5402 7.37876 22.5402 5.79425V1.31348H18.0594C16.4749 1.31348 14.9553 1.94292 13.8349 3.06333C12.7145 4.18374 12.085 5.70335 12.085 7.28785V11.7686ZM12.085 11.7686L18.0594 5.79425M12.085 16.2494L6.11066 10.275" stroke="#283E5B" stroke-width="1.49359"/>
</svg>
