<svg width="21" height="22" viewBox="0 0 21 22" fill="none" xmlns="http://www.w3.org/2000/svg">
<g clip-path="url(#clip0_607_85009)">
<path d="M1.3125 2.17969V19.8984C1.3125 20.0725 1.38164 20.2394 1.50471 20.3625C1.62778 20.4855 1.7947 20.5547 1.96875 20.5547H19.6875" stroke="#283E5B" stroke-width="1.3125" stroke-linecap="round" stroke-linejoin="round"/>
<path d="M6.39844 10.0547H4.75781C4.30477 10.0547 3.9375 10.422 3.9375 10.875V17.1094C3.9375 17.5624 4.30477 17.9297 4.75781 17.9297H6.39844C6.85148 17.9297 7.21875 17.5624 7.21875 17.1094V10.875C7.21875 10.422 6.85148 10.0547 6.39844 10.0547Z" stroke="#283E5B" stroke-width="1.3125" stroke-linecap="round" stroke-linejoin="round"/>
<path d="M12.3047 8.08594H10.6641C10.211 8.08594 9.84375 8.4532 9.84375 8.90625V17.1094C9.84375 17.5624 10.211 17.9297 10.6641 17.9297H12.3047C12.7577 17.9297 13.125 17.5624 13.125 17.1094V8.90625C13.125 8.4532 12.7577 8.08594 12.3047 8.08594Z" stroke="#283E5B" stroke-width="1.3125" stroke-linecap="round" stroke-linejoin="round"/>
<path d="M18.1963 5.46094H16.5557C16.1026 5.46094 15.7354 5.8282 15.7354 6.28125V17.1094C15.7354 17.5624 16.1026 17.9297 16.5557 17.9297H18.1963C18.6493 17.9297 19.0166 17.5624 19.0166 17.1094V6.28125C19.0166 5.8282 18.6493 5.46094 18.1963 5.46094Z" stroke="#283E5B" stroke-width="1.3125" stroke-linecap="round" stroke-linejoin="round"/>
</g>
<defs>
<clipPath id="clip0_607_85009">
<rect width="21" height="21" fill="white" transform="translate(0 0.867188)"/>
</clipPath>
</defs>
</svg>
