<svg width="139" height="24" viewBox="0 0 139 24" fill="none" xmlns="http://www.w3.org/2000/svg">
<path d="M12.1706 0.179688L14.7338 8.06841L23.0285 8.06841L16.3179 12.9439L18.8811 20.8326L12.1706 15.9571L5.46002 20.8326L8.02323 12.9439L1.31268 8.06841L9.60737 8.06841L12.1706 0.179688Z" fill="url(#paint0_linear_742_7162)"/>
<path d="M41.0046 0.179688L43.5678 8.06841L51.8625 8.06841L45.1519 12.9439L47.7151 20.8326L41.0046 15.9571L34.294 20.8326L36.8572 12.9439L30.1467 8.06841L38.4414 8.06841L41.0046 0.179688Z" fill="url(#paint1_linear_742_7162)"/>
<path d="M69.8366 0.179688L72.3998 8.06841L80.6945 8.06841L73.9839 12.9439L76.5471 20.8326L69.8366 15.9571L63.126 20.8326L65.6892 12.9439L58.9787 8.06841L67.2734 8.06841L69.8366 0.179688Z" fill="url(#paint2_linear_742_7162)"/>
<path d="M98.6706 0.179688L101.234 8.06841L109.528 8.06841L102.818 12.9439L105.381 20.8326L98.6706 15.9571L91.96 20.8326L94.5232 12.9439L87.8127 8.06841L96.1074 8.06841L98.6706 0.179688Z" fill="url(#paint3_linear_742_7162)"/>
<path d="M127.505 0.179688L130.068 8.06841L138.362 8.06841L131.652 12.9439L134.215 20.8326L127.505 15.9571L120.794 20.8326L123.357 12.9439L116.647 8.06841L124.941 8.06841L127.505 0.179688Z" fill="url(#paint4_linear_742_7162)"/>
<defs>
<linearGradient id="paint0_linear_742_7162" x1="0.753906" y1="11.5964" x2="23.5872" y2="11.5964" gradientUnits="userSpaceOnUse">
<stop stop-color="#AE8625"/>
<stop offset="0.2971" stop-color="#F7EF8A"/>
<stop offset="0.736" stop-color="#D2AC47"/>
<stop offset="1" stop-color="#EDC967"/>
</linearGradient>
<linearGradient id="paint1_linear_742_7162" x1="29.5879" y1="11.5964" x2="52.4212" y2="11.5964" gradientUnits="userSpaceOnUse">
<stop stop-color="#AE8625"/>
<stop offset="0.2971" stop-color="#F7EF8A"/>
<stop offset="0.736" stop-color="#D2AC47"/>
<stop offset="1" stop-color="#EDC967"/>
</linearGradient>
<linearGradient id="paint2_linear_742_7162" x1="58.4199" y1="11.5964" x2="81.2533" y2="11.5964" gradientUnits="userSpaceOnUse">
<stop stop-color="#AE8625"/>
<stop offset="0.2971" stop-color="#F7EF8A"/>
<stop offset="0.736" stop-color="#D2AC47"/>
<stop offset="1" stop-color="#EDC967"/>
</linearGradient>
<linearGradient id="paint3_linear_742_7162" x1="87.2539" y1="11.5964" x2="110.087" y2="11.5964" gradientUnits="userSpaceOnUse">
<stop stop-color="#AE8625"/>
<stop offset="0.2971" stop-color="#F7EF8A"/>
<stop offset="0.736" stop-color="#D2AC47"/>
<stop offset="1" stop-color="#EDC967"/>
</linearGradient>
<linearGradient id="paint4_linear_742_7162" x1="116.088" y1="11.5964" x2="138.921" y2="11.5964" gradientUnits="userSpaceOnUse">
<stop stop-color="#AE8625"/>
<stop offset="0.2971" stop-color="#F7EF8A"/>
<stop offset="0.736" stop-color="#D2AC47"/>
<stop offset="1" stop-color="#EDC967"/>
</linearGradient>
</defs>
</svg>
