<svg width="31" height="31" viewBox="0 0 31 31" fill="none" xmlns="http://www.w3.org/2000/svg">
<g clip-path="url(#clip0_602_85275)">
<path d="M9.72846 9.05273H6.23916C6.04086 9.05273 5.85068 9.13151 5.71045 9.27173C5.57023 9.41196 5.49146 9.60214 5.49146 9.80044V20.7668C5.49146 20.865 5.5108 20.9622 5.54837 21.053C5.58595 21.1437 5.64102 21.2261 5.71045 21.2955C5.77988 21.365 5.86231 21.42 5.95303 21.4576C6.04374 21.4952 6.14097 21.5145 6.23916 21.5145H9.72846C9.82665 21.5145 9.92388 21.4952 10.0146 21.4576C10.1053 21.42 10.1877 21.365 10.2572 21.2955C10.3266 21.2261 10.3817 21.1437 10.4193 21.053C10.4568 20.9622 10.4762 20.865 10.4762 20.7668V9.80044C10.4762 9.60214 10.3974 9.41196 10.2572 9.27173C10.117 9.13151 9.92677 9.05273 9.72846 9.05273V9.05273ZM24.6826 9.05273H21.1933C20.995 9.05273 20.8048 9.13151 20.6646 9.27173C20.5244 9.41196 20.4456 9.60214 20.4456 9.80044V20.7668C20.4456 20.865 20.4649 20.9622 20.5025 21.053C20.5401 21.1437 20.5952 21.2261 20.6646 21.2955C20.734 21.365 20.8165 21.42 20.9072 21.4576C20.9979 21.4952 21.0951 21.5145 21.1933 21.5145H24.6826C24.7808 21.5145 24.878 21.4952 24.9687 21.4576C25.0595 21.42 25.1419 21.365 25.2113 21.2955C25.2808 21.2261 25.3358 21.1437 25.3734 21.053C25.411 20.9622 25.4303 20.865 25.4303 20.7668V9.80044C25.4303 9.60214 25.3515 9.41196 25.2113 9.27173C25.0711 9.13151 24.8809 9.05273 24.6826 9.05273V9.05273Z" stroke="#283E5B" stroke-width="1.77937" stroke-linecap="round" stroke-linejoin="round"/>
<path d="M10.4759 15.2835H20.4454M1.75269 18.2743V12.2926C1.75269 12.0943 1.83146 11.9041 1.97168 11.7639C2.11191 11.6237 2.30209 11.5449 2.50039 11.5449H4.74351C4.94182 11.5449 5.132 11.6237 5.27222 11.7639C5.41245 11.9041 5.49122 12.0943 5.49122 12.2926V18.2743C5.49122 18.4726 5.41245 18.6628 5.27222 18.803C5.132 18.9432 4.94182 19.022 4.74351 19.022H2.50039C2.30209 19.022 2.11191 18.9432 1.97168 18.803C1.83146 18.6628 1.75269 18.4726 1.75269 18.2743V18.2743ZM29.1686 18.2743V12.2926C29.1686 12.0943 29.0898 11.9041 28.9496 11.7639C28.8094 11.6237 28.6192 11.5449 28.4209 11.5449H26.1778C25.9795 11.5449 25.7893 11.6237 25.6491 11.7639C25.5089 11.9041 25.4301 12.0943 25.4301 12.2926V18.2743C25.4301 18.4726 25.5089 18.6628 25.6491 18.803C25.7893 18.9432 25.9795 19.022 26.1778 19.022H28.4209C28.6192 19.022 28.8094 18.9432 28.9496 18.803C29.0898 18.6628 29.1686 18.4726 29.1686 18.2743V18.2743Z" stroke="#283E5B" stroke-width="1.77937" stroke-linecap="round" stroke-linejoin="round"/>
</g>
<defs>
<clipPath id="clip0_602_85275">
<rect width="29.9083" height="29.9083" fill="white" transform="translate(0.506104 0.329102)"/>
</clipPath>
</defs>
</svg>
