<svg width="38" height="38" viewBox="0 0 38 38" fill="none" xmlns="http://www.w3.org/2000/svg">
<g id="Group 1410116204">
<g id="Vector" filter="url(#filter0_d_802_8)">
<path d="M4.37681 20.3327C4.50266 20.4058 4.59764 20.5243 4.6429 20.6647C4.95924 21.1898 5.21426 21.7634 5.48378 22.3115C5.75329 22.8597 5.99577 23.4257 6.22571 23.9841C6.28253 24.1212 6.3466 24.2455 6.41068 24.3698C6.47475 24.4942 6.50248 24.5195 6.61857 24.4784L6.64326 24.9384C6.64669 25.1545 6.66002 25.368 6.66081 25.5739C6.66159 25.7797 6.69519 25.7059 6.78954 25.703L7.0277 25.6844C7.11675 25.6612 7.13125 25.6358 7.13712 25.5366C7.143 25.4374 7.12301 25.1172 7.11958 24.9012C7.11615 24.6851 7.1135 24.675 7.1042 24.5581L7.08097 24.3472C7.1522 24.2961 7.14358 24.2224 7.11252 24.1437C7.08146 24.065 6.97967 23.7552 6.92941 23.5622C6.83153 23.1864 6.70662 22.8284 6.57906 22.4602C6.53478 22.3307 6.50039 22.1987 6.45875 22.0794C6.3596 21.7798 6.25056 21.4827 6.15141 21.1831C6.13623 21.1654 6.13819 21.1323 6.13025 21.1018L6.32423 21.1164C6.34859 21.1209 6.37359 21.117 6.3954 21.1054C6.41721 21.0939 6.43461 21.0753 6.44493 21.0525L6.52859 20.8463C6.63542 20.3581 6.70395 19.8614 6.73352 19.361L6.75761 18.8449L6.76878 18.7661C6.89222 18.875 7.91101 20.15 8.10185 20.4366L8.00761 20.6021C7.61788 21.2891 7.40633 22.0682 7.39279 22.8666C7.38956 22.976 7.39622 23.0827 7.40288 23.1894C7.40955 23.2962 7.43923 23.2884 7.44981 23.3291L7.59432 23.3565L7.93681 23.4951C8.07633 23.9903 8.30225 24.4522 8.51102 24.9294C8.7198 25.4065 8.9999 25.9953 9.25158 26.5155C9.36983 26.7667 9.50787 27.0128 9.63602 27.2615C9.64539 27.275 9.65153 27.2906 9.65395 27.3069C9.65637 27.3233 9.65499 27.3399 9.64993 27.3555C9.60984 27.6634 9.55165 27.9684 9.47566 28.2687C9.42628 28.4442 9.45401 28.4696 9.63084 28.4994L9.6955 28.5043C9.82746 28.5242 9.87429 28.5011 9.92435 28.3688C10.0039 28.1588 10.0531 27.9377 10.0704 27.7124L10.0928 27.5548C10.0974 27.5319 10.1119 27.5064 10.1066 27.4861C10.1013 27.4658 10.1024 27.2268 10.078 27.0922C10.0535 26.9575 10.0098 26.7086 9.9595 26.5156C9.90924 26.3225 9.83449 25.9949 9.76571 25.7308C9.69693 25.4666 9.6163 25.2381 9.55282 24.9943C9.44701 24.588 9.35373 24.1892 9.24792 23.7829C9.25206 23.7724 9.25275 23.7608 9.24988 23.7498L9.50519 23.7159C9.52328 23.7118 9.5399 23.7028 9.55326 23.6898C9.56661 23.6768 9.57621 23.6602 9.58101 23.6419C9.64273 23.2796 9.64606 22.9087 9.5909 22.5438C9.55974 22.3024 9.489 22.0713 9.4506 21.8427L9.42414 21.7411C10.1732 22.1426 10.9216 22.501 11.6772 22.8466C11.6331 23.0425 11.6016 23.2459 11.5602 23.452C11.5264 23.6291 11.5168 23.8105 11.5315 23.991C11.5318 24.0094 11.5361 24.0277 11.5441 24.0443C11.5521 24.061 11.5636 24.0757 11.5777 24.0874C11.5804 24.0976 11.5929 24.1051 11.5955 24.1153C11.676 24.1538 11.7479 24.209 11.8068 24.2773C11.8573 24.3526 11.9025 24.4314 11.9422 24.5132C12.2228 24.9825 12.4692 25.4824 12.713 25.9721C12.9567 26.4619 13.1549 26.8984 13.3683 27.3527L13.7284 28.1267C13.7951 28.2612 13.805 28.2586 13.9488 28.2429C13.9535 28.3826 13.9555 28.5123 13.9701 28.6495C13.9847 28.7867 13.9922 29.0993 14.0108 29.3331C14.0294 29.5669 14.0452 29.4652 14.1395 29.4623L14.3427 29.4311C14.4641 29.4104 14.4786 29.3849 14.4719 29.2781C14.4653 29.1714 14.4605 28.8689 14.4498 28.6656C14.4391 28.4623 14.4146 28.3277 14.402 28.1574L14.3888 28.1066C14.4771 28.0402 14.456 27.9589 14.4196 27.8599C14.3631 27.7237 14.3161 27.5837 14.2788 27.441C14.1446 26.9661 13.9734 26.5117 13.8122 26.0547C13.6509 25.5977 13.5472 25.321 13.4097 24.9554L13.3886 24.8742C13.5027 24.8661 13.6274 24.8988 13.7336 24.8603C13.8398 24.8218 13.7177 24.7993 13.7322 24.7738C13.8008 24.5652 13.8473 24.3495 13.871 24.1302C13.9384 23.6327 13.9736 23.1307 13.9763 22.6276L13.9796 22.5182C14.0951 22.5966 15.2347 23.9704 15.3469 24.1581L15.2376 24.4686L15.1962 24.6747C15.1905 24.707 15.1927 24.7405 15.2028 24.7719C15.2128 24.8034 15.2303 24.8319 15.2537 24.8549C15.2662 24.8625 15.2788 24.8701 15.2814 24.8803C15.3555 25.1647 15.5258 25.4132 15.6467 25.6746C15.8529 26.1416 16.0616 26.6188 16.2579 27.0884C16.4541 27.5579 16.5737 27.8956 16.7218 28.3018C16.7309 28.3345 16.7467 28.365 16.7681 28.3912C16.7895 28.4174 16.816 28.4388 16.8459 28.4539C16.8177 28.7107 16.802 28.9751 16.7837 29.2294C16.7775 29.2508 16.7761 29.2734 16.7798 29.2955C16.7759 29.3616 16.8036 29.3869 16.8656 29.3816C16.9276 29.3763 17.0714 29.3606 17.1704 29.3348C17.1998 29.3307 17.2267 29.3158 17.246 29.2928C17.2653 29.2698 17.2757 29.2404 17.2752 29.2099C17.2731 29.0803 17.281 28.948 17.2789 28.8184C17.2769 28.6888 17.284 28.5134 17.2866 28.3608C17.2891 28.2083 17.4316 28.2688 17.3847 28.1292L17.0826 27.0906L16.7693 26.1308C16.7091 25.9404 16.6417 25.7627 16.5716 25.5748L16.5214 25.3818C16.5971 25.3791 16.673 25.3848 16.7477 25.3988C16.7919 25.405 16.8369 25.4005 16.8789 25.3858C16.9209 25.3711 16.9589 25.3465 16.9898 25.3141L17.0386 25.258C17.3847 24.8452 17.6403 24.3609 17.7885 23.8369C17.8168 23.7428 17.8326 23.641 17.8556 23.5266L17.9335 23.5822C18.0945 23.7138 18.2582 23.8556 18.4292 23.9847C18.8309 24.2916 19.2556 24.5655 19.6991 24.8038C20.0333 24.9784 20.3844 25.1161 20.7464 25.2145C20.8113 25.2388 20.8824 25.2375 20.9458 25.211C21.0093 25.1844 21.0604 25.1345 21.0893 25.0709L21.1752 25.1571L22.7172 26.5345L23.0367 26.7876L23.0805 27.1992C23.0965 27.4097 23.1434 27.6169 23.2194 27.8139C23.2835 27.9382 23.3112 27.9636 23.4577 27.958L24.3417 27.9447C24.5133 27.9543 24.6802 27.9867 24.8544 28.0065C24.935 28.032 25.0199 28.0395 25.1031 28.0285C25.1229 28.0233 25.1355 28.0309 25.1605 28.0461L25.4555 28.1645C25.7655 28.3114 26.1058 28.3758 26.4446 28.3517C26.9871 28.3271 27.5112 28.1531 27.9617 27.8482C28.1167 27.7536 28.2565 27.6412 28.4089 27.5365L28.5467 27.4572L28.9404 27.2245C29.2476 27.048 29.5693 26.8989 29.9021 26.7788C30.3638 26.6044 30.8308 26.4502 31.2978 26.2961C31.6217 26.1939 31.9276 26.0411 32.2047 25.843C32.3779 25.7323 32.5269 25.5865 32.6425 25.4144C32.934 25.0207 33.1657 24.5837 33.3299 24.1181C33.3727 23.9985 33.4029 23.8713 33.4359 23.7543C33.4447 23.7302 33.4486 23.7045 33.4474 23.6787C33.4461 23.6529 33.4397 23.6276 33.4285 23.6043C33.3927 23.5114 33.3515 23.4207 33.305 23.3328C33.2435 23.2186 33.1465 23.2113 33.0813 23.3259L32.8039 23.8429C32.7603 23.9144 32.7107 23.9817 32.6555 24.0442L32.5143 23.9075C32.4212 23.8341 32.3717 23.8469 32.3012 23.9412L32.2116 24.0839C32.1239 24.1935 32.1041 24.1987 31.9787 24.1229L31.8632 24.0445C31.7351 23.9585 31.6533 23.9689 31.5683 24.0887L31.4259 24.3536L31.2368 24.6415C31.2095 24.687 31.1674 24.7212 31.1178 24.738C31.0682 24.7549 31.0142 24.7535 30.965 24.7339C30.8857 24.7217 30.8084 24.698 30.7354 24.6636C30.6767 24.6381 30.6116 24.6339 30.5508 24.6517C30.49 24.6695 30.4373 24.7082 30.4016 24.7613L30.0746 25.1285C30.0515 25.0803 30.0759 25.0522 30.0877 25.0166L30.2826 24.3042C30.3474 24.0307 30.3879 23.7515 30.4034 23.47C30.4061 23.4104 30.4118 23.3509 30.4205 23.292C30.4244 23.2259 30.4587 23.1953 30.5128 23.1595C30.6318 23.1049 30.7605 23.0751 30.8914 23.0717C31.0416 23.0579 31.189 23.0232 31.3294 22.9685C31.4825 22.907 31.526 22.8306 31.481 22.6579L31.4307 22.4649C31.4115 22.3505 31.4405 22.2996 31.5368 22.2637L31.7835 22.1561C31.8327 22.1325 31.8754 22.097 31.908 22.0526C31.9406 22.0082 31.9621 21.9563 31.9707 21.9012C31.9891 21.707 31.9876 21.511 31.9664 21.3166C31.9565 21.2347 31.9527 21.1523 31.955 21.07C32.0112 21.0357 32.0747 21.0154 32.1404 21.0109L32.3238 20.9849C32.3425 20.9814 32.3599 20.9731 32.3745 20.9609C32.3891 20.9486 32.4004 20.9327 32.4073 20.9146C32.4142 20.8966 32.4165 20.877 32.414 20.8577C32.4115 20.8384 32.4042 20.8199 32.3929 20.8041C32.3389 20.715 32.2902 20.6226 32.247 20.5276C32.1924 20.4273 32.1085 20.3466 32.0073 20.2971C31.9763 20.28 31.9417 20.2709 31.9066 20.2706C31.8716 20.2703 31.837 20.2788 31.8061 20.2953C31.565 20.4197 31.3339 20.5633 31.115 20.7247C30.7733 20.9547 30.4496 21.2126 30.1185 21.4832C29.7875 21.7538 29.5316 21.9072 29.2395 22.1243L29.2098 22.132C29.1627 22.1703 29.1056 22.1939 29.0454 22.2C28.9852 22.206 28.9244 22.1943 28.87 22.1662C28.6507 22.0729 28.4233 22.0013 28.191 21.9525C27.7882 21.8822 27.3789 21.8648 26.9731 21.9009L26.6261 21.9479L26.7468 21.8839C26.8585 21.8319 26.9588 21.7575 27.0418 21.6651C27.1247 21.5728 27.1887 21.4642 27.23 21.3458L27.2491 21.2975C27.2412 21.267 27.2432 21.2339 27.228 21.2162L27.1587 21.2342C27.0438 21.3101 26.9149 21.3616 26.7797 21.3856C26.6444 21.4097 26.5055 21.4058 26.3711 21.3743C26.3769 21.2751 26.3828 21.1759 26.3959 21.0641C26.4901 21.045 26.5852 21.0311 26.6809 21.0224C26.8187 21.0046 26.9587 21.0084 27.0959 21.0336C27.1127 21.0458 27.1329 21.052 27.1533 21.0512C27.1929 21.0409 27.2074 21.0155 27.1896 20.9876C27.1717 20.9597 27.1691 20.9495 27.1566 20.9419C26.9907 20.778 26.7986 20.6445 26.5889 20.5474L26.3718 20.4846C26.3862 20.2964 26.2258 20.208 26.1242 20.0609L26.2779 20.0426C26.8745 19.9829 27.4405 19.7528 27.9117 19.3785L28.4366 18.9598C28.548 18.8845 28.6649 18.8178 28.7861 18.7603C29.1983 18.5736 29.6342 18.4455 30.0817 18.3796C30.3145 18.3406 30.5401 18.3144 30.7783 18.2958C30.8734 18.2881 30.9659 18.2614 31.0504 18.217C31.1349 18.1727 31.2099 18.1116 31.271 18.0373C31.5815 17.6943 31.8361 17.3021 32.025 16.8756C32.1472 16.6026 32.1997 16.3017 32.1776 16.0006C32.1739 15.9243 32.1752 15.8478 32.1814 15.7718C32.1833 15.7387 32.1583 15.7236 32.1503 15.6931L32.0863 15.7315L32.0356 15.8206L31.9631 15.948C31.8807 16.0779 31.8286 16.0806 31.7085 16.0251L31.5785 15.9722C31.5336 15.9517 31.4833 15.9483 31.4366 15.9624C31.3899 15.9765 31.3499 16.0074 31.3239 16.0493L31.2204 16.2607C31.1868 16.3345 31.1657 16.4159 31.1348 16.4999L31.0715 16.5815L30.8286 16.4603C30.7006 16.3743 30.6062 16.3772 30.5021 16.5453C30.4733 16.5911 30.4507 16.6408 30.4349 16.693L30.2998 16.9451C30.2945 16.9637 30.2851 16.9806 30.2722 16.9947C30.2594 17.0088 30.2435 17.0196 30.2258 17.0263C30.2081 17.0331 30.1891 17.0355 30.1703 17.0334C30.1514 17.0313 30.1332 17.0248 30.1171 17.0144L29.9845 16.9513C29.9281 16.9086 29.8624 16.8808 29.7932 16.8704C29.7241 16.8599 29.6538 16.8673 29.5886 16.8917L29.578 16.8511L29.7115 16.1871C29.7622 15.9353 29.8017 15.925 30.0597 15.9012L30.2187 15.9032C30.2485 15.9098 30.2794 15.9088 30.3086 15.9002C30.3377 15.8917 30.3643 15.8758 30.3858 15.8541C30.4074 15.8324 30.4233 15.8054 30.4321 15.7757C30.4409 15.746 30.4423 15.7145 30.4363 15.6838L30.4189 15.3738C30.4147 15.3451 30.4142 15.3161 30.4175 15.2874C30.4143 15.2701 30.4146 15.2523 30.4184 15.2352C30.4222 15.2181 30.4296 15.2021 30.4399 15.1882C30.4502 15.1742 30.4633 15.1627 30.4783 15.1543C30.4933 15.146 30.5099 15.1409 30.527 15.1395L30.8614 15.085L31.0692 15.0309C31.2177 14.9922 31.2493 14.9515 31.2518 14.7989C31.2544 14.6464 31.2576 14.5371 31.2655 14.4049L31.6909 14.2941C31.7846 14.248 31.8307 14.1817 31.8069 14.0903C31.7745 13.8806 31.6901 13.6822 31.5618 13.5142L31.5519 13.5167C31.5336 13.4871 31.5096 13.4616 31.4814 13.4418C31.4531 13.4221 31.4212 13.4085 31.3877 13.4019C31.3543 13.3953 31.3199 13.3959 31.2868 13.4037C31.2537 13.4114 31.2227 13.4261 31.1956 13.4468C30.8164 13.654 30.4371 13.8612 30.0632 14.0888L28.8873 14.8072L28.7125 14.9069C28.5943 14.9739 28.4547 14.9908 28.3233 14.9541L27.6773 14.786C27.2069 14.659 26.72 14.6134 26.237 14.6512C25.8035 14.6919 25.3786 14.7952 24.975 14.9581C24.595 15.1083 24.2439 15.3245 23.937 15.5973C23.3514 16.1077 22.8966 16.7143 22.6727 17.4776C22.6014 17.6779 22.5742 17.8924 22.5933 18.1058L22.1486 18.1023C21.9824 18.1151 21.8151 18.1115 21.6491 18.0913L21.5845 18.0864C21.5212 18.0832 21.4589 18.1016 21.4074 18.1385C21.3559 18.1755 21.318 18.229 21.2996 18.2908C21.2311 18.5147 21.16 18.7285 21.1014 18.9499C21.0593 19.0704 21.028 19.1947 21.008 19.3213C20.9803 19.4587 20.9725 19.5909 20.9574 19.7358C20.9543 19.7699 20.9609 19.8043 20.9763 19.8349C20.9918 19.8655 21.0155 19.891 21.0446 19.9084L21.2228 20.0247L21.0447 20.0711C20.9809 20.0869 20.9235 20.1222 20.88 20.1722C20.8365 20.2223 20.8089 20.2847 20.8008 20.3515C20.7903 20.4736 20.7673 20.588 20.7568 20.7101L20.2085 20.5925L20.1609 20.5724C19.6956 20.2054 19.2302 19.8385 18.7576 19.4842C18.5741 19.3476 18.386 19.2339 18.1953 19.11C18.0045 18.9861 18.1603 19.0974 18.155 19.0771C18.1088 19.0327 18.0493 19.0055 17.9864 19.0002C17.9235 18.9949 17.8611 19.0117 17.8093 19.0478C17.5878 19.1746 17.3832 19.3299 17.2006 19.51L17.0002 19.7141C16.9216 19.6152 16.8556 19.5239 16.7797 19.4352C16.4246 18.9499 16.0957 18.4453 15.7944 17.9237C15.6037 17.5973 15.4023 17.27 15.1901 16.942C15.1464 16.8674 15.0962 16.797 15.0402 16.7316C14.9826 16.6608 14.9165 16.5979 14.8435 16.5442C14.802 16.5098 14.7526 16.487 14.7003 16.4778C14.6479 16.4686 14.5942 16.4735 14.5446 16.4918C14.3835 16.5353 14.2303 16.6044 14.0908 16.6968L13.98 16.7582C13.9443 16.7024 13.8961 16.639 13.8479 16.5756C13.5428 16.1344 13.245 15.6804 12.93 15.2417C12.8435 15.1124 12.7498 14.9958 12.6534 14.869C12.6287 14.8335 12.608 14.7952 12.592 14.7549C12.5665 14.6969 12.5251 14.6476 12.4729 14.613C12.4207 14.5785 12.36 14.5601 12.2982 14.5601C12.095 14.5624 11.8936 14.5965 11.7012 14.6614L11.4394 14.7513C11.4334 14.6877 11.4175 14.6268 11.4115 14.5632C11.352 14.2533 11.2851 13.9562 11.2282 13.6564C11.1774 13.3993 11.1623 13.1366 11.1835 12.8762C11.1923 12.8348 11.1853 12.7913 11.1639 12.7546C11.1426 12.7178 11.1085 12.6906 11.0686 12.6783L10.9254 12.5746L10.827 12.4809L10.9456 12.1246L11.3362 11.0683L11.7669 9.88225C11.7773 9.86238 11.7818 9.83972 11.7796 9.81712C11.7775 9.79452 11.7689 9.77298 11.755 9.75519C11.7023 9.6736 11.6402 9.59871 11.5701 9.53215L11.3133 9.31698L11.6134 9.13036C11.9362 8.95494 12.2708 8.8026 12.6146 8.67439L13.9001 8.13355C14.1484 8.03487 14.3847 7.90785 14.6045 7.75487C14.6757 7.70379 14.6804 7.68089 14.6466 7.59204C14.6129 7.50319 14.5317 7.39417 14.4828 7.28758C14.467 7.26351 14.4533 7.23803 14.4419 7.21146L14.8463 7.18209C15.5468 7.14704 16.249 7.14883 16.9503 7.18744L17.3778 7.20628C17.4248 7.21476 17.4731 7.20706 17.515 7.18437C17.5569 7.16167 17.5901 7.12529 17.6093 7.08092L17.749 6.8059L17.8307 6.63276C17.8575 6.64467 17.8828 6.65995 17.9059 6.67825C18.502 7.14135 19.0881 7.60702 19.6624 8.10832C19.7202 8.15741 19.7907 8.18811 19.865 8.19658C20.1173 8.23162 20.3718 8.24519 20.6257 8.23713L21.6471 8.26407L22.1115 8.26244L22.1762 8.2673C22.2014 8.44515 22.214 8.61542 22.2464 8.78053C22.3309 9.1641 22.4699 9.53361 22.6588 9.87722C22.9995 10.5207 23.4372 11.1061 23.9556 11.6114C24.0844 11.7406 24.2401 11.8519 24.3886 11.9759L24.4771 12.0722C24.689 12.2774 24.8963 12.5054 25.1155 12.6978C25.335 12.8675 25.583 12.9942 25.8467 13.0715C26.0955 13.1495 26.3524 13.1956 26.6115 13.2086C26.8792 13.2112 27.1417 13.1391 27.3707 13.0001C27.515 12.9244 27.6282 12.799 27.6905 12.6456L27.7932 12.3911C27.8025 12.3453 27.8117 12.2995 27.7615 12.2692C27.7113 12.2388 27.6744 12.2593 27.6375 12.2798L27.6276 12.2823C27.4001 12.5043 27.1098 12.5256 26.8215 12.5139C26.5663 12.5036 26.3171 12.4266 26.0976 12.2902C25.8686 12.1505 25.7003 11.926 25.6281 11.664C25.5484 11.4154 25.5197 11.1532 25.5439 10.8941C25.5782 10.481 25.5865 10.0658 25.5688 9.65098C25.5421 9.20425 25.4384 8.76486 25.2626 8.35311C25.1199 7.98546 24.9235 7.64155 24.68 7.33327C24.4722 7.06979 24.2174 6.84892 23.9295 6.68261C23.8045 6.59907 23.6639 6.54326 23.5171 6.51883C23.486 6.41793 23.4496 6.31878 23.408 6.2218C23.3378 6.08735 23.2317 5.97572 23.1024 5.90004L22.152 5.33396L20.7053 4.48492C20.5297 4.37877 20.3522 4.30567 20.1793 4.20968C20.018 4.12325 19.8358 4.0876 19.656 4.10729L18.6611 4.18194L18.6064 4.17451C18.6393 4.05746 18.6722 3.94042 18.6952 3.82595C18.7183 3.71148 18.713 3.69116 18.6028 3.63308L18.4879 3.5979C18.1455 3.5085 17.7913 3.47964 17.4408 3.51259C17.1209 3.54167 16.7884 3.56317 16.4638 3.61514C16.065 3.67385 15.6725 3.76879 15.2909 3.89886C14.6739 4.09281 14.0794 4.35306 13.5173 4.67527L13.458 4.69073C13.4214 4.63666 13.3889 4.57984 13.3609 4.52076C13.3331 4.48638 13.3092 4.44894 13.2896 4.40916C13.2592 4.37368 13.2341 4.35852 13.1899 4.39172L13.0699 4.4989C12.7092 4.77723 12.3557 5.04283 12.0076 5.32875C11.3001 5.92201 10.63 6.56022 10.0011 7.2397C9.71686 7.54443 9.45155 7.86711 9.20668 8.20588C9.17093 8.25354 9.11942 8.28621 9.06159 8.2979L8.69088 8.41612C8.62162 8.43416 8.58733 8.46478 8.59596 8.53847C8.59155 8.75889 8.54786 8.97612 8.46704 9.17949C8.39523 9.35006 8.33596 9.5282 8.27669 9.70635C8.08299 10.2655 7.95059 10.8457 7.8819 11.4363C7.8484 11.6728 7.84723 11.9117 7.83616 12.1533C7.82923 12.1877 7.81629 12.2204 7.79795 12.25C7.74782 12.351 7.71191 12.459 7.69127 12.5706C7.60517 13.0912 7.58355 13.6216 7.62692 14.1494C7.63898 14.4392 7.66093 14.7263 7.68552 15.0237C7.71011 15.321 7.74705 15.3005 7.77154 15.4352C7.78398 15.4729 7.78718 15.513 7.78085 15.5521C7.75971 15.5229 7.73508 15.4965 7.70757 15.4735C7.6673 15.4406 7.63233 15.428 7.59539 15.4485C7.56962 15.4718 7.55186 15.503 7.54465 15.5376C7.54191 15.5733 7.54415 15.6092 7.55131 15.6444C7.66541 16.1982 7.83465 16.7394 8.05636 17.2593C8.1026 17.3557 8.15609 17.4394 8.19969 17.5257L8.20762 17.5562L8.13503 17.5208C7.70931 17.1622 7.25462 16.8415 6.776 16.5622C6.7133 16.5243 6.65785 16.4736 6.58526 16.4383L6.12196 16.201C6.09514 16.1893 6.06586 16.1851 6.03711 16.1888C6.00837 16.1924 5.98119 16.2039 5.95836 16.2219L5.8166 16.3673C5.74077 16.4412 5.69532 16.5507 5.60431 16.607C5.51329 16.6632 5.5806 16.6782 5.5562 16.7063C5.24258 17.1093 4.98163 17.5528 4.77982 18.0257C4.52355 18.6289 4.35546 19.2684 4.28089 19.9238C4.26708 19.9924 4.2856 20.0636 4.27179 20.1322C4.26406 20.1726 4.2703 20.2147 4.28945 20.2512C4.30861 20.2878 4.33948 20.3166 4.37681 20.3327ZM8.82363 16.1483C9.10685 16.2442 9.39958 16.3063 9.69594 16.3334C9.81462 16.3382 9.93336 16.3326 10.0509 16.3169C10.4429 16.2238 10.8285 16.1053 11.2052 15.962L11.6472 15.7927L12.2115 17.2295L11.9047 17.3094L11.4925 17.471L11.3197 17.5377C11.1616 17.5711 10.9987 17.5768 10.8381 17.5546C10.8169 17.5513 10.7967 17.5433 10.7789 17.531C10.7611 17.5187 10.7461 17.5026 10.7351 17.4838C10.6384 17.3295 10.5599 17.1642 10.5012 16.9915C10.4748 16.8899 10.4358 16.7807 10.3995 16.6817C10.3927 16.6652 10.385 16.6491 10.3763 16.6335C10.3308 16.5803 10.3083 16.5753 10.2516 16.6009L10.0689 16.6701C9.9745 16.6909 9.87809 16.7015 9.78127 16.7017C9.49899 16.729 9.21347 16.6963 8.94267 16.6054C8.73328 16.5233 8.53065 16.4236 8.33683 16.3076C8.31587 16.2916 8.29205 16.2801 8.26678 16.2736C8.24151 16.2672 8.21529 16.2659 8.18968 16.27C8.1816 16.2906 8.17762 16.3126 8.17797 16.3349C8.17833 16.3571 8.18301 16.3791 8.19174 16.3996C8.26404 16.5676 8.3265 16.7397 8.37877 16.915C8.4832 17.2349 8.56521 17.5498 8.65975 17.8723C8.66504 17.8927 8.66308 17.9257 8.67102 17.9562L8.65123 17.9613C8.58585 17.9182 8.52857 17.8632 8.48223 17.7992C8.43334 17.6926 8.3871 17.5962 8.32832 17.4922C8.21126 17.2735 8.11288 17.0451 8.03431 16.8094L7.90939 16.4515L7.83533 16.167C7.80247 16.0746 7.77444 15.9805 7.75136 15.8852C7.74734 15.8604 7.7376 15.8369 7.72295 15.8166C7.72491 15.7836 7.71698 15.7531 7.71894 15.72C8.06981 15.9069 8.44065 16.0507 8.82363 16.1483ZM9.91395 18.9559C9.94678 19.0186 9.9744 19.084 9.99654 19.1514C10.0769 19.4063 10.1867 19.6508 10.3236 19.8798C10.3473 19.926 10.3822 19.9654 10.4248 19.9942C10.4674 20.0229 10.5164 20.0401 10.5671 20.0441L10.9854 20.1088L11.4038 20.1734C11.3431 20.2651 11.3431 20.2651 11.2461 20.2578L10.1047 20.1754L10.0051 20.1579C9.89639 19.9292 9.8158 19.6878 9.76514 19.4394C9.74065 19.3048 9.70361 19.1625 9.67648 19.0178C9.66903 18.9681 9.66656 18.9178 9.66913 18.8678C9.66273 18.8145 9.6689 18.7606 9.68712 18.7105C9.70534 18.6605 9.73508 18.6158 9.77385 18.5802C9.92178 18.4383 10.0838 18.3125 10.2572 18.2048L10.6734 17.9771L11.5097 17.6183C11.6897 17.5426 11.8736 17.4767 12.0605 17.4207C12.2333 17.354 12.4213 17.305 12.6067 17.2459L12.7155 17.2176C12.7467 17.5539 12.8291 17.8838 12.9596 18.1954L12.9154 18.2286L12.8079 18.3434L12.7644 18.4198L12.74 18.4478C12.663 18.5472 12.5575 18.6193 12.4379 18.6543C12.3184 18.6893 12.1907 18.6855 12.0725 18.6433C11.8788 18.5675 11.6977 18.4609 11.5359 18.3275L11.5306 18.3071C11.4091 18.1652 11.2804 18.036 11.1563 17.8839L11.0969 17.8994L10.8601 18.0045C10.6754 18.0851 10.4996 18.1853 10.3358 18.3037C10.1664 18.4135 10.0243 18.5618 9.92041 18.7373C9.89725 18.7682 9.88418 18.8059 9.88302 18.8451C9.88186 18.8843 9.89267 18.923 9.91395 18.9559ZM11.9052 20.1513C12.2338 20.1959 12.5544 20.21 12.8566 20.3157C12.8501 20.3717 12.823 20.3896 12.7907 20.3872L12.4997 20.3653L11.5246 20.2721L11.5733 20.216L12.0697 19.5661L12.1937 19.3928L12.2886 19.2704L12.3084 19.2653L12.3499 19.2219L12.406 19.1531L12.5009 19.0308L12.6908 18.7861L12.8833 18.5515L13.0731 18.3068C13.129 18.2497 13.1897 18.1976 13.2545 18.1511C13.2863 18.1277 13.3245 18.1148 13.364 18.1142C13.4035 18.1136 13.4424 18.1254 13.4755 18.1478L13.6517 18.2972C13.7752 18.4061 13.8914 18.5277 14.0075 18.6493C14.1237 18.7709 14.4347 19.113 14.6934 19.2951L14.739 19.3483L14.5965 19.4505C14.6018 19.4708 14.5946 19.4835 14.59 19.5064L14.5801 19.509C14.5258 19.5741 14.4527 19.6197 14.371 19.6394C14.2936 19.684 14.2076 19.7114 14.1187 19.7196C14.0298 19.7278 13.94 19.7166 13.8551 19.6869C13.5406 19.5885 13.2351 19.4611 12.9424 19.3063L12.7372 19.2079C12.6547 19.1751 12.6547 19.1751 12.6086 19.2414L12.5163 19.3739L11.9487 20.0749C11.9304 20.0979 11.9158 20.1237 11.9052 20.1513ZM16.3163 22.322C16.3189 22.3321 16.3044 22.3576 16.2827 22.3958C16.2538 22.3511 16.2216 22.3087 16.1863 22.269L16.0978 22.1728C16.1461 22.0473 16.2216 21.9349 16.3186 21.8441L16.3331 21.8186C16.3317 21.8132 16.3325 21.8075 16.3352 21.8027C16.3379 21.798 16.3424 21.7945 16.3476 21.7931C16.5493 21.4514 16.7847 21.132 17.0504 20.84L17.0991 20.7839C17.1762 20.6486 17.2843 20.5348 17.4143 20.4523C17.451 20.4252 17.4943 20.4087 17.5397 20.4045C17.585 20.4003 17.6308 20.4086 17.6723 20.4286C17.7907 20.4862 17.9062 20.5503 18.0181 20.6205C18.3415 20.8075 18.6359 21.0454 18.9639 21.2095C18.9738 21.2069 18.9764 21.2171 18.9916 21.2348L19.0022 21.2755C18.9982 21.2948 18.9893 21.3128 18.9765 21.3275C18.9637 21.3423 18.9473 21.3533 18.929 21.3596L18.8307 21.4286L18.8011 21.4363C18.6414 21.4966 18.4652 21.4964 18.3043 21.4355C18.051 21.3363 17.803 21.2235 17.5612 21.0975C17.5025 21.0589 17.4339 21.0395 17.3646 21.042C17.2953 21.0445 17.2287 21.0688 17.1739 21.1115C17.0252 21.2283 16.8898 21.3617 16.7704 21.5095C16.6464 21.6828 16.5252 21.8662 16.3887 22.0319C16.2522 22.1976 16.2549 22.2078 16.3163 22.322ZM15.2946 20.5487L14.8589 20.174L14.781 20.1184C14.7738 20.1133 14.7656 20.1099 14.757 20.1084C14.7483 20.1068 14.7395 20.1071 14.7311 20.1093C14.7227 20.1115 14.7148 20.1155 14.7081 20.1211C14.7013 20.1266 14.6958 20.1336 14.692 20.1416C14.6244 20.2553 14.5507 20.365 14.4712 20.4702L14.3228 20.6716L14.0443 20.4946L14.0535 20.4488L14.4477 19.934L14.4675 19.9288C14.482 19.9033 14.4866 19.8805 14.5038 19.8651L14.9382 19.3832C15.0284 19.2925 15.1279 19.2121 15.235 19.1432C15.3801 19.0512 15.4348 19.0586 15.5781 19.1623C15.7635 19.3129 15.9372 19.4781 16.0976 19.6562C16.3211 19.9173 16.5616 20.1627 16.8172 20.3909L17.0284 20.5528L17.0812 20.5933L17.0568 20.6213L16.981 20.6953L16.8953 20.7719L16.8709 20.7999C16.8238 20.8547 16.7653 20.8978 16.6996 20.9261C16.6339 20.9545 16.5626 20.9674 16.491 20.964C16.0572 20.9844 15.6298 20.8361 15.2946 20.5487ZM9.04651 8.44284L8.86194 8.70785C8.81907 8.66712 8.77934 8.62306 8.7431 8.57608C8.73056 8.5685 8.72792 8.55834 8.71998 8.52787L9.04651 8.44284ZM13.3452 4.78518L13.3254 4.79033L13.21 4.87462L13.2001 4.8772L13.1948 4.85688C13.1737 4.77561 13.2198 4.70936 13.2409 4.62794L13.3452 4.78518ZM18.5338 4.13917C18.5317 4.15835 18.5223 4.17582 18.5076 4.18777C18.4929 4.19972 18.4741 4.20519 18.4553 4.203L18.1498 4.20661L18.5712 3.83655L18.6009 3.82882L18.5864 3.85429L18.5338 4.13917ZM22.4063 8.05551L22.4536 7.75031L22.4727 7.70195L22.4793 7.646C22.512 7.39753 22.6174 7.16592 22.7817 6.98149C22.8924 6.85396 23.0405 6.76639 23.2043 6.73154C23.3681 6.69668 23.5392 6.71634 23.6927 6.78766C23.8309 6.84981 23.9614 6.92874 24.0815 7.0227C24.3133 7.20766 24.5141 7.43029 24.6756 7.68154C24.8491 7.95354 24.9952 8.24262 25.1116 8.54428C25.2411 8.87899 25.322 9.23072 25.3517 9.58819C25.3798 9.91998 25.3817 10.2532 25.3576 10.5846C25.3279 10.8787 25.3343 11.1758 25.3767 11.4692C25.4594 11.99 25.7262 12.3652 26.1915 12.5695C26.3979 12.668 26.6221 12.7204 26.8487 12.7231C27.0754 12.7258 27.2995 12.6788 27.5057 12.5853L27.5453 12.575L27.5506 12.5953L27.4774 12.6794L27.4313 12.7457L27.4095 12.7839C27.2056 12.9537 26.9505 13.0469 26.6859 13.0482C26.4014 13.0461 26.1183 12.9991 25.8466 12.9088C25.631 12.8425 25.4282 12.7374 25.248 12.5982C25.1576 12.535 25.0916 12.4437 25.011 12.3779C24.9305 12.3121 24.6598 12.0029 24.4611 11.8486L24.2803 11.7221C24.0687 11.5428 23.875 11.3425 23.702 11.1242C23.4263 10.8033 23.1805 10.4569 22.9677 10.0897C22.7896 9.79638 22.6384 9.48715 22.5159 9.16597C22.4107 8.80284 22.3353 8.43197 22.4063 8.05551ZM17.591 6.23959L17.5355 6.18894L17.6041 6.1277L17.6403 6.06402L17.6502 6.06145C17.9235 5.74917 18.3042 5.55692 18.7147 5.52391C18.9999 5.50481 19.2866 5.51744 19.5698 5.56159C20.2045 5.67738 20.8155 5.90765 21.374 6.24162C21.6096 6.37552 21.8254 6.51457 22.0538 6.66121C22.0964 6.69545 22.1493 6.71314 22.203 6.71108C22.2567 6.70903 22.3077 6.68737 22.3467 6.65002L22.5433 6.51206C22.6133 6.45914 22.6978 6.42958 22.7853 6.42733C22.8844 6.38702 22.9903 6.36679 23.0974 6.36778L23.127 6.36005L23.1712 6.32685C23.1785 6.31411 23.1607 6.28621 23.1455 6.26847C23.1203 6.24821 23.0913 6.23359 23.0603 6.22556L22.8828 6.15246C22.8478 6.13987 22.8056 6.14002 22.7779 6.1147L22.1793 5.80413C21.881 5.63232 21.5754 5.47324 21.2699 5.31416C20.9643 5.15509 20.9544 5.15767 20.8039 5.06668L19.8747 4.58187C19.8047 4.5434 19.7298 4.5154 19.6523 4.49877C19.4233 4.4716 19.1845 4.44702 18.9608 4.44018C18.7195 4.42816 18.4779 4.43666 18.2384 4.46558L17.8716 4.5177C17.9011 4.46017 17.9469 4.41329 18.0032 4.38317C18.0594 4.35305 18.1234 4.34108 18.1869 4.34883C18.3683 4.35582 18.5544 4.33992 18.743 4.33417L19.0135 4.31798L19.8277 4.27954L19.9497 4.30199C19.956 4.3071 19.9633 4.31067 19.9711 4.3124C19.9789 4.31414 19.9869 4.314 19.9946 4.31201C19.9972 4.32216 20.0071 4.31959 20.0098 4.32975C20.1892 4.40131 20.3632 4.48652 20.5305 4.58466L22.1824 5.53213L23.0272 6.01723C23.2027 6.12904 23.3288 6.30679 23.3778 6.51169L23.3383 6.52199C23.138 6.53537 22.9462 6.60649 22.785 6.72715C22.6239 6.8478 22.5 7.01307 22.4276 7.20388C22.3178 7.46243 22.2468 7.73688 22.2169 8.01805L22.1946 8.17573L22.1299 8.17087L21.0479 8.07297C20.65 8.0464 20.2575 8.04015 19.8623 8.02374C19.8103 8.01768 19.7609 7.9967 19.7197 7.96323L18.9897 7.35062L17.591 6.23959ZM17.534 6.87274C17.5004 6.69763 17.4859 6.5195 17.4907 6.34162C17.5744 6.40329 17.655 6.46919 17.7323 6.53905L17.5663 6.87517L17.534 6.87274ZM13.7062 7.18607C13.7036 7.17591 13.6911 7.16833 13.6884 7.15817C13.6838 7.15498 13.6798 7.15086 13.6767 7.14607C13.6737 7.14127 13.6716 7.1359 13.6706 7.13027C13.662 7.05659 13.6659 6.99048 13.6573 6.9168C13.6512 6.85189 13.6586 6.78658 13.6791 6.72517C13.6995 6.66375 13.7325 6.60764 13.7758 6.56051C13.9858 6.32851 14.2385 6.14113 14.5197 6.00884C14.6499 5.9462 14.7843 5.89307 14.922 5.84983L15.3178 5.74677L15.7737 5.67146L15.8132 5.66115L15.8521 5.60764C15.8567 5.58474 15.8218 5.57216 15.8092 5.56457L15.7544 5.55714L15.1739 5.59984L14.9384 5.62862L15.4363 5.39048C15.7714 5.2313 16.1191 5.10086 16.4759 5.00047C16.6513 4.94393 16.8321 4.90771 17.0102 4.86133L17.0399 4.8536L17.1401 4.75158C17.1538 4.72004 17.1708 4.69015 17.1908 4.66243L17.6681 4.06086L17.6971 4.00992L17.707 4.00734C17.71 3.98955 17.7092 3.97127 17.7046 3.95374C17.7 3.9362 17.6918 3.91984 17.6806 3.90575L17.641 3.91606L17.1772 3.9609C16.9542 3.99726 16.7286 4.02347 16.5109 4.08015C16.1224 4.17048 15.7391 4.28113 15.3559 4.39177L14.815 4.58685C14.5927 4.66643 14.3632 4.75874 14.1462 4.85864C13.8593 4.98225 13.5833 5.13031 13.3211 5.30128L13.2004 5.36525C13.1906 5.34499 13.1848 5.32296 13.1834 5.30047C13.182 5.27798 13.1851 5.25549 13.1924 5.23436C13.1997 5.21322 13.2111 5.19386 13.226 5.17743C13.2408 5.161 13.2588 5.14785 13.2788 5.13874C13.4509 5.02884 13.6204 4.90877 13.8051 4.80645C14.1687 4.59273 14.5477 4.40703 14.9388 4.25088C15.1754 4.15099 15.418 4.0661 15.6651 3.99669L16.5635 3.79527L16.7318 3.75147L16.8261 3.7486L17.0042 3.70222C17.4607 3.67012 17.9074 3.6406 18.3587 3.75087L18.426 3.76588L18.4016 3.79393C18.091 4.04318 17.7934 4.30894 17.5101 4.59014L17.4027 4.7049C17.3495 4.75957 17.3082 4.82519 17.2815 4.89752C17.2549 4.96986 17.2434 5.04731 17.2479 5.12487L17.2773 5.72467C17.2985 5.96862 17.3198 6.21258 17.3312 6.45911L17.367 6.84028C17.373 6.90381 17.3889 6.96476 17.3975 7.03844L17.313 7.03874L17.0247 7.02704C16.4857 6.97551 15.9446 6.95703 15.4043 6.97169C14.8315 6.97913 14.2621 7.05102 13.7062 7.18607ZM14.4474 7.55715C14.194 7.55804 13.9241 7.45476 13.8376 7.32542C13.9973 7.27167 14.1643 7.24281 14.333 7.2398C14.3549 7.36428 14.4308 7.45299 14.4474 7.55715ZM11.1846 9.18779C11.1129 9.22396 11.0467 9.2704 10.9881 9.32574C10.7878 9.4567 10.6006 9.60717 10.4289 9.77508L10.3405 9.84148L10.3306 9.84406L10.2824 9.78068C10.2411 9.78421 10.216 9.76905 10.2072 9.73518C10.2045 9.72503 10.2144 9.72245 10.2118 9.71229C10.2203 9.61571 10.238 9.52031 10.2644 9.42741L10.5292 8.74015C10.6548 8.44048 10.82 8.16025 11.0202 7.90721C11.2336 7.59947 11.4734 7.31196 11.7368 7.04806C11.9693 6.80059 12.2404 6.5944 12.5393 6.43773L12.6673 6.36102C12.7583 6.30478 12.7728 6.27931 12.7365 6.1803C12.7001 6.08129 12.6267 5.84006 12.562 5.67252C12.4972 5.50498 12.4603 5.52544 12.3521 5.59699C12.0527 5.82682 11.748 6.03632 11.4612 6.27373C11.1333 6.55828 10.8205 6.8606 10.5242 7.1794C10.0818 7.60312 9.67531 8.06455 9.30916 8.55885L9.0567 8.92832L8.96824 8.83203L9.46797 8.23547C9.67497 7.97546 9.88197 7.71546 10.1015 7.46304L10.813 6.74626C11.0892 6.46822 11.3655 6.19018 11.647 5.93246C11.9286 5.67473 12.3697 5.29952 12.7351 4.99829C12.8277 4.91244 12.9279 4.83551 13.0345 4.76847L13.0958 4.71996L13.1057 4.71738L13.0972 4.80638C13.0105 5.44726 13.0405 6.09027 13.2962 6.70707C13.3942 6.94578 13.5204 7.17159 13.6721 7.37938C13.779 7.52528 13.9331 7.6276 14.1064 7.66765L14.2832 7.69753L14.3855 7.72514L14.1559 7.81745L13.5564 8.0712L12.0881 8.68132L11.8639 8.79395L11.635 8.92947L11.4134 9.05226C11.3405 9.103 11.264 9.14829 11.1846 9.18779ZM11.6164 9.79127C11.3328 9.91936 10.6335 9.99297 10.4731 9.90457C10.731 9.7181 10.9664 9.52663 11.2394 9.35791C11.3636 9.50999 11.5193 9.62129 11.6164 9.79127ZM10.5753 12.8936C10.5568 12.9851 10.5384 13.0767 10.5101 13.1709L10.3373 13.2376C10.2922 13.2712 10.2405 13.2947 10.1856 13.3064C10.1307 13.3182 10.0739 13.3179 10.0189 13.3056C9.96382 13.2933 9.91177 13.2693 9.86613 13.2352C9.82049 13.201 9.78227 13.1575 9.75399 13.1074C9.7002 13.0155 9.66952 12.9117 9.66474 12.8052C9.66845 12.4315 9.69489 12.0588 9.74389 11.689C9.77204 11.409 9.82757 11.1329 9.90964 10.8649C9.93526 10.8166 9.94453 10.7608 9.93603 10.7062C9.92753 10.6516 9.90173 10.6011 9.86261 10.5625C9.79197 10.4941 9.73123 10.4232 9.66324 10.365C9.40388 10.1456 9.16394 9.90309 8.9463 9.64046C8.92451 9.60906 8.89606 9.58308 8.86313 9.56449C8.79514 9.50626 8.73312 9.51156 8.68963 9.58797C8.66258 9.62923 8.64233 9.67481 8.62967 9.72291C8.44948 10.2699 8.31303 10.8314 8.22165 11.402C8.16453 11.7171 8.13471 12.037 8.13252 12.3581C8.12399 12.4471 8.12801 12.5437 8.12742 12.6632C8.05414 12.5846 7.97165 12.5519 7.97489 12.4426C7.97226 12.0854 7.99232 11.7287 8.03493 11.3747C8.10859 11.0084 8.16247 10.6473 8.25858 10.286C8.35468 9.92468 8.52592 9.44619 8.66091 9.03138L8.70177 8.94481C8.70304 8.89057 8.7185 8.83785 8.74654 8.79214C8.85183 8.93155 8.96423 9.06522 9.08326 9.19259C9.3658 9.46614 9.66284 9.71421 9.95724 9.95213C10.0375 10.0165 10.1322 10.0591 10.2324 10.0757C10.6428 10.1099 11.0479 10.1237 11.451 10.0079L11.6192 9.96411C11.6006 10.0106 11.5848 10.0582 11.5718 10.1066C11.5046 10.2543 11.4373 10.402 11.3827 10.5572C11.1778 11.1095 10.9631 11.6644 10.7734 12.2345C10.6924 12.4508 10.6437 12.6696 10.5753 12.8936ZM11.0014 12.826L10.9572 12.8592C10.8756 12.9396 10.783 13.0076 10.6822 13.061L10.6934 12.9821C10.7148 12.9138 10.732 12.8441 10.7447 12.7735L10.7895 12.6208C10.87 12.6866 10.9308 12.7576 11.0014 12.826ZM11.0645 13.5146C11.1015 13.832 11.1588 14.1468 11.236 14.4571L11.2545 14.5282C11.3299 14.8991 11.3829 15.2649 11.4881 15.6281L11.5039 15.689L11.4644 15.6993C11.4081 15.7337 11.3446 15.7539 11.279 15.7584L11.215 15.7968L11.1952 15.8019C10.8714 15.9156 10.5186 15.9159 10.1917 15.8029C10.162 15.7944 10.135 15.7776 10.114 15.7543C10.093 15.731 10.0788 15.7022 10.0729 15.6711C10.0405 15.506 10.0107 15.3511 9.96837 15.1885C9.894 14.8968 9.85503 14.5973 9.85237 14.2967C9.851 14.2103 9.83581 14.1925 9.75597 14.1699L9.68866 14.1549C9.18896 14.092 8.70856 13.9128 8.28438 13.6311L8.20914 13.5856C8.19725 13.5788 8.18394 13.5752 8.17041 13.5749C8.15688 13.5747 8.14354 13.5779 8.13158 13.5842C8.11963 13.5905 8.10943 13.5998 8.1019 13.6112C8.09438 13.6226 8.08975 13.6358 8.08844 13.6496L8.08257 13.7487C8.0906 13.9419 8.08875 14.1376 8.08689 14.3334C8.09835 14.7426 8.1448 15.1644 8.18859 15.576L8.20652 15.7666L8.04154 15.7011C8.00537 15.6901 7.97423 15.666 7.95402 15.6332C7.93382 15.6005 7.92595 15.5615 7.93192 15.5236C7.93387 15.4905 7.91604 15.4626 7.91536 15.4194C7.87722 15.2476 7.84957 15.0736 7.83257 14.8986C7.80935 14.6877 7.79338 14.464 7.78005 14.2506C7.74724 13.8026 7.74675 13.3531 7.77856 12.9059C7.77592 12.8957 7.77327 12.8856 7.78317 12.883C7.79306 12.8804 7.78513 12.8499 7.78973 12.827L7.78444 12.8067L7.80286 12.7151L7.7764 12.6136C7.81931 12.6566 7.85429 12.6692 7.87212 12.6971C8.07515 12.8773 8.29673 13.0342 8.53282 13.1651C8.84775 13.3473 9.18286 13.4896 9.53063 13.5886C9.67173 13.6341 9.82353 13.6254 9.95748 13.5643C10.0683 13.5029 10.1943 13.4592 10.3077 13.408C10.5319 13.3244 10.7394 13.2006 10.9204 13.0423L10.9916 12.9912C10.9898 13.0269 10.992 13.0627 10.9983 13.098C11.0452 13.2376 11.0499 13.3774 11.0645 13.5146ZM12.552 15.21C12.6041 15.683 12.5747 16.1606 12.4651 16.6211L12.4453 16.6263L12.4414 16.6924L12.4348 16.7483C12.4282 16.8598 12.4031 16.969 12.3605 17.0714L12.3486 17.107C12.344 17.1299 12.3368 17.1427 12.3421 17.163C12.3191 17.1395 12.3038 17.1093 12.2985 17.0767C12.1794 16.8363 12.1077 16.5748 12.0875 16.3072C12.061 16.0649 12.0505 15.8212 12.0561 15.5778C12.0501 15.4138 12.0719 15.2503 12.1204 15.0946L12.1072 15.0438C12.1005 14.937 12.0755 14.9219 11.9666 14.9502L11.8334 15.0066C11.7383 15.0548 11.6368 15.0885 11.5319 15.1068L11.4764 14.8935C11.6883 14.8166 11.9069 14.7597 12.1294 14.7234L12.2436 14.7154C12.3478 14.71 12.4303 14.7427 12.4667 14.8417C12.503 14.9407 12.5328 15.0957 12.552 15.21ZM13.887 16.8474L13.769 16.9216L13.7301 16.9751C13.6687 17.0236 13.6589 17.0262 13.5962 16.9883L13.4054 16.8644C13.0664 16.6032 12.835 16.2217 12.7575 15.7965L12.747 15.7558C12.7398 15.7333 12.7377 15.7095 12.7408 15.6862C12.7438 15.6629 12.752 15.6406 12.7647 15.6211C12.7461 15.5831 12.7321 15.543 12.723 15.5017L12.7178 15.4814L12.6766 15.0799C13.088 15.6453 13.4776 16.249 13.887 16.8474ZM14.9547 17.1335C14.9874 17.3933 14.999 17.6551 14.9895 17.9163C14.9917 18.3086 14.9246 18.6972 14.7916 19.0634L14.7534 19.1601L14.7435 19.1627L14.7329 19.1221C14.7056 19.1012 14.6761 19.0834 14.6451 19.069L14.6352 19.0716L14.6299 19.0513C14.4925 18.9088 14.3923 18.7333 14.3387 18.5414C14.2388 18.1985 14.1515 17.8633 14.2054 17.5022C14.2065 17.4595 14.2025 17.4169 14.1935 17.3751C14.1136 17.3743 14.0352 17.3947 13.9659 17.4344L13.5148 17.6495C13.3491 17.7132 13.2022 17.8186 13.0874 17.956L13.0432 17.9892C13.025 17.9608 13.0176 17.9265 13.0226 17.8931C13.0276 17.8598 13.0445 17.8296 13.0702 17.8086L13.2607 17.6071L13.3346 17.5662L13.3761 17.5229L13.4005 17.4948L13.9247 17.0329C14.0208 16.9461 14.1243 16.8684 14.234 16.8005C14.3442 16.7431 14.4589 16.6951 14.577 16.6569C14.6344 16.6358 14.6978 16.6385 14.7538 16.6644C14.8099 16.6903 14.8542 16.7374 14.8773 16.7957C14.9155 16.9051 14.9415 17.0184 14.9547 17.1335ZM16.9 19.8161L16.8208 19.8367L16.8063 19.8622L16.7819 19.8902C16.6233 19.7297 16.4761 19.5577 16.3415 19.3757L16.3363 19.3554L16.2399 19.2287L16.2148 19.2135C16.1748 19.1894 16.1456 19.1502 16.1336 19.1045L16.0801 19.0208L16.0702 19.0234C16.044 19.0106 16.0212 18.9914 16.0039 18.9675C15.9866 18.9436 15.9753 18.9157 15.9711 18.8864C15.9586 18.8789 15.9533 18.8585 15.9407 18.851C15.9282 18.8434 15.9058 18.8384 15.9031 18.8282L15.4746 18.2781C15.4112 18.197 15.365 18.1006 15.2989 18.0093L15.2891 18.0118L15.2838 17.9915L15.2442 18.0018L15.2224 18.04L15.2304 18.0705C15.2607 18.287 15.2421 18.5071 15.176 18.7138L15.0239 19.144C15.0148 19.177 14.9937 19.2051 14.965 19.2227C14.9362 19.2402 14.9019 19.2459 14.8689 19.2385C14.8734 19.2108 14.8804 19.1835 14.8899 19.1571C15.0118 18.8815 15.0885 18.5867 15.117 18.2844C15.1117 18.2559 15.1112 18.2266 15.1157 18.198L15.1412 17.931C15.1442 17.6988 15.1381 17.4726 15.123 17.2524C15.1163 17.1456 15.0998 17.0415 15.0859 16.9475C15.1134 16.9704 15.138 16.9968 15.1591 17.026C15.4121 17.47 15.6677 17.9241 15.9306 18.3655C16.2186 18.8733 16.5523 19.353 16.927 19.7982C16.9215 19.7991 16.9163 19.8012 16.9117 19.8043C16.907 19.8074 16.903 19.8114 16.9 19.8161ZM18.3013 19.8417C18.3179 19.9459 18.3344 20.05 18.3411 20.1568C18.3532 20.3184 18.3458 20.4806 18.3189 20.6398C18.2562 20.6019 18.1988 20.5843 18.1704 20.5158C18.1322 20.4995 18.0954 20.4801 18.0602 20.4577C18.0155 20.3988 17.9747 20.3369 17.938 20.2726C17.8584 20.1153 17.8069 19.945 17.786 19.7698C17.7714 19.6326 17.7212 19.6022 17.6005 19.6662L17.1026 19.9044L16.8553 20.1315C16.7966 20.1901 16.7966 20.1901 16.726 20.1217L16.7675 20.0784L17.2423 19.6293C17.4185 19.4637 17.6099 19.3158 17.814 19.1876C17.9492 19.0981 18.029 19.1207 18.0984 19.2654C18.1944 19.4461 18.2629 19.6405 18.3013 19.8417ZM19.8765 20.4946L19.8469 20.5023L19.6483 20.5106C19.6162 20.5317 19.5794 20.544 19.5412 20.5463C19.503 20.5487 19.4647 20.541 19.4299 20.5241L19.3699 20.4963C19.2046 20.3767 19.0496 20.2428 18.9065 20.0963C18.8787 20.071 18.851 20.0457 18.8141 20.0661C18.7967 20.0872 18.7851 20.1127 18.7805 20.14L18.7713 20.1858C18.7489 20.3434 18.7266 20.5011 18.6917 20.6512C18.6814 20.7244 18.6608 20.7956 18.6305 20.8624L18.4219 20.7106C18.4815 20.5402 18.499 20.3568 18.473 20.1766C18.475 20.1436 18.4644 20.103 18.4664 20.0699C18.455 20.0328 18.4485 19.9943 18.4472 19.9556C18.4334 19.7407 18.3785 19.5302 18.2858 19.3359L18.2752 19.2953C18.8277 19.6721 19.3287 20.0948 19.8765 20.4946ZM20.749 20.8423L20.7397 20.8881L20.7148 21.0356L20.7253 21.0762C20.7268 21.3254 20.7256 21.5643 20.7344 21.8007C20.7375 21.8293 20.7341 21.8581 20.7247 21.885C20.7152 21.9119 20.6998 21.9362 20.6797 21.9559C20.6267 22.0062 20.5661 22.0476 20.5003 22.0786C20.3006 22.1832 20.0774 22.2338 19.8519 22.2257L19.683 22.2263L19.6282 22.2189C19.6408 22.2265 19.6408 22.2265 19.6434 22.2366C19.646 22.2468 19.6559 22.2442 19.6586 22.2544C19.7646 22.3042 19.8675 22.3607 19.9668 22.4236L20.9046 22.9821L20.9852 23.0479L20.8441 23.2365L20.7735 23.1681C20.745 23.1286 20.7109 23.0936 20.6725 23.0642C20.5624 22.9733 20.4457 22.8912 20.3233 22.8189C20.1326 22.695 19.9445 22.5813 19.7465 22.4701L19.0278 22.1041C19.0064 22.0968 18.9878 22.0826 18.975 22.0636L18.8628 22.0385L18.9128 21.9062L19.1382 21.3919L19.3714 20.9081C19.4218 20.8045 19.5067 20.7229 19.611 20.6778C19.7153 20.6328 19.8323 20.6272 19.9413 20.6621C20.0452 20.6957 20.151 20.7225 20.258 20.7423L20.749 20.8423ZM21.403 20.1079C21.6899 20.12 21.977 20.1106 22.262 20.0795L22.4948 20.0406L22.5001 20.0609L22.2304 20.283L22.1942 20.3467C22.142 20.3991 22.1117 20.4702 22.1097 20.5455C22.1077 20.6207 22.134 20.6943 22.1832 20.7509C22.1989 20.7736 22.209 20.7998 22.2125 20.8273C22.2159 20.8548 22.2127 20.8827 22.2031 20.9084C22.1126 21.1528 21.961 21.368 21.7634 21.5327C21.5916 21.6831 21.3678 21.757 21.1407 21.7382L21.0715 21.7563C21.2728 21.9208 21.4444 22.0931 21.6748 22.2066C21.6305 22.2706 21.5779 22.3281 21.5185 22.3775C21.4545 22.4159 21.4109 22.3296 21.3562 22.3221L21.3212 22.3096C21.2236 22.2648 21.129 22.2133 21.0381 22.1555C21.0108 22.1426 20.9863 22.1243 20.9659 22.1017C20.9455 22.079 20.9296 22.0525 20.9192 22.0237C20.8944 21.9692 20.8791 21.9107 20.8743 21.851L20.8478 21.7494C20.8032 21.3185 20.8071 20.8843 20.8596 20.4555C20.8713 20.2572 20.9445 20.1731 21.1252 20.1369L21.403 20.1079ZM22.8185 18.5244C23.2983 18.6859 23.7664 18.8831 24.2189 19.1143C24.3469 19.1801 24.4716 19.2526 24.5924 19.3317L24.3398 19.3757L24.2131 19.3762C24.0682 19.3616 23.9243 19.3375 23.7822 19.304L22.8214 19.0226C22.5061 18.9133 22.1992 18.7792 21.9035 18.6217C21.8899 18.6116 21.8744 18.6046 21.858 18.6014C21.8417 18.5981 21.8248 18.5986 21.8087 18.6028C21.7927 18.607 21.7777 18.6147 21.765 18.6256C21.7523 18.6364 21.7422 18.6501 21.7353 18.6655L21.699 18.7292C21.5818 19.0092 21.4645 19.2892 21.3347 19.5616L21.3129 19.5999L21.3235 19.6405C21.303 19.6827 21.2965 19.7307 21.3048 19.7774C21.3132 19.824 21.336 19.8669 21.3699 19.8996L21.3501 19.9048C21.3078 19.9049 21.2656 19.9051 21.2425 19.8568C21.2194 19.8086 21.1204 19.8344 21.1171 19.781L21.1118 19.7607C21.1243 19.6056 21.1268 19.4531 21.1518 19.3055C21.1768 19.158 21.2353 18.9367 21.2847 18.7611C21.3238 18.6238 21.3698 18.4888 21.4224 18.3565C21.4322 18.3169 21.4559 18.2827 21.4889 18.2601C21.522 18.2375 21.5621 18.2282 21.6017 18.2338C21.6851 18.2296 21.7688 18.237 21.8505 18.2558C22.16 18.3488 22.4912 18.4036 22.8185 18.5244ZM22.6462 18.309L22.3868 18.2463L22.3816 18.226L22.5505 18.2254C22.6224 18.2175 22.6402 18.2454 22.6462 18.309ZM28.7517 18.6282C28.8411 18.4845 28.9493 18.3541 29.0735 18.2407L29.3439 18.0619C29.5547 17.944 29.7863 17.8689 30.0259 17.8409C30.228 17.8278 30.428 17.7939 30.6229 17.7396C30.969 17.646 31.2717 17.4332 31.4802 17.1367C31.5171 17.0819 31.5478 17.023 31.5718 16.961C31.5788 16.9459 31.582 16.9292 31.5813 16.9124C31.5806 16.8956 31.576 16.8791 31.5678 16.8644C31.5401 16.8391 31.5157 16.8672 31.4887 16.8851C31.4306 16.9268 31.3698 16.9644 31.3066 16.9975C31.1512 17.071 30.9912 17.1344 30.8278 17.1873C30.5697 17.2707 30.3015 17.3186 30.0302 17.3299L29.6106 17.3415C29.5539 17.3379 29.4979 17.327 29.4437 17.3091C29.4776 17.2302 29.518 17.1543 29.5643 17.0824C29.5799 17.0468 29.6081 17.0187 29.6432 17.0035C29.6784 16.9884 29.718 16.9873 29.7542 17.0004L29.8618 17.0483L30.0967 17.139C30.1532 17.1628 30.216 17.1644 30.273 17.1435C30.3301 17.1227 30.3772 17.0808 30.4054 17.0261C30.4567 16.9458 30.5019 16.8615 30.5405 16.774L30.6176 16.6237C30.671 16.5447 30.6908 16.5396 30.7786 16.5927L30.964 16.6962C30.9837 16.7129 31.007 16.7244 31.0319 16.7297C31.0569 16.735 31.0826 16.7339 31.1068 16.7265C31.1311 16.7191 31.1531 16.7057 31.1708 16.6874C31.1886 16.6691 31.2017 16.6465 31.2088 16.6217C31.2496 16.5547 31.2843 16.484 31.3122 16.4103L31.4104 16.1787C31.4638 16.0997 31.4934 16.0919 31.566 16.1273L31.7112 16.1979C31.7571 16.2204 31.8089 16.2258 31.8578 16.2131C31.9067 16.2004 31.9494 16.1704 31.9784 16.1284L32.0714 16.0391L32.0793 16.0696C32.0412 16.4733 31.915 16.8621 31.7099 17.2071L31.412 17.686C31.3255 17.7979 31.2335 17.9051 31.1364 18.0073C30.9821 18.1451 30.7888 18.1737 30.5929 18.1922C30.3969 18.2107 30.1561 18.2192 29.9457 18.2631C29.5881 18.3236 29.2389 18.4255 28.9048 18.5667L28.7517 18.6282ZM26.0772 19.9213C25.9981 19.9419 25.9479 19.9116 25.8971 19.838L26.2315 19.7835C26.4123 19.7435 26.5879 19.6833 26.7553 19.6037C27.0463 19.4768 27.3242 19.3209 27.5849 19.1382C27.8288 18.9601 28.0559 18.7593 28.2635 18.5384C28.4181 18.3696 28.5621 18.1908 28.6946 18.0031C28.8992 17.7053 29.0449 17.369 29.1235 17.0128C29.1919 16.6514 29.2235 16.2833 29.2178 15.9143C29.2169 15.865 29.2349 15.8175 29.2679 15.782C29.3425 15.6912 29.4224 15.6052 29.5072 15.5244L30.4956 14.5728L30.8154 14.2183C30.8379 14.1964 30.8558 14.17 30.8682 14.1407C30.8805 14.1114 30.887 14.0798 30.8872 14.0478L30.7784 14.0761L30.6306 14.158L30.2033 14.4645L29.4099 15.0291C29.1597 15.2224 28.8997 15.4023 28.6311 15.5681C28.5374 15.6142 28.5461 15.6879 28.5573 15.7718C28.5686 15.8556 28.5845 15.9165 28.5905 15.9801C28.6 16.2199 28.5771 16.4595 28.5223 16.6921C28.4646 16.9268 28.3645 17.1478 28.2271 17.3438C28.0687 17.5626 27.8813 17.7574 27.67 17.9228C27.4312 18.1292 27.159 18.2918 26.8654 18.4035C26.481 18.5383 26.0716 18.5857 25.6654 18.5424C25.3962 18.5123 25.1324 18.4421 24.8821 18.3342C24.6915 18.2546 24.5174 18.1378 24.3699 17.9903C24.2679 17.8832 24.1874 17.7566 24.1332 17.6181C24.079 17.4795 24.0521 17.3316 24.0541 17.183C24.056 17.0869 24.0627 16.991 24.0743 16.8957C24.0756 16.8195 24.0254 16.7891 23.9562 16.8072C23.9208 16.8116 23.8879 16.8278 23.8625 16.8532L23.6838 17.0191L23.1809 17.725C23.0613 17.8948 22.9302 18.0558 22.7886 18.2068L22.7345 18.2426C22.6935 18.0487 22.7031 17.8478 22.7625 17.6604L22.779 17.6018L22.7935 17.5764L22.8027 17.5306C22.81 17.5178 22.8047 17.4975 22.8119 17.4848C22.906 17.2036 23.0309 16.9346 23.1842 16.6828C23.4156 16.3227 23.6985 16.0005 24.0235 15.7266C24.3662 15.4413 24.755 15.2189 25.173 15.0693C25.5819 14.9174 26.012 14.831 26.4482 14.8132C26.7811 14.8055 27.1141 14.8428 27.4385 14.9241L28.229 15.1196C28.3914 15.165 28.5635 15.1509 28.7153 15.0798L28.9566 14.9518L29.0872 14.8853L29.1387 14.8394L29.2 14.7908L29.2343 14.7602L30.1444 14.1978C30.4903 13.9746 30.8525 13.7788 31.228 13.6119C31.3415 13.5607 31.3711 13.5529 31.4524 13.662C31.4841 13.6886 31.5079 13.7237 31.521 13.7634C31.5595 13.8504 31.5932 13.9393 31.6222 14.03C31.646 14.1214 31.6387 14.1341 31.5497 14.1573L31.2231 14.2423C31.1855 14.2504 31.1516 14.271 31.1269 14.301C31.1022 14.331 31.0881 14.3686 31.0867 14.408C31.0847 14.4411 31.0926 14.4716 31.0907 14.5046C31.0979 14.5943 31.1002 14.6842 31.0974 14.774C31.1015 14.8706 31.0843 14.8859 30.9953 14.9091C30.8895 14.9199 30.7845 14.9364 30.6806 14.9585C30.582 14.9695 30.4849 14.9912 30.391 15.0231C30.2822 15.0514 30.2439 15.1482 30.2487 15.2879C30.2534 15.4277 30.2646 15.5116 30.2713 15.6183C30.2779 15.7251 30.2483 15.7328 30.1566 15.7458L29.8491 15.7825C29.7932 15.7841 29.7393 15.8037 29.6953 15.8385C29.6513 15.8733 29.6192 15.9216 29.6038 15.9765C29.5587 16.1319 29.5222 16.2899 29.4946 16.4497C29.4029 17.0078 29.2173 17.5443 28.946 18.0353C28.719 18.4048 28.4329 18.7323 28.0995 19.0042C27.8683 19.1889 27.6272 19.3603 27.3774 19.5176C27.2203 19.6286 27.0437 19.7077 26.857 19.7508C26.7047 19.8013 26.5494 19.8417 26.3919 19.8719C26.288 19.894 26.183 19.9105 26.0772 19.9213ZM26.3893 20.9573L26.4084 20.9089C26.4249 20.8896 26.4461 20.8752 26.47 20.8671C26.4939 20.859 26.5195 20.8575 26.5443 20.8627L26.6188 20.865L26.7554 20.862L26.725 20.8265C26.7224 20.8163 26.7224 20.8163 26.7098 20.8088L26.7045 20.7884L26.4313 20.6318L26.391 20.5989C26.425 20.5911 26.4608 20.5974 26.4907 20.6163L26.8741 20.8311L26.884 20.8285C26.9145 20.8505 26.9424 20.876 26.9672 20.9045L26.9276 20.9148L26.8405 20.9049L26.3893 20.9573ZM26.2437 21.3315C26.2213 21.3265 26.1916 21.3342 26.1665 21.319L25.5891 21.0897C25.5066 21.057 25.4545 21.0597 25.4136 21.1463C25.3968 21.1712 25.3862 21.2 25.3827 21.2303C25.3115 21.4217 25.2891 21.629 25.3177 21.833C25.3155 21.8896 25.3348 21.9453 25.3716 21.9883C25.4084 22.0313 25.4598 22.0582 25.5151 22.0636L25.6524 22.1038C25.3185 22.3158 24.9742 22.5105 24.6209 22.6869C24.669 22.6101 24.7301 22.5427 24.8015 22.488C24.8304 22.4705 24.8522 22.443 24.863 22.4104C24.8739 22.3779 24.8731 22.3422 24.8608 22.3099C24.8377 22.2617 24.8271 22.221 24.8066 22.183C24.6632 21.8785 24.4386 21.6209 24.1589 21.4405C24.1413 21.4322 24.1259 21.4195 24.1144 21.4035C24.1028 21.3875 24.0954 21.3688 24.0929 21.3492L24.1325 21.3389C24.1749 21.3175 24.2228 21.3099 24.2699 21.317C24.317 21.3241 24.3611 21.3456 24.3964 21.3786C24.4465 21.4079 24.5017 21.4267 24.5587 21.434C24.6497 21.4517 24.7431 21.4479 24.8318 21.423C24.9205 21.398 25.0022 21.3524 25.0706 21.2898L25.3937 20.9888L25.4623 20.9275C25.5206 20.8631 25.5539 20.779 25.5561 20.6908C25.5584 20.6025 25.5294 20.5159 25.4745 20.447C25.4462 20.41 25.4054 20.3848 25.3603 20.3765C25.3152 20.3682 25.2689 20.3774 25.2304 20.4021C25.2651 20.416 25.2969 20.4368 25.3238 20.4633C25.3507 20.4899 25.3721 20.5216 25.3869 20.5566C25.3994 20.5989 25.4032 20.6433 25.398 20.6869C25.3928 20.7305 25.3787 20.7724 25.3566 20.8098C25.3345 20.8473 25.3048 20.8795 25.2696 20.9043C25.2344 20.9292 25.1944 20.9461 25.1522 20.954L24.8916 20.9676C24.6454 20.9736 24.4055 21.0436 24.1944 21.1709L23.9668 21.2301L23.9226 21.2633C23.9127 21.2659 23.9028 21.2685 23.9002 21.2583L23.8454 21.2509C23.7107 21.1791 23.5711 21.1175 23.4277 21.0668C23.233 21.009 23.041 20.9614 22.8491 21.0765C22.8348 21.0846 22.8188 21.0892 22.8024 21.0897C22.786 21.0902 22.7696 21.0866 22.7548 21.0793C22.5713 20.9672 22.4015 20.8329 22.2491 20.6795C22.2382 20.6696 22.2309 20.6561 22.2287 20.6414C22.2135 20.6223 22.204 20.5991 22.2014 20.5748C22.1988 20.5504 22.2032 20.5259 22.2141 20.5042C22.2855 20.338 22.3968 20.1934 22.5377 20.0836C22.6119 20.0074 22.7005 19.9475 22.7982 19.9073C23.1264 19.7804 23.4635 19.6781 23.8068 19.6013L23.9058 19.5755L23.9111 19.5959C23.9137 19.606 23.9038 19.6086 23.9064 19.6188C23.8945 19.6523 23.8723 19.6809 23.8432 19.7003C23.8244 19.7556 23.7885 19.803 23.741 19.8354L23.6994 19.8788L23.6797 19.8839C23.5525 19.9713 23.4141 20.0402 23.2681 20.0887L22.8578 20.2172L22.8182 20.2275C22.8315 20.2783 22.8611 20.2706 22.8935 20.273C23.3392 20.3371 23.7908 20.3364 24.2347 20.2709L24.5395 20.2241C24.7376 20.195 24.9239 20.1128 25.0797 19.9858C25.1339 19.9455 25.1771 19.8916 25.2052 19.8293C25.2333 19.767 25.2454 19.6982 25.2405 19.6293C25.2398 19.5861 25.249 19.5403 25.2457 19.487C25.2395 19.4664 25.2374 19.4448 25.2397 19.4234C25.3426 19.4698 25.4376 19.533 25.5209 19.6106C25.5576 19.6467 25.5841 19.6923 25.5975 19.7425L25.6028 19.7628C25.6054 19.773 25.5982 19.7857 25.6008 19.7958C25.5962 19.8187 25.5962 19.8187 25.5916 19.8416C25.5758 19.8896 25.5462 19.9313 25.5066 19.9614C25.5092 19.9716 25.5092 19.9716 25.502 19.9843C25.4947 19.997 25.527 19.9995 25.5297 20.0096L25.5891 19.9942L25.6233 19.9635C25.6578 19.8979 25.6858 19.8288 25.707 19.7573L25.7446 19.7801C25.8839 19.9499 26.0305 20.107 26.1672 20.2667C26.2355 20.3374 26.2752 20.4318 26.2782 20.5306C26.2855 20.6806 26.2902 20.8204 26.285 20.9628C26.2981 21.0876 26.284 21.2136 26.2437 21.3315ZM25.0474 21.0789C25.0008 21.1397 24.941 21.1885 24.8725 21.2214C24.8041 21.2543 24.729 21.2704 24.653 21.2684C24.5577 21.275 24.4625 21.2504 24.3811 21.1982C24.5923 21.1121 24.8191 21.0715 25.0474 21.0789ZM25.7421 22.1238L25.8114 22.1058L26.2184 22.0865L26.2237 22.1069C25.8874 22.2317 25.5739 22.4123 25.2958 22.6414C24.7205 23.125 24.2586 23.7343 23.943 24.4255C23.9032 24.5257 23.87 24.6285 23.8436 24.7334C23.8153 24.8276 23.8068 24.9166 23.7811 25.0209C23.5381 24.5743 23.2192 24.2018 22.9398 23.8189C23.0876 23.7371 23.238 23.6654 23.3831 23.5733C23.7642 23.3331 24.1355 23.0954 24.5346 22.883C24.9588 22.6674 25.3629 22.4134 25.7421 22.1238ZM24.5351 22.7635L24.5154 22.7687L24.5101 22.7483L24.5496 22.738C24.5424 22.7508 24.5424 22.7508 24.5351 22.7635ZM26.5475 21.849C26.4739 21.8862 26.3959 21.9138 26.3153 21.9311C26.2209 21.9519 26.1245 21.9625 26.0277 21.9627C25.8652 21.9848 25.6999 21.9802 25.5381 21.9491C25.5111 21.9445 25.4861 21.9308 25.4674 21.9101C25.4486 21.8894 25.437 21.863 25.4345 21.8351C25.4239 21.7901 25.419 21.744 25.4199 21.6979C25.4107 21.5459 25.4364 21.3944 25.4948 21.2553C25.4989 21.2191 25.5 21.1825 25.4981 21.146C26.0168 21.434 26.5361 21.6025 27.104 21.3895C27.1021 21.4123 27.0928 21.4338 27.0777 21.4506C27.0366 21.5194 26.9784 21.5758 26.9089 21.6139C26.9016 21.6266 26.9043 21.6368 26.8944 21.6393C26.8845 21.6419 26.897 21.6495 26.8872 21.6521L26.5475 21.849ZM28.9495 27.016L29.2007 26.7228L29.2502 26.7099L29.3907 26.6408C29.7221 26.4479 30.0664 26.2786 30.4209 26.1339L31.0699 25.8673L31.6181 25.6595C31.7661 25.6123 31.9003 25.529 32.0092 25.4166C32.1322 25.2305 32.2104 25.0169 32.2377 24.793C32.2403 24.7818 32.2391 24.77 32.2345 24.7595C32.2298 24.7489 32.2219 24.7402 32.212 24.7347L32.1473 24.7298L31.995 24.8345C31.8354 24.964 31.6521 25.0597 31.4554 25.1161L30.6547 25.368C30.4455 25.4313 30.2322 25.4796 30.0161 25.5125L29.9416 25.5103L30.1169 25.291L30.4954 24.8779C30.5224 24.8452 30.5588 24.8219 30.5995 24.8113C30.6403 24.8007 30.6834 24.8033 30.7229 24.8187C30.805 24.8448 30.8882 24.8666 30.9724 24.8839C31.0298 24.9037 31.0916 24.9053 31.1495 24.8882C31.2074 24.8712 31.2586 24.8365 31.2962 24.7887C31.3446 24.7426 31.3879 24.6914 31.4255 24.6357C31.498 24.5084 31.5678 24.3709 31.6502 24.2409L31.7352 24.1212C31.8235 24.1686 31.9082 24.2227 31.9887 24.283C32.0224 24.3091 32.0637 24.3227 32.1057 24.3216C32.1477 24.3206 32.1879 24.3048 32.2196 24.2771L32.3317 24.1394L32.4193 24.0298L32.4774 24.0906C32.6411 24.2324 32.6788 24.2551 32.8271 24.0538C32.9754 23.8525 33.0182 23.7328 33.1151 23.5774L33.1876 23.4501C33.2113 23.4863 33.2319 23.5245 33.249 23.5643C33.2684 23.6251 33.2778 23.6886 33.2769 23.7523C33.2654 23.844 33.2426 23.9338 33.2091 24.0194C33.0768 24.4315 32.8863 24.8209 32.6437 25.1754C32.5402 25.3435 32.412 25.494 32.2633 25.6216C31.9901 25.8509 31.6783 26.0277 31.3426 26.1434L30.6803 26.3592L29.9442 26.616C29.6401 26.7319 29.3437 26.8671 29.0564 27.0207L28.9674 27.0439L28.9495 27.016ZM23.1369 26.6856C23.1216 26.5053 23.1447 26.3244 23.2046 26.1552C23.2646 25.986 23.3599 25.8326 23.484 25.7057C23.5764 25.597 23.7036 25.5255 23.8434 25.5036C23.9214 25.722 24.0093 25.9377 24.0846 26.1459C24.1085 26.197 24.1229 26.2521 24.127 26.3084C24.1375 26.3491 24.1527 26.3668 24.1851 26.3692C24.1925 26.3731 24.2007 26.3751 24.209 26.3751C24.2174 26.375 24.2255 26.3728 24.2328 26.3688C24.24 26.3648 24.2462 26.359 24.2508 26.3519C24.2553 26.3449 24.2581 26.3368 24.2589 26.3283C24.2599 26.2892 24.2568 26.25 24.2496 26.2114C24.2233 26.1309 24.1922 26.0521 24.1564 25.9753C24.0917 25.8078 24.0243 25.6301 23.9668 25.4498C23.9492 25.3891 23.9366 25.3271 23.9291 25.2644C23.9345 25.2469 23.9333 25.2278 23.9257 25.211C23.933 25.1983 23.9277 25.178 23.9349 25.1652C23.9422 25.1525 23.9369 25.1322 23.9316 25.1118L23.9428 25.033C23.95 25.0203 23.9447 25 23.952 24.9872C23.9506 24.9792 23.9522 24.971 23.9566 24.9643C23.9567 24.9357 23.9639 24.9077 23.9776 24.8829C23.9978 24.7993 24.0222 24.717 24.0507 24.6361L24.0606 24.6335L24.0751 24.608L24.0817 24.5521L24.0916 24.5495L24.116 24.5215L24.1305 24.496C24.1351 24.4731 24.137 24.4401 24.1542 24.4247C24.298 24.0955 24.4844 23.7879 24.7085 23.5102C25.0164 23.0903 25.4013 22.736 25.8419 22.4666C26.1662 22.2827 26.5211 22.1608 26.8894 22.1071C27.1869 22.0734 27.4874 22.0715 27.786 22.1014C28.071 22.1196 28.3528 22.1776 28.6234 22.2739L28.8503 22.3341C29.107 22.3866 29.1097 22.3967 29.3332 22.2409C29.5568 22.085 29.9083 21.8525 30.178 21.6304C30.4477 21.4083 30.8869 21.0661 31.2628 20.8056C31.4502 20.6703 31.6495 20.553 31.8583 20.4552L31.8979 20.4449C31.9177 20.4398 31.9302 20.4473 31.9382 20.4778C31.9461 20.5083 31.9804 20.4777 31.9956 20.4954C32.1132 20.5916 32.2043 20.7176 32.2597 20.8605L32.2452 20.886L31.9682 20.9581C31.9232 20.9665 31.883 20.9918 31.8556 21.029C31.8282 21.0662 31.8154 21.1127 31.8198 21.1595C31.8193 21.279 31.8259 21.3857 31.8352 21.5026C31.8568 21.6392 31.8573 21.7782 31.8368 21.9144C31.8333 21.9453 31.8224 21.9747 31.805 22C31.7877 22.0254 31.7644 22.0459 31.7373 22.0596L31.4339 22.1929C31.4036 22.2034 31.3759 22.2201 31.3524 22.2421C31.3289 22.264 31.31 22.2907 31.297 22.3205C31.284 22.3503 31.2771 22.3825 31.2767 22.4153C31.2763 22.4481 31.2825 22.4807 31.2948 22.5111L31.3583 22.7549C31.3625 22.7652 31.3646 22.7763 31.3646 22.7874C31.3646 22.7985 31.3624 22.8095 31.3581 22.8197C31.3539 22.8299 31.3477 22.8391 31.34 22.8467C31.3322 22.8544 31.323 22.8604 31.3129 22.8644C31.2395 22.8925 31.1644 22.9157 31.0879 22.9338L30.6816 22.9962C30.5711 23.0053 30.4645 23.0404 30.3702 23.099C30.337 23.1171 30.3086 23.1433 30.2874 23.1752C30.2663 23.2072 30.2531 23.2439 30.2489 23.2824C30.2413 23.366 30.2384 23.4501 30.2405 23.5341C30.2323 23.76 30.2059 23.9845 30.1618 24.2055C30.0885 24.5659 29.9861 24.9191 29.8556 25.2615C29.7751 25.527 29.6596 25.7796 29.5124 26.0125C29.3838 26.2087 29.2553 26.4049 29.1116 26.5833C28.7267 27.1032 28.244 27.5386 27.6913 27.8644C27.4776 27.9933 27.2466 28.0899 27.0053 28.1515C26.6509 28.2376 26.2833 28.2561 25.9207 28.2061C25.4313 28.0612 24.9717 27.824 24.5658 27.5067C24.479 27.4397 24.3965 27.367 24.3189 27.289L24.2675 27.3349C24.1949 27.2996 24.1295 27.2515 24.0543 27.206C23.9448 27.1529 23.8595 27.0583 23.8166 26.9425C23.7962 26.8977 23.7804 26.8509 23.7697 26.8028C23.6963 26.5981 23.679 26.3775 23.7198 26.165L23.7724 25.8801C23.7782 25.8707 23.7818 25.86 23.7829 25.8489C23.784 25.8378 23.7826 25.8266 23.7789 25.8161C23.7751 25.8056 23.769 25.796 23.7612 25.7882C23.7533 25.7804 23.7438 25.7744 23.7334 25.7709L23.6503 25.8576C23.5942 25.9464 23.5442 26.0392 23.5007 26.1352C23.3353 26.4845 23.3114 26.8881 23.4341 27.259C23.4565 27.3465 23.5028 27.426 23.5677 27.4879C23.6325 27.5498 23.7131 27.5917 23.7999 27.6085L24.2782 27.7009C24.3787 27.7256 24.4814 27.7389 24.5844 27.7405C24.6267 27.7453 24.6676 27.7592 24.7044 27.7815C24.7411 27.8037 24.7729 27.8337 24.7976 27.8694L24.7382 27.8849C24.5187 27.8472 24.2959 27.8361 24.0745 27.8516L23.4688 27.8791C23.444 27.8809 23.4192 27.8741 23.3982 27.8599C23.3773 27.8457 23.3615 27.8249 23.3533 27.8007C23.3374 27.7398 23.2991 27.6738 23.2833 27.6129C23.1996 27.3102 23.1505 26.999 23.1369 26.6856ZM20.5625 24.4271C20.3611 24.2626 20.3882 24.2447 20.5167 24.0485C20.6452 23.8524 20.7409 23.7732 20.8628 23.633L21.1246 23.3804C21.1298 23.379 21.1343 23.3756 21.137 23.3708C21.1398 23.366 21.1405 23.3603 21.1391 23.3549L21.1338 23.3346L20.8825 23.4651C20.8825 23.4314 20.8923 23.3986 20.9108 23.371L21.2879 22.8714C21.4891 22.6042 21.7048 22.3489 21.934 22.1066L22.5478 21.502L22.5676 21.4969C22.6705 21.3791 22.798 21.2866 22.9409 21.2261C23.0252 21.1934 23.1159 21.1809 23.2061 21.1896C23.4722 21.2372 23.7276 21.3364 23.9584 21.4818C24.281 21.6706 24.5468 21.9469 24.7262 22.2799C24.7439 22.3144 24.757 22.3511 24.7652 22.389C24.1797 22.8995 23.554 23.3599 22.8943 23.7657C22.854 23.7328 22.8362 23.7049 22.8085 23.6796L23.4613 23.1841L23.4903 23.1332L23.9414 22.7554L24.3707 22.4158C24.459 22.3494 24.4979 22.2959 24.4187 22.1538L24.3519 22.0193C24.2231 21.8609 24.0699 21.7248 23.8984 21.6168L23.8608 21.594C23.5724 21.4196 23.2412 21.3649 22.9198 21.3075L22.8506 21.3256L22.8611 21.3662C22.9801 21.4052 23.0902 21.4688 23.1845 21.5532L23.2275 21.5962L23.273 21.6495L23.3007 21.6748C23.3166 21.6904 23.3288 21.7095 23.3364 21.7306C23.4266 21.8513 23.476 21.9985 23.4772 22.1495C23.4869 22.2912 23.4488 22.4313 23.3692 22.5464C23.2555 22.705 23.1326 22.8565 23.0014 23.0002C22.8596 23.1456 22.7126 23.2706 22.5583 23.4084L22.4698 23.3122C22.4353 23.2876 22.4032 23.2596 22.3741 23.2286C22.349 23.2134 22.3365 23.2059 22.3292 23.2186L22.3193 23.2212C22.3094 23.2238 22.3094 23.2238 22.3121 23.2339C22.3147 23.2441 22.3048 23.2466 22.3101 23.267L22.3583 23.3303L22.4494 23.4368C22.7396 23.7393 23.0048 24.0657 23.2424 24.4127C23.4101 24.651 23.5706 24.9021 23.7383 25.1405C23.7636 25.1709 23.7827 25.2061 23.7944 25.2441C23.8061 25.2821 23.8102 25.322 23.8064 25.3614C23.5916 25.4251 23.4071 25.5655 23.2861 25.7572L23.2426 25.8336L23.2281 25.8591L23.2063 25.8973L23.1246 26.0704L23.1181 26.1264L23.1016 26.1849C23.0895 26.303 23.0706 26.4202 23.0451 26.5359L23.0373 26.6681L23.0069 26.6326C22.7661 26.3698 22.5108 26.1212 22.2424 25.888C21.8946 25.5664 21.5368 25.2473 21.1816 24.9384L20.5625 24.4271ZM17.8963 23.2773C17.9509 22.7782 17.9227 22.2721 17.813 21.7804C17.8048 21.7532 17.801 21.7249 17.8017 21.6965L17.9066 21.7343L18.8899 22.1833C19.4587 22.4588 20.0118 22.7675 20.5465 23.1079C20.5517 23.1065 20.5573 23.1074 20.562 23.1102C20.5667 23.1131 20.5702 23.1177 20.5716 23.1231L20.6118 23.156C20.6217 23.1534 20.6244 23.1636 20.627 23.1737L20.7075 23.2395L20.7551 23.2597L20.8026 23.2799C20.7644 23.3766 20.7545 23.3792 20.672 23.3464C20.5895 23.3137 20.3295 23.2078 20.1619 23.1321L19.8867 23.0085C19.8167 22.9834 19.7824 23.014 19.791 23.0877C19.7989 23.1114 19.8019 23.1365 19.7997 23.1614C19.8018 23.2093 19.7923 23.2569 19.7722 23.2999C19.7521 23.343 19.722 23.3802 19.6844 23.4083C19.6074 23.463 19.5166 23.4941 19.4225 23.4982C19.1407 23.4888 18.8624 23.4251 18.6023 23.3104L18.3172 23.1894L18.2427 23.1871C18.2506 23.2176 18.2559 23.2379 18.2684 23.2455L18.6149 23.4807C18.8585 23.6451 19.1093 23.7967 19.3456 23.9738C19.6002 24.166 19.865 24.3433 20.1389 24.5049C20.2267 24.5579 20.3073 24.6237 20.3924 24.6667C20.5293 24.7483 20.6715 24.82 20.8181 24.8812C20.8964 24.9072 20.965 24.9576 21.0141 25.0255C20.9542 25.1604 20.8776 25.1912 20.7476 25.1382L20.5101 25.0374C20.0759 24.8602 19.6583 24.6421 19.2627 24.3859L18.9717 24.2014L18.4113 23.7941C18.243 23.6752 18.0918 23.541 17.9208 23.4119C17.7499 23.2829 17.897 23.3205 17.8963 23.2773ZM16.9139 28.5121C16.9132 28.4689 16.9152 28.4358 16.9574 28.4357L17.185 28.3764C17.1877 28.5493 17.1977 28.7094 17.1978 28.8721C17.1979 29.0348 17.1959 29.0678 17.1901 29.167C17.1842 29.2661 17.1618 29.2611 17.0898 29.269L16.9559 29.2822L16.857 29.3079L16.8878 29.0613C16.8897 28.8655 16.9067 28.6875 16.9139 28.5121ZM15.4596 24.9966L15.5824 25.0622L15.6504 25.1205L15.715 25.1253L16.3492 25.329C16.365 25.3334 16.3792 25.3425 16.39 25.3551C16.4008 25.3678 16.4078 25.3834 16.4099 25.4C16.4747 25.5675 16.5269 25.7275 16.589 25.8849C16.6511 26.0422 16.7688 26.413 16.8474 26.6745C17.0021 27.1874 17.0948 27.7057 17.2917 28.2185L16.8564 28.3318C16.4629 27.1907 15.9963 26.0765 15.4596 24.9966ZM15.6245 23.8038C15.825 23.3037 16.0853 22.8315 16.3995 22.3979C16.5446 22.2003 16.7099 22.0191 16.8926 21.8573L16.9837 21.8011C17.0744 21.7428 17.1733 21.6987 17.2772 21.6704C17.3898 21.6764 17.5026 21.676 17.615 21.6692L17.6922 21.6817C17.7094 21.829 17.7438 21.9611 17.7584 22.0983C17.7949 22.4432 17.8005 22.7903 17.7749 23.1354C17.7451 23.4315 17.6788 23.7222 17.5775 24.0003C17.4346 24.3674 17.2483 24.7146 17.0226 25.0343L16.8571 25.251L16.7833 25.2919C16.6466 25.2863 16.5113 25.2593 16.3821 25.212L16.3544 25.1866L16.3293 25.1715L16.26 25.1895L15.7156 25.0058L15.4127 24.8569C15.3841 24.8417 15.3612 24.8172 15.3477 24.7873C15.3342 24.7574 15.3308 24.7238 15.338 24.692L15.3795 24.4859C15.4525 24.2391 15.5336 24.0227 15.6245 23.8038ZM13.9841 22.3327C13.9788 22.3123 13.9761 22.3022 13.9834 22.2895L13.9781 22.2691C13.9713 21.8516 13.923 21.4353 13.8342 21.0266C13.7956 20.8372 13.7369 20.6524 13.659 20.4756C13.6477 20.4615 13.6395 20.4452 13.635 20.4276C13.6304 20.4101 13.6296 20.3918 13.6325 20.374L13.6721 20.3637L13.7348 20.4016C13.7674 20.4127 13.7974 20.4308 13.8226 20.4547C13.9408 20.5433 14.0734 20.6064 14.1889 20.6848C14.3044 20.7632 14.214 20.6999 14.2166 20.7101C14.4906 20.9099 14.7744 21.1072 15.0311 21.3224C15.4504 21.6751 15.8488 22.0531 16.224 22.4545L16.135 22.4777L16.0373 22.4272L15.6862 22.2149L15.6334 22.1744L15.5661 22.1594L15.5463 22.1645C15.5516 22.1848 15.5443 22.1976 15.5397 22.2205C15.5439 22.2394 15.5416 22.2592 15.5331 22.2764C15.5254 22.3855 15.4763 22.4866 15.3962 22.5581C15.3161 22.6297 15.2114 22.6659 15.1045 22.6592C14.9915 22.651 14.8813 22.6166 14.7825 22.5587C14.5889 22.4461 14.4084 22.3111 14.2446 22.1564C14.2294 22.1386 14.2267 22.1285 14.2142 22.1209L14.0888 22.0451C14.0618 22.0629 14.0545 22.0757 14.0598 22.096L14.0697 22.0934L14.075 22.1137L14.0829 22.1442C14.1093 22.1637 14.1331 22.1867 14.1536 22.2126C14.342 22.4634 14.5484 22.6998 14.7709 22.9197L15.4964 23.7178L15.3811 23.9648C15.3534 23.9395 15.3409 23.9319 15.3356 23.9116L14.9605 23.4452C14.8668 23.3286 14.7631 23.2145 14.6793 23.0954C14.5954 22.9762 14.6007 22.9965 14.5578 22.9534L14.4944 22.8723L14.431 22.7912C14.4158 22.7735 14.4033 22.7659 14.398 22.7456C14.3927 22.7252 14.1451 22.4643 14.0138 22.3249C13.8824 22.1856 13.9795 22.3556 13.9841 22.3327ZM14.1141 28.7964L14.1067 28.6465C14.0921 28.5093 14.0775 28.372 14.053 28.2374C14.0511 28.232 14.0503 28.2263 14.0507 28.2206C14.051 28.2149 14.0525 28.2094 14.055 28.2044L14.3122 28.1374C14.356 28.549 14.3721 28.9353 14.3935 29.342L14.3341 29.3574L14.1876 29.363L14.1481 29.3733C14.1222 29.1523 14.1168 28.9693 14.1141 28.7964ZM12.0074 24.3986L12.0173 24.396L12.14 24.4617L12.1975 24.4792C12.3327 24.545 12.4713 24.603 12.6126 24.6532C12.8099 24.7211 12.9992 24.7586 13.1939 24.8164C13.2182 24.8175 13.2418 24.8254 13.2621 24.8392C13.2825 24.8531 13.2988 24.8723 13.3094 24.8948C13.328 24.9591 13.3514 25.0219 13.3795 25.0826L13.6346 25.8189L13.9214 26.6771C13.9789 26.8574 14.0562 27.0325 14.1065 27.2255C14.1691 27.4673 14.2518 27.7034 14.3537 27.9313C14.3592 27.9385 14.3629 27.947 14.3643 27.956C14.3657 27.965 14.3648 27.9742 14.3617 27.9827C14.3586 27.9911 14.3533 27.9986 14.3465 28.0043C14.3397 28.01 14.3315 28.0138 14.3227 28.0153L13.9269 28.1184C13.8702 28.144 13.8398 28.1085 13.8167 28.0603C13.7936 28.0121 13.6992 27.8523 13.6503 27.7457C13.4085 27.2229 13.1838 26.6848 12.9321 26.1645C12.6805 25.6443 12.3984 25.0886 12.0946 24.5711C12.0919 24.561 12.0893 24.5508 12.0794 24.5534C12.0608 24.5031 12.0376 24.4546 12.01 24.4087L12.0074 24.3986ZM11.8796 22.6095C12.1152 21.7345 12.5356 20.9254 13.1113 20.2386C13.1498 20.1762 13.2089 20.1301 13.2781 20.1084L13.3138 20.1642C13.3357 20.1645 13.3571 20.1714 13.3753 20.184C13.3936 20.1966 13.408 20.2143 13.4167 20.235L13.4273 20.2756C13.5333 20.4558 13.6126 20.6509 13.6625 20.8544C13.689 20.956 13.7055 21.0601 13.7221 21.1643C13.7387 21.2684 13.7975 21.5351 13.8227 21.713C13.8624 22.1025 13.8761 22.494 13.8637 22.8847C13.8394 23.4679 13.7714 24.0477 13.6602 24.619L13.6108 24.7946L13.531 24.772L12.9549 24.6291L12.728 24.5689C12.478 24.482 12.2367 24.3705 12.0073 24.2359L11.7717 24.102C11.7169 24.0775 11.6724 24.0337 11.6464 23.9787C11.6204 23.9236 11.6147 23.861 11.6303 23.8025C11.6277 23.7924 11.6323 23.7695 11.6296 23.7593C11.6835 23.3696 11.7671 22.9851 11.8796 22.6095ZM8.74501 20.2691C8.7225 20.2404 8.70363 20.2088 8.68887 20.1753C10.05 20.3306 11.3828 20.4175 12.7452 20.4966L12.7255 20.5018L12.711 20.5272L12.6965 20.5527L12.6721 20.5808L12.6107 20.6293L12.5916 20.6776L12.5817 20.6802C12.5771 20.7031 12.5672 20.7057 12.5475 20.7108L12.4782 20.7289L11.7973 20.7109C11.6284 20.7115 11.5941 20.7421 11.5645 20.9125C11.5323 21.0539 11.4783 21.1888 11.4045 21.3122C11.3221 21.4361 11.21 21.5362 11.0787 21.6031C10.9152 21.6714 10.7378 21.699 10.5609 21.6837C10.3274 21.677 10.0957 21.635 9.87333 21.559L9.76115 21.534C9.74998 21.6128 9.79485 21.6229 9.83247 21.6456L10.3855 21.9029L11.2487 22.2965L11.7443 22.5362L11.6923 22.7016L10.8562 22.2902L10.1302 21.9369L9.80485 21.783L9.48214 21.6392C9.42738 21.6318 9.37261 21.6243 9.35145 21.5431C9.32448 21.4449 9.29226 21.3483 9.25495 21.2536C9.12582 20.9053 8.95449 20.5746 8.74501 20.2691ZM9.81218 28.3437L9.82668 28.3183C9.83393 28.3055 9.82864 28.2852 9.83589 28.2725C9.84314 28.2598 9.83393 28.3055 9.82668 28.3183L9.81218 28.3437ZM9.74829 27.4492C9.7575 27.4034 9.76935 27.3678 9.82941 27.3955C9.88946 27.4233 9.98645 27.4306 9.98058 27.5297C9.98246 27.5351 9.98326 27.5408 9.98293 27.5465C9.98259 27.5522 9.98112 27.5577 9.97862 27.5628C9.97301 27.7812 9.93281 27.9968 9.85959 28.2012L9.84509 28.2267L9.83324 28.2623L9.84509 28.2267C9.85234 28.214 9.8497 28.2038 9.85959 28.2012C9.86949 28.1987 9.85097 28.1275 9.85558 28.1047C9.86018 28.0818 9.8976 27.7791 9.92983 27.6189C9.96206 27.4586 9.93179 27.5858 9.93639 27.5629C9.941 27.54 9.93962 27.4536 9.83539 27.4591L9.8012 27.6524L9.76838 27.9321C9.76319 28.0745 9.74546 28.2093 9.74027 28.3516L9.80953 28.3336C9.80703 28.3386 9.80556 28.3442 9.80522 28.3499C9.80489 28.3555 9.80569 28.3613 9.80757 28.3666L9.79768 28.3692C9.77858 28.4176 9.75614 28.4126 9.66376 28.3824L9.57666 28.3725L9.55687 28.3777L9.58186 28.2302L9.72135 27.6298C9.72438 27.5687 9.7334 27.5082 9.74829 27.4492ZM8.06682 23.5481L8.08661 23.5429L8.24894 23.5983L8.41059 23.6104L8.43038 23.6053L8.92855 23.6925L9.12517 23.7172C9.15482 23.8107 9.17954 23.9056 9.19924 24.0017C9.25616 24.3014 9.31044 24.591 9.37461 24.878C9.38976 24.943 9.40988 25.0066 9.43477 25.0685C9.51148 25.3631 9.59809 25.6551 9.6748 25.9497C9.75151 26.2443 9.86261 26.671 9.9453 27.0291C9.96357 27.1043 9.9764 27.1807 9.98371 27.2577L9.94413 27.268L9.77788 27.2788C9.71851 27.2942 9.71057 27.2638 9.6901 27.2257L9.08493 25.8755C8.79161 25.2359 8.49828 24.5964 8.21485 23.9543C8.16067 23.8274 8.11375 23.6877 8.06682 23.5481ZM8.20482 20.5074C8.27796 20.3792 8.36341 20.2588 8.45992 20.1481C8.47198 20.1616 8.48001 20.1784 8.48304 20.1963C8.50443 20.2036 8.52298 20.2178 8.53585 20.2368C8.54839 20.2444 8.54839 20.2444 8.55103 20.2545C8.88051 20.6677 9.06949 21.15 9.22154 21.6528C9.28699 21.8636 9.32275 22.0821 9.38095 22.3055C9.44925 22.6179 9.48265 22.9367 9.48049 23.2559C9.47991 23.3754 9.48922 23.4923 9.48863 23.6117C9.41574 23.6386 9.33671 23.6442 9.26036 23.6278L8.44615 23.5035C8.22206 23.4687 8.00045 23.4176 7.783 23.3508L7.71041 23.3155C7.6385 23.3233 7.58569 23.2829 7.51574 23.2577C7.44579 23.2325 7.53073 22.95 7.53328 22.7975C7.57015 21.9871 7.80072 21.2007 8.20482 20.5074ZM6.76995 18.5271C6.77593 18.4044 6.77563 18.2814 6.76907 18.1586C6.74056 17.9273 6.72194 17.6935 6.68089 17.4547C6.64462 17.1866 6.57276 16.9243 6.46731 16.6751C6.44154 16.6167 6.40588 16.5609 6.38011 16.5026C6.46304 16.5441 6.54271 16.5923 6.61837 16.6466C6.887 16.8262 7.17542 17.0005 7.43681 17.1928C7.69819 17.3851 7.95232 17.5901 8.19656 17.7977L9.2316 18.6888L9.54187 18.9877L9.55774 19.0487C9.57557 19.0766 9.55843 19.0919 9.54853 19.0945L9.50895 19.1048C9.41265 19.1407 9.30381 19.169 9.21015 19.2151C8.93736 19.3352 8.6328 19.3612 8.34196 19.2893C7.98421 19.2061 7.65013 19.0364 7.36785 18.7945L7.16653 18.63C7.14145 18.6148 7.11372 18.5895 7.08473 18.6404C7.10434 18.6802 7.12827 18.7177 7.15605 18.752C7.47171 19.2339 7.83155 19.6826 8.1815 20.1338C8.24753 20.2251 8.25017 20.2353 8.15191 20.3042L7.89837 19.9797L7.04662 18.8998C6.97069 18.8111 6.87233 18.7174 6.78651 18.6313C6.70069 18.5452 6.77064 18.5704 6.76995 18.5271ZM6.73466 24.4373L6.98203 24.3729C6.99304 24.4066 6.99863 24.4417 6.99859 24.4771L7.02475 25.1862C7.03073 25.2497 7.02681 25.3158 7.03014 25.3692C7.01887 25.2854 7.0175 25.1989 7.00623 25.1151C6.99497 25.0312 6.99095 24.9347 6.98958 24.8482C6.9882 24.7618 6.9789 24.6449 6.96498 24.5509C6.95107 24.4569 6.95107 24.4569 6.92864 24.4519C6.9062 24.4469 6.87387 24.4445 6.83429 24.4548C6.83475 24.5474 6.84119 24.6399 6.8536 24.7318C6.86095 24.8817 6.87819 25.0291 6.89279 25.1663C6.90739 25.3035 6.91062 25.1942 6.91326 25.2044C6.91591 25.2145 6.90866 25.2273 6.89152 25.2426L6.9021 25.2832C6.91268 25.3239 6.93315 25.3619 6.94373 25.4026L6.95432 25.4432C6.96754 25.494 6.98998 25.499 7.02691 25.4785C7.06384 25.4581 7.03093 25.5751 6.95902 25.583L6.90426 25.5755L6.80002 25.581C6.79828 25.1991 6.77646 24.8173 6.73466 24.4373ZM4.76888 20.6211L4.78867 20.6159L4.96952 20.7424L5.05926 20.7624L5.06916 20.7599C5.35065 20.896 5.64663 20.9974 5.95077 21.0618C5.97561 21.0687 5.99858 21.0815 6.01784 21.0991C6.03711 21.1167 6.05212 21.1386 6.06168 21.1631C6.12712 21.3739 6.20246 21.582 6.26791 21.7928C6.33335 22.0035 6.39948 22.2575 6.48011 22.486C6.56074 22.7145 6.64667 22.9633 6.72005 23.2045C6.79343 23.4458 6.8913 23.8216 7.00034 24.1187C7.02082 24.1567 7.0314 24.1974 7.05452 24.2456C6.92399 24.2978 6.7864 24.33 6.64619 24.3411C6.54 24.3796 6.5301 24.3821 6.48386 24.2857C6.46389 24.252 6.4475 24.2163 6.43497 24.1791L6.05112 23.3136C5.84235 22.8365 5.63357 22.3593 5.405 21.8873C5.17644 21.4153 4.9948 21.0829 4.7874 20.6922L4.76888 20.6211ZM4.38788 20.0912L4.38259 20.0708C4.38251 20.053 4.3814 20.0352 4.37926 20.0175L4.40159 19.8598L4.40815 19.8038C4.46145 19.5622 4.52463 19.3179 4.57528 19.0661C4.74418 18.3605 5.0402 17.6949 5.44825 17.1032C5.59128 16.8815 5.76928 16.6725 5.93475 16.4558C5.96429 16.4201 5.99897 16.3891 6.03761 16.364C6.06201 16.3359 6.08709 16.3511 6.10492 16.379C6.12275 16.4069 6.1828 16.4346 6.21317 16.4701C6.28725 16.5882 6.3484 16.7141 6.3955 16.8457C6.43973 16.975 6.47422 17.1074 6.49866 17.2419C6.55372 17.4856 6.59332 17.7326 6.61721 17.9812C6.65137 18.3849 6.65448 18.7903 6.62654 19.1936C6.59856 19.6175 6.54971 20.0393 6.48019 20.4575C6.446 20.6508 6.39927 20.8365 6.35519 21.0324L6.1955 20.9872C5.79096 20.9039 5.3975 20.7696 5.02419 20.5872C4.82884 20.4862 4.65063 20.3699 4.46518 20.2663C4.43745 20.2474 4.41545 20.2209 4.40176 20.1899C4.38807 20.1589 4.38325 20.1246 4.38788 20.0912Z" fill="url(#paint0_diamond_802_8)"/>
</g>
</g>
<defs>
<filter id="filter0_d_802_8" x="0.269531" y="3.49951" width="37.1797" height="33.9873" filterUnits="userSpaceOnUse" color-interpolation-filters="sRGB">
<feFlood flood-opacity="0" result="BackgroundImageFix"/>
<feColorMatrix in="SourceAlpha" type="matrix" values="0 0 0 0 0 0 0 0 0 0 0 0 0 0 0 0 0 0 127 0" result="hardAlpha"/>
<feOffset dy="4"/>
<feGaussianBlur stdDeviation="2"/>
<feComposite in2="hardAlpha" operator="out"/>
<feColorMatrix type="matrix" values="0 0 0 0 1 0 0 0 0 1 0 0 0 0 1 0 0 0 0.25 0"/>
<feBlend mode="normal" in2="BackgroundImageFix" result="effect1_dropShadow_802_8"/>
<feBlend mode="normal" in="SourceGraphic" in2="effect1_dropShadow_802_8" result="shape"/>
</filter>
<radialGradient id="paint0_diamond_802_8" cx="0" cy="0" r="1" gradientUnits="userSpaceOnUse" gradientTransform="translate(21.1912 29.7861) rotate(-14.5955) scale(14.8385 872.474)">
<stop stop-color="#DFAD34"/>
<stop offset="0.311864" stop-color="#FFF89C"/>
<stop offset="0.728814" stop-color="#F9C333"/>
<stop offset="1" stop-color="#FFEDBC"/>
</radialGradient>
</defs>
</svg>
