<svg width="135" height="136" viewBox="0 0 135 136" fill="none" xmlns="http://www.w3.org/2000/svg">
<g filter="url(#filter0_d_607_85037)">
<circle cx="67.16" cy="53.0272" r="30.16" fill="white" stroke="#FAF9F9" stroke-width="4"/>
<g filter="url(#filter1_df_607_85037)">
<circle cx="68.5" cy="50.5273" r="28.3398" fill="url(#paint0_radial_607_85037)"/>
</g>
</g>
<path d="M61.4668 45.6991H62.2365V51.0869C62.2365 51.9358 62.9269 52.6262 63.7758 52.6262H73.012C73.861 52.6262 74.5514 51.9358 74.5514 51.0869V45.6991H75.3211C75.4733 45.6991 75.6221 45.6539 75.7486 45.5693C75.8752 45.4847 75.9738 45.3646 76.032 45.2239C76.0903 45.0833 76.1055 44.9286 76.0758 44.7793C76.0461 44.63 75.9729 44.4929 75.8653 44.3852L68.9381 37.4581C68.8667 37.3866 68.7819 37.3298 68.6885 37.2911C68.5951 37.2524 68.495 37.2324 68.3939 37.2324C68.2928 37.2324 68.1928 37.2524 68.0994 37.2911C68.006 37.3298 67.9212 37.3866 67.8498 37.4581L60.9226 44.3852C60.815 44.4929 60.7417 44.63 60.712 44.7793C60.6824 44.9286 60.6976 45.0833 60.7558 45.2239C60.8141 45.3646 60.9127 45.4847 61.0393 45.5693C61.1658 45.6539 61.3146 45.6991 61.4668 45.6991ZM66.8546 51.0869V47.2385H69.9333V51.0869H66.8546ZM68.3939 39.0906L73.012 43.7087V47.2385L73.0128 51.0869H71.4727V47.2385C71.4727 46.3895 70.7823 45.6991 69.9333 45.6991H66.8546C66.0056 45.6991 65.3152 46.3895 65.3152 47.2385V51.0869H63.7758V43.7087L68.3939 39.0906Z" fill="#283E5B"/>
<path d="M61.4668 45.6991H62.2365V51.0869C62.2365 51.9358 62.9269 52.6262 63.7758 52.6262H73.012C73.861 52.6262 74.5514 51.9358 74.5514 51.0869V45.6991H75.3211C75.4733 45.6991 75.6221 45.6539 75.7486 45.5693C75.8752 45.4847 75.9738 45.3646 76.032 45.2239C76.0903 45.0833 76.1055 44.9286 76.0758 44.7793C76.0461 44.63 75.9729 44.4929 75.8653 44.3852L68.9381 37.4581C68.8667 37.3866 68.7819 37.3298 68.6885 37.2911C68.5951 37.2524 68.495 37.2324 68.3939 37.2324C68.2928 37.2324 68.1928 37.2524 68.0994 37.2911C68.006 37.3298 67.9212 37.3866 67.8498 37.4581L60.9226 44.3852C60.815 44.4929 60.7417 44.63 60.712 44.7793C60.6824 44.9286 60.6976 45.0833 60.7558 45.2239C60.8141 45.3646 60.9127 45.4847 61.0393 45.5693C61.1658 45.6539 61.3146 45.6991 61.4668 45.6991ZM66.8546 51.0869V47.2385H69.9333V51.0869H66.8546ZM68.3939 39.0906L73.012 43.7087V47.2385L73.0128 51.0869H71.4727V47.2385C71.4727 46.3895 70.7823 45.6991 69.9333 45.6991H66.8546C66.0056 45.6991 65.3152 46.3895 65.3152 47.2385V51.0869H63.7758V43.7087L68.3939 39.0906Z" fill="#283E5B"/>
<path d="M53.5 55.4339V62.8422L70.2985 66.9394C71.5413 67.2425 72.8589 67.0175 73.8992 66.2731C77.3586 63.7976 80.5271 61.0465 83.6806 58.7267C88.2407 55.372 83.4641 53.4082 82.2289 53.9962C80.9369 54.6112 76.3641 58.7267 73.5646 60.2264C71.2845 60.2264 67.6364 59.4935 65.8124 58.7267C63.9883 57.9599 64.6293 55.4099 65.3893 54.6112H71.2845C72.7438 54.6112 71.8926 52.7182 71.2845 52.0792C68.0924 51.9194 61.4346 51.6958 60.3402 52.0792C59.2458 52.4626 57.6155 55.4339 56.2437 55.4339H53.5Z" stroke="#283E5B" stroke-width="2"/>
<defs>
<filter id="filter0_d_607_85037" x="0" y="0.867188" width="134.32" height="134.32" filterUnits="userSpaceOnUse" color-interpolation-filters="sRGB">
<feFlood flood-opacity="0" result="BackgroundImageFix"/>
<feColorMatrix in="SourceAlpha" type="matrix" values="0 0 0 0 0 0 0 0 0 0 0 0 0 0 0 0 0 0 127 0" result="hardAlpha"/>
<feOffset dy="15"/>
<feGaussianBlur stdDeviation="17.5"/>
<feComposite in2="hardAlpha" operator="out"/>
<feColorMatrix type="matrix" values="0 0 0 0 0 0 0 0 0 0 0 0 0 0 0 0 0 0 0.15 0"/>
<feBlend mode="normal" in2="BackgroundImageFix" result="effect1_dropShadow_607_85037"/>
<feBlend mode="normal" in="SourceGraphic" in2="effect1_dropShadow_607_85037" result="shape"/>
</filter>
<filter id="filter1_df_607_85037" x="34.8451" y="16.8725" width="67.3098" height="68.0659" filterUnits="userSpaceOnUse" color-interpolation-filters="sRGB">
<feFlood flood-opacity="0" result="BackgroundImageFix"/>
<feColorMatrix in="SourceAlpha" type="matrix" values="0 0 0 0 0 0 0 0 0 0 0 0 0 0 0 0 0 0 127 0" result="hardAlpha"/>
<feOffset dy="1.21423"/>
<feGaussianBlur stdDeviation="2.42845"/>
<feComposite in2="hardAlpha" operator="out"/>
<feColorMatrix type="matrix" values="0 0 0 0 0 0 0 0 0 0 0 0 0 0 0 0 0 0 0.25 0"/>
<feBlend mode="normal" in2="BackgroundImageFix" result="effect1_dropShadow_607_85037"/>
<feBlend mode="normal" in="SourceGraphic" in2="effect1_dropShadow_607_85037" result="shape"/>
<feGaussianBlur stdDeviation="2.65752" result="effect2_foregroundBlur_607_85037"/>
</filter>
<radialGradient id="paint0_radial_607_85037" cx="0" cy="0" r="1" gradientUnits="userSpaceOnUse" gradientTransform="translate(75.1782 35.1551) rotate(96.4831) scale(53.7698)">
<stop stop-color="#FAFCFF"/>
<stop offset="1" stop-color="#E5E8EC"/>
</radialGradient>
</defs>
</svg>
