<svg width="29" height="26" viewBox="0 0 29 26" fill="none" xmlns="http://www.w3.org/2000/svg">
<path d="M10.2143 4.94719C10.2143 3.8651 10.6441 2.82734 11.4093 2.06219C12.1744 1.29704 13.2122 0.867188 14.2943 0.867188C15.3764 0.867188 16.4141 1.29704 17.1793 2.06219C17.9444 2.82734 18.3743 3.8651 18.3743 4.94719C18.3743 6.02927 17.9444 7.06703 17.1793 7.83218C16.4141 8.59733 15.3764 9.02718 14.2943 9.02718C13.2122 9.02718 12.1744 8.59733 11.4093 7.83218C10.6441 7.06703 10.2143 6.02927 10.2143 4.94719ZM14.2943 2.90923C14.0267 2.90923 13.7617 2.96194 13.5144 3.06436C13.2671 3.16677 13.0425 3.31689 12.8532 3.50613C12.664 3.69537 12.5139 3.92004 12.4115 4.16729C12.309 4.41455 12.2563 4.67956 12.2563 4.94719C12.2563 5.21481 12.309 5.47982 12.4115 5.72708C12.5139 5.97433 12.664 6.199 12.8532 6.38824C13.0425 6.57748 13.2671 6.72759 13.5144 6.83001C13.7617 6.93243 14.0267 6.98514 14.2943 6.98514C14.8348 6.98514 15.3531 6.77043 15.7353 6.38824C16.1175 6.00605 16.3322 5.48768 16.3322 4.94719C16.3322 4.40669 16.1175 3.88832 15.7353 3.50613C15.3531 3.12394 14.8348 2.90923 14.2943 2.90923ZM20.4204 5.96821C20.4204 5.56596 20.4996 5.16765 20.6536 4.79602C20.8075 4.42439 21.0331 4.08673 21.3176 3.80229C21.602 3.51786 21.9397 3.29224 22.3113 3.13831C22.6829 2.98437 23.0812 2.90514 23.4835 2.90514C23.8857 2.90514 24.284 2.98437 24.6557 3.13831C25.0273 3.29224 25.365 3.51786 25.6494 3.80229C25.9338 4.08673 26.1594 4.42439 26.3134 4.79602C26.4673 5.16765 26.5465 5.56596 26.5465 5.96821C26.5465 6.78058 26.2238 7.55968 25.6494 8.13412C25.0749 8.70855 24.2958 9.03127 23.4835 9.03127C22.6711 9.03127 21.892 8.70855 21.3176 8.13412C20.7431 7.55968 20.4204 6.78058 20.4204 5.96821ZM23.4835 4.94719C23.2127 4.94719 22.953 5.05476 22.7615 5.24623C22.57 5.43771 22.4624 5.69741 22.4624 5.96821C22.4624 6.239 22.57 6.4987 22.7615 6.69018C22.953 6.88165 23.2127 6.98923 23.4835 6.98923C23.7543 6.98923 24.014 6.88165 24.2054 6.69018C24.3969 6.4987 24.5045 6.239 24.5045 5.96821C24.5045 5.69741 24.3969 5.43771 24.2054 5.24623C24.014 5.05476 23.7543 4.94719 23.4835 4.94719ZM5.1051 2.90514C4.29273 2.90514 3.51363 3.22786 2.93919 3.80229C2.36476 4.37673 2.04204 5.15583 2.04204 5.96821C2.04204 6.78058 2.36476 7.55968 2.93919 8.13412C3.51363 8.70855 4.29273 9.03127 5.1051 9.03127C5.91748 9.03127 6.69658 8.70855 7.27101 8.13412C7.84545 7.55968 8.16816 6.78058 8.16816 5.96821C8.16816 5.15583 7.84545 4.37673 7.27101 3.80229C6.69658 3.22786 5.91748 2.90514 5.1051 2.90514ZM4.08408 5.96821C4.08408 5.69741 4.19165 5.43771 4.38313 5.24623C4.57461 5.05476 4.83431 4.94719 5.1051 4.94719C5.37589 4.94719 5.63559 5.05476 5.82707 5.24623C6.01855 5.43771 6.12612 5.69741 6.12612 5.96821C6.12612 6.239 6.01855 6.4987 5.82707 6.69018C5.63559 6.88165 5.37589 6.98923 5.1051 6.98923C4.83431 6.98923 4.57461 6.88165 4.38313 6.69018C4.19165 6.4987 4.08408 6.239 4.08408 5.96821ZM6.67339 11.0733C6.314 11.6938 6.12519 12.3983 6.12612 13.1153H2.04204V18.2205C2.04188 18.7284 2.16803 19.2284 2.40913 19.6754C2.65024 20.1225 2.99874 20.5026 3.42325 20.7815C3.84777 21.0604 4.33498 21.2293 4.84102 21.2731C5.34706 21.3169 5.85604 21.2342 6.32216 21.0323C6.47327 21.7083 6.71015 22.3535 7.01645 22.9559C6.24143 23.2689 5.40142 23.3867 4.5702 23.2992C3.73899 23.2116 2.94198 22.9213 2.24919 22.4537C1.5564 21.9861 0.989 21.3556 0.596833 20.6175C0.204666 19.8794 -0.000277815 19.0563 2.82645e-07 18.2205V13.1153C2.82645e-07 12.5738 0.215143 12.0544 0.5981 11.6714C0.981057 11.2885 1.50046 11.0733 2.04204 11.0733H6.67339ZM21.5721 22.9559C22.3471 23.2689 23.1872 23.3867 24.0184 23.2992C24.8496 23.2116 25.6466 22.9213 26.3394 22.4537C27.0322 21.9861 27.5996 21.3556 27.9917 20.6175C28.3839 19.8794 28.5889 19.0563 28.5886 18.2205V13.1153C28.5886 12.5738 28.3734 12.0544 27.9905 11.6714C27.6075 11.2885 27.0881 11.0733 26.5465 11.0733H21.9152C22.2623 11.6737 22.4624 12.37 22.4624 13.1153H26.5465V18.2205C26.5467 18.7284 26.4205 19.2284 26.1794 19.6754C25.9383 20.1225 25.5898 20.5026 25.1653 20.7815C24.7408 21.0604 24.2536 21.2293 23.7476 21.2731C23.2415 21.3169 22.7325 21.2342 22.2664 21.0323C22.1133 21.7083 21.8784 22.3535 21.5721 22.9559ZM10.2102 11.0713C9.66862 11.0713 9.14922 11.2864 8.76626 11.6694C8.38331 12.0523 8.16816 12.5717 8.16816 13.1133V19.2415C8.16816 20.8662 8.81359 22.4244 9.96246 23.5733C11.1113 24.7222 12.6695 25.3676 14.2943 25.3676C15.919 25.3676 17.4772 24.7222 18.6261 23.5733C19.775 22.4244 20.4204 20.8662 20.4204 19.2415V13.1153C20.4204 12.5738 20.2053 12.0544 19.8223 11.6714C19.4394 11.2885 18.92 11.0733 18.3784 11.0733H10.2102V11.0713ZM10.2102 13.1133H18.3784V19.2415C18.3784 20.3246 17.9481 21.3634 17.1822 22.1294C16.4163 22.8953 15.3775 23.3256 14.2943 23.3256C13.2111 23.3256 12.1723 22.8953 11.4064 22.1294C10.6405 21.3634 10.2102 20.3246 10.2102 19.2415V13.1153V13.1133Z" fill="#283E5B"/>
</svg>
