<svg width="19" height="21" viewBox="0 0 19 21" fill="none" xmlns="http://www.w3.org/2000/svg">
<path fill-rule="evenodd" clip-rule="evenodd" d="M13.4773 0.916504C13.8568 0.916504 14.1648 1.2245 14.1648 1.604L14.1652 2.38116C15.5036 2.47293 16.6152 2.93138 17.402 3.71976C18.2609 4.58235 18.7128 5.8226 18.7083 7.31035V15.6731C18.7083 18.7274 16.7686 20.6249 13.6473 20.6249H5.89417C2.77292 20.6249 0.833252 18.7008 0.833252 15.6034V7.30851C0.833252 4.4276 2.56305 2.57837 5.38421 2.38148L5.38478 1.604C5.38478 1.2245 5.69278 0.916504 6.07228 0.916504C6.45178 0.916504 6.75978 1.2245 6.75978 1.604L6.7595 2.36392H12.7893L12.7898 1.604C12.7898 1.2245 13.0978 0.916504 13.4773 0.916504ZM17.3333 9.0785H2.20825V15.6034C2.20825 17.9556 3.51725 19.2499 5.89417 19.2499H13.6473C16.0243 19.2499 17.3333 17.9794 17.3333 15.6731L17.3333 9.0785ZM13.851 14.8464C14.2305 14.8464 14.5385 15.1544 14.5385 15.5339C14.5385 15.9134 14.2305 16.2214 13.851 16.2214C13.4715 16.2214 13.1599 15.9134 13.1599 15.5339C13.1599 15.1544 13.4633 14.8464 13.8428 14.8464H13.851ZM9.78331 14.8464C10.1628 14.8464 10.4708 15.1544 10.4708 15.5339C10.4708 15.9134 10.1628 16.2214 9.78331 16.2214C9.40381 16.2214 9.09214 15.9134 9.09214 15.5339C9.09214 15.1544 9.39556 14.8464 9.77506 14.8464H9.78331ZM5.70708 14.8464C6.08658 14.8464 6.39458 15.1544 6.39458 15.5339C6.39458 15.9134 6.08658 16.2214 5.70708 16.2214C5.32758 16.2214 5.01499 15.9134 5.01499 15.5339C5.01499 15.1544 5.31933 14.8464 5.69883 14.8464H5.70708ZM13.851 11.2836C14.2305 11.2836 14.5385 11.5916 14.5385 11.9711C14.5385 12.3506 14.2305 12.6586 13.851 12.6586C13.4715 12.6586 13.1599 12.3506 13.1599 11.9711C13.1599 11.5916 13.4633 11.2836 13.8428 11.2836H13.851ZM9.78331 11.2836C10.1628 11.2836 10.4708 11.5916 10.4708 11.9711C10.4708 12.3506 10.1628 12.6586 9.78331 12.6586C9.40381 12.6586 9.09214 12.3506 9.09214 11.9711C9.09214 11.5916 9.39556 11.2836 9.77506 11.2836H9.78331ZM5.70708 11.2836C6.08658 11.2836 6.39458 11.5916 6.39458 11.9711C6.39458 12.3506 6.08658 12.6586 5.70708 12.6586C5.32758 12.6586 5.01499 12.3506 5.01499 11.9711C5.01499 11.5916 5.31933 11.2836 5.69883 11.2836H5.70708ZM12.7893 3.73892H6.7595L6.75978 4.62075C6.75978 5.00025 6.45178 5.30825 6.07228 5.30825C5.69278 5.30825 5.38478 5.00025 5.38478 4.62075L5.38429 3.75973C3.33074 3.93224 2.20825 5.17704 2.20825 7.30851V7.7035H17.3333L17.3333 7.30851C17.3369 6.17643 17.0326 5.29643 16.4285 4.69143C15.8982 4.15959 15.123 3.84195 14.1656 3.76017L14.1648 4.62075C14.1648 5.00025 13.8568 5.30825 13.4773 5.30825C13.0978 5.30825 12.7898 5.00025 12.7898 4.62075L12.7893 3.73892Z" fill="#949494"/>
</svg>
