<svg width="31" height="31" viewBox="0 0 31 31" fill="none" xmlns="http://www.w3.org/2000/svg">
<path d="M4.63428 26.6959V24.2066H7.1236V4.29199H19.5702V5.53665H24.5488V24.2066H27.0382V26.6959H22.0595V8.02597H19.5702V26.6959H4.63428ZM15.8362 15.4939C15.8362 15.1413 15.7172 14.8455 15.479 14.6065C15.24 14.3684 14.9442 14.2493 14.5916 14.2493C14.2389 14.2493 13.9435 14.3684 13.7054 14.6065C13.4664 14.8455 13.3469 15.1413 13.3469 15.4939C13.3469 15.8466 13.4664 16.142 13.7054 16.3801C13.9435 16.6191 14.2389 16.7386 14.5916 16.7386C14.9442 16.7386 15.24 16.6191 15.479 16.3801C15.7172 16.142 15.8362 15.8466 15.8362 15.4939Z" fill="#283E5B"/>
</svg>
