<svg width="14" height="14" viewBox="0 0 14 14" fill="none" xmlns="http://www.w3.org/2000/svg">
<path d="M0.409188 6.33484L0.872913 1.78286C0.896413 1.54696 1.09851 1.36057 1.3523 1.33728L6.24961 0.90625H6.25588C6.30601 0.90625 6.34518 0.920812 6.37494 0.948479L13.7115 7.76771C13.726 7.78118 13.7376 7.79718 13.7454 7.8148C13.7533 7.83241 13.7573 7.85129 13.7573 7.87037C13.7573 7.88944 13.7533 7.90832 13.7454 7.92594C13.7376 7.94355 13.726 7.95955 13.7115 7.97302L8.01208 13.2706C7.98231 13.2982 7.94315 13.3128 7.90085 13.3128C7.85855 13.3128 7.81938 13.2982 7.78962 13.2706L0.453054 6.45133C0.421721 6.42075 0.406055 6.37852 0.409188 6.33484ZM4.15345 5.28931C4.70648 5.28931 5.1561 4.87139 5.1561 4.35736C5.1561 3.84334 4.70648 3.42542 4.15345 3.42542C3.60043 3.42542 3.1508 3.84334 3.1508 4.35736C3.1508 4.87139 3.60043 5.28931 4.15345 5.28931Z" fill="black"/>
</svg>
