<svg width="24" height="24" viewBox="0 0 24 24" fill="none" xmlns="http://www.w3.org/2000/svg">
<path d="M0.324541 10.9844L1.12446 2.54023C1.16499 2.10262 1.51361 1.75686 1.9514 1.71364L10.3992 0.914062H10.41C10.4965 0.914062 10.564 0.941075 10.6154 0.992399L23.2708 13.6425C23.2959 13.6674 23.3158 13.6971 23.3293 13.7298C23.3429 13.7625 23.3499 13.7975 23.3499 13.8329C23.3499 13.8683 23.3429 13.9033 23.3293 13.936C23.3158 13.9687 23.2959 13.9983 23.2708 14.0233L13.4394 23.8506C13.3881 23.9019 13.3205 23.9289 13.2475 23.9289C13.1746 23.9289 13.107 23.9019 13.0557 23.8506L0.400208 11.2005C0.346159 11.1438 0.319136 11.0654 0.324541 10.9844ZM6.78333 9.04489C7.73729 9.04489 8.51289 8.26962 8.51289 7.31608C8.51289 6.36253 7.73729 5.58726 6.78333 5.58726C5.82938 5.58726 5.05378 6.36253 5.05378 7.31608C5.05378 8.26962 5.82938 9.04489 6.78333 9.04489Z" fill="#2892F3"/>
</svg>
