<svg width="32" height="32" viewBox="0 0 32 32" fill="none" xmlns="http://www.w3.org/2000/svg">
<g clip-path="url(#clip0_602_85305)">
<path d="M27.5429 12.2533V9.66685C27.5429 7.53299 25.797 5.78711 23.6632 5.78711H18.4902C17.4944 5.78711 16.5891 6.17508 15.9037 6.79584C15.2183 6.17508 14.313 5.78711 13.3172 5.78711H8.14424C6.01038 5.78711 4.2645 7.53299 4.2645 9.66685V12.2533C2.13065 12.2533 0.384766 13.9992 0.384766 16.1331V22.5993C0.384766 24.7332 2.13065 26.479 4.2645 26.479V29.0655H6.85099V26.479H24.9564V29.0655H27.5429V26.479C29.6768 26.479 31.4226 24.7332 31.4226 22.5993V16.1331C31.4226 13.9992 29.6768 12.2533 27.5429 12.2533ZM18.4902 8.3736H23.6632C24.3745 8.3736 24.9564 8.95556 24.9564 9.66685V13.2621C24.1675 13.9734 23.6632 14.995 23.6632 16.1331V18.7196H17.197V9.66685C17.197 8.95556 17.7789 8.3736 18.4902 8.3736ZM6.85099 9.66685C6.85099 8.95556 7.43295 8.3736 8.14424 8.3736H13.3172C14.0285 8.3736 14.6105 8.95556 14.6105 9.66685V18.7196H8.14424V16.1331C8.14424 14.995 7.63987 13.9734 6.85099 13.2621V9.66685ZM28.8362 22.5993C28.8362 23.3106 28.2542 23.8925 27.5429 23.8925H4.2645C3.55322 23.8925 2.97126 23.3106 2.97126 22.5993V16.1331C2.97126 15.4218 3.55322 14.8398 4.2645 14.8398C4.97579 14.8398 5.55775 15.4218 5.55775 16.1331V21.3061H26.2497V16.1331C26.2497 15.4218 26.8316 14.8398 27.5429 14.8398C28.2542 14.8398 28.8362 15.4218 28.8362 16.1331V22.5993Z" fill="#283E5B"/>
</g>
<defs>
<clipPath id="clip0_602_85305">
<rect width="31.0379" height="31.0379" fill="white" transform="translate(0.38501 0.614258)"/>
</clipPath>
</defs>
</svg>
