<svg width="24" height="24" viewBox="0 0 24 24" fill="none" xmlns="http://www.w3.org/2000/svg">
<path d="M8.14282 20.9996C6.87976 19.9222 5.70902 18.7411 4.64282 17.4686C3.04282 15.5576 1.14282 12.7116 1.14282 9.9996C1.14213 8.61456 1.55233 7.26045 2.32152 6.10863C3.0907 4.95681 4.18429 4.05906 5.46389 3.529C6.74349 2.99894 8.15157 2.86039 9.50994 3.1309C10.8683 3.4014 12.1159 4.06879 13.0948 5.0486C13.7466 5.69746 14.2632 6.46914 14.6147 7.31898C14.9662 8.16881 15.1458 9.07993 15.1428 9.9996C15.1428 12.7116 13.2428 15.5576 11.6428 17.4686C10.5766 18.7411 9.40588 19.9222 8.14282 20.9996ZM8.14282 6.9996C7.34717 6.9996 6.58411 7.31567 6.0215 7.87828C5.45889 8.44089 5.14282 9.20395 5.14282 9.9996C5.14282 10.7953 5.45889 11.5583 6.0215 12.1209C6.58411 12.6835 7.34717 12.9996 8.14282 12.9996C8.93847 12.9996 9.70154 12.6835 10.2641 12.1209C10.8268 11.5583 11.1428 10.7953 11.1428 9.9996C11.1428 9.20395 10.8268 8.44089 10.2641 7.87828C9.70154 7.31567 8.93847 6.9996 8.14282 6.9996Z" fill="#004AAD"/>
</svg>
