<svg width="18" height="17" viewBox="0 0 18 17" fill="none" xmlns="http://www.w3.org/2000/svg">
<path d="M14.2195 6.80059H12.5995V4.76059C12.5995 2.29814 11.398 0.850586 8.99946 0.850586C6.60006 0.850586 5.39946 2.29814 5.39946 4.76059V6.80059H3.59946C3.10176 6.80059 2.69946 7.34969 2.69946 7.81974V14.4506C2.69946 14.9172 3.08466 15.4187 3.55536 15.5615L4.63266 15.8905C5.20407 16.0478 5.79449 16.1352 6.38946 16.1506H11.6095C12.2042 16.1353 12.7944 16.0476 13.3654 15.8896L14.4418 15.5607C14.9134 15.4187 15.2995 14.9172 15.2995 14.4506V7.81974C15.2995 7.34969 14.7163 6.80059 14.2195 6.80059ZM10.7995 6.80059H7.19946V4.41974C7.19946 3.19149 7.91676 2.55059 8.99946 2.55059C10.0822 2.55059 10.7995 3.19149 10.7995 4.41974V6.80059Z" fill="#111111"/>
</svg>
