<svg width="25" height="24" viewBox="0 0 25 24" fill="none" xmlns="http://www.w3.org/2000/svg">
<g clip-path="url(#clip0_565_88605)">
<path d="M20.1545 15.7188H6.80141L6.43929 13.8438H20.2148C20.6491 13.845 21.0702 13.6959 21.4061 13.4223C21.7419 13.1486 21.9716 12.7673 22.0556 12.3438L23.323 6.34375C23.3814 6.07086 23.3778 5.78846 23.3124 5.51713C23.2471 5.24581 23.1217 4.9924 22.9453 4.77539C22.7689 4.55838 22.5461 4.38323 22.293 4.26271C22.0399 4.14219 21.7629 4.07934 21.4823 4.07875H4.53817L4.20623 2.21875H0.766113V4.09375H2.65214L4.91538 15.8538C4.25805 16.0082 3.67184 16.3774 3.25057 16.9022C2.8293 17.4271 2.59733 18.0773 2.59179 18.7488C2.62712 19.5751 2.98947 20.354 3.59991 20.9159C4.21035 21.4779 5.01941 21.7772 5.85085 21.7488C6.67566 21.7691 7.47534 21.4657 8.07681 20.9042C8.67828 20.3427 9.03316 19.5684 9.06464 18.7488C9.06186 18.3517 8.9798 17.9591 8.82323 17.5938H17.1067C16.9501 17.9591 16.868 18.3517 16.8653 18.7488C16.9006 19.5751 17.2629 20.354 17.8734 20.9159C18.4838 21.4779 19.2929 21.7772 20.1243 21.7488C20.9246 21.7488 21.6922 21.4327 22.2581 20.8701C22.824 20.3075 23.142 19.5444 23.142 18.7488C23.142 17.9531 22.824 17.19 22.2581 16.6274C21.6922 16.0648 20.9246 15.7488 20.1243 15.7488L20.1545 15.7188ZM21.4823 5.99875L20.2148 11.9988H6.047L4.93047 5.99875H21.4823ZM5.85085 19.9038C5.52546 19.9128 5.20879 19.7985 4.96504 19.584C4.72128 19.3695 4.56868 19.0709 4.53817 18.7488C4.5689 18.4157 4.73005 18.1079 4.98689 17.8919C5.24373 17.6758 5.57569 17.5687 5.9112 17.5938C6.24511 17.5689 6.57535 17.6764 6.82979 17.8928C7.08422 18.1092 7.24217 18.4169 7.26914 18.7488C7.25614 18.9186 7.20862 19.0841 7.12945 19.2352C7.05027 19.3863 6.9411 19.5199 6.80852 19.6279C6.67595 19.7358 6.52273 19.816 6.35812 19.8634C6.19352 19.9108 6.02095 19.9245 5.85085 19.9038V19.9038ZM20.1545 19.9038C19.819 19.9288 19.487 19.8217 19.2302 19.6056C18.9733 19.3896 18.8122 19.0818 18.7815 18.7488C18.8399 18.4311 19.0085 18.1438 19.258 17.937C19.5075 17.7302 19.8221 17.6169 20.147 17.6169C20.4718 17.6169 20.7864 17.7302 21.0359 17.937C21.2854 18.1438 21.454 18.4311 21.5124 18.7488C21.4817 19.0791 21.3227 19.3845 21.0691 19.6001C20.8156 19.8157 20.4875 19.9247 20.1545 19.9038V19.9038Z" fill="#2892F3"/>
</g>
<defs>
<clipPath id="clip0_565_88605">
<rect width="24.1412" height="24" fill="white" transform="translate(0.0117188)"/>
</clipPath>
</defs>
</svg>
