<svg width="35" height="25" viewBox="0 0 35 25" fill="none" xmlns="http://www.w3.org/2000/svg">
<path fill-rule="evenodd" clip-rule="evenodd" d="M25.8941 11.3461C25.2637 11.1553 24.595 11.0527 23.9024 11.0527C21.4942 11.0527 19.3753 12.2931 18.1499 14.1697H19.6078C20.6529 12.9734 22.1896 12.2174 23.9024 12.2174C27.0501 12.2174 29.6031 14.7704 29.6031 17.9181C29.6031 21.0657 27.0501 23.6187 23.9024 23.6187C20.7548 23.6187 18.2018 21.0657 18.2018 17.9181C18.2018 17.5753 18.232 17.2396 18.2901 16.9134H17.1101C17.062 17.2414 17.0371 17.5768 17.0371 17.9181C17.0371 21.7093 20.1112 24.7834 23.9024 24.7834C27.6937 24.7834 30.7678 21.7093 30.7678 17.9181C30.7678 16.8378 30.5182 15.8157 30.0735 14.9064L25.8941 11.3461ZM24.6334 17.5625L24.2442 17.4721V15.4141C24.8265 15.4937 25.1866 15.8585 25.2479 16.3059C25.2556 16.3672 25.3077 16.4117 25.369 16.4117H26.057C26.1291 16.4117 26.1858 16.3488 26.1796 16.2768C26.0862 15.3221 25.3 14.7091 24.2503 14.6034V14.1023C24.2503 14.0349 24.1951 13.9797 24.1277 13.9797H23.6971C23.6297 13.9797 23.5745 14.0349 23.5745 14.1023V14.608C22.4895 14.7137 21.6406 15.3129 21.6406 16.4316C21.6406 17.4675 22.4037 17.9671 23.2052 18.1587L23.5837 18.2552V20.442C22.9064 20.3516 22.5263 19.9899 22.4482 19.5026C22.439 19.4444 22.3869 19.4015 22.3271 19.4015H21.6191C21.5471 19.4015 21.4904 19.4628 21.4965 19.5348C21.5655 20.3776 22.2045 21.153 23.5684 21.2526V21.7338C23.5684 21.8013 23.6235 21.8564 23.691 21.8564H24.1262C24.1936 21.8564 24.2488 21.8013 24.2488 21.7323L24.2457 21.2465C25.4456 21.1408 26.3038 20.4987 26.3038 19.3463C26.3022 18.2828 25.6264 17.8077 24.6334 17.5625ZM23.5822 17.3143C23.4963 17.2898 23.4243 17.2668 23.3523 17.2377C22.8343 17.0507 22.5937 16.7488 22.5937 16.3596C22.5937 15.8033 23.0152 15.4861 23.5822 15.4141V17.3143ZM24.2442 20.4466V18.3977C24.2917 18.4115 24.3346 18.4222 24.379 18.4314C25.1039 18.6521 25.3475 18.9586 25.3475 19.429C25.3475 20.0282 24.897 20.3884 24.2442 20.4466Z" fill="#283E5B"/>
<path d="M1.5 13.3483V5.94L18.2985 1.8428C19.5413 1.53968 20.8589 1.76473 21.8992 2.50915C25.3586 4.98464 28.5271 7.73568 31.6806 10.0555C36.2407 13.4103 31.4641 15.3741 30.2289 14.7861C28.9369 14.1711 24.3641 10.0555 21.5646 8.55588C19.2845 8.55588 15.6364 9.28874 13.8124 10.0555C11.9883 10.8223 12.6293 13.3723 13.3893 14.1711H19.2845C20.7438 14.1711 19.8926 16.0641 19.2845 16.7031C16.0924 16.8628 9.43464 17.0865 8.34021 16.7031C7.24578 16.3197 5.61553 13.3483 4.24369 13.3483H1.5Z" stroke="#283E5B" stroke-width="2"/>
</svg>
