<svg width="21" height="21" viewBox="0 0 21 21" fill="none" xmlns="http://www.w3.org/2000/svg">
<g clip-path="url(#clip0_602_84545)">
<path d="M19.5171 11.0535L15.4773 9.18898V3.84664C15.4754 3.73455 15.4415 3.62537 15.3795 3.5321C15.3175 3.43883 15.23 3.36541 15.1275 3.32058L10.7554 1.30405C10.6787 1.26844 10.5951 1.25 10.5106 1.25C10.426 1.25 10.3425 1.26844 10.2657 1.30405L5.89363 3.32058C5.79244 3.36754 5.70681 3.4426 5.64688 3.53688C5.58695 3.63115 5.55524 3.74068 5.55552 3.85248V9.19483L1.53318 11.0535C1.43199 11.1005 1.34636 11.1756 1.28643 11.2698C1.2265 11.3641 1.19479 11.4736 1.19507 11.5854V17.3019C1.19479 17.4137 1.2265 17.5232 1.28643 17.6175C1.34636 17.7117 1.43199 17.7868 1.53318 17.8338L5.90529 19.8503C5.98203 19.8859 6.06557 19.9043 6.15013 19.9043C6.23468 19.9043 6.31823 19.8859 6.39497 19.8503L10.5222 17.9448L14.6495 19.8503C14.7262 19.8859 14.8098 19.9043 14.8943 19.9043C14.9789 19.9043 15.0624 19.8859 15.1392 19.8503L19.5113 17.8338C19.6125 17.7868 19.6981 17.7117 19.758 17.6175C19.818 17.5232 19.8497 17.4137 19.8494 17.3019V11.5854C19.8502 11.4743 19.8194 11.3652 19.7605 11.271C19.7017 11.1768 19.6172 11.1013 19.5171 11.0535ZM17.879 11.5854L14.9002 12.9473L11.9213 11.5854L14.9002 10.2119L17.879 11.5854ZM10.5222 2.47306L13.5011 3.84664L10.5222 5.22021L7.5492 3.84664L10.5222 2.47306ZM6.15013 10.206L9.12899 11.5796L6.15013 12.9473L3.17126 11.5854L6.15013 10.206ZM9.93929 16.9219L6.15013 18.6754L2.36097 16.9219V12.4973L5.90529 14.1163C5.98044 14.1502 6.0619 14.1677 6.1443 14.1677C6.22669 14.1677 6.30815 14.1502 6.38331 14.1163L9.92763 12.4797L9.93929 16.9219ZM6.73308 9.18898V4.7643L10.2774 6.40091C10.3541 6.43652 10.4377 6.45496 10.5222 6.45496C10.6068 6.45496 10.6903 6.43652 10.7671 6.40091L14.3114 4.7643V9.19483L10.5222 10.9483L6.73308 9.18898ZM18.6893 16.9278L14.9002 18.6813L11.1052 16.9278V12.4914L14.6553 14.1163C14.7297 14.1494 14.8101 14.1664 14.8914 14.1664C14.9728 14.1664 15.0532 14.1494 15.1275 14.1163L18.6719 12.4797L18.6893 16.9278Z" fill="#6B7380"/>
</g>
<defs>
<clipPath id="clip0_602_84545">
<rect width="20.4928" height="20.4928" fill="white" transform="translate(0 0.00683594)"/>
</clipPath>
</defs>
</svg>
