<svg width="40" height="40" viewBox="0 0 40 40" fill="none" xmlns="http://www.w3.org/2000/svg">
<rect width="40" height="40" rx="8" fill="white"/>
<path d="M28.3332 20.4883V18.3333H26.6665V20.8333C26.6666 21.0543 26.7544 21.2663 26.9107 21.4225L29.1665 23.6783V25H10.8332V23.6783L13.089 21.4225C13.2453 21.2663 13.3331 21.0543 13.3332 20.8333V17.5C13.3308 16.329 13.6376 15.1781 14.2224 14.1636C14.8072 13.1491 15.6494 12.3069 16.6639 11.722C17.6784 11.1371 18.8293 10.8304 20.0003 10.8326C21.1713 10.8349 22.321 11.1462 23.3332 11.735V9.8725C22.5399 9.52127 21.6962 9.2974 20.8332 9.20917V7.5H19.1665V9.20833C17.112 9.41744 15.208 10.3809 13.8226 11.9125C12.4373 13.444 11.6691 15.4349 11.6665 17.5V20.4883L9.41067 22.7442C9.25438 22.9004 9.16655 23.1123 9.1665 23.3333V25.8333C9.1665 26.0543 9.2543 26.2663 9.41058 26.4226C9.56686 26.5789 9.77882 26.6667 9.99984 26.6667H15.8332V27.5C15.8332 28.6051 16.2722 29.6649 17.0536 30.4463C17.835 31.2277 18.8948 31.6667 19.9998 31.6667C21.1049 31.6667 22.1647 31.2277 22.9461 30.4463C23.7275 29.6649 24.1665 28.6051 24.1665 27.5V26.6667H29.9998C30.2208 26.6667 30.4328 26.5789 30.5891 26.4226C30.7454 26.2663 30.8332 26.0543 30.8332 25.8333V23.3333C30.8331 23.1123 30.7453 22.9004 30.589 22.7442L28.3332 20.4883ZM22.4998 27.5C22.4998 28.163 22.2364 28.7989 21.7676 29.2678C21.2988 29.7366 20.6629 30 19.9998 30C19.3368 30 18.7009 29.7366 18.2321 29.2678C17.7632 28.7989 17.4998 28.163 17.4998 27.5V26.6667H22.4998V27.5Z" fill="black"/>
<path d="M28.3333 16.6667C30.1743 16.6667 31.6667 15.1743 31.6667 13.3333C31.6667 11.4924 30.1743 10 28.3333 10C26.4924 10 25 11.4924 25 13.3333C25 15.1743 26.4924 16.6667 28.3333 16.6667Z" fill="black"/>
</svg>
