<svg width="17" height="15" viewBox="0 0 17 15" fill="none" xmlns="http://www.w3.org/2000/svg">
<g clip-path="url(#clip0_602_84826)">
<path d="M2.88161 2.22873H12.0308C12.0997 2.22873 12.1561 2.28116 12.1561 2.34523V3.16068C12.1561 3.22475 12.0997 3.27717 12.0308 3.27717H2.88161C2.81268 3.27717 2.75628 3.22475 2.75628 3.16068V2.34523C2.75628 2.28116 2.81268 2.22873 2.88161 2.22873ZM2.88161 6.36425H12.0308C12.0997 6.36425 12.1561 6.41667 12.1561 6.48074V7.29619C12.1561 7.36026 12.0997 7.41269 12.0308 7.41269H2.88161C2.81268 7.41269 2.75628 7.36026 2.75628 7.29619V6.48074C2.75628 6.41667 2.81268 6.36425 2.88161 6.36425ZM2.88161 10.4998H12.0308C12.0997 10.4998 12.1561 10.5522 12.1561 10.6163V11.4317C12.1561 11.4958 12.0997 11.5482 12.0308 11.5482H2.88161C2.81268 11.5482 2.75628 11.4958 2.75628 11.4317V10.6163C2.75628 10.5522 2.81268 10.4998 2.88161 10.4998ZM15.54 2.75295C15.54 2.86004 15.5173 2.96608 15.4733 3.06501C15.4292 3.16395 15.3645 3.25384 15.2831 3.32957C15.2016 3.40529 15.1049 3.46535 14.9985 3.50633C14.892 3.54731 14.7779 3.56841 14.6627 3.56841C14.5475 3.56841 14.4334 3.54731 14.327 3.50633C14.2205 3.46535 14.1238 3.40529 14.0424 3.32957C13.9609 3.25384 13.8963 3.16395 13.8522 3.06501C13.8081 2.96608 13.7854 2.86004 13.7854 2.75295C13.7854 2.64587 13.8081 2.53983 13.8522 2.44089C13.8963 2.34196 13.9609 2.25206 14.0424 2.17634C14.1238 2.10062 14.2205 2.04055 14.327 1.99957C14.4334 1.95859 14.5475 1.9375 14.6627 1.9375C14.7779 1.9375 14.892 1.95859 14.9985 1.99957C15.1049 2.04055 15.2016 2.10062 15.2831 2.17634C15.3645 2.25206 15.4292 2.34196 15.4733 2.44089C15.5173 2.53983 15.54 2.64587 15.54 2.75295ZM15.54 6.88847C15.54 6.99555 15.5173 7.10159 15.4733 7.20053C15.4292 7.29946 15.3645 7.38936 15.2831 7.46508C15.2016 7.5408 15.1049 7.60087 14.9985 7.64185C14.892 7.68283 14.7779 7.70392 14.6627 7.70392C14.5475 7.70392 14.4334 7.68283 14.327 7.64185C14.2205 7.60087 14.1238 7.5408 14.0424 7.46508C13.9609 7.38936 13.8963 7.29946 13.8522 7.20053C13.8081 7.10159 13.7854 6.99555 13.7854 6.88847C13.7854 6.78138 13.8081 6.67534 13.8522 6.57641C13.8963 6.47747 13.9609 6.38757 14.0424 6.31185C14.1238 6.23613 14.2205 6.17606 14.327 6.13508C14.4334 6.0941 14.5475 6.07301 14.6627 6.07301C14.7779 6.07301 14.892 6.0941 14.9985 6.13508C15.1049 6.17606 15.2016 6.23613 15.2831 6.31185C15.3645 6.38757 15.4292 6.47747 15.4733 6.57641C15.5173 6.67534 15.54 6.78138 15.54 6.88847ZM15.54 11.024C15.54 11.1311 15.5173 11.2371 15.4733 11.336C15.4292 11.435 15.3645 11.5249 15.2831 11.6006C15.2016 11.6763 15.1049 11.7364 14.9985 11.7774C14.892 11.8183 14.7779 11.8394 14.6627 11.8394C14.5475 11.8394 14.4334 11.8183 14.327 11.7774C14.2205 11.7364 14.1238 11.6763 14.0424 11.6006C13.9609 11.5249 13.8963 11.435 13.8522 11.336C13.8081 11.2371 13.7854 11.1311 13.7854 11.024C13.7854 10.9169 13.8081 10.8109 13.8522 10.7119C13.8963 10.613 13.9609 10.5231 14.0424 10.4474C14.1238 10.3716 14.2205 10.3116 14.327 10.2706C14.4334 10.2296 14.5475 10.2085 14.6627 10.2085C14.7779 10.2085 14.892 10.2296 14.9985 10.2706C15.1049 10.3116 15.2016 10.3716 15.2831 10.4474C15.3645 10.5231 15.4292 10.613 15.4733 10.7119C15.5173 10.8109 15.54 10.9169 15.54 11.024Z" fill="black"/>
</g>
<defs>
<clipPath id="clip0_602_84826">
<rect width="16.0424" height="14.9111" fill="white" transform="matrix(-1 0 0 1 16.1038 0.078125)"/>
</clipPath>
</defs>
</svg>
