<svg width="21" height="19" viewBox="0 0 21 19" fill="none" xmlns="http://www.w3.org/2000/svg">
<path d="M18.1352 4.5V2.5C18.1352 1.397 17.2329 0.5 16.1234 0.5H3.04694C1.38321 0.5 0.0292969 1.846 0.0292969 3.5V15.5C0.0292969 17.701 1.83385 18.5 3.04694 18.5H18.1352C19.2447 18.5 20.1469 17.603 20.1469 16.5V6.5C20.1469 5.397 19.2447 4.5 18.1352 4.5ZM3.04694 2.5H16.1234V4.5H3.04694C2.78795 4.48848 2.5434 4.37809 2.36423 4.19182C2.18505 4.00554 2.08505 3.75774 2.08505 3.5C2.08505 3.24226 2.18505 2.99446 2.36423 2.80818C2.5434 2.62191 2.78795 2.51152 3.04694 2.5V2.5ZM18.1352 16.5H3.05901C2.5943 16.488 2.04106 16.305 2.04106 15.5V6.315C2.35691 6.428 2.69187 6.5 3.04694 6.5H18.1352V16.5Z" fill="#2892F3"/>
</svg>
