<svg width="28" height="24" viewBox="0 0 28 24" fill="none" xmlns="http://www.w3.org/2000/svg">
<path d="M0.173828 23.514V0.75293H9.48519C10.8958 0.752571 12.2758 1.16418 13.4558 1.93722C14.6358 2.71025 15.5643 3.81105 16.1273 5.10444C15.7223 5.52506 15.3719 5.99502 15.0844 6.50322C14.6085 7.35158 14.6044 8.23513 14.7244 8.89106L15.3451 12.2535C14.6737 13.1786 13.7925 13.9313 12.7739 14.45C11.7553 14.9686 10.6283 15.2384 9.48519 15.2373H4.31221V23.514H0.173828ZM9.48519 11.0989C9.89279 11.0989 10.2964 11.0186 10.673 10.8626C11.0495 10.7067 11.3917 10.478 11.6799 10.1898C11.9681 9.9016 12.1967 9.55944 12.3527 9.18287C12.5087 8.8063 12.589 8.4027 12.589 7.9951C12.589 7.58751 12.5087 7.1839 12.3527 6.80734C12.1967 6.43077 11.9681 6.08861 11.6799 5.80039C11.3917 5.51218 11.0495 5.28356 10.673 5.12758C10.2964 4.9716 9.89279 4.89131 9.48519 4.89131H4.31221V11.0989H9.48519ZM16.7605 8.51654C16.6847 8.17799 16.7301 7.82356 16.8888 7.51505C17.3792 6.64599 18.751 4.89131 21.9003 4.89131C25.0476 4.89131 26.4215 6.64392 26.9099 7.51505C27.07 7.82306 27.1168 8.17751 27.0423 8.51654L25.0435 19.3757H22.9349V23.514H20.8658V19.3757H18.7572L16.7605 8.51654ZM24.4868 11.0989L25.0041 8.31583C24.6524 7.80681 23.804 6.96051 21.9003 6.96051C19.9967 6.96051 19.1483 7.80888 18.7966 8.31583L19.3139 11.0989H24.4868Z" fill="#283E5B"/>
</svg>
