<svg width="25" height="24" viewBox="0 0 25 24" fill="none" xmlns="http://www.w3.org/2000/svg">
<g clip-path="url(#clip0_565_88557)">
<path d="M5.46684 1.40039C4.98664 1.40039 4.52611 1.59003 4.18656 1.9276C3.84701 2.26516 3.65625 2.723 3.65625 3.20039V18.8004C3.65625 19.2778 3.84701 19.7356 4.18656 20.0732C4.52611 20.4107 4.98664 20.6004 5.46684 20.6004H13.9162C14.3964 20.6004 14.857 20.4107 15.1965 20.0732C15.5361 19.7356 15.7268 19.2778 15.7268 18.8004V17.0004C15.7268 16.8413 15.6633 16.6886 15.5501 16.5761C15.4369 16.4636 15.2834 16.4004 15.1233 16.4004C14.6248 16.4004 14.3061 16.278 14.0901 16.1172C13.8692 15.9528 13.7014 15.7068 13.5783 15.3696C13.32 14.664 13.3127 13.7292 13.3127 12.8004C13.3127 12.7215 13.297 12.6433 13.2666 12.5704C13.2361 12.4975 13.1915 12.4313 13.1353 12.3756L12.7901 12.0312L11.3259 10.5756C10.7622 10.0152 10.5968 9.63959 10.5655 9.42959C10.5413 9.26159 10.592 9.14879 10.7127 9.03359C10.971 8.78759 11.1557 8.62079 11.3645 8.57039C11.4889 8.53919 11.7725 8.51759 12.2819 9.02399L15.9031 12.624C16.0162 12.7367 16.1698 12.8 16.3299 12.8001C16.4092 12.8002 16.4878 12.7847 16.5611 12.7546C16.6343 12.7245 16.7009 12.6803 16.7571 12.6246C16.8132 12.5689 16.8577 12.5027 16.8881 12.4299C16.9185 12.3571 16.9342 12.2791 16.9342 12.2002C16.9343 12.1214 16.9187 12.0433 16.8884 11.9704C16.8581 11.8976 16.8137 11.8314 16.7577 11.7756L15.7268 10.752V7.04879L18.8169 10.1208C18.9852 10.2879 19.1188 10.4864 19.2099 10.7048C19.301 10.9233 19.348 11.1575 19.348 11.394V20.0004C19.348 20.1595 19.4116 20.3121 19.5248 20.4247C19.638 20.5372 19.7915 20.6004 19.9515 20.6004C20.1116 20.6004 20.2651 20.5372 20.3783 20.4247C20.4915 20.3121 20.5551 20.1595 20.5551 20.0004V11.394C20.5549 10.5987 20.2371 9.83602 19.6715 9.27359L15.7268 5.35199V3.20039C15.7268 2.723 15.5361 2.26516 15.1965 1.9276C14.857 1.59003 14.3964 1.40039 13.9162 1.40039H5.46684ZM14.5198 5.60039V9.55199L13.1365 8.17559C12.4376 7.48199 11.7435 7.24319 11.0785 7.40399C10.9478 7.43605 10.8211 7.48233 10.7006 7.54199C10.1611 7.3866 9.59256 7.3581 9.04001 7.45873C8.48746 7.55937 7.96602 7.78638 7.51691 8.12183C7.06779 8.45728 6.7033 8.89197 6.45225 9.39156C6.2012 9.89114 6.07046 10.4419 6.07037 11.0004C6.07032 11.6963 6.27317 12.3774 6.65438 12.9611C7.03558 13.5447 7.5788 14.0061 8.21827 14.2892C8.85774 14.5724 9.56606 14.6652 10.2575 14.5564C10.9489 14.4476 11.5938 14.142 12.1141 13.6764C12.1346 14.37 12.2046 15.1284 12.4436 15.78C12.6223 16.2684 12.9071 16.7352 13.3658 17.076L13.3731 17.0832C13.0055 17.1981 12.6844 17.4266 12.4565 17.7354C12.2285 18.0443 12.1056 18.4173 12.1057 18.8004V19.4004H7.27743V18.8004C7.27743 18.323 7.08667 17.8652 6.74712 17.5276C6.40757 17.19 5.94704 17.0004 5.46684 17.0004H4.86331V5.00039H5.46684C5.94704 5.00039 6.40757 4.81075 6.74712 4.47318C7.08667 4.13562 7.27743 3.67778 7.27743 3.20039V2.60039H12.1057V3.20039C12.1057 3.67778 12.2964 4.13562 12.636 4.47318C12.9755 4.81075 13.4361 5.00039 13.9162 5.00039H14.5198V5.60039ZM14.5198 18.8004V18.8112C14.5169 18.9684 14.4521 19.1183 14.3392 19.2285C14.2263 19.3387 14.0745 19.4004 13.9162 19.4004H13.3127V18.8004C13.3127 18.6413 13.3763 18.4886 13.4895 18.3761C13.6027 18.2636 13.7562 18.2004 13.9162 18.2004H14.5198V18.8004ZM7.27743 11.0004C7.27743 10.3901 7.51135 9.80264 7.93157 9.35768C8.35179 8.91272 8.92674 8.64364 9.53945 8.60519C9.38978 8.88119 9.31373 9.21719 9.37167 9.60479C9.45737 10.1832 9.82794 10.7844 10.4713 11.424L11.5661 12.5124C11.2518 12.8974 10.8253 13.1762 10.3451 13.3105C9.86496 13.4447 9.35476 13.4278 8.88466 13.2621C8.41456 13.0963 8.00764 12.7899 7.71984 12.3849C7.43204 11.9799 7.27748 11.4963 7.27743 11.0004V11.0004ZM6.07037 2.60039V3.20039C6.07037 3.35952 6.00678 3.51213 5.8936 3.62465C5.78041 3.73718 5.6269 3.80039 5.46684 3.80039H4.86331V3.20039C4.86331 3.04126 4.92689 2.88865 5.04008 2.77613C5.15326 2.6636 5.30677 2.60039 5.46684 2.60039H6.07037ZM4.86331 18.2004H5.46684C5.6269 18.2004 5.78041 18.2636 5.8936 18.3761C6.00678 18.4886 6.07037 18.6413 6.07037 18.8004V19.4004H5.46684C5.30677 19.4004 5.15326 19.3372 5.04008 19.2247C4.92689 19.1121 4.86331 18.9595 4.86331 18.8004V18.2004ZM14.5198 3.80039H13.9162C13.7562 3.80039 13.6027 3.73718 13.4895 3.62465C13.3763 3.51213 13.3127 3.35952 13.3127 3.20039V2.60039H13.9162C14.0763 2.60039 14.2298 2.6636 14.343 2.77613C14.4562 2.88865 14.5198 3.04126 14.5198 3.20039V3.80039Z" fill="#2892F3"/>
</g>
<defs>
<clipPath id="clip0_565_88557">
<rect width="24.1412" height="24" fill="white" transform="translate(0.0354004)"/>
</clipPath>
</defs>
</svg>
