<svg width="31" height="31" viewBox="0 0 31 31" fill="none" xmlns="http://www.w3.org/2000/svg">
<path d="M20.9182 10.2983C22.6388 10.2983 24.0336 8.90343 24.0336 7.18283C24.0336 5.46222 22.6388 4.06738 20.9182 4.06738C19.1976 4.06738 17.8027 5.46222 17.8027 7.18283C17.8027 8.90343 19.1976 10.2983 20.9182 10.2983Z" stroke="#283E5B" stroke-width="2.37249" stroke-miterlimit="2"/>
<path d="M15.3106 25.2523L20.3638 23.9688C20.8498 23.8504 20.9994 23.2273 20.6255 22.8971L15.3106 18.3984L17.8029 13.4136L11.3166 11.0833C11.005 10.9711 10.7558 10.7468 10.6125 10.4477L7.8335 5.31348" stroke="#283E5B" stroke-width="2.37249" stroke-miterlimit="2" stroke-linecap="round" stroke-linejoin="round"/>
<path d="M15.3108 18.3984L10.968 23.8754C10.8371 24.0312 10.6751 24.1558 10.4882 24.2306L4.09521 26.4986" stroke="#283E5B" stroke-width="2.37249" stroke-miterlimit="2" stroke-linecap="round" stroke-linejoin="round"/>
<path d="M17.8027 13.4141L23.9713 15.1525C24.2642 15.2397 24.5196 15.4266 24.6816 15.6821L27.1491 19.645" stroke="#283E5B" stroke-width="2.37249" stroke-miterlimit="2" stroke-linecap="round" stroke-linejoin="round"/>
<path d="M12.195 5.31373C13.2273 5.31373 14.0642 4.47683 14.0642 3.44446C14.0642 2.4121 13.2273 1.5752 12.195 1.5752C11.1626 1.5752 10.3257 2.4121 10.3257 3.44446C10.3257 4.47683 11.1626 5.31373 12.195 5.31373Z" fill="#283E5B"/>
</svg>
