<svg width="86" height="86" viewBox="0 0 86 86" fill="none" xmlns="http://www.w3.org/2000/svg">
<g clip-path="url(#clip0_122_535)">
<path d="M37.6252 13.4375C37.6252 17.0013 36.2095 20.4192 33.6895 22.9392C31.1695 25.4593 27.7516 26.875 24.1877 26.875C20.6239 26.875 17.206 25.4593 14.686 22.9392C12.166 20.4192 10.7502 17.0013 10.7502 13.4375C10.7502 9.87365 12.166 6.45577 14.686 3.93575C17.206 1.41573 20.6239 0 24.1877 0C27.7516 0 31.1695 1.41573 33.6895 3.93575C36.2095 6.45577 37.6252 9.87365 37.6252 13.4375ZM60.3346 35.2224C59.8306 34.9699 59.2599 34.8823 58.7033 34.972C58.1467 35.0617 57.6324 35.3242 57.2332 35.7222L37.292 61.0385L22.9945 46.139C22.4783 45.7953 21.8591 45.6407 21.2419 45.7015C20.6247 45.7622 20.0476 46.0345 19.6082 46.4722L0.0109863 69.875V80.625C0.0109863 82.0505 0.577279 83.4177 1.58529 84.4257C2.5933 85.4337 3.96045 86 5.38599 86H80.636C81.3418 86 82.0408 85.861 82.6929 85.5909C83.345 85.3207 83.9376 84.9248 84.4367 84.4257C84.9358 83.9266 85.3317 83.3341 85.6018 82.6819C85.872 82.0298 86.011 81.3309 86.011 80.625V56.4375L60.3346 35.2224Z" fill="#949494"/>
</g>
<defs>
<clipPath id="clip0_122_535">
<rect width="86" height="86" fill="white"/>
</clipPath>
</defs>
</svg>
