<svg width="15" height="15" viewBox="0 0 15 15" fill="none" xmlns="http://www.w3.org/2000/svg">
<ellipse cx="7.0846" cy="7.13855" rx="6.95203" ry="6.95203" fill="#D9D9D9"/>
<path d="M9.49796 5.69027C9.49796 5.05006 9.24364 4.43608 8.79095 3.98338C8.33825 3.53069 7.72427 3.27637 7.08406 3.27637C6.44386 3.27637 5.82987 3.53069 5.37718 3.98338C4.92449 4.43608 4.67017 5.05006 4.67017 5.69027C4.67017 5.81831 4.72103 5.9411 4.81157 6.03164C4.90211 6.12218 5.0249 6.17304 5.15295 6.17304C5.28099 6.17304 5.40378 6.12218 5.49432 6.03164C5.58486 5.9411 5.63573 5.81831 5.63573 5.69027C5.63573 5.40381 5.72067 5.12379 5.87981 4.88561C6.03896 4.64743 6.26516 4.4618 6.52981 4.35217C6.79446 4.24255 7.08567 4.21387 7.36662 4.26976C7.64757 4.32564 7.90564 4.46358 8.1082 4.66614C8.31075 4.86869 8.44869 5.12676 8.50457 5.40771C8.56046 5.68866 8.53178 5.97987 8.42216 6.24452C8.31253 6.50917 8.1269 6.73537 7.88872 6.89452C7.65054 7.05366 7.37052 7.1386 7.08406 7.1386C6.95602 7.1386 6.83323 7.18947 6.74269 7.28001C6.65215 7.37055 6.60128 7.49334 6.60128 7.62138V8.58694C6.60128 8.71498 6.65215 8.83778 6.74269 8.92832C6.83323 9.01886 6.95602 9.06972 7.08406 9.06972C7.21211 9.06972 7.3349 9.01886 7.42544 8.92832C7.51598 8.83778 7.56684 8.71498 7.56684 8.58694V8.05589C8.11208 7.94459 8.60212 7.64833 8.95402 7.21725C9.30592 6.78617 9.49808 6.24674 9.49796 5.69027Z" fill="black"/>
<path d="M7.08426 11.0001C7.3507 11.0001 7.5667 10.7841 7.5667 10.5176C7.5667 10.2512 7.3507 10.0352 7.08426 10.0352C6.81781 10.0352 6.60181 10.2512 6.60181 10.5176C6.60181 10.7841 6.81781 11.0001 7.08426 11.0001Z" fill="black"/>
</svg>
