<svg width="25" height="24" viewBox="0 0 25 24" fill="#2892F3" xmlns="http://www.w3.org/2000/svg">
<g clip-path="url(#clip0_565_88564)">
<path d="M13.3491 2H4.12184C3.7448 2 3.3832 2.1489 3.11659 2.41396C2.84998 2.67901 2.7002 3.03849 2.7002 3.41333V22H14.7708V3.41333C14.7708 3.03849 14.621 2.67901 14.3544 2.41396C14.0878 2.1489 13.7262 2 13.3491 2V2ZM13.4296 20.6667H11.4178V18.6667H6.05314V20.6667H4.04137V3.41333C4.04137 3.40283 4.04345 3.39242 4.0475 3.38272C4.05154 3.37301 4.05747 3.36419 4.06494 3.35676C4.07241 3.34934 4.08128 3.34344 4.09105 3.33942C4.10081 3.3354 4.11127 3.33333 4.12184 3.33333H13.3491C13.3597 3.33333 13.3702 3.3354 13.3799 3.33942C13.3897 3.34344 13.3986 3.34934 13.406 3.35676C13.4135 3.36419 13.4194 3.37301 13.4235 3.38272C13.4275 3.39242 13.4296 3.40283 13.4296 3.41333V20.6667Z" fill="#2892F3"/>
<path d="M5.38184 5.33398H6.72301V6.66732H5.38184V5.33398Z" fill="#2892F3"/>
<path d="M8.0647 5.33398H9.40587V6.66732H8.0647V5.33398Z" fill="#2892F3"/>
<path d="M10.7473 5.33398H12.0885V6.66732H10.7473V5.33398Z" fill="#2892F3"/>
<path d="M5.38184 8.66602H6.72301V9.99935H5.38184V8.66602Z" fill="#2892F3"/>
<path d="M8.0647 8.66602H9.40587V9.99935H8.0647V8.66602Z" fill="#2892F3"/>
<path d="M10.7473 8.66602H12.0885V9.99935H10.7473V8.66602Z" fill="#2892F3"/>
<path d="M5.38184 12H6.72301V13.3333H5.38184V12Z" fill="#2892F3"/>
<path d="M8.0647 12H9.40587V13.3333H8.0647V12Z" fill="#2892F3"/>
<path d="M10.7473 12H12.0885V13.3333H10.7473V12Z" fill="#2892F3"/>
<path d="M5.38184 15.334H6.72301V16.6673H5.38184V15.334Z" fill="#2892F3"/>
<path d="M8.0647 15.334H9.40587V16.6673H8.0647V15.334Z" fill="#2892F3"/>
<path d="M10.7473 15.334H12.0885V16.6673H10.7473V15.334Z" fill="#2892F3"/>
<path d="M15.4407 8.66602H16.7818V9.99935H15.4407V8.66602Z" fill="#2892F3"/>
<path d="M18.1235 8.66602H19.4647V9.99935H18.1235V8.66602Z" fill="#2892F3"/>
<path d="M15.4407 12H16.7818V13.3333H15.4407V12Z" fill="#2892F3"/>
<path d="M18.1235 12H19.4647V13.3333H18.1235V12Z" fill="#2892F3"/>
<path d="M15.4407 15.334H16.7818V16.6673H15.4407V15.334Z" fill="#2892F3"/>
<path d="M18.1235 15.334H19.4647V16.6673H18.1235V15.334Z" fill="#2892F3"/>
<path d="M20.8054 8.95341V20.6667H15.4407V22.0001H22.1466V8.58008C21.7192 8.76617 21.2678 8.89183 20.8054 8.95341V8.95341Z" fill="#2892F3"/>
<path d="M20.1357 7.33268C21.9874 7.33268 23.4886 5.8403 23.4886 3.99935C23.4886 2.1584 21.9874 0.666016 20.1357 0.666016C18.2839 0.666016 16.7827 2.1584 16.7827 3.99935C16.7827 5.8403 18.2839 7.33268 20.1357 7.33268Z" fill="#2892F3"/>
</g>
<defs>
<clipPath id="clip0_565_88564">
<rect width="24.1412" height="24" fill=""  transform="translate(0.0175781)"/>
</clipPath>
</defs>
</svg>
