<svg width="23" height="23" viewBox="0 0 23 23" fill="none" xmlns="http://www.w3.org/2000/svg">
<g id="questionIcon" clip-path="url(#clip0_773_3345)">
<path id="Vector" fill-rule="evenodd" clip-rule="evenodd" d="M11.8655 3.51217C7.11104 3.51217 3.25679 7.36641 3.25679 12.1208C3.25679 16.8753 7.11104 20.7295 11.8655 20.7295C16.62 20.7295 20.4742 16.8753 20.4742 12.1208C20.4742 7.36641 16.62 3.51217 11.8655 3.51217ZM1.34375 12.1208C1.34375 6.30987 6.0545 1.59912 11.8655 1.59912C17.6765 1.59912 22.3872 6.30987 22.3872 12.1208C22.3872 17.9319 17.6765 22.6426 11.8655 22.6426C6.0545 22.6426 1.34375 17.9319 1.34375 12.1208ZM10.909 10.2078C10.909 9.67954 11.3372 9.2513 11.8655 9.2513C12.3938 9.2513 12.822 9.67954 12.822 10.2078V10.3239C12.822 10.6083 12.709 10.8811 12.5079 11.0823L11.1891 12.401C10.8156 12.7745 10.8156 13.3802 11.1891 13.7537C11.5627 14.1273 12.1683 14.1273 12.5418 13.7537L13.8606 12.435C14.4205 11.8751 14.7351 11.1157 14.7351 10.3239V10.2078C14.7351 8.62299 13.4503 7.33825 11.8655 7.33825C10.2807 7.33825 8.99592 8.62299 8.99592 10.2078V10.6861C8.99592 11.2143 9.42417 11.6426 9.95245 11.6426C10.4807 11.6426 10.909 11.2143 10.909 10.6861V10.2078ZM12.822 15.9469C12.822 16.4752 12.3938 16.9035 11.8655 16.9035C11.3372 16.9035 10.909 16.4752 10.909 15.9469C10.909 15.4186 11.3372 14.9904 11.8655 14.9904C12.3938 14.9904 12.822 15.4186 12.822 15.9469Z" fill="white"/>
</g>
<defs>
<clipPath id="clip0_773_3345">
<rect width="22" height="22" fill="white" transform="translate(0.867188 0.930176)"/>
</clipPath>
</defs>
</svg>
