<svg width="23" height="23" viewBox="0 0 23 23" fill="none" xmlns="http://www.w3.org/2000/svg">
<g id="referralIcon" clip-path="url(#clip0_773_3352)">
<path id="Vector" fill-rule="evenodd" clip-rule="evenodd" d="M15.4272 1.75197L15.5362 1.75199H16.0612L16.1007 1.75199C16.8707 1.75198 17.5062 1.75197 18.0239 1.79427C18.5616 1.83819 19.0558 1.93247 19.52 2.16901C20.2399 2.53583 20.8253 3.12115 21.1921 3.84107C21.4286 4.30531 21.5229 4.79954 21.5668 5.3372C21.6091 5.85486 21.609 6.49033 21.609 7.26029V7.29982V7.82512L21.6091 7.93411C21.6093 8.76502 21.6095 9.34022 21.4769 9.89238C21.3598 10.3804 21.1665 10.8469 20.9044 11.2747C20.6077 11.7589 20.2008 12.1655 19.6132 12.7529L19.5361 12.83L18.3432 14.023L18.7177 15.8935L18.7424 16.0172C18.8951 16.7776 19.0104 17.3514 18.9548 17.92C18.9059 18.4206 18.7588 18.9068 18.5218 19.3505C18.2527 19.8543 17.8386 20.268 17.2899 20.816L17.2006 20.9053L15.5906 22.5153C15.3917 22.7141 15.1156 22.8154 14.8353 22.7922C14.5552 22.769 14.2993 22.6237 14.1359 22.3949L12.2524 19.758C10.9149 20.4197 9.34518 20.4194 8.008 19.7568C7.30208 19.407 6.67563 18.78 5.75883 17.8624L5.62903 17.7326L5.49917 17.6028C4.5817 16.6861 3.95476 16.0596 3.60496 15.3537C2.94233 14.0166 2.94187 12.4468 3.60359 11.1093L0.96695 9.22594C0.738155 9.06251 0.592854 8.80669 0.569668 8.52648C0.546481 8.24626 0.647758 7.97004 0.846579 7.77122L2.45689 6.16096L2.54604 6.07173C3.09403 5.52311 3.50759 5.10907 4.01137 4.84C4.45504 4.60304 4.94108 4.45589 5.44168 4.40696C6.01011 4.3514 6.58388 4.46652 7.34415 4.61906L7.46782 4.64385L9.33841 5.01798L10.531 3.82536L10.608 3.74827C11.1954 3.16046 11.602 2.75358 12.0863 2.45683C12.5141 2.19458 12.9807 2.00132 13.4687 1.88415C14.0209 1.75157 14.5962 1.75173 15.4272 1.75197ZM13.2814 16.3797L13.8082 15.8528L16.6283 13.0322L16.6402 13.0206L18.1833 11.4773C18.8772 10.7835 19.1095 10.5423 19.2732 10.2752C19.4306 10.0185 19.5465 9.7386 19.6168 9.44582C19.6899 9.14118 19.696 8.80642 19.696 7.82512V7.29982C19.696 6.48048 19.6953 5.9235 19.6601 5.49298C19.6259 5.07363 19.5637 4.85918 19.4875 4.70958C19.3041 4.34961 19.0114 4.05696 18.6515 3.87354C18.5019 3.79732 18.2874 3.73522 17.8681 3.70096C17.4375 3.66579 16.8806 3.66504 16.0612 3.66504H15.5362C14.5548 3.66504 14.22 3.67119 13.9153 3.74434C13.6226 3.81463 13.3426 3.93059 13.0859 4.08794C12.8187 4.25166 12.5777 4.48405 11.8837 5.17804L10.3378 6.72408L10.3293 6.73268L6.80301 10.2593C5.84253 11.2223 5.49975 11.5913 5.31903 11.9561C4.92122 12.759 4.92124 13.7015 5.31908 14.5043C5.46455 14.7979 5.71503 15.0943 6.30812 15.7009L7.54207 14.4669C7.91561 14.0934 8.52125 14.0934 8.8948 14.4669C9.26835 14.8404 9.26835 15.4461 8.8948 15.8196L7.66085 17.0536C8.26743 17.6467 8.56383 17.8971 8.85741 18.0426C9.66027 18.4404 10.6029 18.4404 11.4057 18.0426C11.7923 17.851 12.1837 17.4775 13.2814 16.3797ZM14.2911 18.0755L13.7723 18.5944L15.0363 20.3642L15.8479 19.5526C16.5254 18.8751 16.7162 18.6704 16.8343 18.4493C16.9528 18.2275 17.0263 17.9843 17.0508 17.734C17.0752 17.4847 17.0298 17.2084 16.8418 16.269L16.7177 15.6487L15.1827 17.1837L14.6341 17.7324L14.5043 17.8623L14.2911 18.0755ZM5.62886 8.72783L7.71275 6.64377L7.09262 6.51973C6.15329 6.33186 5.87713 6.28656 5.62778 6.31093C5.37747 6.33539 5.13446 6.40898 4.91262 6.52745C4.69162 6.64548 4.48696 6.83636 3.80959 7.51371L2.99771 8.32557L4.76734 9.58963L5.19777 9.15916C5.29436 9.06212 5.39466 8.96188 5.4987 8.85792L5.62886 8.72783ZM13.003 9.40374C13.003 8.87547 13.4313 8.44722 13.9595 8.44722C14.4878 8.44722 14.9161 8.87547 14.9161 9.40374C14.9161 9.93202 14.4878 10.3603 13.9595 10.3603C13.4313 10.3603 13.003 9.93202 13.003 9.40374ZM13.9595 6.53417C12.3748 6.53417 11.09 7.81893 11.09 9.40374C11.09 10.9885 12.3748 12.2733 13.9595 12.2733C15.5444 12.2733 16.8291 10.9885 16.8291 9.40374C16.8291 7.81893 15.5444 6.53417 13.9595 6.53417Z" fill="white"/>
</g>
<defs>
<clipPath id="clip0_773_3352">
<rect width="22" height="22" fill="white" transform="translate(0.0859375 0.930176)"/>
</clipPath>
</defs>
</svg>
