<svg width="17" height="16" viewBox="0 0 17 16" fill="none" xmlns="http://www.w3.org/2000/svg">
<path d="M8.99486 7.51688e-06C7.49812 -0.0020439 6.03083 0.415829 4.75975 1.20613C3.48867 1.99643 2.46479 3.12747 1.80449 4.47067C1.14418 5.81388 0.873926 7.31539 1.02445 8.80454C1.17497 10.2937 1.74023 11.7107 2.65598 12.8946C3.57173 14.0785 4.80123 14.9818 6.20475 15.5018C7.60827 16.0217 9.1295 16.1375 10.5955 15.836C12.0616 15.5344 13.4137 14.8277 14.498 13.796C15.5824 12.7644 16.3557 11.4492 16.7299 10H14.6489C14.2822 11.0372 13.6373 11.9536 12.7849 12.6491C11.9325 13.3445 10.9053 13.7922 9.81561 13.9432C8.72591 14.0942 7.61566 13.9427 6.60626 13.5053C5.59685 13.0679 4.72714 12.3613 4.0922 11.4629C3.45726 10.5646 3.08154 9.50889 3.00612 8.41136C2.9307 7.31384 3.15847 6.2167 3.66454 5.2399C4.17062 4.2631 4.9355 3.44424 5.87558 2.87283C6.81566 2.30143 7.89474 1.99948 8.99486 2.00001C9.78173 2.00116 10.5605 2.15917 11.2856 2.4648C12.0107 2.77043 12.6676 3.21754 13.2179 3.78001L9.99986 7.00001H16.9999V7.51688e-06L14.6489 2.35001C13.908 1.60469 13.0271 1.01333 12.0567 0.610007C11.0863 0.206684 10.0457 -0.000630955 8.99486 7.51688e-06Z" fill="#93989A"/>
</svg>
