<svg width="36" height="36" viewBox="0 0 36 36" fill="none" xmlns="http://www.w3.org/2000/svg">
<path d="M10.7998 3.59961C9.84503 3.59961 8.92935 3.97889 8.25422 4.65402C7.57909 5.32916 7.1998 6.24483 7.1998 7.19961V19.7996H8.9998V7.19961C8.9998 6.72222 9.18945 6.26438 9.52701 5.92682C9.86458 5.58925 10.3224 5.39961 10.7998 5.39961H23.3998C23.8772 5.39961 24.335 5.58925 24.6726 5.92682C25.0102 6.26438 25.1998 6.72222 25.1998 7.19961V26.9996H19.7998V28.7996H26.9998C28.432 28.7996 29.8055 28.2307 30.8182 27.218C31.8309 26.2053 32.3998 24.8318 32.3998 23.3996V19.7996H26.9998V7.19961C26.9998 6.24483 26.6205 5.32916 25.9454 4.65402C25.2703 3.97889 24.3546 3.59961 23.3998 3.59961H10.7998ZM30.5998 23.3996C30.5998 24.3544 30.2205 25.2701 29.5454 25.9452C28.8703 26.6203 27.9546 26.9996 26.9998 26.9996V21.5996H30.5998V23.3996ZM13.4998 8.99961C13.2611 8.99961 13.0322 9.09443 12.8634 9.26321C12.6946 9.432 12.5998 9.66091 12.5998 9.89961C12.5998 10.1383 12.6946 10.3672 12.8634 10.536C13.0322 10.7048 13.2611 10.7996 13.4998 10.7996H20.6998C20.9385 10.7996 21.1674 10.7048 21.3362 10.536C21.505 10.3672 21.5998 10.1383 21.5998 9.89961C21.5998 9.66091 21.505 9.432 21.3362 9.26321C21.1674 9.09443 20.9385 8.99961 20.6998 8.99961H13.4998ZM12.5998 13.4996C12.5998 13.2609 12.6946 13.032 12.8634 12.8632C13.0322 12.6944 13.2611 12.5996 13.4998 12.5996H20.6998C20.9385 12.5996 21.1674 12.6944 21.3362 12.8632C21.505 13.032 21.5998 13.2609 21.5998 13.4996C21.5998 13.7383 21.505 13.9672 21.3362 14.136C21.1674 14.3048 20.9385 14.3996 20.6998 14.3996H13.4998C13.2611 14.3996 13.0322 14.3048 12.8634 14.136C12.6946 13.9672 12.5998 13.7383 12.5998 13.4996ZM15.2998 21.5996C16.0159 21.5996 16.7026 21.8841 17.209 22.3904C17.7153 22.8968 17.9998 23.5835 17.9998 24.2996V29.6996C17.9998 30.4157 17.7153 31.1024 17.209 31.6088C16.7026 32.1151 16.0159 32.3996 15.2998 32.3996H4.4998C3.78372 32.3996 3.09696 32.1151 2.59062 31.6088C2.08427 31.1024 1.7998 30.4157 1.7998 29.6996V24.2996C1.7998 23.5835 2.08427 22.8968 2.59062 22.3904C3.09696 21.8841 3.78372 21.5996 4.4998 21.5996H15.2998ZM16.1998 29.6996V27.8996C15.4837 27.8996 14.797 28.1841 14.2906 28.6904C13.7843 29.1968 13.4998 29.8835 13.4998 30.5996H15.2998C15.2998 30.3609 15.3946 30.132 15.5634 29.9632C15.7322 29.7944 15.9611 29.6996 16.1998 29.6996ZM16.1998 24.2996C15.9611 24.2996 15.7322 24.2048 15.5634 24.036C15.3946 23.8672 15.2998 23.6383 15.2998 23.3996H13.4998C13.4998 24.1157 13.7843 24.8025 14.2906 25.3088C14.797 25.8151 15.4837 26.0996 16.1998 26.0996V24.2996ZM4.4998 23.3996C4.4998 23.6383 4.40498 23.8672 4.2362 24.036C4.06742 24.2048 3.8385 24.2996 3.5998 24.2996V26.0996C4.31589 26.0996 5.00264 25.8151 5.50899 25.3088C6.01534 24.8025 6.2998 24.1157 6.2998 23.3996H4.4998ZM3.5998 29.6996C3.8385 29.6996 4.06742 29.7944 4.2362 29.9632C4.40498 30.132 4.4998 30.3609 4.4998 30.5996H6.2998C6.2998 29.8835 6.01534 29.1968 5.50899 28.6904C5.00264 28.1841 4.31589 27.8996 3.5998 27.8996V29.6996ZM9.8998 24.2996C9.18372 24.2996 8.49696 24.5841 7.99062 25.0904C7.48427 25.5968 7.1998 26.2835 7.1998 26.9996C7.1998 27.7157 7.48427 28.4024 7.99062 28.9088C8.49696 29.4151 9.18372 29.6996 9.8998 29.6996C10.6159 29.6996 11.3026 29.4151 11.809 28.9088C12.3153 28.4024 12.5998 27.7157 12.5998 26.9996C12.5998 26.2835 12.3153 25.5968 11.809 25.0904C11.3026 24.5841 10.6159 24.2996 9.8998 24.2996Z" fill="#283E5B"/>
</svg>
