<svg width="31" height="19" viewBox="0 0 31 19" fill="none" xmlns="http://www.w3.org/2000/svg">
<path d="M28.334 0.867188H2.33398C1.80355 0.867188 1.29484 1.0779 0.919771 1.45297C0.544698 1.82805 0.333984 2.33675 0.333984 2.86719V16.8672C0.333984 17.3976 0.544698 17.9063 0.919771 18.2814C1.29484 18.6565 1.80355 18.8672 2.33398 18.8672H28.334C28.8644 18.8672 29.3731 18.6565 29.7482 18.2814C30.1233 17.9063 30.334 17.3976 30.334 16.8672V2.86719C30.334 2.33675 30.1233 1.82805 29.7482 1.45297C29.3731 1.0779 28.8644 0.867188 28.334 0.867188ZM9.70898 16.8672L2.33398 10.4172V9.31719L9.70898 2.86719H20.959L28.334 9.31719V10.4172L20.959 16.8672H9.70898ZM28.334 6.66719L23.9965 2.86719H28.334V6.66719ZM6.67148 2.86719L2.33398 6.66719V2.86719H6.67148ZM2.33398 13.0672L6.67148 16.8672H2.33398V13.0672ZM28.334 16.8672H23.9965L28.334 13.0672V16.8672ZM15.334 4.86719C14.3451 4.86719 13.3784 5.16043 12.5561 5.70984C11.7339 6.25925 11.093 7.04014 10.7146 7.95377C10.3361 8.8674 10.2371 9.87274 10.4301 10.8426C10.623 11.8125 11.0992 12.7035 11.7984 13.4027C12.4977 14.102 13.3886 14.5782 14.3585 14.7711C15.3284 14.964 16.3338 14.865 17.2474 14.4866C18.161 14.1081 18.9419 13.4673 19.4913 12.645C20.0407 11.8228 20.334 10.8561 20.334 9.86719C20.334 8.54111 19.8072 7.26934 18.8695 6.33165C17.9318 5.39397 16.6601 4.86719 15.334 4.86719ZM15.334 12.8672C14.7406 12.8672 14.1606 12.6912 13.6673 12.3616C13.1739 12.032 12.7894 11.5634 12.5623 11.0152C12.3353 10.4671 12.2759 9.86386 12.3916 9.28192C12.5074 8.69997 12.7931 8.16542 13.2127 7.74587C13.6322 7.32631 14.1668 7.04059 14.7487 6.92483C15.3307 6.80908 15.9339 6.86849 16.482 7.09555C17.0302 7.32261 17.4987 7.70713 17.8284 8.20048C18.158 8.69382 18.334 9.27384 18.334 9.86719C18.3307 10.6618 18.0136 11.423 17.4517 11.9849C16.8898 12.5468 16.1286 12.8639 15.334 12.8672Z" fill="#283E5B"/>
</svg>
