<svg width="35" height="35" viewBox="0 0 35 35" fill="none" xmlns="http://www.w3.org/2000/svg">
<path d="M17.5 2.1875L4.375 6.5625V19.6875C4.375 26.937 10.2505 32.8125 17.5 32.8125C24.7495 32.8125 30.625 26.937 30.625 19.6875V6.5625L17.5 2.1875ZM28.1641 19.6875C28.1641 25.5767 23.3892 30.3516 17.5 30.3516C11.6108 30.3516 6.83594 25.5767 6.83594 19.6875V8.4082L17.5 4.64844L28.1641 8.4082V19.6875Z" fill="#0072BA"/>
<path d="M12.9336 16.2388C12.8196 16.1242 12.684 16.0333 12.5347 15.9713C12.3855 15.9092 12.2254 15.8773 12.0637 15.8773C11.9021 15.8773 11.742 15.9092 11.5928 15.9713C11.4435 16.0333 11.3079 16.1242 11.1939 16.2388C11.0793 16.3528 10.9884 16.4884 10.9264 16.6376C10.8643 16.7869 10.8324 16.947 10.8324 17.1086C10.8324 17.2703 10.8643 17.4304 10.9264 17.5796C10.9884 17.7289 11.0793 17.8645 11.1939 17.9785L15.6167 22.4014L15.6885 22.4731C15.7964 22.5812 15.9245 22.667 16.0656 22.7255C16.2066 22.784 16.3578 22.8141 16.5105 22.8141C16.6632 22.8141 16.8144 22.784 16.9555 22.7255C17.0965 22.667 17.2247 22.5812 17.3325 22.4731L24.9717 14.834C25.0798 14.7261 25.1655 14.598 25.224 14.4569C25.2825 14.3159 25.3126 14.1647 25.3126 14.012C25.3126 13.8593 25.2825 13.7081 25.224 13.567C25.1655 13.426 25.0798 13.2978 24.9717 13.1899L24.876 13.0942C24.7681 12.9862 24.64 12.9004 24.4989 12.8419C24.3579 12.7834 24.2067 12.7533 24.054 12.7533C23.9013 12.7533 23.7501 12.7834 23.609 12.8419C23.468 12.9004 23.3398 12.9862 23.232 13.0942L16.5088 19.814L12.9336 16.2388Z" fill="#0072BA"/>
</svg>
