<svg width="20" height="19" viewBox="0 0 20 19" fill="none" xmlns="http://www.w3.org/2000/svg">
<path d="M0.45596 1.21303C0.45596 1.04257 0.528164 0.879094 0.656686 0.75856C0.785209 0.638027 0.959523 0.570312 1.14128 0.570312H1.74162C2.73808 0.570312 3.31101 1.17832 3.6427 1.78505C3.86886 2.20025 4.03196 2.70671 4.16766 3.14633H18.2784C18.4902 3.14639 18.6991 3.19248 18.8887 3.28097C19.0783 3.36947 19.2435 3.49797 19.3712 3.65639C19.499 3.81481 19.5858 3.99883 19.625 4.19403C19.6642 4.38922 19.6546 4.59028 19.597 4.78141L17.5465 11.5621C17.3834 12.1001 17.0377 12.5735 16.5618 12.9105C16.0859 13.2476 15.5057 13.4299 14.9094 13.4298H7.94789C7.34655 13.43 6.76183 13.2448 6.28382 12.9026C5.8058 12.5605 5.461 12.0804 5.30255 11.5364L4.4226 8.50918C4.41755 8.49561 4.41298 8.4819 4.40889 8.46805L2.99576 3.97287L2.8587 3.53968C2.72163 3.09491 2.60101 2.70157 2.42009 2.37121C2.20216 1.97273 2.00204 1.85704 1.74025 1.85704H1.13991C0.958152 1.85704 0.783838 1.78932 0.655315 1.66879C0.526793 1.54826 0.45459 1.38478 0.45459 1.21432L0.45596 1.21303ZM5.73019 8.12098L6.62522 11.2009C6.70457 11.4728 6.87702 11.7127 7.11602 11.8836C7.35502 12.0546 7.64731 12.1471 7.94789 12.147H14.9107C15.2088 12.1467 15.4986 12.0553 15.7363 11.8867C15.974 11.718 16.1466 11.4814 16.2279 11.2125L18.2784 4.43177H4.572L5.73019 8.11969V8.12098ZM10.0546 16.6422C10.0546 17.1535 9.83795 17.644 9.45239 18.0056C9.06682 18.3672 8.54388 18.5703 7.9986 18.5703C7.45333 18.5703 6.93038 18.3672 6.54482 18.0056C6.15925 17.644 5.94264 17.1535 5.94264 16.6422C5.94264 16.1308 6.15925 15.6403 6.54482 15.2787C6.93038 14.9171 7.45333 14.714 7.9986 14.714C8.54388 14.714 9.06682 14.9171 9.45239 15.2787C9.83795 15.6403 10.0546 16.1308 10.0546 16.6422ZM8.68392 16.6422C8.68392 16.4717 8.61172 16.3082 8.4832 16.1877C8.35467 16.0671 8.18036 15.9994 7.9986 15.9994C7.81684 15.9994 7.64253 16.0671 7.51401 16.1877C7.38548 16.3082 7.31328 16.4717 7.31328 16.6422C7.31328 16.8126 7.38548 16.9761 7.51401 17.0966C7.64253 17.2172 7.81684 17.2849 7.9986 17.2849C8.18036 17.2849 8.35467 17.2172 8.4832 17.0966C8.61172 16.9761 8.68392 16.8126 8.68392 16.6422ZM16.9078 16.6422C16.9078 17.1535 16.6912 17.644 16.3056 18.0056C15.92 18.3672 15.3971 18.5703 14.8518 18.5703C14.3065 18.5703 13.7836 18.3672 13.398 18.0056C13.0125 17.644 12.7958 17.1535 12.7958 16.6422C12.7958 16.1308 13.0125 15.6403 13.398 15.2787C13.7836 14.9171 14.3065 14.714 14.8518 14.714C15.3971 14.714 15.92 14.9171 16.3056 15.2787C16.6912 15.6403 16.9078 16.1308 16.9078 16.6422ZM15.5371 16.6422C15.5371 16.4717 15.4649 16.3082 15.3364 16.1877C15.2079 16.0671 15.0336 15.9994 14.8518 15.9994C14.6701 15.9994 14.4957 16.0671 14.3672 16.1877C14.2387 16.3082 14.1665 16.4717 14.1665 16.6422C14.1665 16.8126 14.2387 16.9761 14.3672 17.0966C14.4957 17.2172 14.6701 17.2849 14.8518 17.2849C15.0336 17.2849 15.2079 17.2172 15.3364 17.0966C15.4649 16.9761 15.5371 16.8126 15.5371 16.6422Z" fill="black"/>
</svg>
