<svg width="168" height="23" viewBox="0 0 168 23" fill="none" xmlns="http://www.w3.org/2000/svg">
<path d="M6.32 16.9623C5.29333 16.9623 4.37333 16.7956 3.56 16.4623C2.74667 16.1289 2.09333 15.6356 1.6 14.9823C1.12 14.3289 0.866667 13.5423 0.84 12.6223H4.48C4.53333 13.1423 4.71333 13.5423 5.02 13.8223C5.32667 14.0889 5.72667 14.2223 6.22 14.2223C6.72667 14.2223 7.12667 14.1089 7.42 13.8823C7.71333 13.6423 7.86 13.3156 7.86 12.9023C7.86 12.5556 7.74 12.2689 7.5 12.0423C7.27333 11.8156 6.98667 11.6289 6.64 11.4823C6.30667 11.3356 5.82667 11.1689 5.2 10.9823C4.29333 10.7023 3.55333 10.4223 2.98 10.1423C2.40667 9.86227 1.91333 9.44893 1.5 8.90227C1.08667 8.3556 0.88 7.64227 0.88 6.76227C0.88 5.4556 1.35333 4.4356 2.3 3.70227C3.24667 2.9556 4.48 2.58227 6 2.58227C7.54667 2.58227 8.79333 2.9556 9.74 3.70227C10.6867 4.4356 11.1933 5.46227 11.26 6.78226H7.56C7.53333 6.32893 7.36667 5.9756 7.06 5.72227C6.75333 5.4556 6.36 5.32226 5.88 5.32226C5.46667 5.32226 5.13333 5.4356 4.88 5.66227C4.62667 5.8756 4.5 6.18893 4.5 6.60226C4.5 7.0556 4.71333 7.40893 5.14 7.66226C5.56667 7.9156 6.23333 8.18893 7.14 8.48227C8.04667 8.78893 8.78 9.08227 9.34 9.36227C9.91333 9.64227 10.4067 10.0489 10.82 10.5823C11.2333 11.1156 11.44 11.8023 11.44 12.6423C11.44 13.4423 11.2333 14.1689 10.82 14.8223C10.42 15.4756 9.83333 15.9956 9.06 16.3823C8.28667 16.7689 7.37333 16.9623 6.32 16.9623ZM12.8647 11.2423C12.8647 10.0823 13.098 9.06893 13.5647 8.20227C14.0447 7.3356 14.7047 6.66893 15.5447 6.20227C16.398 5.7356 17.3714 5.50226 18.4647 5.50226C19.8647 5.50226 21.0314 5.86893 21.9647 6.60226C22.9114 7.3356 23.5314 8.36893 23.8247 9.70227H20.1847C19.878 8.84893 19.2847 8.42227 18.4047 8.42227C17.778 8.42227 17.278 8.66893 16.9047 9.16227C16.5314 9.64227 16.3447 10.3356 16.3447 11.2423C16.3447 12.1489 16.5314 12.8489 16.9047 13.3423C17.278 13.8223 17.778 14.0623 18.4047 14.0623C19.2847 14.0623 19.878 13.6356 20.1847 12.7823H23.8247C23.5314 14.0889 22.9114 15.1156 21.9647 15.8623C21.018 16.6089 19.8514 16.9823 18.4647 16.9823C17.3714 16.9823 16.398 16.7489 15.5447 16.2823C14.7047 15.8156 14.0447 15.1489 13.5647 14.2823C13.098 13.4156 12.8647 12.4023 12.8647 11.2423ZM30.7341 16.9823C29.6407 16.9823 28.6541 16.7489 27.7741 16.2823C26.9074 15.8156 26.2207 15.1489 25.7141 14.2823C25.2207 13.4156 24.9741 12.4023 24.9741 11.2423C24.9741 10.0956 25.2274 9.08893 25.7341 8.22227C26.2407 7.34227 26.9341 6.66893 27.8141 6.20227C28.6941 5.7356 29.6807 5.50226 30.7741 5.50226C31.8674 5.50226 32.8541 5.7356 33.7341 6.20227C34.6141 6.66893 35.3074 7.34227 35.8141 8.22227C36.3207 9.08893 36.5741 10.0956 36.5741 11.2423C36.5741 12.3889 36.3141 13.4023 35.7941 14.2823C35.2874 15.1489 34.5874 15.8156 33.6941 16.2823C32.8141 16.7489 31.8274 16.9823 30.7341 16.9823ZM30.7341 14.0223C31.3874 14.0223 31.9407 13.7823 32.3941 13.3023C32.8607 12.8223 33.0941 12.1356 33.0941 11.2423C33.0941 10.3489 32.8674 9.66227 32.4141 9.18227C31.9741 8.70227 31.4274 8.46227 30.7741 8.46227C30.1074 8.46227 29.5541 8.70227 29.1141 9.18227C28.6741 9.64893 28.4541 10.3356 28.4541 11.2423C28.4541 12.1356 28.6674 12.8223 29.0941 13.3023C29.5341 13.7823 30.0807 14.0223 30.7341 14.0223ZM41.8084 7.52226C42.2084 6.90893 42.7084 6.42893 43.3084 6.08227C43.9084 5.72227 44.5751 5.54227 45.3084 5.54227V9.16227H44.3684C43.5151 9.16227 42.8751 9.34893 42.4484 9.72227C42.0218 10.0823 41.8084 10.7223 41.8084 11.6423V16.8223H38.3884V5.66227H41.8084V7.52226ZM50.3631 7.24226C50.6965 6.72227 51.1565 6.30227 51.7431 5.98226C52.3298 5.66226 53.0165 5.50226 53.8031 5.50226C54.7231 5.50226 55.5565 5.7356 56.3031 6.20227C57.0498 6.66893 57.6365 7.3356 58.0631 8.20227C58.5031 9.06893 58.7231 10.0756 58.7231 11.2223C58.7231 12.3689 58.5031 13.3823 58.0631 14.2623C57.6365 15.1289 57.0498 15.8023 56.3031 16.2823C55.5565 16.7489 54.7231 16.9823 53.8031 16.9823C53.0298 16.9823 52.3431 16.8223 51.7431 16.5023C51.1565 16.1823 50.6965 15.7689 50.3631 15.2623V22.1423H46.9431V5.66227H50.3631V7.24226ZM55.2431 11.2223C55.2431 10.3689 55.0031 9.70227 54.5231 9.22227C54.0565 8.72893 53.4765 8.48227 52.7831 8.48227C52.1031 8.48227 51.5231 8.72893 51.0431 9.22227C50.5765 9.7156 50.3431 10.3889 50.3431 11.2423C50.3431 12.0956 50.5765 12.7689 51.0431 13.2623C51.5231 13.7556 52.1031 14.0023 52.7831 14.0023C53.4631 14.0023 54.0431 13.7556 54.5231 13.2623C55.0031 12.7556 55.2431 12.0756 55.2431 11.2223ZM62.2373 4.50226C61.6373 4.50226 61.144 4.32893 60.7573 3.98227C60.384 3.62227 60.1973 3.18227 60.1973 2.66227C60.1973 2.12893 60.384 1.68893 60.7573 1.34226C61.144 0.982265 61.6373 0.802264 62.2373 0.802264C62.824 0.802264 63.304 0.982265 63.6773 1.34226C64.064 1.68893 64.2573 2.12893 64.2573 2.66227C64.2573 3.18227 64.064 3.62227 63.6773 3.98227C63.304 4.32893 62.824 4.50226 62.2373 4.50226ZM63.9373 5.66227V16.8223H60.5173V5.66227H63.9373ZM71.4958 16.9823C70.4024 16.9823 69.4158 16.7489 68.5358 16.2823C67.6691 15.8156 66.9824 15.1489 66.4758 14.2823C65.9824 13.4156 65.7358 12.4023 65.7358 11.2423C65.7358 10.0956 65.9891 9.08893 66.4958 8.22227C67.0024 7.34227 67.6958 6.66893 68.5758 6.20227C69.4558 5.7356 70.4424 5.50226 71.5358 5.50226C72.6291 5.50226 73.6158 5.7356 74.4958 6.20227C75.3758 6.66893 76.0691 7.34227 76.5758 8.22227C77.0824 9.08893 77.3358 10.0956 77.3358 11.2423C77.3358 12.3889 77.0758 13.4023 76.5558 14.2823C76.0491 15.1489 75.3491 15.8156 74.4558 16.2823C73.5758 16.7489 72.5891 16.9823 71.4958 16.9823ZM71.4958 14.0223C72.1491 14.0223 72.7024 13.7823 73.1558 13.3023C73.6224 12.8223 73.8558 12.1356 73.8558 11.2423C73.8558 10.3489 73.6291 9.66227 73.1758 9.18227C72.7358 8.70227 72.1891 8.46227 71.5358 8.46227C70.8691 8.46227 70.3158 8.70227 69.8758 9.18227C69.4358 9.64893 69.2158 10.3356 69.2158 11.2423C69.2158 12.1356 69.4291 12.8223 69.8558 13.3023C70.2958 13.7823 70.8424 14.0223 71.4958 14.0223ZM85.9502 5.54227C87.2568 5.54227 88.2968 5.96893 89.0702 6.82227C89.8568 7.66227 90.2502 8.82227 90.2502 10.3023V16.8223H86.8502V10.7623C86.8502 10.0156 86.6568 9.4356 86.2702 9.02227C85.8835 8.60893 85.3635 8.40226 84.7102 8.40226C84.0568 8.40226 83.5368 8.60893 83.1502 9.02227C82.7635 9.4356 82.5702 10.0156 82.5702 10.7623V16.8223H79.1502V5.66227H82.5702V7.14227C82.9168 6.64893 83.3835 6.26226 83.9702 5.98226C84.5568 5.68893 85.2168 5.54227 85.9502 5.54227ZM96.285 9.78227C96.285 8.3956 96.585 7.16227 97.185 6.08227C97.785 4.98893 98.6183 4.14227 99.685 3.54226C100.765 2.92893 101.985 2.62226 103.345 2.62226C105.012 2.62226 106.438 3.06226 107.625 3.94226C108.812 4.82227 109.605 6.02227 110.005 7.54227H106.245C105.965 6.9556 105.565 6.50893 105.045 6.20227C104.538 5.8956 103.958 5.74227 103.305 5.74227C102.252 5.74227 101.398 6.10893 100.745 6.84227C100.092 7.5756 99.765 8.5556 99.765 9.78227C99.765 11.0089 100.092 11.9889 100.745 12.7223C101.398 13.4556 102.252 13.8223 103.305 13.8223C103.958 13.8223 104.538 13.6689 105.045 13.3623C105.565 13.0556 105.965 12.6089 106.245 12.0223H110.005C109.605 13.5423 108.812 14.7423 107.625 15.6223C106.438 16.4889 105.012 16.9223 103.345 16.9223C101.985 16.9223 100.765 16.6223 99.685 16.0223C98.6183 15.4089 97.785 14.5623 97.185 13.4823C96.585 12.4023 96.285 11.1689 96.285 9.78227ZM111.419 11.2223C111.419 10.0756 111.633 9.06893 112.059 8.20227C112.499 7.3356 113.093 6.66893 113.839 6.20227C114.586 5.7356 115.419 5.50226 116.339 5.50226C117.126 5.50226 117.813 5.66226 118.399 5.98226C118.999 6.30227 119.459 6.72227 119.779 7.24226V5.66227H123.199V16.8223H119.779V15.2423C119.446 15.7623 118.979 16.1823 118.379 16.5023C117.793 16.8223 117.106 16.9823 116.319 16.9823C115.413 16.9823 114.586 16.7489 113.839 16.2823C113.093 15.8023 112.499 15.1289 112.059 14.2623C111.633 13.3823 111.419 12.3689 111.419 11.2223ZM119.779 11.2423C119.779 10.3889 119.539 9.7156 119.059 9.22227C118.593 8.72893 118.019 8.48227 117.339 8.48227C116.659 8.48227 116.079 8.72893 115.599 9.22227C115.133 9.70227 114.899 10.3689 114.899 11.2223C114.899 12.0756 115.133 12.7556 115.599 13.2623C116.079 13.7556 116.659 14.0023 117.339 14.0023C118.019 14.0023 118.593 13.7556 119.059 13.2623C119.539 12.7689 119.779 12.0956 119.779 11.2423ZM130.214 16.9823C129.24 16.9823 128.374 16.8156 127.614 16.4823C126.854 16.1489 126.254 15.6956 125.814 15.1223C125.374 14.5356 125.127 13.8823 125.074 13.1623H128.454C128.494 13.5489 128.674 13.8623 128.994 14.1023C129.314 14.3423 129.707 14.4623 130.174 14.4623C130.6 14.4623 130.927 14.3823 131.154 14.2223C131.394 14.0489 131.514 13.8289 131.514 13.5623C131.514 13.2423 131.347 13.0089 131.014 12.8623C130.68 12.7023 130.14 12.5289 129.394 12.3423C128.594 12.1556 127.927 11.9623 127.394 11.7623C126.86 11.5489 126.4 11.2223 126.014 10.7823C125.627 10.3289 125.434 9.72227 125.434 8.96227C125.434 8.32227 125.607 7.74227 125.954 7.22227C126.314 6.68893 126.834 6.26893 127.514 5.96226C128.207 5.6556 129.027 5.50226 129.974 5.50226C131.374 5.50226 132.474 5.84893 133.274 6.54227C134.087 7.2356 134.554 8.1556 134.674 9.30227H131.514C131.46 8.9156 131.287 8.60893 130.994 8.38227C130.714 8.1556 130.34 8.04227 129.874 8.04227C129.474 8.04227 129.167 8.12227 128.954 8.28227C128.74 8.42893 128.634 8.6356 128.634 8.90227C128.634 9.22227 128.8 9.46227 129.134 9.62227C129.48 9.78227 130.014 9.94227 130.734 10.1023C131.56 10.3156 132.234 10.5289 132.754 10.7423C133.274 10.9423 133.727 11.2756 134.114 11.7423C134.514 12.1956 134.72 12.8089 134.734 13.5823C134.734 14.2356 134.547 14.8223 134.174 15.3423C133.814 15.8489 133.287 16.2489 132.594 16.5423C131.914 16.8356 131.12 16.9823 130.214 16.9823ZM138.546 4.50226C137.946 4.50226 137.453 4.32893 137.066 3.98227C136.693 3.62227 136.506 3.18227 136.506 2.66227C136.506 2.12893 136.693 1.68893 137.066 1.34226C137.453 0.982265 137.946 0.802264 138.546 0.802264C139.133 0.802264 139.613 0.982265 139.986 1.34226C140.373 1.68893 140.566 2.12893 140.566 2.66227C140.566 3.18227 140.373 3.62227 139.986 3.98227C139.613 4.32893 139.133 4.50226 138.546 4.50226ZM140.246 5.66227V16.8223H136.826V5.66227H140.246ZM149.524 5.54227C150.831 5.54227 151.871 5.96893 152.644 6.82227C153.431 7.66227 153.824 8.82227 153.824 10.3023V16.8223H150.424V10.7623C150.424 10.0156 150.231 9.4356 149.844 9.02227C149.458 8.60893 148.938 8.40226 148.284 8.40226C147.631 8.40226 147.111 8.60893 146.724 9.02227C146.338 9.4356 146.144 10.0156 146.144 10.7623V16.8223H142.724V5.66227H146.144V7.14227C146.491 6.64893 146.958 6.26226 147.544 5.98226C148.131 5.68893 148.791 5.54227 149.524 5.54227ZM161.281 16.9823C160.188 16.9823 159.201 16.7489 158.321 16.2823C157.454 15.8156 156.768 15.1489 156.261 14.2823C155.768 13.4156 155.521 12.4023 155.521 11.2423C155.521 10.0956 155.774 9.08893 156.281 8.22227C156.788 7.34227 157.481 6.66893 158.361 6.20227C159.241 5.7356 160.228 5.50226 161.321 5.50226C162.414 5.50226 163.401 5.7356 164.281 6.20227C165.161 6.66893 165.854 7.34227 166.361 8.22227C166.868 9.08893 167.121 10.0956 167.121 11.2423C167.121 12.3889 166.861 13.4023 166.341 14.2823C165.834 15.1489 165.134 15.8156 164.241 16.2823C163.361 16.7489 162.374 16.9823 161.281 16.9823ZM161.281 14.0223C161.934 14.0223 162.488 13.7823 162.941 13.3023C163.408 12.8223 163.641 12.1356 163.641 11.2423C163.641 10.3489 163.414 9.66227 162.961 9.18227C162.521 8.70227 161.974 8.46227 161.321 8.46227C160.654 8.46227 160.101 8.70227 159.661 9.18227C159.221 9.64893 159.001 10.3356 159.001 11.2423C159.001 12.1356 159.214 12.8223 159.641 13.3023C160.081 13.7823 160.628 14.0223 161.281 14.0223Z" fill="white"/>
</svg>
