<svg width="88" height="66" viewBox="0 0 88 66" fill="none" xmlns="http://www.w3.org/2000/svg">
<path d="M19.3737 46.2092C19.6383 46.2691 19.8952 46.4059 20.1053 46.6281C21.0627 47.3548 21.95 48.2268 22.8451 49.0647C23.7013 49.894 24.5185 50.8002 25.3046 51.7235C25.4837 51.9458 25.686 52.151 25.865 52.339C26.0596 52.5442 26.1141 52.5784 26.2542 52.4502C26.3787 52.7323 26.5111 53.023 26.62 53.2966C26.7835 53.7069 26.9469 54.1173 27.0948 54.5106C27.2271 54.8953 27.2271 54.7414 27.375 54.7072C27.484 54.6388 27.593 54.5875 27.7097 54.5533C27.8342 54.4678 27.842 54.408 27.7875 54.2199C27.7175 54.0062 27.4762 53.4163 27.3205 52.9973C27.1649 52.5955 27.1649 52.5784 27.0637 52.3561C26.9936 52.2365 26.9314 52.1082 26.8691 51.9629C26.9547 51.8432 26.8769 51.715 26.7757 51.5782C26.6823 51.4414 26.2931 50.9113 26.0752 50.5864C25.6393 49.9282 25.1879 49.3383 24.6975 48.7398C24.5185 48.5175 24.3706 48.2952 24.1994 48.0986C23.8102 47.6199 23.3977 47.1325 23.0007 46.6623C22.9618 46.6367 22.9385 46.5854 22.8996 46.5255C23.0007 46.4913 23.1097 46.4657 23.2265 46.4486C23.2732 46.4401 23.3121 46.423 23.3277 46.3717C23.3666 46.346 23.3821 46.3118 23.3744 46.2434C23.3588 46.1066 23.3588 45.9698 23.3432 45.8331C23.1253 44.8926 22.8451 43.9522 22.5026 43.0374C22.3781 42.7211 22.2535 42.4133 22.129 42.0885C22.1134 42.0457 22.0979 42.003 22.0901 41.9517C22.3781 42.0543 25.0945 43.7214 25.6393 44.1403C25.6315 44.26 25.6315 44.3882 25.6082 44.5079C25.4837 45.9955 25.7327 47.56 26.2931 49.0476C26.371 49.2442 26.4566 49.4323 26.5422 49.646C26.6356 49.8341 26.6745 49.7999 26.7134 49.8683C26.8068 49.8683 26.8924 49.8598 26.9703 49.8512C27.1882 49.8683 27.3984 49.894 27.6163 49.9282C28.1767 50.7916 28.8305 51.544 29.4765 52.3647C30.1148 53.2025 30.9087 54.2199 31.6092 55.1176C31.9439 55.5792 32.2863 56.0067 32.6288 56.4427C32.6522 56.4598 32.6755 56.5025 32.6833 56.5282C32.6989 56.5624 32.7066 56.6051 32.6989 56.6222C32.8156 57.2891 32.8857 57.9303 32.9246 58.5886C32.9479 58.9733 33.0024 59.0075 33.2826 58.9989C33.3137 58.9818 33.3527 58.9818 33.3838 58.9733C33.5862 58.9391 33.6484 58.8792 33.664 58.58C33.6718 58.1013 33.6406 57.6139 33.5472 57.1523C33.5239 57.0326 33.5083 56.9215 33.4928 56.8189C33.485 56.759 33.5005 56.6906 33.485 56.665C33.4616 56.6222 33.3215 56.1264 33.2203 55.887C33.1036 55.6049 32.8857 55.1261 32.6989 54.767C32.5121 54.3994 32.2007 53.7753 31.9439 53.3051C31.6792 52.8178 31.4146 52.4074 31.15 51.9629C30.7219 51.2191 30.3171 50.4924 29.8813 49.7657C29.8813 49.7401 29.8735 49.7144 29.8735 49.7059C29.998 49.6204 30.1226 49.552 30.2471 49.4836C30.2782 49.4665 30.3016 49.4494 30.3016 49.4067C30.3249 49.381 30.3249 49.3468 30.3171 49.3126C30.177 48.5688 29.9513 47.8678 29.6011 47.1838C29.3831 46.7478 29.1107 46.346 28.885 45.9271C28.8539 45.8758 28.8149 45.816 28.7838 45.7732C30.2782 46.081 31.7493 46.3204 33.2281 46.5426C33.2748 46.9445 33.3449 47.3634 33.4071 47.7823C33.4616 48.1585 33.5628 48.5261 33.7029 48.868C33.7029 48.8937 33.734 48.9279 33.7574 48.9621C33.773 48.9963 33.7963 49.0219 33.843 49.039C33.843 49.0476 33.8742 49.0647 33.8897 49.0818C34.0376 49.116 34.1933 49.1844 34.3256 49.2613C34.4501 49.381 34.5747 49.5178 34.6836 49.6375C35.4308 50.4326 36.1158 51.2704 36.8085 52.1253C37.4701 52.9546 38.0305 53.7411 38.6298 54.5448C38.9489 55.0064 39.2836 55.4681 39.6183 55.9383C39.7895 56.1777 39.8051 56.1606 40.0386 56.0409C40.1164 56.3316 40.1787 56.6051 40.2721 56.8702C40.3655 57.1608 40.5212 57.8191 40.6613 58.2893C40.7936 58.7937 40.7702 58.5544 40.9415 58.4945C41.0504 58.4261 41.1594 58.3577 41.2606 58.2893C41.463 58.1697 41.463 58.0927 41.4085 57.879C41.3618 57.6652 41.2061 57.024 41.0894 56.588C40.957 56.1777 40.8559 55.9041 40.7547 55.5536C40.7391 55.5194 40.7235 55.4937 40.708 55.4595C40.8247 55.2629 40.7469 55.1261 40.6379 54.9209C40.4667 54.6901 40.3188 54.4251 40.1787 54.16C39.7117 53.2624 39.1746 52.4331 38.6609 51.6209C38.1317 50.8002 37.7892 50.3043 37.3689 49.646C37.33 49.5947 37.2988 49.552 37.2833 49.5007C37.4545 49.4152 37.6802 49.3896 37.8359 49.2528C37.9916 49.0989 37.7736 49.1331 37.7892 49.0818C37.7736 48.6116 37.7347 48.167 37.6413 47.7224C37.4545 46.688 37.1977 45.6877 36.8941 44.6789C36.8708 44.6276 36.8552 44.5592 36.8318 44.4737C37.0731 44.5592 39.8284 46.5341 40.132 46.8333C40.1242 47.0641 40.1242 47.295 40.1164 47.5173C40.132 47.6626 40.1553 47.8079 40.1709 47.9618C40.1865 48.0217 40.2098 48.0986 40.241 48.1499C40.2799 48.2098 40.3266 48.2525 40.3811 48.2781C40.4044 48.2867 40.4278 48.2867 40.4356 48.3209C40.7391 48.8338 41.1594 49.21 41.5097 49.6546C42.1245 50.4582 42.755 51.2789 43.3543 52.1168C43.9459 52.9204 44.335 53.5274 44.8098 54.2626C44.8565 54.331 44.8877 54.3738 44.9421 54.4165C44.9966 54.4593 45.0511 54.4678 45.1212 54.4849C45.199 55.0235 45.308 55.5963 45.4091 56.1093C45.4169 56.1777 45.4169 56.2204 45.4247 56.2632C45.4558 56.3914 45.5337 56.417 45.6349 56.3658C45.736 56.3059 45.9773 56.1777 46.1563 56.058C46.1953 56.0238 46.242 55.9725 46.2575 55.9041C46.2809 55.8528 46.2964 55.7759 46.2731 55.716C46.203 55.4424 46.1408 55.1774 46.0707 54.9124C46.0007 54.6559 45.9228 54.2883 45.8294 53.9549C45.7438 53.6556 46.0318 53.6813 45.8761 53.4248C45.5103 52.7922 45.1445 52.1681 44.7631 51.5354C44.4129 50.9626 44.047 50.3898 43.689 49.8256C43.4866 49.4921 43.2531 49.1758 43.0352 48.8509C42.9652 48.7227 42.8951 48.6116 42.8328 48.5004C42.9652 48.4491 43.0897 48.3978 43.222 48.3807C43.2998 48.3636 43.3855 48.3209 43.4399 48.261C43.51 48.2098 43.5567 48.1243 43.5878 48.0559C43.6034 47.996 43.619 47.9447 43.6345 47.902C43.977 46.8504 44.1171 45.7219 44.0393 44.602C44.0237 44.3968 43.9926 44.1916 43.9614 43.9608C44.0081 43.9779 44.0704 43.9864 44.1171 44.0121C44.4751 44.1745 44.8487 44.3284 45.2223 44.4823C46.0863 44.7986 46.9814 45.0465 47.892 45.2175C48.5692 45.3201 49.2619 45.3457 49.9313 45.2944C50.0714 45.2944 50.1959 45.2517 50.2738 45.1406C50.3594 45.0465 50.4294 44.9354 50.4372 44.79C50.4995 44.8242 50.5617 44.867 50.6318 44.8926C51.7993 45.4141 52.9902 45.9356 54.1732 46.4571C54.4067 46.5341 54.648 46.611 54.8815 46.7051C55.0061 46.9445 55.1228 47.2009 55.2318 47.4489C55.403 47.8507 55.6287 48.2012 55.8856 48.5175C56.088 48.6971 56.1424 48.7313 56.3993 48.6287C56.9052 48.4064 57.4189 48.1756 57.9248 47.9618C58.2206 47.8592 58.5242 47.7737 58.8355 47.6882C59.0067 47.6882 59.1468 47.637 59.2869 47.56C59.3181 47.5429 59.3492 47.5429 59.3959 47.5429C59.5983 47.5515 59.7851 47.56 59.9797 47.56C60.6179 47.6113 61.2561 47.4831 61.8165 47.2095C62.7194 46.7735 63.4822 46.0724 64.0192 45.2175C64.1983 44.9268 64.3461 44.6276 64.5407 44.3455C64.5874 44.26 64.6419 44.1745 64.7042 44.089C64.8598 43.8667 65.0233 43.6444 65.1712 43.4051C65.5603 42.8836 65.9807 42.3962 66.4321 41.9602C67.0548 41.3276 67.7164 40.7548 68.3546 40.1649C68.7982 39.7716 69.1796 39.2843 69.4832 38.7714C69.6544 38.4465 69.7945 38.096 69.8412 37.7283C70.0124 36.8563 70.0436 35.9244 69.9424 35.0268C69.9113 34.7788 69.8568 34.548 69.8179 34.3086C69.8101 34.2744 69.7945 34.2231 69.7712 34.1718C69.7478 34.1377 69.7167 34.0949 69.6933 34.0607C69.5454 33.9154 69.4131 33.7871 69.273 33.6674C69.0862 33.5221 68.9306 33.5563 68.9072 33.8042C68.8994 34.1548 68.8839 34.5138 68.8839 34.8814C68.8605 35.0268 68.8372 35.1636 68.7982 35.3089C68.6815 35.2576 68.5725 35.1978 68.4558 35.155C68.2534 35.0866 68.1833 35.1465 68.1522 35.3516C68.1367 35.4628 68.1289 35.5654 68.1289 35.6765C68.0588 35.9159 68.0277 35.933 67.7631 35.8903C67.693 35.8561 67.6074 35.839 67.5218 35.8219C67.2571 35.7449 67.1326 35.8133 67.0859 36.0783C67.0703 36.2579 67.0703 36.446 67.0703 36.6426C67.0314 36.8478 67.0081 37.0615 66.9769 37.2752C66.9614 37.3607 66.9224 37.4548 66.8602 37.4975C66.7823 37.5745 66.7045 37.6087 66.6111 37.6001C66.4632 37.6429 66.3231 37.6514 66.183 37.6343C66.0663 37.6172 65.9495 37.66 65.8872 37.7283C65.7938 37.8053 65.7316 37.8993 65.716 38.0276C65.6382 38.3097 65.5526 38.5918 65.467 38.891C65.3969 38.8141 65.4202 38.7457 65.4047 38.6859C65.3268 38.2071 65.249 37.7454 65.1712 37.2752C65.07 36.7452 64.9299 36.2408 64.7431 35.7278C64.6964 35.6081 64.6575 35.5055 64.6341 35.4115C64.5874 35.2918 64.6186 35.2063 64.673 35.0952C64.8209 34.9327 65.0077 34.7959 65.2179 34.7105C65.4514 34.5908 65.6538 34.4454 65.8405 34.2573C66.0429 34.0607 66.0507 33.8897 65.8483 33.6247C65.7705 33.5221 65.6927 33.411 65.6148 33.3084C65.4981 33.1203 65.4981 33.0177 65.6382 32.8895C65.7316 32.7783 65.8405 32.6586 65.9495 32.5475C66.004 32.4705 66.0351 32.3851 66.0663 32.291C66.0741 32.197 66.0741 32.0944 66.0429 31.9832C65.9262 31.6413 65.7627 31.2907 65.5759 30.9659C65.4903 30.8291 65.4358 30.6923 65.3736 30.547C65.4436 30.4615 65.5292 30.376 65.6148 30.3247C65.7082 30.2734 65.7939 30.2221 65.8795 30.1708C65.9106 30.1708 65.9262 30.128 65.9573 30.1024C65.9573 30.0682 65.9651 30.034 65.9651 30.0169C65.9729 29.9742 65.9417 29.9229 65.934 29.8972C65.9106 29.8716 65.8873 29.8459 65.8561 29.8288C65.7005 29.692 65.5526 29.5638 65.4202 29.427C65.249 29.2817 65.0544 29.1962 64.8598 29.1705C64.782 29.1534 64.7431 29.1705 64.6808 29.1876C64.6263 29.1962 64.5796 29.2304 64.5329 29.2902C64.245 29.6493 64.0037 30.0426 63.778 30.4529C63.4044 31.0514 63.093 31.7097 62.7739 32.368C62.447 33.0604 62.1512 33.4965 61.8477 34.0522C61.8399 34.0693 61.8243 34.0778 61.8165 34.0864C61.7543 34.1804 61.6764 34.2573 61.5908 34.2915C61.4896 34.3428 61.3962 34.377 61.2795 34.3428C60.8592 34.3172 60.4311 34.3343 60.0264 34.3856C59.3259 34.5224 58.6487 34.7361 58.0182 35.0524C57.8392 35.155 57.668 35.2491 57.489 35.3431C57.5357 35.2918 57.5824 35.2234 57.6369 35.155C57.777 34.9926 57.8937 34.7959 57.956 34.5908C58.026 34.3685 58.0416 34.1206 58.0182 33.8726C58.026 33.8555 58.026 33.8213 58.0338 33.7957C57.9871 33.7358 57.9793 33.6845 57.9248 33.6503C57.9015 33.6845 57.8626 33.7102 57.8392 33.7358C57.6991 33.941 57.5279 34.1035 57.3177 34.2317C57.1309 34.3514 56.9052 34.4369 56.6639 34.454C56.5939 34.283 56.5316 34.0949 56.4771 33.8897C56.6094 33.7957 56.7651 33.7102 56.9052 33.6503C57.1076 33.5221 57.3411 33.4366 57.5824 33.411C57.6213 33.4195 57.6602 33.4195 57.6991 33.411C57.738 33.3511 57.7536 33.3084 57.7147 33.2742C57.6524 33.2314 57.6369 33.2143 57.6291 33.2058C57.2243 33.0092 56.8274 32.8809 56.4149 32.8382C56.2825 32.8382 56.1424 32.8382 56.0101 32.8638C55.9089 32.5047 55.582 32.4363 55.3174 32.2312C55.3952 32.1799 55.4731 32.1457 55.5509 32.1115C56.4693 31.6413 57.201 30.8889 57.6836 29.9571C57.8548 29.598 58.026 29.2389 58.1973 28.8884C58.3296 28.7003 58.4541 28.5037 58.6098 28.3412C59.1313 27.777 59.715 27.2982 60.3688 26.9306C60.7035 26.7169 61.0382 26.5374 61.3962 26.3749C61.5363 26.3065 61.6609 26.1954 61.7698 26.0842C61.8555 25.9646 61.9333 25.8107 61.9722 25.6568C62.1901 24.8702 62.2835 24.0324 62.2524 23.1946C62.2291 22.6474 62.0812 22.1003 61.8165 21.5959C61.7465 21.4591 61.6998 21.3308 61.6609 21.2026C61.622 21.1342 61.583 21.1257 61.5363 21.0744C61.513 21.1086 61.4974 21.1428 61.4741 21.1684C61.4741 21.2454 61.4741 21.3052 61.4663 21.3565C61.4585 21.442 61.4507 21.5275 61.4507 21.6301C61.4274 21.8951 61.3495 21.9207 61.116 21.9036C61.046 21.8951 60.9604 21.878 60.8747 21.8695C60.7891 21.8609 60.7191 21.8951 60.649 21.9464C60.5868 21.9891 60.5478 22.0575 60.5401 22.1516C60.5401 22.2884 60.5478 22.4337 60.5401 22.5705C60.5478 22.7158 60.5634 22.8612 60.5868 23.0407C60.579 23.1005 60.5634 23.1604 60.5478 23.2202C60.4 23.1946 60.2443 23.1689 60.0886 23.1433C59.8162 23.0578 59.6683 23.1091 59.6528 23.4596C59.6294 23.5622 59.6294 23.6648 59.6372 23.7588C59.6372 23.9298 59.6372 24.1008 59.6294 24.2803C59.6372 24.3145 59.6216 24.3487 59.6216 24.3744C59.6138 24.4086 59.5905 24.4428 59.5749 24.4599C59.5516 24.477 59.5282 24.4855 59.4971 24.4941C59.466 24.5112 59.427 24.5026 59.3881 24.4941C59.3103 24.4855 59.2169 24.477 59.139 24.4599C59.0223 24.4171 58.89 24.4 58.781 24.4342C58.6565 24.4342 58.5553 24.4941 58.4697 24.5625C58.4541 24.5539 58.4463 24.5454 58.4308 24.5112C58.3296 24.0923 58.2362 23.6819 58.135 23.2715C58.0338 22.8099 58.0805 22.7671 58.4541 22.5705C58.5475 22.5534 58.6331 22.5277 58.7187 22.4935C58.7732 22.4935 58.8121 22.4764 58.8511 22.4337C58.89 22.4081 58.9211 22.3739 58.9445 22.314C58.9522 22.2713 58.96 22.22 58.9445 22.1601C58.9445 22.1003 58.9133 22.0404 58.8822 21.9891C58.7888 21.8096 58.7032 21.6301 58.6253 21.4591C58.5942 21.4163 58.5709 21.365 58.5553 21.3052C58.5475 21.2881 58.5242 21.2539 58.5164 21.2197C58.5086 21.1855 58.5164 21.1428 58.5242 21.1342C58.5242 21.1 58.5397 21.0744 58.5553 21.0402C58.5709 21.0145 58.5786 21.006 58.6176 20.9889C58.7732 20.9034 58.9367 20.8093 59.1001 20.7153C59.1857 20.6469 59.2791 20.5785 59.3648 20.5016C59.5827 20.3648 59.5905 20.2878 59.4815 20.0057C59.3726 19.7492 59.2947 19.5526 59.2013 19.3132C59.3881 19.185 59.5827 19.0396 59.7695 18.9029C59.894 18.7575 59.9018 18.6293 59.7851 18.4754C59.5827 18.142 59.3025 17.8427 58.9834 17.6119C58.9782 17.6176 58.9756 17.6205 58.9756 17.6205C58.9133 17.5692 58.8666 17.5435 58.8044 17.535C58.7421 17.5008 58.6876 17.5093 58.6253 17.5179C58.5631 17.5264 58.5242 17.5435 58.4775 17.5606C58.4308 17.5948 58.3918 17.6461 58.3607 17.6803C57.9482 18.2531 57.5123 18.8174 57.1076 19.4073C56.6873 20.0399 56.2514 20.6726 55.8233 21.2967C55.7611 21.3821 55.6988 21.4762 55.6287 21.5531C55.4886 21.7498 55.2941 21.8438 55.0528 21.8524C54.6792 21.8695 54.3056 21.8865 53.9242 21.8951C53.0914 21.9293 52.2974 22.1088 51.5736 22.4423C50.9276 22.7415 50.3282 23.1347 49.8145 23.6562C49.3164 24.1265 48.9117 24.7078 48.6237 25.3747C48.0633 26.6228 47.7675 27.9907 47.9232 29.521C47.9543 29.9314 48.0477 30.3418 48.2267 30.7436C47.9854 30.812 47.7442 30.8889 47.4951 30.983C47.246 31.1027 46.958 31.1967 46.6856 31.2395C46.6467 31.2565 46.6078 31.2651 46.5844 31.2822C46.4677 31.3164 46.3743 31.3762 46.3354 31.4874C46.2731 31.5814 46.2575 31.7182 46.2575 31.8294C46.2964 32.291 46.3276 32.7356 46.3743 33.1887C46.3976 33.4366 46.421 33.6845 46.4677 33.9325C46.5299 34.206 46.6 34.4625 46.6701 34.7276C46.6856 34.8045 46.7245 34.8729 46.7635 34.9156C46.8179 34.9669 46.8646 34.9926 46.9425 35.0268C47.0592 35.061 47.176 35.0952 47.3005 35.1123C47.2149 35.1807 47.1215 35.2491 47.0437 35.3089C46.958 35.3944 46.8802 35.497 46.8413 35.5996C46.8024 35.7364 46.7946 35.8561 46.8335 36.0014C46.8802 36.2322 46.9347 36.4631 46.997 36.711C46.6701 36.7366 46.3354 36.7794 46.0162 36.8221C45.9773 36.805 45.9462 36.805 45.9151 36.805C44.8954 36.4032 43.8914 35.9843 42.864 35.5996C42.467 35.4713 42.0934 35.3687 41.6809 35.232C41.2839 35.1294 41.6264 35.2405 41.6031 35.2063C41.4941 35.1465 41.3696 35.1379 41.2684 35.155C41.1594 35.1978 41.066 35.2662 41.0037 35.3687C40.7158 35.7449 40.4823 36.1638 40.2877 36.634C40.2254 36.805 40.1554 36.9589 40.0931 37.1384C39.8985 37.0102 39.7195 36.8649 39.5405 36.7366C38.6376 36.027 37.7581 35.2747 36.9175 34.454C36.3726 33.9496 35.8278 33.4623 35.244 32.9493C35.1428 32.8382 35.0027 32.7441 34.8704 32.6501C34.7225 32.5389 34.5747 32.4705 34.4268 32.4193C34.31 32.3594 34.2244 32.3594 34.1232 32.368C34.0298 32.3936 33.952 32.4278 33.8742 32.4876C33.6251 32.6757 33.4071 32.9066 33.2515 33.1887C33.1892 33.24 33.1425 33.3084 33.088 33.3597C33.0024 33.2827 32.8701 33.2058 32.7456 33.0861C31.9361 32.4449 31.1344 31.7781 30.3171 31.1283C30.0759 30.9402 29.8501 30.7692 29.5933 30.5812C29.531 30.547 29.4687 30.4786 29.422 30.4102C29.3364 30.299 29.2275 30.2477 29.1107 30.205C29.0173 30.1793 28.8928 30.1964 28.7838 30.2221C28.4336 30.3674 28.1144 30.5641 27.8187 30.8205C27.6786 30.9317 27.5463 31.0599 27.4061 31.1625C27.3517 31.0514 27.2972 30.9488 27.2505 30.8291C26.9469 30.2734 26.6356 29.7348 26.3398 29.1791C26.083 28.7174 25.904 28.2301 25.7794 27.7001C25.7639 27.5975 25.7249 27.5291 25.6627 27.4607C25.6082 27.4008 25.5226 27.3752 25.4525 27.3837C25.3513 27.341 25.2346 27.2982 25.1334 27.2811C25.0478 27.2298 24.9699 27.1956 24.8999 27.1614C24.9077 26.8964 24.8921 26.6314 24.8999 26.3749C24.9155 25.5884 24.9466 24.7933 24.9622 23.9982C24.9855 23.1262 25.0011 22.2456 25.0166 21.3479C25.0322 21.3223 25.0244 21.2625 25.0089 21.2112C24.9933 21.1599 24.9699 21.1257 24.9232 21.1C24.7987 20.9889 24.643 20.8606 24.5029 20.7751C24.3084 20.6897 24.1138 20.5956 23.927 20.5101C24.0671 20.322 24.1994 20.1254 24.3317 19.9288C24.7987 19.3816 25.2735 18.8772 25.7794 18.4155C26.4021 17.8085 27.017 17.2101 27.6163 16.6287C27.9666 16.2868 28.2779 15.9277 28.5503 15.5088C28.6204 15.3635 28.6204 15.3293 28.5036 15.1668C28.418 15.0129 28.2156 14.8334 28.0755 14.6453C28.0366 14.6026 27.9977 14.5769 27.9588 14.5256C28.1689 14.4401 28.3791 14.3461 28.5892 14.2606C29.6945 13.8673 30.7997 13.5425 31.9283 13.3031C32.154 13.2518 32.3797 13.1919 32.6132 13.1492C32.6833 13.1492 32.7533 13.1064 32.8156 13.0466C32.8545 12.9782 32.8934 12.9013 32.8934 12.8158C32.9012 12.6191 32.9168 12.4311 32.9401 12.2344C32.9401 12.1147 32.9479 11.9865 32.9401 11.8839C32.9868 11.8925 33.0413 11.9181 33.0958 11.9523C34.31 12.5422 35.5164 13.1748 36.7384 13.8417C36.8552 13.9101 36.9797 13.9272 37.1043 13.9186C37.5168 13.8759 37.9137 13.7733 38.3029 13.6792C38.8244 13.5339 39.3459 13.4057 39.8829 13.2774C40.1242 13.209 40.3655 13.1321 40.5912 13.0723C40.6224 13.0637 40.6613 13.0637 40.7002 13.0637C40.8636 13.3544 41.0037 13.6622 41.1672 13.9272C41.5719 14.5769 42.0467 15.1839 42.5682 15.7054C43.5567 16.6971 44.6542 17.5264 45.8217 18.1847C46.1174 18.3386 46.4365 18.4583 46.7557 18.6122C46.8257 18.6549 46.8958 18.6977 46.958 18.7319C47.4484 19.0054 47.931 19.3132 48.4135 19.5355C48.865 19.7236 49.3553 19.8176 49.8145 19.8176C50.2738 19.8347 50.7019 19.792 51.0988 19.6637C51.5113 19.5355 51.8694 19.2619 52.1262 18.9029C52.2974 18.7062 52.3831 18.4241 52.3597 18.1249C52.3441 17.9453 52.3441 17.7914 52.3286 17.6376C52.3052 17.535 52.2974 17.458 52.1885 17.4238C52.0951 17.3896 52.0484 17.4495 52.0172 17.5008C52.0095 17.5008 52.0017 17.5093 52.0017 17.5179C51.8071 18.0308 51.379 18.2104 50.9276 18.3472C50.515 18.4583 50.0792 18.4497 49.6433 18.313C49.1919 18.1933 48.756 17.8598 48.4524 17.4409C48.1489 17.0391 47.9076 16.586 47.7519 16.1243C47.5029 15.3806 47.2227 14.6539 46.888 13.9272C46.5144 13.1663 46.0396 12.4482 45.4714 11.8241C44.9888 11.2513 44.4284 10.7469 43.8213 10.3194C43.3154 9.96032 42.7628 9.68674 42.218 9.53285C41.9533 9.43881 41.7042 9.40462 41.4707 9.42171C41.3384 9.25928 41.2061 9.08829 41.0894 8.9515C40.8714 8.75487 40.6457 8.60953 40.3889 8.53259C39.7662 8.32741 39.1591 8.12222 38.552 7.91704C37.6335 7.60072 36.7229 7.2673 35.8122 6.92533C35.4775 6.79709 35.174 6.72014 34.8471 6.609C34.5591 6.49786 34.2633 6.48931 34.0143 6.57481C33.5395 6.72014 33.0725 6.87403 32.6055 7.02792C32.5743 7.02792 32.5432 7.02792 32.5121 7.01937C32.4887 6.81419 32.4654 6.58336 32.4264 6.36962C32.3797 6.15589 32.3642 6.1217 32.154 6.04475C32.084 6.02765 32.0217 6.0191 31.9594 6.0191C31.4068 5.96781 30.8698 6.0191 30.3716 6.18154C29.9046 6.31833 29.422 6.48076 28.9784 6.68595C28.4102 6.94243 27.8809 7.25875 27.375 7.65201C26.5344 8.27611 25.7483 9.0199 25.0478 9.92612C25.0166 9.93467 24.9933 9.96032 24.9699 9.98597C24.8843 9.87483 24.7987 9.78933 24.7209 9.67819C24.6508 9.61835 24.5963 9.54995 24.5496 9.48156C24.4874 9.43881 24.4329 9.40462 24.3784 9.49011C24.3317 9.58415 24.2928 9.66964 24.2461 9.76368C23.818 10.4904 23.3899 11.2 22.9618 11.9694C22.0979 13.5681 21.2962 15.2694 20.5568 17.0648C20.2143 17.9026 19.8952 18.7319 19.6383 19.6124C19.5994 19.7321 19.5294 19.8433 19.436 19.9202C19.218 20.0827 19.0234 20.2451 18.8133 20.399C18.7043 20.5016 18.6576 20.5871 18.7043 20.7409C18.8211 21.2026 18.8522 21.6985 18.7899 22.1601C18.751 22.579 18.7277 22.9894 18.7199 23.4169C18.6576 24.6993 18.7199 25.9987 18.9456 27.264C19.0001 27.7684 19.148 28.2558 19.2647 28.7345C19.2725 28.82 19.2647 28.8799 19.2569 28.9653C19.2258 29.1962 19.2258 29.4441 19.2414 29.6835C19.4048 30.7692 19.7084 31.8208 20.1598 32.804C20.37 33.3511 20.619 33.8726 20.8603 34.4198C21.1172 34.9498 21.1717 34.8985 21.3118 35.1294C21.3585 35.1807 21.4129 35.2662 21.4052 35.3431C21.3429 35.3004 21.304 35.2747 21.2261 35.2576C21.125 35.2234 21.0627 35.232 21.0082 35.2918C20.9771 35.3602 20.9693 35.42 20.9771 35.497C20.9926 35.5568 21.0238 35.6252 21.0549 35.6936C21.6698 36.634 22.3859 37.5146 23.1642 38.3097C23.3121 38.455 23.4755 38.5662 23.6156 38.703C23.6234 38.7201 23.639 38.7372 23.6468 38.7543C23.6079 38.7457 23.5534 38.7457 23.5067 38.7372C22.487 38.3866 21.4285 38.1302 20.3544 37.9763C20.1987 37.9506 20.0664 37.8908 19.9107 37.8822C19.5605 37.8566 19.218 37.8395 18.8678 37.8053C18.8211 37.8138 18.751 37.8138 18.7043 37.8566C18.6576 37.8737 18.6109 37.925 18.5953 37.9677C18.5409 38.096 18.4942 38.2157 18.4552 38.3353C18.3774 38.532 18.3852 38.7714 18.2684 38.9423C18.1361 39.1048 18.284 39.0706 18.2451 39.1304C18.0272 40.0708 17.9727 41.0369 18.0116 41.9944C18.1128 43.1999 18.4008 44.3968 18.8522 45.5766C18.8911 45.6877 18.9923 45.8074 19.0234 45.9356C19.0468 45.9955 19.0857 46.0639 19.1635 46.1323C19.2258 46.1665 19.3036 46.2092 19.3737 46.2092ZM23.7246 35.6765C24.2928 35.668 24.861 35.5739 25.398 35.42C25.6238 35.3517 25.8261 35.2491 26.0285 35.1379C26.6434 34.6848 27.2271 34.1804 27.8031 33.6589C28.0133 33.4452 28.239 33.24 28.4647 33.0348C29.1029 33.8213 29.7412 34.6164 30.395 35.4115C30.2237 35.5397 30.0681 35.6594 29.9046 35.7706C29.7178 35.9586 29.5154 36.1553 29.3131 36.3519C29.2275 36.4289 29.1418 36.5058 29.064 36.5998C28.8072 36.7623 28.527 36.882 28.2312 36.9418C28.2078 36.9589 28.1534 36.9504 28.1222 36.9333C28.0833 36.9247 28.0444 36.9076 28.0055 36.882C27.7486 36.6511 27.4995 36.3947 27.266 36.1125C27.1571 35.9244 27.0092 35.7535 26.8847 35.5825C26.8613 35.5568 26.8224 35.5312 26.799 35.497C26.6823 35.4371 26.6512 35.4542 26.5655 35.5312C26.4721 35.6167 26.3943 35.7193 26.2931 35.7962C26.1297 35.9074 25.974 35.9757 25.8028 36.0612C25.3358 36.3006 24.8065 36.4545 24.2694 36.4802C23.8258 36.4545 23.3977 36.4118 22.9618 36.3434C22.9229 36.3177 22.8762 36.3348 22.8217 36.3263C22.7595 36.3348 22.7205 36.3519 22.6816 36.3861C22.6738 36.4203 22.6816 36.4716 22.6894 36.5058C22.7205 36.5571 22.7517 36.5913 22.7672 36.6169C23.0319 36.882 23.2576 37.147 23.4755 37.4462C23.8958 37.9592 24.2694 38.4978 24.6742 39.0278C24.6975 39.0535 24.7287 39.1133 24.7676 39.1732C24.752 39.1817 24.7364 39.1903 24.7209 39.1988C24.5808 39.1646 24.4329 39.0877 24.3161 39.0107C24.1605 38.8568 23.997 38.7115 23.8258 38.5576C23.4444 38.2328 23.1097 37.8737 22.7984 37.5061C22.6271 37.318 22.4715 37.1213 22.308 36.9247C22.1913 36.7708 22.0745 36.6084 21.9656 36.446C21.8332 36.3006 21.7243 36.1467 21.6075 35.9843C21.5764 35.9415 21.553 35.9074 21.4986 35.8732C21.483 35.8048 21.4441 35.762 21.4363 35.7193C22.1913 35.7791 22.9696 35.7962 23.7246 35.6765ZM27.6241 40.2162C27.7253 40.3017 27.8187 40.4128 27.8965 40.5154C28.2234 40.9514 28.5737 41.3532 28.9784 41.6952C29.0484 41.7636 29.1418 41.8149 29.2197 41.8405C29.3131 41.8662 29.4065 41.8662 29.5077 41.8662C29.749 41.7978 29.998 41.7465 30.2393 41.6952C30.4884 41.6525 30.7374 41.5926 30.9865 41.5499C30.9554 41.7807 30.9554 41.7807 30.7841 41.8149C30.1303 42.003 29.4688 42.1911 28.8072 42.3877C28.7527 42.4048 28.6904 42.4133 28.6359 42.4219C28.2857 42.0628 27.9821 41.6525 27.7175 41.225C27.5696 40.9771 27.4139 40.7377 27.266 40.4898C27.2116 40.3872 27.1804 40.3017 27.1337 40.2162C27.1026 40.1221 27.0637 40.0024 27.0715 39.8999C27.0637 39.7887 27.087 39.6947 27.1104 39.5921C27.2816 39.233 27.4762 38.891 27.6786 38.5747C27.8732 38.3268 28.06 38.096 28.239 37.8566C28.6437 37.4548 29.0329 37.0359 29.4454 36.6169C29.6945 36.3605 29.9669 36.1125 30.2549 35.8903C30.5039 35.6338 30.7919 35.4029 31.0721 35.1892C31.1188 35.1379 31.1889 35.0952 31.2434 35.061C31.5158 35.6765 31.866 36.275 32.3019 36.7794C32.2941 36.805 32.2708 36.8392 32.263 36.882C32.2085 36.9675 32.1774 37.0701 32.1385 37.147C32.1385 37.2154 32.1307 37.2667 32.1229 37.3265C32.1073 37.3607 32.1073 37.3864 32.0995 37.3949C32.0217 37.6258 31.905 37.848 31.7182 37.9934C31.5469 38.1387 31.329 38.1986 31.1033 38.2157C30.7141 38.1986 30.3405 38.1131 29.9669 37.9592C29.9591 37.9506 29.9435 37.9335 29.928 37.9164C29.6322 37.7369 29.3286 37.5574 29.0251 37.3607C28.9862 37.3778 28.9473 37.412 28.9239 37.4291C28.8072 37.5488 28.6982 37.6685 28.5814 37.7882C28.3168 38.0618 28.0911 38.361 27.8887 38.703C27.6786 39.0364 27.5463 39.3955 27.484 39.7973C27.4684 39.8657 27.4529 39.9426 27.4918 40.011C27.5229 40.0965 27.5696 40.1734 27.6241 40.2162ZM31.8271 41.2164C32.4109 41.0711 32.9479 40.8916 33.5317 40.9087C33.5628 41.0284 33.5239 41.0711 33.4694 41.0968C33.2982 41.1481 33.1425 41.1908 32.9791 41.2335C32.4031 41.3789 31.8271 41.5242 31.2667 41.6696C31.2745 41.6183 31.2901 41.5755 31.2978 41.5413C31.4302 41.0113 31.5703 40.4983 31.7104 39.9683C31.7415 39.8315 31.7726 39.7032 31.796 39.5664C31.8349 39.4724 31.8505 39.3613 31.8816 39.2672C31.8972 39.2587 31.8972 39.2501 31.9127 39.2501C31.9283 39.2074 31.9361 39.1817 31.9517 39.1304C31.975 39.0791 31.9906 39.0278 31.9984 38.968C32.0295 38.8654 32.0451 38.7628 32.0762 38.6688C32.1307 38.4807 32.1852 38.2926 32.2396 38.0874C32.3019 37.8908 32.3564 37.7027 32.4031 37.4975C32.4731 37.318 32.5198 37.1213 32.5665 36.9247C32.6288 36.7708 32.6833 36.634 32.7767 36.5058C32.8156 36.4545 32.8701 36.3776 32.9401 36.3605C33.0024 36.3434 33.0802 36.3177 33.1503 36.3519C33.2748 36.4118 33.4149 36.4716 33.5472 36.5314C33.8197 36.6597 34.0999 36.8136 34.3723 36.9675C34.6603 37.147 35.3997 37.5916 35.9601 37.7882C35.999 37.8138 36.0302 37.8309 36.0613 37.8566C36.0146 37.9421 35.9601 38.0447 35.8978 38.1558C35.9134 38.1815 35.9056 38.1986 35.9212 38.2499C35.9134 38.2584 35.9056 38.2584 35.8978 38.2755C35.8511 38.4379 35.7577 38.5491 35.641 38.6517C35.5398 38.7799 35.4153 38.8996 35.2596 38.968C35.1273 39.0364 34.9638 39.0706 34.8004 39.062C34.2088 39.0791 33.6017 39.0278 33.018 38.9252C32.8701 38.9081 32.73 38.8825 32.6055 38.8568C32.4342 38.8483 32.4342 38.8483 32.4109 39.0193C32.3797 39.1048 32.3564 39.2159 32.3408 39.3185C32.1618 39.8828 32.0061 40.4641 31.8583 41.0284C31.8193 41.0797 31.8193 41.1395 31.8271 41.2164ZM40.6146 42.61C40.6301 42.6271 40.6224 42.6784 40.6224 42.781C40.529 42.704 40.4433 42.6356 40.3655 42.5843C40.3032 42.5416 40.2332 42.5074 40.1631 42.4646C40.1554 42.1911 40.2176 41.9175 40.3188 41.661C40.3266 41.6525 40.3266 41.6439 40.3266 41.6354C40.3266 41.6183 40.3266 41.6012 40.3266 41.5841C40.311 41.567 40.3266 41.5584 40.3344 41.5584C40.4589 40.7719 40.6535 40.011 40.9103 39.2843C40.9181 39.2159 40.9337 39.1646 40.9493 39.1304C40.9882 38.8227 41.0971 38.532 41.2606 38.284C41.3151 38.2157 41.3696 38.1644 41.4396 38.1302C41.5174 38.0703 41.5953 38.0789 41.6809 38.096C41.9222 38.1216 42.1479 38.1729 42.3814 38.2413C43.043 38.3952 43.689 38.6602 44.3428 38.7628C44.3662 38.7714 44.3662 38.7885 44.4051 38.8056C44.4207 38.8398 44.4362 38.8568 44.444 38.8739C44.4596 38.9167 44.4596 38.9594 44.4362 38.9936C44.4206 39.0107 44.4051 39.0535 44.3817 39.0962C44.3428 39.1475 44.2961 39.1988 44.265 39.2672C44.2416 39.2929 44.2338 39.3014 44.2261 39.3271C43.9926 39.5237 43.689 39.6348 43.3855 39.6263C42.8951 39.5835 42.4125 39.5493 41.9377 39.4638C41.7976 39.4126 41.6731 39.4211 41.5641 39.4638C41.4552 39.5151 41.354 39.6006 41.2839 39.7203C41.1127 40.0366 40.9648 40.3786 40.8714 40.7548C40.7702 41.1481 40.6924 41.5926 40.5523 42.003C40.4356 42.4048 40.4511 42.439 40.6146 42.61ZM37.7814 39.8229C37.4545 39.669 37.1276 39.5151 36.8163 39.3784C36.7462 39.3613 36.6995 39.3356 36.645 39.3185C36.6217 39.3185 36.5983 39.3014 36.5983 39.3185C36.5828 39.3185 36.5594 39.3185 36.5439 39.3185C36.5361 39.3356 36.5283 39.3527 36.5127 39.3698C36.5127 39.3869 36.5049 39.404 36.4972 39.404C36.4582 39.6605 36.4038 39.9255 36.3337 40.1734C36.2948 40.3359 36.2637 40.5069 36.2247 40.6607C36.0302 40.618 35.8433 40.5667 35.6488 40.5069C35.641 40.4641 35.6332 40.4385 35.6332 40.4128C35.7422 39.9939 35.8511 39.5835 35.9523 39.1732C35.9679 39.1646 35.9757 39.1561 35.9912 39.1475C35.9912 39.0877 35.999 39.0449 36.0068 38.9936C36.1391 38.6004 36.287 38.1986 36.4193 37.7967C36.5127 37.5574 36.6295 37.3522 36.7774 37.147C36.9486 36.8734 37.0576 36.8649 37.3533 36.976C37.7658 37.147 38.155 37.3607 38.5442 37.5916C39.089 37.9506 39.6416 38.2755 40.2254 38.5491C40.3889 38.6089 40.529 38.6773 40.6846 38.7457C40.7235 38.7543 40.7625 38.7628 40.8014 38.7714C40.7936 38.797 40.7858 38.8227 40.778 38.8568C40.7469 38.9167 40.7235 38.9851 40.7002 39.0278C40.6613 39.1133 40.6379 39.1817 40.6068 39.2501C40.599 39.2587 40.5912 39.2843 40.5757 39.31C40.5367 39.4468 40.4667 39.5579 40.3655 39.669C40.2877 39.7716 40.1631 39.8144 40.0542 39.8657C39.3459 40.1734 38.5208 40.1478 37.7814 39.8229ZM19.4671 20.2194C19.4048 20.4417 19.3348 20.664 19.2647 20.9034C19.1713 20.8435 19.0779 20.7922 18.9923 20.7068C18.9612 20.6982 18.9534 20.6897 18.93 20.6213C19.1091 20.4759 19.2959 20.3477 19.4671 20.2194ZM24.8454 10.2168C24.8298 10.2253 24.8221 10.2339 24.8143 10.2424C24.7676 10.3194 24.7209 10.3878 24.682 10.4562C24.6742 10.4562 24.6586 10.4562 24.6586 10.4647C24.6586 10.4562 24.6508 10.4391 24.643 10.422C24.5574 10.2595 24.5963 10.1313 24.5963 9.95177C24.6664 10.0287 24.7598 10.1228 24.8454 10.2168ZM32.3953 6.99372C32.3953 7.01937 32.3875 7.07066 32.3797 7.08776C32.372 7.13051 32.3408 7.12196 32.3097 7.13051C32.1618 7.17326 32.0217 7.216 31.866 7.2502C31.9906 6.96807 32.1151 6.68595 32.2396 6.41237C32.2552 6.41237 32.2708 6.40382 32.2863 6.40382C32.2786 6.42092 32.2786 6.42947 32.2786 6.44657C32.3175 6.6432 32.3486 6.81419 32.3953 6.99372ZM40.8948 12.5678C40.8403 12.3883 40.7936 12.2002 40.7469 12.0207C40.7469 11.9865 40.7469 11.9523 40.7391 11.9267C40.7313 11.8925 40.7235 11.8583 40.7158 11.8241C40.5834 11.3709 40.5757 10.9178 40.6846 10.5246C40.7625 10.251 40.9181 10.0458 41.1594 9.92612C41.3696 9.78078 41.6498 9.75514 41.9222 9.79788C42.1868 9.85773 42.4515 9.95177 42.6927 10.0544C43.1831 10.2595 43.6501 10.5673 44.0782 10.9264C44.5296 11.3026 44.9811 11.7471 45.3858 12.2259C45.8139 12.7388 46.203 13.3202 46.5144 13.9272C46.7946 14.5 47.0437 15.0728 47.2616 15.6798C47.4173 16.2098 47.6508 16.7228 47.9154 17.2272C48.4291 18.1078 49.114 18.6293 49.978 18.7575C50.3749 18.8259 50.7719 18.8174 51.1222 18.6977C51.4724 18.5865 51.776 18.3813 52.0328 18.1078C52.0562 18.0992 52.0717 18.0821 52.0873 18.0736C52.0951 18.0821 52.0951 18.0907 52.1029 18.1078C52.0873 18.1762 52.0717 18.236 52.0639 18.2873C52.0562 18.3386 52.0484 18.3899 52.0406 18.4326C52.0328 18.4583 52.0328 18.4839 52.0328 18.5096C51.8382 18.9114 51.5035 19.2021 51.1066 19.3474C50.6629 19.4928 50.1881 19.5611 49.7056 19.5355C49.3164 19.527 48.9195 19.4329 48.5381 19.279C48.3668 19.2277 48.1878 19.0824 48.0166 19.0054C47.8376 18.9371 47.1915 18.5181 46.779 18.3472C46.6545 18.3044 46.53 18.2617 46.4054 18.2104C45.9462 17.9966 45.4948 17.7231 45.0745 17.4324C44.4284 16.9878 43.798 16.5005 43.1987 15.9448C42.7239 15.5002 42.2802 15.0215 41.8443 14.4914C41.4318 13.893 41.066 13.2774 40.8948 12.5678ZM32.3175 11.2427C32.2863 11.2171 32.2474 11.2 32.2007 11.1658C32.2319 11.123 32.2552 11.0717 32.2708 11.0204C32.2786 10.9777 32.2863 10.9435 32.2786 10.8836C32.2863 10.8836 32.2941 10.8751 32.3019 10.8751C32.5121 10.1826 32.9713 9.69529 33.5628 9.47301C33.9753 9.33622 34.419 9.25928 34.8704 9.22508C35.9056 9.20798 36.9564 9.40462 38.0461 9.78933C38.4975 9.94322 38.9178 10.0971 39.3692 10.2681C39.4471 10.3023 39.5327 10.3108 39.6339 10.2937C39.7117 10.2681 39.7584 10.2168 39.8051 10.1313C39.8674 10.0287 39.9296 9.90902 39.9919 9.80643C40.0542 9.69529 40.1631 9.60125 40.2955 9.5756C40.4122 9.45591 40.5601 9.36187 40.7235 9.32767C40.7469 9.32767 40.7547 9.31912 40.7547 9.31057C40.7625 9.29347 40.778 9.26783 40.7936 9.24218C40.8014 9.21653 40.7547 9.17379 40.7313 9.13959C40.6613 9.11394 40.6146 9.10539 40.5679 9.10539C40.4589 9.08829 40.3499 9.07119 40.241 9.04555C40.1787 9.04555 40.1242 9.06264 40.0464 9.0199C39.6883 8.92586 39.3147 8.83181 38.9334 8.71212C38.3574 8.53259 37.797 8.37015 37.221 8.19062C36.6684 8.01963 36.6528 8.02818 36.3726 7.92559C35.7966 7.74606 35.2285 7.54942 34.6603 7.36134C34.528 7.31859 34.4034 7.29295 34.2711 7.2844C33.9209 7.31004 33.5472 7.33569 33.2126 7.41264C32.8545 7.47248 32.4965 7.54942 32.154 7.67766C31.9828 7.76316 31.8193 7.8401 31.6559 7.91704C31.6481 7.8059 31.7026 7.69476 31.7571 7.61782C31.8271 7.54942 31.9127 7.50668 32.0139 7.48103C32.2786 7.44683 32.551 7.35279 32.8156 7.27585C32.9557 7.24165 33.0802 7.20745 33.2126 7.17326C33.6017 7.05357 33.9987 6.95097 34.3879 6.83983C34.4501 6.84838 34.5124 6.84838 34.5824 6.83983C34.5824 6.83983 34.6058 6.84838 34.6214 6.84838C34.6214 6.84838 34.6447 6.85693 34.6525 6.84838C34.6681 6.86548 34.6836 6.85693 34.6914 6.87403C34.995 6.94243 35.3063 7.03647 35.6254 7.16471C36.6528 7.54087 37.6958 7.89994 38.7388 8.25901C39.2758 8.42145 39.8129 8.59243 40.3655 8.75487C40.708 8.88311 41.0271 9.13959 41.245 9.47301C41.2372 9.48156 41.2217 9.49011 41.1983 9.49011C40.9026 9.60125 40.6613 9.80643 40.5134 10.08C40.3499 10.3621 40.2955 10.7041 40.3188 11.0717C40.3266 11.559 40.42 12.0805 40.5757 12.602C40.6068 12.6875 40.6301 12.7901 40.6613 12.8927C40.6224 12.8927 40.5912 12.8842 40.5601 12.8927C39.9841 13.0039 39.4081 13.0894 38.8322 13.1834C38.2173 13.3116 37.6024 13.4655 36.9875 13.6109C36.9019 13.6194 36.8085 13.6023 36.7229 13.551C36.217 13.286 35.711 13.021 35.1895 12.7388C34.2322 12.243 33.2748 11.7471 32.3175 11.2427ZM32.6444 12.4482C32.4809 12.1489 32.3408 11.8155 32.2319 11.4735C32.4031 11.5505 32.5665 11.6531 32.73 11.7471C32.7144 11.9865 32.7066 12.2173 32.6911 12.4482C32.6755 12.4482 32.6599 12.4482 32.6444 12.4482ZM26.7523 14.8334C26.7446 14.8334 26.729 14.8249 26.7134 14.8078C26.7056 14.7907 26.6901 14.7907 26.6823 14.7736C26.6823 14.7736 26.6667 14.7565 26.6667 14.7394C26.6122 14.6111 26.5811 14.4572 26.5266 14.3375C26.4721 14.1922 26.441 14.064 26.4488 13.9443C26.4488 13.8075 26.4721 13.6792 26.5111 13.5681C26.729 13.0039 27.0248 12.4995 27.3906 12.1147C27.554 11.9352 27.7486 11.7728 27.9432 11.6189C28.13 11.4992 28.3012 11.3624 28.4958 11.2513C28.7215 11.1316 28.9395 11.0119 29.173 10.9093C29.1808 10.8922 29.2041 10.8836 29.2275 10.8665C29.2352 10.8323 29.243 10.7896 29.243 10.7469C29.2508 10.6956 29.1808 10.687 29.1574 10.6785C29.1263 10.687 29.0951 10.687 29.0718 10.687C28.776 10.7981 28.4803 10.9093 28.1923 11.0204C28.0677 11.0803 27.951 11.123 27.8342 11.1743C28.0522 10.9435 28.2701 10.7298 28.4725 10.4989C28.8928 10.0458 29.3598 9.66109 29.8424 9.32767C30.0681 9.15669 30.3249 9.0028 30.574 8.87456C30.5818 8.85746 30.5896 8.85746 30.6051 8.84036C30.6363 8.76342 30.6752 8.68648 30.6907 8.61808C30.6907 8.54114 30.7063 8.48129 30.7141 8.42145C30.8308 7.99399 30.932 7.55797 31.0643 7.13906C31.0566 7.09631 31.0566 7.06212 31.0643 7.02792C31.0643 7.01937 31.0721 7.01082 31.0721 7.00227C31.0721 6.98517 31.0643 6.95097 31.041 6.91678C31.0254 6.88258 30.9943 6.85693 30.9632 6.83128C30.9476 6.83983 30.9398 6.85693 30.9242 6.86548C30.7063 6.94243 30.4806 7.02792 30.2549 7.11341C29.9435 7.2502 29.6244 7.37844 29.3209 7.54942C28.7916 7.86575 28.2779 8.22482 27.7642 8.59243C27.5229 8.78907 27.2816 8.9857 27.0403 9.18233C26.7368 9.43026 26.4332 9.71239 26.1452 10.0116C25.7639 10.3792 25.4058 10.7981 25.0867 11.2598C25.0244 11.3197 24.9855 11.388 24.931 11.4564C24.8999 11.4222 24.8688 11.3709 24.8532 11.3282C24.8454 11.2855 24.8454 11.2342 24.8376 11.1914C24.8376 11.1487 24.8532 11.0974 24.8688 11.0632C24.8843 11.0204 24.8999 10.9862 24.931 10.952C25.149 10.6614 25.3513 10.345 25.5848 10.0629C26.0207 9.46446 26.5266 8.94295 27.0248 8.47274C27.3439 8.19062 27.663 7.93414 27.9977 7.70331C28.4102 7.46393 28.8227 7.22455 29.2352 7.00227C29.3053 6.95097 29.3753 6.89968 29.4532 6.85693C29.5077 6.84838 29.5544 6.83128 29.6011 6.83128C29.6789 6.77999 29.7645 6.72869 29.8346 6.6774C30.4962 6.45512 31.1344 6.26703 31.866 6.32688C31.9127 6.33543 31.9517 6.33543 31.9906 6.33543C31.9828 6.35253 31.975 6.36962 31.9672 6.40382C31.6715 6.96807 31.3912 7.54087 31.1577 8.17352C31.1266 8.26756 31.0955 8.35306 31.0721 8.43855C31.0176 8.54969 30.9943 8.68648 31.0099 8.84036C31.0099 8.9857 31.041 9.13959 31.0877 9.26783C31.2356 9.65254 31.3757 10.0116 31.5236 10.3878C31.7104 10.8494 31.8972 11.3111 32.0528 11.7471C32.1696 11.995 32.263 12.2259 32.3642 12.4653C32.4109 12.5935 32.4887 12.6961 32.5276 12.8243C32.4809 12.8414 32.442 12.85 32.4031 12.8585C32.2552 12.9013 32.0995 12.944 31.9517 12.9611C31.0643 13.0979 30.2082 13.3031 29.3598 13.5852C28.4413 13.8759 27.5852 14.2948 26.7523 14.8334ZM28.1767 15.2096C27.7642 15.3293 27.266 15.2609 27.0403 15.0386C27.2738 14.859 27.5307 14.7223 27.8031 14.6197C27.9043 14.859 28.0833 15.0044 28.1767 15.2096ZM23.6312 20.3135C23.5145 20.4417 23.4366 20.5785 23.351 20.7324C23.0864 21.1342 22.8529 21.5531 22.6349 22.0062C22.5882 22.0832 22.5493 22.1516 22.5182 22.2029C22.5104 22.2114 22.5104 22.22 22.5104 22.2285C22.4559 22.1858 22.417 22.1516 22.3781 22.1259C22.3002 22.1601 22.2458 22.143 22.2224 22.0832C22.2068 22.0575 22.2146 22.049 22.1991 22.0319C22.1757 21.8353 22.1524 21.6215 22.1446 21.4249C22.1757 20.8948 22.2146 20.3477 22.2458 19.8262C22.308 19.1337 22.4559 18.4668 22.6583 17.8171C22.8606 17.0562 23.1175 16.321 23.4211 15.6199C23.6779 14.9958 24.0204 14.423 24.4329 13.9528C24.4874 13.8844 24.5496 13.8075 24.5886 13.7305C24.7209 13.5681 24.7364 13.5083 24.6119 13.3202C24.4952 13.1492 24.2539 12.6875 24.0593 12.3798C23.8569 12.072 23.818 12.1489 23.6779 12.337C23.3043 12.9611 22.9073 13.551 22.5571 14.2008C22.1524 14.9787 21.7788 15.7909 21.4207 16.6116C20.8759 17.7744 20.3855 19.0054 20.0041 20.2878C19.9107 20.5871 19.8329 20.9034 19.7395 21.2283C19.6772 21.177 19.5916 21.1171 19.5216 21.0829C19.7239 20.5529 19.9263 20.0314 20.1209 19.5013C20.3544 18.8174 20.5801 18.1249 20.837 17.4751C21.1405 16.8339 21.4207 16.1927 21.7009 15.543C22.02 14.7992 22.3469 14.0725 22.6894 13.3886C23.0241 12.7046 23.5534 11.7215 23.9737 10.9349C24.0749 10.7212 24.1916 10.5075 24.3317 10.3279C24.3628 10.2766 24.3862 10.2339 24.4018 10.1997C24.4095 10.1911 24.4173 10.1911 24.4173 10.1911C24.4407 10.2424 24.4407 10.3108 24.4485 10.3707C24.6586 11.7129 25.0633 12.9953 25.8183 14.0982C26.1141 14.5256 26.4488 14.9103 26.8146 15.2438C27.0715 15.4746 27.375 15.5943 27.6864 15.5772C27.7875 15.5772 27.8965 15.5686 27.9977 15.5515C28.0444 15.5515 28.1144 15.5515 28.1767 15.5601C28.06 15.6712 27.9588 15.7653 27.8498 15.8593C27.5774 16.1329 27.2894 16.4065 27.0092 16.6886C26.3165 17.3554 25.616 18.0479 24.8999 18.7404C24.7909 18.8601 24.682 18.9798 24.573 19.0909C24.4718 19.2448 24.3706 19.3816 24.2617 19.5099C24.1683 19.6466 24.0593 19.7749 23.9581 19.9117C23.8414 20.0485 23.7402 20.1852 23.6312 20.3135ZM24.7053 21.2625C24.2928 21.707 23.1175 22.3226 22.7828 22.2456C23.1331 21.6899 23.4288 21.1513 23.818 20.6298C24.1138 20.8521 24.4562 20.9974 24.7053 21.2625ZM24.7053 28.1446C24.7364 28.3412 24.7598 28.5293 24.7676 28.7345C24.6742 28.8286 24.5886 28.9141 24.5029 28.991C24.4407 29.0936 24.3628 29.1791 24.2694 29.2389C24.1838 29.2902 24.0749 29.3415 23.9737 29.3501C23.8725 29.3757 23.7557 29.3586 23.6546 29.333C23.5534 29.2988 23.46 29.2475 23.3666 29.1534C23.2265 29.0081 23.0941 28.8286 23.0241 28.6319C22.8062 27.8881 22.6349 27.1273 22.4948 26.3493C22.3859 25.7594 22.3236 25.1866 22.3158 24.5881C22.3314 24.4599 22.3236 24.3573 22.2691 24.2376C22.2224 24.135 22.1601 24.0495 22.0512 24.0068C21.9033 23.9213 21.7554 23.8101 21.592 23.7417C21.0004 23.4767 20.4322 23.1518 19.9107 22.7757C19.8485 22.7329 19.7784 22.6816 19.7162 22.6731C19.5605 22.6132 19.4593 22.6645 19.4126 22.8697C19.3893 22.9638 19.3659 23.0663 19.3737 23.1689C19.3426 24.4342 19.3893 25.691 19.5294 26.9306C19.615 27.5889 19.7551 28.2558 19.9419 28.897C19.9808 29.085 20.0431 29.2902 20.1131 29.5125C19.9263 29.4099 19.7551 29.4185 19.7084 29.2133C19.4749 28.4866 19.3114 27.7684 19.1791 27.0161C19.1168 26.2039 19.0079 25.4345 19.0001 24.6223C18.9923 23.8101 19.039 22.6731 19.0779 21.7156C19.0857 21.6472 19.0935 21.5702 19.1013 21.5018C19.0779 21.3907 19.0779 21.271 19.1091 21.1513C19.3659 21.365 19.6383 21.5702 19.9263 21.7583C20.5801 22.1174 21.2261 22.3995 21.8877 22.6902C22.0667 22.7757 22.2691 22.8099 22.4481 22.75C23.1953 22.5534 23.9192 22.2969 24.5496 21.8182C24.6353 21.7498 24.7287 21.6728 24.8143 21.6044C24.8065 21.7241 24.8143 21.8182 24.8143 21.9293C24.7754 22.2713 24.752 22.6047 24.7442 22.9467C24.6975 24.1949 24.6508 25.4601 24.6508 26.7083C24.6586 27.1956 24.7053 27.6744 24.7053 28.1446ZM25.4214 27.7172C25.4058 27.7514 25.3903 27.7855 25.3591 27.8197C25.2657 28.0249 25.1567 28.2301 25.0011 28.4011C24.9855 28.3412 24.9855 28.29 24.9777 28.2387C24.9699 28.0848 24.9544 27.948 24.9388 27.7941C24.9388 27.683 24.931 27.5718 24.9232 27.4607C25.11 27.5462 25.2579 27.6317 25.4214 27.7172ZM25.9507 29.0337C26.2309 29.6151 26.5188 30.1879 26.8691 30.735C26.8924 30.7778 26.9236 30.8205 26.9469 30.8718C27.3205 31.5387 27.6552 32.1884 28.0833 32.8382C28.0911 32.8553 28.1222 32.8895 28.1378 32.9237C28.1144 32.9408 28.0911 32.9579 28.0833 32.9835C27.9977 33.0861 27.9043 33.163 27.7953 33.2314C27.7642 33.2571 27.7331 33.2998 27.7097 33.3426C27.6941 33.3511 27.6786 33.3511 27.6708 33.3511C27.1882 33.7957 26.5655 34.0436 25.9117 34.0436C25.8495 34.0522 25.795 34.0436 25.7483 34.018C25.686 33.9838 25.6393 33.941 25.6082 33.8897C25.4603 33.599 25.2968 33.3169 25.1023 33.0348C24.7754 32.5389 24.5107 31.9918 24.3161 31.4019C24.2539 31.2309 24.2072 31.2053 24.0593 31.2309C24.0126 31.2309 23.9737 31.2309 23.9192 31.2395C22.9774 31.5045 21.9889 31.5045 21.0238 31.2822C20.9615 31.2822 20.9148 31.2736 20.8603 31.2565C20.8214 31.2565 20.798 31.2651 20.7825 31.2822C20.7436 31.2736 20.728 31.3078 20.7046 31.3164C20.6891 31.342 20.6891 31.3677 20.6735 31.3933C20.6657 31.419 20.6657 31.4446 20.6813 31.4959C20.6969 31.5472 20.7124 31.5985 20.728 31.6669C20.8681 32.0431 21.0082 32.4107 21.1172 32.804C21.4363 33.582 21.7943 34.3343 22.1757 35.0695C22.2302 35.1892 22.2925 35.3004 22.3469 35.4115C22.238 35.4115 22.1212 35.42 22.0045 35.4286C21.9266 35.4371 21.8488 35.4029 21.7865 35.3602C21.7321 35.3175 21.6854 35.2491 21.6698 35.1636C21.6542 35.1123 21.5997 35.0695 21.5764 34.9926C21.3818 34.7019 21.2028 34.4027 21.0393 34.0778C20.8525 33.6845 20.6657 33.2827 20.4945 32.8724C20.1442 32.0516 19.8407 31.1796 19.6305 30.2734C19.615 30.2734 19.5994 30.2392 19.6072 30.2221C19.6305 30.205 19.5916 30.1537 19.5916 30.0938C19.5838 30.0853 19.5761 30.0768 19.5683 30.0682C19.5527 29.9998 19.5527 29.9485 19.5449 29.8716C19.506 29.8203 19.4671 29.7519 19.436 29.7006C19.5371 29.7519 19.6072 29.7348 19.6772 29.7946C20.152 29.9827 20.6657 30.128 21.1872 30.1964C21.8799 30.2819 22.5882 30.3332 23.2732 30.2563C23.5612 30.2477 23.8258 30.128 24.0282 29.9058C24.1838 29.7091 24.3862 29.5296 24.5496 29.333C24.8921 29.0166 25.1879 28.6319 25.4136 28.1959C25.4447 28.1446 25.4759 28.1104 25.5148 28.0506C25.5148 28.1275 25.5537 28.1874 25.5848 28.2558C25.7561 28.4951 25.8495 28.7602 25.9507 29.0337ZM29.6478 31.3078C30.0369 32.1884 30.3094 33.1288 30.4183 34.0864C30.4105 34.0949 30.395 34.0949 30.3872 34.0949C30.3872 34.1462 30.4105 34.1975 30.4183 34.2402C30.4339 34.2744 30.4339 34.3086 30.4495 34.3343C30.5117 34.5737 30.5351 34.7788 30.5429 35.0268C30.5429 35.0439 30.5351 35.0695 30.5351 35.1037C30.5429 35.1294 30.5429 35.1636 30.5662 35.1978C30.5117 35.1807 30.465 35.1208 30.4339 35.0781C30.0681 34.6934 29.7645 34.2317 29.5544 33.7187C29.352 33.2913 29.1808 32.8125 29.0173 32.3509C28.9161 32.0345 28.8383 31.7011 28.8149 31.3762C28.7994 31.342 28.7838 31.3164 28.7605 31.2907C28.6904 31.0941 28.6281 31.0599 28.4647 31.1967C28.3946 31.2651 28.3324 31.3335 28.2701 31.4019C28.1378 31.5643 27.9899 31.6926 27.8109 31.7866C27.7253 31.6584 27.6474 31.5387 27.5696 31.4104C27.8887 31.1198 28.239 30.8804 28.6048 30.6581C28.6593 30.6239 28.7215 30.5983 28.7838 30.5555C28.9784 30.4957 29.1341 30.4871 29.2508 30.6581C29.3831 30.8291 29.531 31.0941 29.6478 31.3078ZM32.9946 33.5905C32.9401 33.676 32.8934 33.7444 32.8312 33.8042C32.8234 33.847 32.8234 33.8983 32.8156 33.941C32.7378 34.0778 32.7222 34.0864 32.5899 34.0522C32.4576 34.018 32.3175 33.9752 32.1852 33.9325C31.4302 33.6503 30.7919 33.0775 30.3794 32.2996C30.3716 32.2825 30.3483 32.2568 30.3249 32.2312C30.3094 32.197 30.2782 32.1542 30.2704 32.1115C30.2627 32.0431 30.2627 32.0174 30.2704 31.9661C30.2237 31.9148 30.1615 31.8294 30.1303 31.761C30.1226 31.7524 30.107 31.7353 30.0992 31.7182C29.9902 31.4788 29.8735 31.2309 29.7645 30.9744C30.8464 31.8037 31.905 32.7014 32.9946 33.5905ZM34.9872 33.4794C35.2129 33.9496 35.3919 34.454 35.5631 34.9584C35.82 35.7022 35.9523 36.4887 35.9679 37.2752C35.9679 37.3436 35.9679 37.412 35.9679 37.489C35.9523 37.489 35.9523 37.489 35.9445 37.489C35.929 37.4633 35.9212 37.4377 35.9056 37.412C35.8511 37.412 35.7889 37.3949 35.7188 37.3693C35.7188 37.3778 35.7188 37.3864 35.711 37.3864C35.711 37.3778 35.7032 37.3607 35.6955 37.3522C35.3686 37.1726 35.0806 36.8905 34.8626 36.5571C34.4813 35.9672 34.1154 35.3773 33.9676 34.6592C33.9442 34.5822 33.8975 34.4882 33.8586 34.4112C33.7263 34.4711 33.6095 34.5566 33.5083 34.6677C33.306 34.9071 33.0958 35.1379 32.8934 35.3773C32.6444 35.5996 32.4731 35.9074 32.3564 36.2322C32.3486 36.2664 32.333 36.3006 32.3175 36.3177C32.2552 36.2835 32.2241 36.2151 32.2085 36.1638C32.2007 36.0954 32.2085 36.0356 32.2319 35.9672C32.2941 35.7877 32.3642 35.6252 32.4342 35.4628C32.4498 35.42 32.4887 35.3773 32.5198 35.326C32.5432 35.2918 32.5588 35.2576 32.5588 35.2149C32.5665 35.1892 32.5821 35.1721 32.5899 35.155C32.7845 34.7446 32.9791 34.3257 33.1736 33.9154C33.2904 33.7102 33.4071 33.4965 33.5472 33.2742C33.6951 33.1032 33.8586 32.9408 34.0454 32.7954C34.131 32.727 34.2244 32.6843 34.3412 32.6928C34.4501 32.7185 34.5591 32.7869 34.6291 32.8724C34.7848 33.069 34.886 33.2571 34.9872 33.4794ZM39.9997 37.4035C39.953 37.4291 39.9141 37.4548 39.8751 37.4804C39.8674 37.5061 39.8596 37.5232 39.8674 37.5403C39.8518 37.5659 39.844 37.583 39.844 37.6087C39.4782 37.4035 39.1279 37.1726 38.7699 36.8905C38.7621 36.8905 38.7543 36.882 38.7388 36.8649C38.6687 36.7965 38.5909 36.7366 38.5131 36.6853C38.4897 36.6853 38.4741 36.6682 38.4508 36.6597C38.373 36.6426 38.3107 36.5998 38.2484 36.5143C38.2017 36.4716 38.155 36.4203 38.1005 36.3947C38.0928 36.3776 38.0928 36.3776 38.0928 36.3947C38.0383 36.3861 37.9916 36.369 37.9449 36.3348C37.8982 36.3092 37.8592 36.2579 37.8359 36.198C37.797 36.198 37.7892 36.1638 37.7581 36.1467C37.7347 36.1467 37.6958 36.1553 37.688 36.1382C37.33 35.8646 36.9642 35.5996 36.6139 35.3345C36.4505 35.2234 36.2948 35.061 36.1391 34.9327C36.1313 34.9327 36.1236 34.9413 36.1236 34.9413C36.1158 34.9327 36.108 34.9327 36.1002 34.9242C36.0769 34.9242 36.0613 34.9413 36.0457 34.9413C36.0379 34.984 36.0302 35.0097 36.0302 35.0439C36.0457 35.061 36.0613 35.0866 36.0691 35.1037C36.2559 35.4884 36.3648 35.9245 36.3882 36.369C36.4038 36.6682 36.4038 36.9675 36.4193 37.2838C36.4193 37.3607 36.396 37.412 36.3726 37.4719C36.3337 37.5146 36.2714 37.5488 36.217 37.5659C36.1936 37.4975 36.2014 37.4633 36.1858 37.3949C36.2247 36.7879 36.1547 36.1724 36.0146 35.5739C35.9834 35.5141 35.9601 35.4542 35.9523 35.42C35.8978 35.2405 35.8589 35.0524 35.82 34.8814C35.6799 34.4369 35.5087 33.9923 35.3452 33.599C35.2674 33.3939 35.174 33.2058 35.0806 33.0348C35.1506 33.0775 35.1895 33.0861 35.2596 33.1459C35.9757 33.8213 36.6995 34.5309 37.4312 35.2234C38.2406 36.0185 39.1046 36.7281 40.0308 37.3607C40.0152 37.3436 40.0152 37.3607 40.0075 37.3693C39.9997 37.3864 39.9841 37.3864 39.9997 37.4035ZM42.3425 36.5742C42.4359 36.7537 42.5371 36.9418 42.6227 37.1555C42.7394 37.4548 42.8406 37.7625 42.8951 38.096C42.7706 38.0618 42.6616 38.0618 42.5682 37.9506C42.4904 37.925 42.4203 37.9335 42.3503 37.8908C42.2335 37.8224 42.1323 37.7283 42.0234 37.6258C41.7821 37.3693 41.5875 37.0701 41.4474 36.7708C41.3229 36.4972 41.2217 36.4802 41.066 36.6597C40.8325 36.9247 40.6068 37.1812 40.3889 37.4462C40.2955 37.6343 40.2098 37.8309 40.1164 38.0361C40.0542 38.1815 40.0542 38.1815 39.8985 38.1045C39.9141 38.0618 39.9218 38.019 39.953 37.9934C40.1164 37.6087 40.2877 37.2154 40.4433 36.8136C40.6301 36.3947 40.8481 36.0014 41.1127 35.6338C41.2684 35.3687 41.424 35.3687 41.6264 35.5996C41.9066 35.8903 42.1479 36.2151 42.3425 36.5742ZM45.3936 36.8392C45.378 36.8392 45.3547 36.8563 45.3391 36.8649C45.2301 36.9162 45.1289 36.9675 45.02 37.0188C44.9811 37.0701 44.9266 37.1213 44.8799 37.147C44.802 37.1641 44.7398 37.1983 44.6697 37.1726C44.6386 37.1812 44.5997 37.1641 44.5452 37.1555C44.2027 37.0273 43.8525 36.882 43.51 36.6768C43.4477 36.6511 43.3932 36.634 43.3388 36.6853C43.3232 36.7195 43.3388 36.7965 43.331 36.8478C43.3388 36.882 43.3465 36.8991 43.3543 36.9418C43.4244 37.2496 43.4789 37.5659 43.5256 37.8737C43.5567 38.0276 43.5645 38.1729 43.5567 38.3182C43.401 38.2669 43.2687 38.2157 43.1286 38.1644C43.1053 37.7967 43.0041 37.4377 42.8484 37.1128C42.8328 37.0444 42.7939 36.976 42.7706 36.9162C42.7239 36.8478 42.6927 36.7794 42.6694 36.7024C42.4981 36.3092 42.2647 35.933 41.9844 35.6081C41.9689 35.591 41.9611 35.5739 41.9455 35.5397C43.1053 35.9159 44.2183 36.4203 45.3936 36.8392ZM47.067 36.9418C47.067 36.976 47.0826 37.0188 47.0826 37.0444C47.1059 37.147 47.1293 37.2496 47.1371 37.3351C47.1526 37.3693 47.1682 37.3864 47.176 37.4035C47.3472 37.8737 47.5184 38.3353 47.6819 38.7799C47.7052 38.8312 47.7208 38.891 47.7208 38.9423C47.7286 39.0107 47.7208 39.0535 47.6897 39.1048C47.6352 39.233 47.5729 39.3527 47.4795 39.4638C47.2149 39.7716 46.8724 40.0281 46.491 40.1478C46.3898 40.182 46.2964 40.2333 46.203 40.2675C46.1719 40.2675 46.1486 40.2675 46.1174 40.276C46.133 40.276 46.133 40.276 46.1486 40.3017C46.1486 40.3188 46.1719 40.3017 46.1797 40.3188C46.3976 40.3615 46.6078 40.3957 46.8102 40.447C47.4562 40.6094 48.1022 40.7548 48.756 40.9087C48.7949 40.9258 48.865 40.9685 48.9272 40.9856C48.8961 41.1395 48.8572 41.2934 48.8183 41.4387C48.756 41.4045 48.7015 41.3789 48.6392 41.3361C48.577 41.2934 48.4914 41.2592 48.4213 41.225C48.1645 41.1224 47.9232 41.0455 47.6663 40.9771C47.2694 40.8745 46.8724 40.7719 46.4677 40.6864C45.9851 40.6009 45.5103 40.5325 45.0355 40.4556C44.9811 40.4385 44.9499 40.4385 44.911 40.4043C44.8487 40.4128 44.7787 40.4214 44.7086 40.4214C44.7164 40.3359 44.7086 40.2333 44.7086 40.1478C44.7164 39.7631 44.7398 39.3869 44.7553 39.0107C44.7709 38.6602 44.802 38.2926 44.8254 37.9421C44.841 37.7112 44.9266 37.4975 45.0745 37.3522C45.2223 37.1983 45.4091 37.1299 45.6037 37.1128C45.7983 37.1128 46.0085 37.1128 46.1953 37.0786C46.4833 37.0359 46.779 36.9931 47.067 36.9418ZM47.6508 35.155C48.1489 35.0268 48.6003 34.8216 49.044 34.5908C49.1685 34.5224 49.2853 34.454 49.402 34.377C49.4098 34.377 49.4176 34.3856 49.4332 34.3941C49.332 34.5993 49.2308 34.7959 49.1296 34.9926C49.1296 35.0439 49.1218 35.0866 49.1218 35.1294C49.0673 35.2576 49.0751 35.4115 49.114 35.5568C49.1607 35.6936 49.2541 35.8219 49.3787 35.8903C49.4176 35.9244 49.4487 35.9501 49.4799 36.0099C49.4954 36.0612 49.5188 36.1211 49.511 36.1724C49.5266 36.6939 49.4254 37.1812 49.2152 37.6172C49.0206 38.0105 48.7093 38.2926 48.3123 38.4037C48.2812 38.4294 48.2501 38.455 48.2189 38.4807C48.6548 38.6688 49.0596 38.8654 49.5188 38.9509C49.4876 39.0791 49.4332 39.2416 49.3709 39.3613C49.3008 39.4724 49.1607 39.3442 49.0751 39.3698C49.0518 39.3784 49.0206 39.3784 48.9895 39.3613C48.8105 39.3442 48.6159 39.31 48.4291 39.2672C48.359 39.2416 48.3201 39.2416 48.2656 39.2074C48.2112 39.1646 48.1645 39.1219 48.1489 39.0962C48.0555 39.0022 48.001 38.9081 47.9387 38.7714C47.9076 38.7201 47.8687 38.6602 47.8298 38.6089C47.4795 37.8138 47.2071 37.0017 46.9892 36.1638C46.8802 35.762 46.9503 35.5825 47.2227 35.3858C47.3706 35.3175 47.5107 35.2405 47.6508 35.155ZM48.8728 31.3591C49.7678 31.3848 50.6707 31.4788 51.558 31.6327C51.8227 31.684 52.0639 31.7353 52.313 31.8123C52.1885 31.8892 52.0717 31.9576 51.9394 32.0516C51.8694 32.0602 51.8071 32.0944 51.737 32.12C51.4958 32.1799 51.2467 32.2141 50.9898 32.2397C50.3983 32.2568 49.8223 32.2739 49.2386 32.2825C48.6393 32.2739 48.0555 32.197 47.4717 32.0944C47.4406 32.0858 47.4017 32.0858 47.3861 32.0944C47.3472 32.0773 47.3161 32.0858 47.2927 32.1115C47.2694 32.12 47.246 32.1542 47.2382 32.1799C47.2227 32.2055 47.2227 32.2397 47.2149 32.2739C47.2149 32.3167 47.2227 32.368 47.2149 32.4193C47.1993 33.0092 47.1915 33.5905 47.176 34.1975C47.1604 34.206 47.1604 34.2317 47.1682 34.2659C47.176 34.2915 47.1993 34.3172 47.2149 34.3343C47.2071 34.4283 47.2305 34.5395 47.2694 34.6079C47.3161 34.6934 47.3783 34.7532 47.4562 34.8045C47.4484 34.8045 47.4406 34.8045 47.4328 34.813C47.355 34.8387 47.2849 34.8729 47.2227 34.7959C47.1526 34.719 47.0047 34.8301 46.9658 34.7276C46.958 34.7276 46.9503 34.7105 46.9425 34.7019C46.8646 34.4027 46.7557 34.1206 46.7012 33.8213C46.6467 33.5136 46.5844 33.069 46.5455 32.7185C46.5066 32.4193 46.4988 32.1542 46.5066 31.8806C46.491 31.8037 46.5066 31.7268 46.5377 31.6584C46.5689 31.59 46.6311 31.5558 46.7012 31.5387C46.8413 31.4874 46.9736 31.4532 47.1293 31.4361C47.6897 31.4275 48.2656 31.3249 48.8728 31.3591ZM48.4602 31.0856C48.2968 31.0941 48.1411 31.1027 47.9932 31.1112C47.9777 31.0941 47.9699 31.0856 47.9621 31.077C48.0633 31.0428 48.1489 31.0086 48.2501 30.9915C48.359 30.9146 48.3902 30.9573 48.4602 31.0856ZM58.4463 28.1104C58.5008 27.8283 58.5709 27.5205 58.6798 27.2469C58.7732 27.0931 58.8744 26.9392 58.9756 26.7938C59.2091 26.4604 59.5126 26.1783 59.8785 25.9987C60.1898 25.8705 60.4622 25.691 60.7346 25.4858C61.2094 25.1267 61.513 24.5796 61.6142 23.9555C61.6297 23.8358 61.622 23.7161 61.6142 23.5964C61.6064 23.5537 61.6142 23.5451 61.5908 23.5109C61.5753 23.4853 61.5597 23.4511 61.5363 23.434C61.4818 23.4083 61.4663 23.4682 61.4352 23.5109C61.3651 23.6221 61.3028 23.7161 61.2328 23.8101C61.0616 24.0239 60.8592 24.2376 60.6335 24.4C60.3066 24.6993 59.9018 24.9301 59.5049 25.084C59.2791 25.1866 59.0612 25.2721 58.8511 25.3661C58.7499 25.3832 58.6643 25.4003 58.5631 25.3918C58.5631 25.2464 58.5475 25.084 58.5864 24.9215C58.5786 24.8531 58.6098 24.7933 58.6487 24.742C58.6876 24.6993 58.7577 24.6651 58.8199 24.6736C58.8822 24.6822 58.96 24.6907 59.0223 24.7078C59.1624 24.6993 59.3103 24.7078 59.4426 24.7249C59.5671 24.742 59.6683 24.7164 59.7384 24.648C59.8006 24.571 59.8551 24.477 59.8473 24.3573C59.8629 24.1949 59.8785 24.0068 59.8707 23.8358C59.8707 23.7332 59.8707 23.6306 59.8785 23.5451C59.9096 23.3741 59.933 23.357 60.112 23.3827C60.2365 23.4254 60.3533 23.4511 60.4622 23.4682C60.5167 23.4853 60.5634 23.5024 60.6023 23.4853C60.6412 23.4938 60.6957 23.4767 60.7113 23.4425C60.7502 23.4083 60.7736 23.3912 60.7813 23.3399C60.7891 23.2972 60.8047 23.2544 60.7969 23.2117C60.8047 23.0578 60.8047 22.9296 60.7969 22.7842C60.7891 22.6218 60.7813 22.4679 60.7736 22.314C60.7969 22.1601 60.8358 22.1345 60.9759 22.1601C61.0615 22.1601 61.1549 22.1687 61.2561 22.1858C61.3418 22.2114 61.4274 22.1772 61.4818 22.1259C61.5597 22.0917 61.5986 22.0062 61.6142 21.9207C61.6375 21.8524 61.6609 21.784 61.6842 21.7156C61.6998 21.7327 61.7076 21.7498 61.7154 21.7669C61.98 22.485 62.0812 23.2373 62.0267 23.9555C61.98 24.2803 61.9566 24.6223 61.9255 24.9557C61.8788 25.1951 61.8088 25.4259 61.7387 25.6653C61.5986 25.9987 61.3106 26.1612 61.0304 26.2894C60.7424 26.4348 60.3688 26.5886 60.0653 26.7938C59.5516 27.1016 59.069 27.4863 58.6487 27.9138C58.5864 27.9822 58.5164 28.042 58.4463 28.1104ZM55.1462 32.0089C55.0216 32.0858 54.9204 32.0773 54.7959 31.9576C54.9516 31.8635 55.1228 31.7695 55.2863 31.6584C55.5431 31.4874 55.7844 31.2651 55.9868 31.0172C56.3759 30.6239 56.7028 30.1879 56.9675 29.7091C57.2477 29.256 57.4501 28.7431 57.6135 28.2472C57.7303 27.8454 57.8237 27.4521 57.9015 27.0332C58.0027 26.4006 57.9793 25.7252 57.8314 25.0498C57.6758 24.3829 57.4501 23.7075 57.1621 23.0578C57.1387 22.9809 57.1231 22.8783 57.1387 22.7928C57.1932 22.6047 57.2399 22.3995 57.3177 22.2114C57.5979 21.4762 57.8704 20.7409 58.135 20.0228C58.205 19.7492 58.2907 19.5013 58.3685 19.2448C58.3841 19.185 58.3918 19.1251 58.3918 19.0738C58.3841 19.014 58.3685 18.9456 58.3529 18.9029C58.2984 18.9371 58.2517 18.9627 58.205 19.0054C58.1428 19.0653 58.0883 19.1422 58.0416 19.2277C57.8937 19.4757 57.7458 19.7407 57.6057 19.9886C57.3333 20.4503 57.0687 20.929 56.804 21.3992C56.555 21.8695 56.2825 22.3311 55.9868 22.7671C55.8856 22.9039 55.9479 23.0322 56.0257 23.1604C56.1035 23.3057 56.1814 23.4083 56.2281 23.5109C56.4304 23.9298 56.5627 24.3744 56.6639 24.8275C56.7495 25.255 56.7495 25.7081 56.6795 26.1355C56.5783 26.6143 56.4226 27.0674 56.2125 27.4778C56.0023 27.9822 55.691 28.4438 55.3018 28.8115C54.7803 29.2646 54.1655 29.5809 53.4883 29.7604C53.0291 29.8545 52.5543 29.863 52.0717 29.8203C51.7137 29.7775 51.3557 29.6749 51.021 29.4783C50.7719 29.3415 50.554 29.162 50.3827 28.9397C50.1804 28.7174 50.0325 28.4609 49.9313 28.1959C49.869 28.0164 49.8068 27.8283 49.7601 27.6573C49.7211 27.5205 49.6122 27.4949 49.5188 27.5633C49.4565 27.5975 49.4176 27.6317 49.402 27.7001C49.3398 27.8454 49.2853 27.9736 49.223 28.1019C49.1296 28.6319 49.0129 29.162 48.9039 29.6835C48.8338 30.0597 48.7327 30.4358 48.6081 30.8034C48.5926 30.8462 48.5692 30.8718 48.5459 30.8889C48.3513 30.5726 48.2189 30.1879 48.1956 29.8032C48.1878 29.769 48.18 29.7348 48.18 29.692C48.1722 29.6749 48.18 29.6578 48.1878 29.6407C48.18 29.6065 48.1722 29.5723 48.1567 29.5296C48.1645 29.521 48.1567 29.4869 48.1567 29.4527C48.1022 28.8799 48.1178 28.3156 48.1878 27.777C48.3046 26.9905 48.5381 26.2467 48.8494 25.5627C49.1997 24.8531 49.6589 24.2376 50.2115 23.7503C50.733 23.2544 51.3479 22.8783 52.025 22.6047C52.5465 22.4081 53.0914 22.314 53.6518 22.2713C54.111 22.2456 54.578 22.22 55.0372 22.1943C55.3252 22.1943 55.5743 22.0661 55.7611 21.8695C55.8545 21.7498 55.9479 21.6215 56.0413 21.5189C56.088 21.4505 56.1347 21.3821 56.1969 21.3223C56.2125 21.2881 56.2203 21.2454 56.2281 21.2112C56.2514 21.1684 56.2748 21.1342 56.2981 21.1C56.3059 21.0744 56.3137 21.0487 56.3215 21.0316C56.6484 20.5358 56.9753 20.0399 57.3177 19.5611C57.6836 18.9798 58.0883 18.4497 58.5475 17.9624C58.6798 17.8256 58.711 17.7744 58.9289 17.9282C58.999 17.9624 59.0534 18.0052 59.1079 18.0736C59.2325 18.2018 59.3492 18.3301 59.4582 18.4754C59.5749 18.6207 59.5827 18.6635 59.4426 18.7319C59.2947 18.843 59.1624 18.9627 59.0145 19.0567C58.96 19.0909 58.9211 19.1422 58.9055 19.2021C58.8978 19.2876 58.8978 19.356 58.9211 19.4073C58.96 19.4671 58.9912 19.5184 59.0067 19.5782C59.0768 19.7321 59.1546 19.886 59.2169 20.0485C59.2947 20.2023 59.2869 20.2536 59.1702 20.3477C59.0067 20.4161 58.8588 20.5016 58.711 20.5956C58.5709 20.6811 58.4308 20.758 58.314 20.8692C58.1661 20.9718 58.1973 21.1599 58.2984 21.4078C58.4074 21.6472 58.493 21.784 58.5786 21.9635C58.6643 22.1516 58.6253 22.1772 58.5008 22.2627C58.3451 22.3311 58.1895 22.3995 58.0416 22.485C57.9638 22.5192 57.8937 22.5876 57.847 22.6645C57.8003 22.75 57.8003 22.8526 57.8237 22.9552C57.8626 23.2544 57.9171 23.5451 58.0027 23.8614C58.2673 24.8873 58.3763 25.9304 58.3218 26.9648C58.244 27.7428 58.026 28.4951 57.7069 29.162C57.4734 29.6407 57.2088 30.0682 56.9208 30.5042C56.7651 30.8034 56.5316 31.0428 56.267 31.2309C56.0568 31.4104 55.8389 31.5729 55.6054 31.7353C55.4653 31.8294 55.2941 31.9063 55.1462 32.0089ZM56.3993 33.7016C56.3993 33.6674 56.3915 33.6332 56.3837 33.599C56.3993 33.5478 56.4226 33.5136 56.446 33.4794C56.4927 33.4623 56.5238 33.4366 56.5861 33.4366C56.6094 33.411 56.6484 33.4024 56.6951 33.3939C56.7651 33.3597 56.8352 33.3255 56.9208 33.3084C56.8896 33.2827 56.8585 33.2656 56.8352 33.2571C56.8118 33.2229 56.8118 33.2229 56.7962 33.2229C56.7885 33.2143 56.7885 33.2058 56.7807 33.1972C56.5861 33.1545 56.3993 33.1203 56.2203 33.069C56.1891 33.0604 56.1658 33.0519 56.1347 33.0519C56.1891 33.0177 56.2436 32.9921 56.3137 33.0262C56.5705 33.069 56.8274 33.1117 57.092 33.1801C57.0842 33.163 57.092 33.1545 57.0998 33.1545C57.1621 33.1972 57.2165 33.2058 57.2788 33.24C57.2555 33.2656 57.2477 33.2827 57.2399 33.2827C57.1854 33.3084 57.1231 33.3169 57.0765 33.3255C56.8507 33.4452 56.6328 33.5734 56.3993 33.7016ZM56.4226 34.4625C56.3759 34.4711 56.337 34.5053 56.2825 34.4796C55.9323 34.4711 55.5587 34.4454 55.1851 34.4198C55.0294 34.4112 54.9438 34.454 54.9438 34.625C54.936 34.6848 54.9282 34.7446 54.9594 34.8045C54.9749 35.2063 55.0839 35.5996 55.2707 35.9501C55.3096 36.0698 55.3875 36.1553 55.4731 36.2066C55.5587 36.2493 55.6599 36.275 55.7611 36.2579C55.8389 36.2493 55.9245 36.2493 56.0101 36.2322C55.6132 36.8307 55.1851 37.4291 54.7336 37.9677C54.7492 37.7882 54.8037 37.6258 54.8893 37.4804C54.9127 37.4206 54.936 37.3693 54.936 37.318C54.936 37.2325 54.9049 37.1641 54.866 37.1128C54.7881 37.0359 54.7414 36.976 54.6869 36.9162C54.2277 36.4545 53.6907 36.1211 53.0914 35.9501C53.0524 35.9586 53.0213 35.9415 53.0057 35.9244C52.9824 35.8817 52.959 35.8646 52.9357 35.8304C52.9513 35.8048 52.9668 35.7962 52.9824 35.7791C53.0447 35.7107 53.1069 35.6594 53.1925 35.6594C53.2704 35.6338 53.3638 35.6509 53.4416 35.6851C53.535 35.7107 53.6595 35.7193 53.7452 35.6851C53.9086 35.6594 54.0565 35.6081 54.1888 35.5055C54.3056 35.4115 54.4067 35.2662 54.4768 35.1123C54.5935 34.8643 54.6947 34.6164 54.7881 34.3514C54.8193 34.3086 54.8426 34.2573 54.8504 34.1975C54.9204 34.0522 54.9049 33.8726 54.8582 33.7187C54.7959 33.5648 54.6869 33.4195 54.5391 33.3255C54.4612 33.2742 54.3834 33.24 54.3056 33.2656C54.2277 33.2656 54.1499 33.3169 54.1032 33.4024C54.1732 33.3939 54.2355 33.4024 54.3056 33.4537C54.36 33.4708 54.4301 33.5221 54.4768 33.5734C54.5313 33.6418 54.5624 33.7273 54.5935 33.8042C54.6091 33.8983 54.6169 33.9752 54.6013 34.0522C54.6013 34.1462 54.5858 34.2231 54.5391 34.283C54.4846 34.3514 54.4534 34.4112 54.3834 34.4369C54.2433 34.5053 54.1032 34.5651 53.9631 34.625C53.5584 34.7788 53.2237 35.0695 52.9746 35.4286C52.8578 35.5226 52.7411 35.5996 52.6321 35.6765C52.6166 35.7022 52.5932 35.7364 52.5776 35.7706C52.5699 35.7877 52.5699 35.7962 52.5543 35.7877C52.5232 35.7791 52.4842 35.7877 52.4531 35.7962C52.1807 35.7449 51.9161 35.7193 51.6359 35.7107C51.2778 35.7278 50.9276 35.7449 50.6863 36.0869C50.6785 36.1296 50.6474 36.1296 50.6318 36.1382C50.6007 36.1638 50.5695 36.1553 50.5306 36.1553C50.1726 36.0612 49.7912 35.9159 49.4332 35.7193C49.4098 35.7107 49.402 35.6936 49.3865 35.6594C49.3398 35.6252 49.3086 35.5996 49.2853 35.5397C49.2619 35.5055 49.2541 35.4628 49.2619 35.4115C49.2697 35.061 49.3398 34.7105 49.5032 34.4454C49.581 34.2488 49.6744 34.0778 49.8145 33.941C50.266 33.5221 50.7252 33.1117 51.2311 32.7783C51.2856 32.7441 51.3323 32.7014 51.3712 32.6757C51.379 32.6843 51.3868 32.6928 51.3946 32.7099C51.4101 32.727 51.4024 32.727 51.4101 32.7441C51.4101 32.8125 51.4024 32.8724 51.3479 32.9237C51.3712 33.0519 51.3479 33.1459 51.2934 33.2485C51.2778 33.2827 51.2778 33.3169 51.27 33.3426C51.2467 33.3597 51.2389 33.3682 51.2233 33.3682C51.0755 33.6076 50.9042 33.8128 50.7019 33.9923C50.5073 34.1548 50.3049 34.3257 50.1103 34.4882C50.0947 34.4882 50.087 34.5053 50.0636 34.5395C50.1259 34.6079 50.157 34.5822 50.2193 34.5737C50.9898 34.4027 51.7293 34.1377 52.4064 33.7529C52.5543 33.6674 52.71 33.5734 52.8656 33.4708C53.1692 33.2998 53.4105 33.0519 53.5739 32.7099C53.6284 32.6073 53.6595 32.4876 53.6673 32.3594C53.6673 32.2141 53.6284 32.0858 53.5817 31.9661C53.5428 31.8806 53.535 31.8123 53.4883 31.7097C53.465 31.6755 53.4494 31.6327 53.426 31.59C53.6284 31.6242 53.823 31.6755 54.0176 31.7695C54.1032 31.8208 54.1655 31.8806 54.2277 31.9661C54.2355 31.9747 54.2433 31.9832 54.2511 31.9832C54.2666 32.0003 54.2744 32.0431 54.2822 32.0602C54.2822 32.1115 54.2822 32.1115 54.2978 32.1457C54.3056 32.2483 54.29 32.3423 54.2511 32.4193C54.2511 32.4278 54.2511 32.4278 54.2589 32.462C54.2433 32.4791 54.2978 32.4705 54.3133 32.4876C54.3445 32.4791 54.3678 32.4534 54.399 32.4278C54.4145 32.4107 54.4301 32.3851 54.4457 32.3594C54.4534 32.2055 54.4301 32.0687 54.4223 31.9234C54.4457 31.9405 54.4768 31.9405 54.5001 31.949C54.8426 32.1713 55.1851 32.3594 55.5276 32.5817C55.6832 32.6672 55.8311 32.804 55.9012 32.975C56.0257 33.2571 56.1269 33.5136 56.2281 33.7786C56.3292 33.9923 56.4071 34.2231 56.4226 34.4625ZM54.2978 34.7361C54.2511 34.8814 54.1966 35.0011 54.111 35.1037C54.0176 35.2063 53.9164 35.2747 53.7841 35.326C53.6284 35.3944 53.4494 35.4115 53.2937 35.3602C53.5817 35.0781 53.9086 34.8729 54.2978 34.7361ZM56.1736 36.2237C56.2047 36.198 56.2436 36.1724 56.2748 36.1467C56.4849 36.0441 56.7106 35.9501 56.9208 35.8561C56.9363 35.8817 56.9441 35.8903 56.9519 35.8903C56.4849 36.3263 56.1035 36.8649 55.8155 37.4548C55.2007 38.6944 54.8582 40.1307 54.8115 41.6354C54.8193 41.8491 54.8348 42.0714 54.866 42.2766C54.8815 42.4817 54.9282 42.6527 54.9516 42.8494C54.2355 42.1825 53.4494 41.6952 52.7177 41.1737C52.9123 40.9172 53.1225 40.6778 53.2937 40.4214C53.7607 39.7203 54.2122 39.0364 54.7259 38.3781C55.2785 37.7198 55.7611 37.0017 56.1736 36.2237ZM54.648 38.1644C54.6402 38.1729 54.6325 38.1729 54.6091 38.1815C54.6013 38.1729 54.5935 38.1644 54.5858 38.1558C54.6169 38.1302 54.6247 38.1216 54.648 38.1045C54.648 38.1302 54.648 38.1302 54.648 38.1644ZM57.2944 35.232C57.1932 35.3346 57.0998 35.4286 56.9675 35.5141C56.8274 35.5996 56.6873 35.6936 56.5316 35.762C56.267 35.8903 56.0023 35.9757 55.7066 36.0185C55.6677 36.0441 55.6132 36.027 55.5665 35.9928C55.5353 35.9672 55.4964 35.9244 55.4653 35.8903C55.4108 35.8133 55.3797 35.7364 55.3485 35.6423C55.224 35.3773 55.154 35.0781 55.1462 34.7874C55.1306 34.719 55.0995 34.6506 55.0683 34.5822C56.1269 34.7874 57.092 34.7788 57.8548 34.0265C57.8781 34.0864 57.8704 34.1377 57.8548 34.1633C57.847 34.3257 57.7847 34.454 57.7069 34.5651C57.7069 34.5908 57.7069 34.6079 57.6991 34.625C57.6913 34.6421 57.7147 34.6421 57.6913 34.6592C57.559 34.8387 57.4267 35.0353 57.2944 35.232ZM65.0466 43.0203C65.1089 42.7895 65.1712 42.5587 65.2412 42.3193C65.2646 42.3022 65.2879 42.2851 65.3191 42.268C65.3658 42.1996 65.428 42.1227 65.4903 42.0372C65.8795 41.4729 66.3153 40.9514 66.7979 40.447C67.0781 40.1478 67.3661 39.8486 67.6541 39.5579C67.8954 39.31 68.1367 39.062 68.3779 38.8227C68.5803 38.6431 68.736 38.4037 68.8216 38.1387C68.8839 37.7369 68.8449 37.3009 68.7126 36.8991C68.7048 36.882 68.7048 36.8478 68.6815 36.8392C68.6581 36.8136 68.6348 36.7965 68.6114 36.7965C68.5803 36.8136 68.5414 36.8221 68.5025 36.8392C68.4713 36.9418 68.4091 37.0273 68.3546 37.1213C68.1989 37.4548 67.981 37.7454 67.693 37.9677C67.3272 38.2926 66.9691 38.6089 66.5955 38.9338C66.292 39.1817 65.9962 39.4126 65.6615 39.6006C65.6226 39.6263 65.5759 39.6434 65.5292 39.6519C65.5759 39.4895 65.6148 39.3185 65.6615 39.1475C65.7549 38.8227 65.8639 38.4978 65.9573 38.1815C65.9729 38.1045 66.0118 38.0276 66.0818 37.9848C66.1363 37.925 66.2064 37.9164 66.2842 37.925C66.4321 37.9079 66.5955 37.8993 66.7356 37.8737C66.8446 37.8651 66.9458 37.8309 67.0236 37.7711C67.1092 37.6941 67.1715 37.6001 67.1871 37.489C67.2338 37.3778 67.2493 37.2581 67.2883 37.147C67.296 36.8649 67.296 36.5827 67.335 36.2921C67.3505 36.2066 67.3583 36.1211 67.3817 36.0356C67.5607 36.0612 67.7319 36.0954 67.9187 36.1638C67.981 36.1724 68.0744 36.1809 68.1289 36.1467C68.1989 36.1211 68.2456 36.0698 68.2768 35.9928C68.3001 35.8903 68.3312 35.7962 68.3468 35.6851C68.3779 35.6081 68.3935 35.5226 68.4091 35.4286C68.4558 35.4628 68.4947 35.4799 68.5414 35.5055C68.9228 35.6594 68.9928 35.668 69.0784 35.2149C69.1563 34.7788 69.1407 34.5395 69.1641 34.2231C69.1641 34.1206 69.1718 34.0265 69.1796 33.941C69.2341 33.9923 69.3119 34.0436 69.3742 34.0949C69.4365 34.1975 69.5065 34.3001 69.5532 34.4027C69.6155 34.5822 69.6466 34.7532 69.6622 34.9156C69.7712 35.7193 69.7867 36.5315 69.6544 37.3009C69.6233 37.66 69.5454 38.0105 69.3898 38.3353C69.1251 38.9252 68.7671 39.4296 68.3079 39.8742C67.9965 40.1307 67.693 40.4043 67.3894 40.6864C67.0625 40.9942 66.7279 41.3105 66.3854 41.6354C65.9729 42.0372 65.5759 42.4903 65.2101 42.952C65.1712 42.9861 65.1323 43.0203 65.0778 43.0631C65.07 43.0545 65.0622 43.0374 65.0466 43.0203ZM54.9905 46.4401C54.8348 46.1066 54.757 45.7561 54.7492 45.3885C54.7336 45.0209 54.7959 44.6704 54.9127 44.3455C54.9905 44.0805 55.1695 43.8496 55.3952 43.7214C55.6599 44.0719 55.9712 44.4139 56.2358 44.7729C56.3137 44.8413 56.3759 44.9183 56.4304 45.038C56.4693 45.1064 56.516 45.1406 56.5627 45.0978C56.5783 45.0978 56.5939 45.1064 56.6172 45.1149C56.625 45.0978 56.625 45.0807 56.6484 45.0722C56.6484 45.0636 56.6639 45.0551 56.6639 45.038C56.6561 45.0209 56.6717 44.9952 56.6717 44.9867C56.625 44.9012 56.6017 44.8499 56.5705 44.7729C56.4616 44.6276 56.3526 44.4994 56.2514 44.3882C56.0179 44.1147 55.7766 43.824 55.5665 43.5419C55.4964 43.4393 55.4186 43.3196 55.3641 43.217C55.3719 43.1742 55.3485 43.14 55.333 43.1229C55.3252 43.0802 55.3096 43.0545 55.3174 43.0289C55.3096 42.9947 55.2863 42.9605 55.2707 42.9348C55.2629 42.8836 55.2474 42.8323 55.2318 42.781C55.2396 42.7468 55.2084 42.704 55.2162 42.6955C55.2007 42.6698 55.2006 42.6527 55.2084 42.6356C55.1773 42.5758 55.1773 42.5245 55.1851 42.4646C55.1695 42.2937 55.1462 42.1227 55.1462 41.9688C55.1462 41.9688 55.154 41.9602 55.1617 41.9602C55.1695 41.9346 55.1617 41.9089 55.1617 41.8918C55.154 41.8576 55.1462 41.8234 55.1384 41.7892C55.1384 41.7807 55.1462 41.7722 55.1539 41.7722C55.1617 41.7551 55.1617 41.7294 55.1773 41.7123C55.1851 41.6867 55.1773 41.661 55.1773 41.6439C55.1695 41.6012 55.1462 41.5413 55.1773 41.49C55.1773 40.7804 55.2785 40.105 55.4497 39.4296C55.6599 38.4465 56.0413 37.5574 56.5783 36.7879C56.9753 36.2322 57.4734 35.8048 58.0416 35.4884C58.4852 35.2405 58.9756 35.0439 59.4815 34.9156C59.9485 34.7617 60.47 34.6934 60.9681 34.7105C61.1082 34.6934 61.2328 34.6763 61.3729 34.6592C61.8399 34.5993 61.8399 34.625 62.089 34.206C62.3225 33.7871 62.7194 33.163 62.9685 32.6073C63.2565 32.0516 63.6768 31.1882 64.0893 30.5042C64.2683 30.1451 64.5018 29.8203 64.7509 29.5296C64.7664 29.521 64.782 29.5125 64.7976 29.4869C64.8287 29.4698 64.8598 29.4783 64.891 29.5296C64.9299 29.5723 64.9532 29.4869 64.9999 29.521C65.2568 29.6151 65.4981 29.7861 65.6927 29.9827C65.6849 30.0084 65.6849 30.034 65.6849 30.0511C65.5604 30.1537 65.4436 30.2392 65.3035 30.3332C65.2412 30.3674 65.1945 30.4358 65.1945 30.5384C65.1712 30.6239 65.1945 30.7094 65.2334 30.7863C65.3191 30.9744 65.4047 31.1711 65.5136 31.3762C65.6538 31.6071 65.7705 31.8379 65.8328 32.0944C65.8561 32.1542 65.8483 32.197 65.8483 32.2568C65.8483 32.3167 65.825 32.368 65.7939 32.4107C65.6538 32.5475 65.5292 32.6757 65.4125 32.8382C65.3658 32.8638 65.3424 32.9066 65.3191 32.9664C65.3035 33.0092 65.2957 33.0775 65.2879 33.1374C65.3035 33.1972 65.3113 33.2571 65.3346 33.3169C65.358 33.3682 65.3969 33.4281 65.4436 33.4794C65.5292 33.6076 65.6304 33.7358 65.716 33.8641C65.7316 33.8726 65.7549 33.9068 65.7549 33.9068C65.7705 33.9325 65.7705 33.9496 65.7783 33.9667C65.7705 33.9923 65.7783 34.018 65.7705 34.0265C65.7549 34.0522 65.7549 34.0693 65.7394 34.0949C65.6382 34.1804 65.5448 34.2659 65.428 34.3514C65.2334 34.4711 65.0311 34.5908 64.8209 34.7105C64.6497 34.7959 64.5096 34.9156 64.4006 35.0866C64.3539 35.1379 64.3384 35.1978 64.3384 35.2747C64.3228 35.3431 64.3384 35.42 64.3539 35.497C64.4006 35.6423 64.4551 35.7962 64.5174 35.9415C64.6808 36.3519 64.8131 36.7623 64.8988 37.1812C65.0622 37.8737 65.1712 38.5833 65.2101 39.2758C65.2724 39.8058 65.2802 40.3273 65.2179 40.8403C65.1478 41.2677 65.0778 41.7209 64.9922 42.1398C64.7353 43.3367 64.2605 44.4566 63.5756 45.4227C63.3032 45.8074 62.984 46.1579 62.626 46.4315C62.0812 46.859 61.4741 47.1325 60.8125 47.3121C59.8707 47.3805 58.9211 47.2779 58.0105 46.9701C57.8003 46.9103 57.6135 46.8248 57.4267 46.7307C57.4111 46.7735 57.3956 46.8162 57.3722 46.8504C57.2243 46.8333 57.0765 46.8077 56.913 46.7735C56.7028 46.7478 56.4849 46.6281 56.3215 46.4401C56.2592 46.3802 56.2047 46.3033 56.1502 46.2007C55.8856 45.8758 55.7144 45.474 55.6287 45.0465C55.5976 44.867 55.5665 44.6704 55.5276 44.4737C55.5276 44.4566 55.5276 44.4395 55.5198 44.4224C55.5198 44.3968 55.512 44.3626 55.4886 44.3455C55.4809 44.3455 55.4653 44.3198 55.4419 44.3198C55.4186 44.3027 55.403 44.3027 55.3875 44.2942C55.3563 44.3711 55.3252 44.4395 55.3018 44.5165C55.2707 44.7216 55.2473 44.9268 55.2473 45.1406C55.1929 45.9185 55.4186 46.7051 55.8778 47.3121C55.9868 47.4574 56.1113 47.5771 56.2748 47.654C56.4226 47.7224 56.5939 47.7481 56.7651 47.7224C57.0609 47.654 57.3489 47.5942 57.6446 47.5515C57.8314 47.5087 58.0105 47.466 58.1973 47.389C58.2751 47.3805 58.3607 47.3634 58.4308 47.389C58.5008 47.389 58.5864 47.4318 58.6487 47.4916C58.6253 47.5087 58.5942 47.5344 58.5553 47.5429C58.1661 47.654 57.7692 47.7908 57.3956 47.9704C57.0531 48.1328 56.7028 48.2952 56.3682 48.4662C56.3215 48.4833 56.2748 48.4833 56.2281 48.4748C56.1814 48.4662 56.1502 48.432 56.1035 48.3893C56.049 48.2952 55.9323 48.2012 55.8622 48.0901C55.5198 47.5771 55.2162 47.0214 54.9905 46.4401ZM49.1063 43.9009C48.6548 43.7214 48.7015 43.6701 48.7949 43.1999C48.8805 42.7468 48.9895 42.533 49.0985 42.174C49.1919 41.9517 49.2853 41.738 49.3787 41.5242C49.3865 41.5242 49.3865 41.5157 49.3865 41.4986C49.402 41.4815 49.3942 41.4729 49.3787 41.4558C49.3709 41.4473 49.3709 41.4387 49.3709 41.4302C49.2464 41.5755 49.1296 41.7123 49.0284 41.8491C48.9973 41.7807 48.9973 41.7123 49.0051 41.6354C49.1218 41.2592 49.223 40.8574 49.332 40.4641C49.4799 39.8229 49.6744 39.1903 49.8924 38.6004C50.0792 38.0874 50.2815 37.5745 50.4917 37.0701C50.4995 37.0786 50.5073 37.0615 50.515 37.0444C50.6084 36.7708 50.7563 36.5058 50.9431 36.3006C51.0599 36.1895 51.2078 36.1211 51.3557 36.0783C51.8304 36.0014 52.3208 36.0356 52.7956 36.1467C53.465 36.2921 54.0954 36.6511 54.6247 37.1384C54.6636 37.1983 54.7181 37.2581 54.7648 37.3265C54.1499 38.6346 53.426 39.8999 52.601 41.0882C52.5076 41.054 52.4687 41.0113 52.4064 40.9856C52.6555 40.5325 52.9123 40.0879 53.1614 39.6434C53.1692 39.6006 53.1692 39.5579 53.1692 39.5237C53.3249 39.1817 53.4883 38.8483 53.644 38.5234C53.8074 38.2242 53.9709 37.9164 54.1265 37.6172C54.2355 37.4548 54.2589 37.318 54.0254 37.1128C53.9475 37.0359 53.8853 36.9675 53.823 36.9076C53.4961 36.7024 53.1458 36.5314 52.7956 36.4545C52.7722 36.4374 52.7411 36.4203 52.71 36.4203C52.1184 36.275 51.5347 36.3776 50.9665 36.4716C50.9353 36.4973 50.9042 36.5229 50.8731 36.5485C50.8809 36.5827 50.8964 36.6084 50.912 36.6169C51.1377 36.6169 51.3557 36.6682 51.5736 36.7708C51.6047 36.7879 51.6436 36.805 51.6748 36.8136C51.7137 36.8478 51.7526 36.882 51.7915 36.8991C51.8149 36.8991 51.8304 36.9076 51.846 36.9162C51.8849 36.9333 51.9161 36.9675 51.9394 36.9931C52.1729 37.1726 52.3675 37.4035 52.4687 37.6941C52.5776 37.9506 52.6243 38.2328 52.5699 38.5063C52.492 38.874 52.3831 39.233 52.2663 39.5921C52.1262 39.9512 51.9705 40.276 51.7993 40.6437C51.737 40.6009 51.6592 40.5667 51.5892 40.524C51.5113 40.4898 51.4335 40.4556 51.3712 40.4299C51.3245 40.4043 51.2856 40.4043 51.2856 40.4385C51.2778 40.4385 51.27 40.4385 51.27 40.447C51.2623 40.447 51.2623 40.447 51.27 40.4641C51.2778 40.4898 51.27 40.5069 51.2856 40.5325C51.3245 40.5582 51.3712 40.5838 51.4179 40.618C51.488 40.6693 51.558 40.712 51.6436 40.7633C52.3364 41.1566 52.998 41.5926 53.6206 42.0885C54.0798 42.4133 54.5079 42.7724 54.9516 43.0973C55.0294 43.1571 55.0839 43.2084 55.1306 43.2683C55.1695 43.3196 55.2007 43.4051 55.2396 43.482C54.9127 43.747 54.6947 44.1403 54.6091 44.5849C54.6091 44.6447 54.6013 44.696 54.5935 44.7473C54.6013 44.7815 54.5935 44.79 54.5935 44.8157C54.578 44.8328 54.578 44.867 54.5858 44.9012C54.5702 45.0294 54.5624 45.1577 54.5546 45.2859C54.5624 45.3201 54.5702 45.3543 54.5702 45.3799C54.5858 45.4227 54.5935 45.4654 54.5935 45.5167C54.6558 45.739 54.6947 45.9784 54.7336 46.2092C54.757 46.3118 54.7881 46.3973 54.8115 46.4828C54.7726 46.4657 54.7492 46.4571 54.7259 46.4315C54.1343 46.0895 53.5428 45.816 52.9357 45.5509C52.1184 45.1833 51.309 44.8157 50.4995 44.4737C50.0403 44.2771 49.5733 44.089 49.1063 43.9009ZM43.868 43.4393C43.6579 42.439 43.2843 41.49 42.7861 40.6095C42.755 40.5582 42.7317 40.5069 42.7239 40.4385C42.7784 40.4556 42.8562 40.4556 42.9185 40.4641C43.5567 40.5325 44.2027 40.6095 44.8487 40.6864C45.9851 40.8574 47.0981 41.0882 48.2345 41.3874C48.2423 41.3789 48.2579 41.3789 48.2579 41.3789C48.2579 41.3789 48.2734 41.3874 48.2812 41.396C48.3046 41.4045 48.3357 41.4131 48.3746 41.4387C48.3824 41.4302 48.398 41.4473 48.398 41.4644C48.4602 41.4815 48.5303 41.5071 48.5848 41.5328C48.6159 41.5413 48.647 41.5328 48.6626 41.5242C48.7093 41.5499 48.7404 41.5499 48.7638 41.5413C48.7638 41.7465 48.756 41.7722 48.5925 41.7551C48.4447 41.7465 47.931 41.7209 47.5963 41.6867C47.4173 41.6696 47.246 41.6525 47.0592 41.6268C46.9191 41.6183 46.8802 41.7038 46.958 41.8491C46.9736 41.8833 46.9892 41.9175 47.0047 41.9688C47.0437 42.0714 47.0514 42.1483 47.0514 42.2595C47.0437 42.3535 47.0203 42.439 46.9736 42.5159C46.8802 42.6784 46.7479 42.7981 46.5844 42.875C46.1019 43.0374 45.5959 43.1058 45.0822 43.046C44.9032 43.0289 44.7164 43.0203 44.5374 43.0032C44.4985 43.0289 44.444 43.046 44.4051 43.046C44.4362 43.0973 44.4596 43.1315 44.4829 43.1486C44.7242 43.217 44.9733 43.2939 45.2223 43.3709C45.736 43.5333 46.2497 43.6701 46.7712 43.8411C47.3083 44.0463 47.8843 44.2172 48.4447 44.3284C48.6237 44.3882 48.8105 44.4566 48.9895 44.4737C49.2619 44.5507 49.5499 44.5849 49.8457 44.602C49.9936 44.602 50.1414 44.6533 50.266 44.7558C50.2582 45.0465 50.1492 45.1491 49.8768 45.1406C49.7211 45.1235 49.5655 45.1235 49.4098 45.1149C48.5614 45.0551 47.7208 44.9183 46.888 44.696C46.6778 44.6362 46.4677 44.5849 46.2731 44.525C45.8684 44.3968 45.4714 44.2514 45.0745 44.1061C44.7164 43.9864 44.374 43.8325 44.0003 43.6957C43.6345 43.5589 43.9069 43.5247 43.868 43.4393ZM45.269 54.5533C45.2379 54.4593 45.2301 54.3994 45.308 54.3567C45.4169 54.2712 45.5337 54.1686 45.666 54.0746C45.7594 54.4251 45.8684 54.7414 45.954 55.0748C46.0474 55.4082 46.0552 55.4852 46.0941 55.6904C46.133 55.887 46.0941 55.9126 45.9695 55.981C45.8917 56.0152 45.8217 56.058 45.7438 56.1093C45.6893 56.1435 45.6349 56.1862 45.5804 56.229C45.557 56.0494 45.5337 55.8699 45.5103 55.6989C45.4091 55.2885 45.3391 54.9209 45.269 54.5533ZM40.8092 48.4235C40.8948 48.4491 40.9726 48.4577 41.0504 48.4748C41.0971 48.5004 41.1516 48.5261 41.2061 48.5432C41.245 48.5432 41.2762 48.5261 41.3151 48.509C41.712 48.5175 42.1168 48.509 42.5059 48.5004C42.5449 48.5004 42.5604 48.509 42.5916 48.5432C42.6149 48.5432 42.6383 48.5774 42.6538 48.6116C42.8484 48.8937 43.043 49.1844 43.2454 49.4579C43.4322 49.7315 43.8602 50.3984 44.1249 50.8515C44.6853 51.7919 45.1289 52.7751 45.7672 53.6727C45.5259 53.8608 45.3002 54.0489 45.0667 54.2284C43.7746 52.1595 42.3425 50.2445 40.8092 48.4235ZM40.3811 45.9613C40.4044 44.8413 40.5523 43.7556 40.8092 42.7126C40.9259 42.2338 41.0894 41.7722 41.2917 41.3447C41.3306 41.2848 41.3773 41.225 41.4163 41.1737C41.5252 41.0027 41.6575 40.8488 41.821 40.7291C42.0078 40.6607 42.2024 40.6009 42.3814 40.5069C42.4359 40.5069 42.4826 40.4983 42.5293 40.4812C42.646 40.7462 42.7861 41.0027 42.8951 41.2421C43.1831 41.8833 43.401 42.5501 43.5723 43.2512C43.7124 43.8325 43.7902 44.4481 43.7746 45.0551C43.7746 45.8758 43.6734 46.688 43.4789 47.4745C43.4244 47.654 43.3777 47.825 43.331 48.0131C43.2921 48.0473 43.2609 48.0986 43.222 48.1414C42.9885 48.2268 42.7394 48.2439 42.4904 48.2525C42.467 48.2354 42.4515 48.2268 42.4437 48.2183C42.4203 48.2098 42.397 48.2012 42.3814 48.2012C42.3503 48.2354 42.3036 48.261 42.2647 48.2952C41.93 48.2867 41.5875 48.2867 41.2372 48.2781C41.0427 48.2439 40.8481 48.2098 40.6457 48.167C40.599 48.167 40.5367 48.1414 40.49 48.073C40.4667 48.0302 40.4278 47.9704 40.4278 47.8849C40.4122 47.7652 40.3811 47.6199 40.3655 47.466C40.3499 46.9359 40.3422 46.4571 40.3811 45.9613ZM36.7307 44.1147C36.7073 44.0805 36.6917 44.0634 36.6762 44.0292C36.6762 44.0206 36.6684 44.0035 36.6606 43.995C36.396 43.1828 36.0379 42.3962 35.641 41.661C35.4542 41.3276 35.2285 41.0027 34.9872 40.7206C34.9483 40.6864 34.9249 40.6607 34.9093 40.6265C34.8938 40.6095 34.886 40.5667 34.8782 40.5411C34.8938 40.5154 34.9093 40.4983 34.9483 40.5069C34.9794 40.5069 35.0105 40.5154 35.065 40.524C35.1273 40.5325 35.1895 40.5411 35.2362 40.5667C35.5009 40.6693 35.7733 40.712 36.0146 40.789C36.2481 40.8574 36.0535 40.789 36.0691 40.8061C36.6606 41.0284 37.2677 41.225 37.8359 41.4815C38.7621 41.9089 39.665 42.3877 40.5445 42.9178C40.4978 42.952 40.4511 42.9947 40.4044 43.0203C40.3499 43.0203 40.2877 43.0118 40.2254 42.9947C39.9763 42.9263 39.735 42.8665 39.4938 42.8066C39.4626 42.7895 39.4159 42.7724 39.3692 42.7639C39.3459 42.7639 39.2992 42.7639 39.268 42.7639C39.2525 42.7724 39.2369 42.781 39.2213 42.7981C39.2525 42.8323 39.2447 42.8579 39.2525 42.9007C39.268 42.9434 39.2836 42.9861 39.2758 43.0203C39.3303 43.2341 39.307 43.4564 39.2213 43.6444C39.1357 43.8582 38.9801 43.995 38.801 44.0463C38.6065 44.0976 38.4041 44.0976 38.2017 44.0548C37.797 43.9608 37.4156 43.7983 37.0342 43.5931C37.0031 43.5675 36.9875 43.5504 36.9719 43.5504C36.8863 43.5333 36.7929 43.4991 36.6995 43.482C36.6762 43.5419 36.6762 43.576 36.6995 43.6102C36.6995 43.6102 36.6995 43.6017 36.6995 43.5931C36.7073 43.6102 36.7151 43.6188 36.7229 43.6273C36.7384 43.653 36.7462 43.6701 36.7618 43.6957C36.8241 43.7043 36.8785 43.747 36.9252 43.7727C37.4 44.1488 37.8904 44.4652 38.3963 44.7558C38.9645 45.1235 39.5327 45.4825 40.1009 45.8587C40.0931 46.0553 40.0775 46.2434 40.0697 46.4315C39.9919 46.3973 39.9841 46.3973 39.9452 46.3375C39.6494 46.1237 39.3459 45.9014 39.0423 45.6706C38.801 45.4996 38.5598 45.3372 38.3574 45.1662C38.1395 44.9867 38.1628 45.0294 38.0616 44.9696C38.0149 44.9268 37.9604 44.8841 37.9137 44.8499C37.8515 44.8071 37.797 44.7558 37.7581 44.7302C37.7191 44.7131 37.6958 44.6875 37.6647 44.6447C37.6491 44.6276 37.0653 44.2685 36.7618 44.0719C36.4582 43.8924 36.7151 44.1488 36.7307 44.1147ZM40.5834 57.0924C40.5523 56.9984 40.5212 56.8958 40.49 56.7761C40.4044 56.5111 40.311 56.229 40.2098 55.9468C40.202 55.9468 40.2021 55.9297 40.1943 55.9212C40.1943 55.9041 40.1943 55.9041 40.1943 55.887C40.3344 55.7844 40.4667 55.6904 40.599 55.5792C40.8714 56.4256 41.0894 57.2292 41.3151 58.0585C41.2684 58.0927 41.2528 58.1184 41.2217 58.1355C41.1361 58.1782 41.0582 58.2209 40.9648 58.2551C40.9493 58.2722 40.9259 58.2893 40.9103 58.2893C40.7625 57.8277 40.6691 57.4601 40.5834 57.0924ZM34.7225 49.381C34.7303 49.3725 34.7381 49.3725 34.7459 49.3725C34.8082 49.3895 34.8938 49.4066 34.9716 49.4237C35.0183 49.4323 35.0572 49.4408 35.0806 49.4408C35.3452 49.4836 35.6021 49.5092 35.8745 49.5349C36.2403 49.552 36.5672 49.4921 36.933 49.5007C36.9564 49.475 37.0109 49.4921 37.0498 49.5092C37.0887 49.5178 37.1354 49.5349 37.1665 49.5947C37.2288 49.7144 37.3066 49.817 37.3767 49.9111C37.6724 50.3556 37.9526 50.8002 38.2251 51.2618C38.552 51.7833 38.8555 52.2963 39.1824 52.8178C39.3692 53.1341 39.5949 53.4505 39.774 53.8181C40.0075 54.2883 40.2721 54.7157 40.5523 55.109C40.5757 55.1261 40.5757 55.1432 40.5912 55.1689C40.5912 55.1774 40.599 55.2116 40.5912 55.2202C40.599 55.2543 40.599 55.2629 40.5834 55.2885C40.5757 55.2885 40.5679 55.2971 40.5523 55.3142C40.3422 55.4766 40.132 55.6391 39.9296 55.7844C39.8518 55.8699 39.7973 55.8272 39.7273 55.7417C39.665 55.6562 39.4315 55.3826 39.2836 55.186C38.6142 54.2626 37.9604 53.2966 37.2677 52.3732C36.5516 51.4756 35.7733 50.5352 34.9716 49.6802C34.9716 49.6631 34.956 49.646 34.9327 49.646C34.886 49.5605 34.8082 49.4836 34.7381 49.3981C34.7381 49.3981 34.7303 49.3981 34.7225 49.381ZM33.3994 45.9613C33.2203 44.1147 33.3916 42.3022 33.9131 40.6009C33.9364 40.4556 33.9987 40.3273 34.0999 40.2504C34.1388 40.2846 34.1699 40.3102 34.1933 40.3273C34.2322 40.3102 34.2789 40.3188 34.3256 40.3359C34.3645 40.3359 34.3879 40.353 34.4112 40.4043C34.4268 40.4214 34.4423 40.447 34.4657 40.4812C34.7615 40.7548 35.0339 41.0968 35.2362 41.4387C35.3452 41.6183 35.4464 41.8063 35.532 42.0115C35.6254 42.1996 35.9056 42.6613 36.0535 43.0032C36.3648 43.7299 36.645 44.4994 36.863 45.2688C37.1899 46.4315 37.4312 47.6284 37.579 48.8167C37.5868 48.9535 37.5868 49.0818 37.6102 49.21C37.5557 49.2015 37.5012 49.2015 37.4545 49.21C37.1043 49.2357 36.7618 49.2528 36.4115 49.2784C36.287 49.2784 36.1547 49.287 36.0068 49.2955C35.5476 49.2699 35.0806 49.1929 34.6214 49.0561C34.4735 49.0219 34.3178 48.9877 34.1621 48.9535C34.0532 48.9279 33.952 48.868 33.8742 48.774C33.8041 48.6885 33.7574 48.5603 33.7341 48.4149C33.7341 48.4149 33.7263 48.3636 33.7185 48.3551C33.555 47.5429 33.4461 46.7478 33.3994 45.9613ZM26.5967 43.4222C26.5266 43.3709 26.4644 43.3281 26.4332 43.2854C28.8149 42.704 31.1188 42.0372 33.4616 41.3361C33.4538 41.3361 33.4461 41.3532 33.4383 41.3618C33.4305 41.3789 33.4227 41.396 33.4149 41.4045C33.4227 41.4302 33.4305 41.4473 33.4227 41.4644C33.4149 41.4986 33.4071 41.5157 33.3994 41.5328C33.376 41.5841 33.3527 41.6354 33.3215 41.6696C33.3293 41.7123 33.3215 41.7465 33.3293 41.7722C33.3215 41.7807 33.3137 41.7892 33.306 41.7892C33.3137 41.8405 33.306 41.8491 33.267 41.8662C33.2359 41.9004 33.2048 41.926 33.1659 41.9431C32.7845 42.0885 32.4031 42.2167 32.0139 42.3364C31.7415 42.4561 31.7026 42.533 31.7571 42.875C31.8038 43.1571 31.8038 43.4649 31.7649 43.747C31.7104 44.0377 31.5781 44.2856 31.4068 44.5079C31.1889 44.7302 30.9165 44.8926 30.6207 44.9696C30.2237 45.0978 29.8034 45.1662 29.3753 45.1406C29.3131 45.1491 29.2508 45.1577 29.1808 45.1577C29.2197 45.3201 29.3131 45.3201 29.3831 45.3372C29.7412 45.3885 30.107 45.4483 30.4728 45.4996C31.0332 45.568 31.5936 45.6535 32.154 45.7305C32.4731 45.7818 32.8 45.8416 33.1269 45.9014C33.1269 46.0126 33.1425 46.1323 33.1503 46.252C32.5977 46.1494 32.0528 46.0553 31.508 45.9527C31.0254 45.8673 30.5506 45.7903 30.0759 45.7134C29.8579 45.6706 29.6322 45.645 29.4298 45.6108C29.2197 45.5851 29.0095 45.568 28.7916 45.5338C28.706 45.5509 28.6126 45.5766 28.5114 45.4312C28.4024 45.2603 28.2857 45.0978 28.1534 44.9439C27.6786 44.3711 27.1571 43.8582 26.5967 43.4222ZM33.4928 58.5287C33.485 58.4945 33.4772 58.4518 33.4772 58.4261C33.485 58.3919 33.485 58.4945 33.4928 58.5287ZM32.909 56.7676C32.8934 56.6821 32.8857 56.5795 32.9946 56.6137C33.1114 56.6479 33.2593 56.6137 33.306 56.8189C33.306 56.8189 33.3137 56.836 33.3137 56.8531C33.3215 56.8616 33.3215 56.8787 33.3215 56.8873C33.4227 57.3318 33.485 57.8106 33.4772 58.2722C33.4694 58.2893 33.4772 58.3064 33.4694 58.3235C33.4772 58.2979 33.4616 58.2722 33.4772 58.2722C33.4928 58.2466 33.4227 58.1184 33.4149 58.0585C33.4227 58.0158 33.306 57.366 33.2748 57.024C33.2359 56.6821 33.267 56.9557 33.2515 56.9044C33.2515 56.8616 33.197 56.6821 33.0413 56.7419C33.0569 56.8787 33.0725 57.024 33.088 57.1694C33.1269 57.366 33.1581 57.5627 33.1892 57.7336C33.2593 58.0414 33.2982 58.3235 33.376 58.6399C33.4071 58.6142 33.4305 58.58 33.4694 58.5629C33.4694 58.5715 33.4694 58.5886 33.4694 58.5971C33.4772 58.6142 33.4772 58.6142 33.4772 58.6313C33.485 58.6484 33.485 58.6484 33.4772 58.6484C33.4772 58.751 33.4227 58.751 33.2748 58.7425C33.2281 58.7425 33.1736 58.7425 33.1347 58.751C33.1269 58.7595 33.1114 58.7595 33.1036 58.7681C33.088 58.6655 33.0725 58.5544 33.0569 58.4518C33.0335 58.0243 32.9946 57.5968 32.9635 57.1523C32.9324 57.024 32.9168 56.9044 32.909 56.7676ZM27.8576 49.9623C27.8576 49.9538 27.8732 49.9367 27.8809 49.9367C27.9821 49.9367 28.0755 49.9453 28.1689 49.9453C28.2701 49.9282 28.3557 49.9025 28.4336 49.8854C28.4569 49.8769 28.4647 49.8683 28.4647 49.8683C28.7527 49.8341 29.0251 49.7999 29.3131 49.7572C29.422 49.7401 29.5388 49.723 29.6478 49.6888C29.7567 49.8512 29.8579 50.0307 29.9513 50.2103C30.2393 50.766 30.5195 51.3046 30.7919 51.8261C30.8775 51.9372 30.932 52.0484 31.0176 52.151C31.3212 52.7067 31.6325 53.2367 31.9205 53.7668C32.2241 54.3225 32.6366 55.1261 32.9635 55.8186C33.0491 55.9554 33.1114 56.1007 33.1581 56.2632C33.1425 56.2717 33.1192 56.2803 33.1036 56.2974C33.018 56.3401 32.9324 56.3743 32.8545 56.417C32.7767 56.4683 32.7456 56.4085 32.6911 56.3487C32.1229 55.5279 31.5469 54.7243 30.9709 53.9292C30.107 52.8264 29.243 51.7235 28.3635 50.6377C28.2001 50.4326 28.0288 50.1932 27.8576 49.9623ZM25.8573 44.2001C25.8884 43.9095 25.9429 43.6359 26.0207 43.3709C26.0596 43.388 26.083 43.4222 26.0985 43.4393C26.1375 43.4564 26.1842 43.4649 26.2231 43.4991C26.2542 43.4991 26.2542 43.4991 26.262 43.5162C27.1104 44.0719 27.7798 44.867 28.3791 45.7219C28.6359 46.081 28.8461 46.4742 29.1029 46.859C29.422 47.4061 29.6945 48.0131 29.8968 48.6116C29.9825 48.8509 30.0759 49.0561 30.1537 49.2955C30.0681 49.381 29.9358 49.4494 29.7957 49.4494C29.3442 49.5263 28.8772 49.5862 28.418 49.6631C28.0444 49.723 27.6474 49.7315 27.266 49.7315C27.2116 49.723 27.1649 49.7059 27.1259 49.7059C27.017 49.7657 26.908 49.7144 26.7679 49.6973C26.6512 49.6802 26.5733 49.1074 26.4721 48.8338C25.9273 47.3206 25.7172 45.7219 25.8573 44.2001ZM21.8955 41.5157C21.7943 41.2934 21.7165 41.0711 21.5997 40.8574C21.3662 40.4556 21.1483 40.0452 20.8759 39.6519C20.6035 39.1988 20.2688 38.7714 19.8874 38.4123C19.7862 38.3097 19.6772 38.2413 19.5916 38.1644C19.7629 38.1815 19.9497 38.1986 20.1287 38.2499C20.7591 38.3695 21.4052 38.4721 22.0278 38.6431C22.6271 38.797 23.2265 39.0022 23.818 39.1988C24.6353 39.5151 25.4681 39.8315 26.262 40.1649C26.5111 40.2846 26.7523 40.3957 27.0014 40.5154C27.0248 40.5496 27.0559 40.5838 27.0715 40.6095C27.1259 40.6693 27.1182 40.7035 27.0948 40.712C27.0792 40.7206 27.0715 40.7377 27.0403 40.7548C26.908 40.8916 26.7368 41.0113 26.6045 41.1566C26.2309 41.567 25.7405 41.8063 25.1801 41.8576C24.5107 41.9517 23.8102 41.8405 23.1408 41.5926C22.9774 41.5413 22.8217 41.49 22.6505 41.4302C22.6116 41.4302 22.5415 41.4045 22.5337 41.5157C22.5882 41.567 22.6661 41.6183 22.7439 41.6525C23.6546 42.3193 24.6119 42.9092 25.5537 43.5247C25.7249 43.6444 25.7405 43.6786 25.6315 43.8582C25.4058 43.7128 25.1723 43.5675 24.9466 43.4222C24.1994 42.9349 23.4366 42.4646 22.6738 42.0115C22.4559 41.8833 22.2224 41.7892 22.02 41.6952C21.7788 41.5841 21.9344 41.5926 21.8955 41.5157ZM26.4021 52.322C26.5188 52.2365 26.6278 52.1595 26.7368 52.074C26.7757 52.1168 26.8146 52.1852 26.8457 52.2536C27.0248 52.6981 27.2038 53.1427 27.375 53.5958C27.4295 53.724 27.4684 53.8437 27.5073 53.9463C27.4295 53.7924 27.375 53.6214 27.2894 53.459C27.2271 53.3222 27.1415 53.1256 27.087 52.9717C27.017 52.7922 26.9236 52.587 26.8457 52.4245C26.7523 52.245 26.7523 52.245 26.7134 52.2365C26.6823 52.2536 26.6278 52.2707 26.5655 52.2963C26.6434 52.4587 26.7134 52.6383 26.7913 52.8007C26.9158 53.0999 27.0403 53.3564 27.1571 53.6214C27.2816 53.8779 27.2038 53.6642 27.2116 53.6727C27.2271 53.6898 27.2349 53.724 27.2116 53.7668C27.2271 53.7924 27.2427 53.8181 27.2505 53.8352C27.2894 53.9036 27.3517 53.972 27.4061 54.0575C27.4139 54.0746 27.4295 54.1002 27.4451 54.1173C27.4918 54.2113 27.5307 54.2028 27.5774 54.1429C27.6163 54.1002 27.6474 54.3396 27.5385 54.3909C27.5151 54.3909 27.4918 54.3909 27.4451 54.3994C27.3984 54.408 27.3594 54.4251 27.305 54.4593C27.0403 53.7326 26.729 53.0144 26.4021 52.322ZM20.2688 46.4743C20.2766 46.4743 20.2843 46.4742 20.2921 46.4486C20.4322 46.4913 20.5723 46.5341 20.7046 46.5683C20.7513 46.5597 20.8136 46.5597 20.8681 46.5512C20.8759 46.5512 20.8837 46.5512 20.8914 46.5512C21.4441 46.6196 22.02 46.611 22.5727 46.5683C22.6194 46.5683 22.6738 46.5683 22.6972 46.5768C22.7595 46.611 22.8062 46.6452 22.8451 46.6794C23.1253 47.0043 23.3977 47.3463 23.6701 47.6882C23.9348 48.0388 24.2461 48.4491 24.5496 48.8253C24.8532 49.2015 25.1879 49.6118 25.4837 50.0307C25.7716 50.4411 26.1997 51.0738 26.5811 51.5782C26.6434 51.6466 26.6979 51.7235 26.7679 51.8004C26.5967 51.9543 26.4021 52.0911 26.2075 52.1766C26.0674 52.3049 26.0596 52.3049 25.9195 52.151C25.8573 52.1082 25.8106 52.0398 25.7561 51.98C25.3513 51.5012 24.9388 51.0225 24.5107 50.5523C23.8258 49.8085 23.1175 49.0561 22.3703 48.338C21.6231 47.637 21.0393 47.1496 20.3622 46.5939C20.331 46.5426 20.2999 46.5084 20.2688 46.4743ZM19.1869 45.7903C19.1713 45.7903 19.1635 45.7818 19.1558 45.7732C19.1402 45.7305 19.1246 45.7048 19.1013 45.6706C19.0624 45.5766 19.039 45.474 19.0001 45.3714C18.9845 45.3457 18.969 45.3115 18.9612 45.2859C18.8366 44.8328 18.7277 44.3797 18.5876 43.918C18.2529 42.6014 18.175 41.2421 18.4008 39.9255C18.4708 39.4297 18.6187 38.9167 18.751 38.4208C18.7744 38.3268 18.8133 38.2413 18.86 38.1729C18.8755 38.096 18.93 38.1131 18.9845 38.1387C19.0468 38.1815 19.1791 38.19 19.2492 38.2157C19.4827 38.3866 19.6928 38.5576 19.8874 38.7543C20.0664 38.9509 20.2454 39.1732 20.3855 39.3955C20.6813 39.7973 20.9459 40.2162 21.195 40.6437C21.5686 41.3276 21.9111 42.0628 22.1757 42.8066C22.4793 43.5846 22.7361 44.3626 22.954 45.1662C23.0397 45.5167 23.1175 45.8929 23.2187 46.2776C23.1253 46.2862 23.0163 46.2862 22.9151 46.2862C22.1835 46.3717 21.4207 46.3631 20.6502 46.252C20.2376 46.2007 19.8563 46.1066 19.4671 46.0468C19.4048 46.0297 19.3348 45.9955 19.2803 45.9442C19.2414 45.91 19.2025 45.8502 19.1869 45.7903Z" fill="#FFEC8A"/>
</svg>
