<svg width="15" height="14" viewBox="0 0 15 14" fill="none" xmlns="http://www.w3.org/2000/svg">
<path d="M13.4692 7.45662C13.3582 7.33029 13.297 7.16787 13.297 6.9997C13.297 6.83154 13.3582 6.66912 13.4692 6.54278L14.3553 5.54586C14.453 5.43693 14.5136 5.29988 14.5285 5.15436C14.5434 5.00884 14.5119 4.86233 14.4384 4.73586L13.0538 2.34047C12.981 2.21414 12.8702 2.114 12.7372 2.05433C12.6042 1.99466 12.4557 1.9785 12.313 2.00816L11.0115 2.27124C10.8459 2.30546 10.6734 2.27788 10.5268 2.1937C10.3801 2.10953 10.2693 1.97458 10.2153 1.81432L9.793 0.547394C9.74656 0.409888 9.65808 0.290455 9.54006 0.205977C9.42204 0.1215 9.28045 0.0762505 9.13531 0.0766251H6.36608C6.21511 0.0687452 6.06571 0.110497 5.9407 0.195504C5.81569 0.280511 5.72194 0.4041 5.67377 0.547394L5.28608 1.81432C5.23208 1.97458 5.12129 2.10953 4.97462 2.1937C4.82795 2.27788 4.65554 2.30546 4.48993 2.27124L3.15377 2.00816C3.01846 1.98904 2.88052 2.01039 2.75732 2.06953C2.63412 2.12866 2.53118 2.22294 2.46147 2.34047L1.07685 4.73586C1.0015 4.86092 0.96762 5.00661 0.980055 5.15209C0.992489 5.29757 1.0506 5.43539 1.14608 5.54586L2.02531 6.54278C2.1363 6.66912 2.19751 6.83154 2.19751 6.9997C2.19751 7.16787 2.1363 7.33029 2.02531 7.45662L1.14608 8.45355C1.0506 8.56401 0.992489 8.70184 0.980055 8.84732C0.96762 8.9928 1.0015 9.13848 1.07685 9.26355L2.46147 11.6589C2.53423 11.7853 2.64501 11.8854 2.77803 11.9451C2.91104 12.0047 3.0595 12.0209 3.20224 11.9912L4.50377 11.7282C4.66939 11.6939 4.8418 11.7215 4.98847 11.8057C5.13514 11.8899 5.24593 12.0248 5.29993 12.1851L5.72224 13.452C5.77041 13.5953 5.86416 13.7189 5.98917 13.8039C6.11418 13.8889 6.26357 13.9307 6.41454 13.9228H9.18377C9.32891 13.9232 9.4705 13.8779 9.58852 13.7934C9.70654 13.709 9.79502 13.5895 9.84147 13.452L10.2638 12.1851C10.3178 12.0248 10.4286 11.8899 10.5752 11.8057C10.7219 11.7215 10.8943 11.6939 11.0599 11.7282L12.3615 11.9912C12.5042 12.0209 12.6527 12.0047 12.7857 11.9451C12.9187 11.8854 13.0295 11.7853 13.1022 11.6589L14.4869 9.26355C14.5604 9.13707 14.5919 8.99056 14.577 8.84504C14.5621 8.69952 14.5014 8.56247 14.4038 8.45355L13.4692 7.45662ZM12.4376 8.38432L12.9915 9.00739L12.1053 10.5443L11.2884 10.3782C10.7898 10.2762 10.2711 10.3609 9.8308 10.6162C9.39051 10.8714 9.05926 11.2794 8.89993 11.7628L8.63685 12.5382H6.86454L6.61531 11.7489C6.45598 11.2656 6.12473 10.8576 5.68444 10.6023C5.24415 10.3471 4.72547 10.2624 4.22685 10.3643L3.40993 10.5305L2.50993 9.00047L3.06377 8.37739C3.40436 7.99661 3.59265 7.50366 3.59265 6.99278C3.59265 6.4819 3.40436 5.98895 3.06377 5.60816L2.50993 4.98509L3.39608 3.46201L4.21301 3.62816C4.71162 3.73009 5.2303 3.64539 5.67059 3.39015C6.11088 3.13491 6.44214 2.72689 6.60147 2.24355L6.86454 1.46124H8.63685L8.89993 2.25047C9.05926 2.73381 9.39051 3.14183 9.8308 3.39707C10.2711 3.65231 10.7898 3.73701 11.2884 3.63509L12.1053 3.46893L12.9915 5.00586L12.4376 5.62893C12.1009 6.00884 11.9149 6.49894 11.9149 7.00663C11.9149 7.51431 12.1009 8.00441 12.4376 8.38432ZM7.7507 4.23047C7.203 4.23047 6.66759 4.39288 6.21219 4.69717C5.7568 5.00146 5.40186 5.43395 5.19226 5.93996C4.98267 6.44597 4.92783 7.00277 5.03468 7.53995C5.14153 8.07713 5.40527 8.57056 5.79256 8.95784C6.17984 9.34513 6.67327 9.60887 7.21045 9.71572C7.74763 9.82257 8.30443 9.76773 8.81044 9.55814C9.31645 9.34854 9.74894 8.9936 10.0532 8.5382C10.3575 8.08281 10.5199 7.5474 10.5199 6.9997C10.5199 6.26526 10.2282 5.56089 9.70884 5.04156C9.18951 4.52223 8.48514 4.23047 7.7507 4.23047ZM7.7507 8.38432C7.47685 8.38432 7.20915 8.30311 6.98145 8.15097C6.75375 7.99882 6.57628 7.78258 6.47148 7.52957C6.36668 7.27657 6.33926 6.99817 6.39269 6.72958C6.44611 6.46099 6.57798 6.21427 6.77163 6.02063C6.96527 5.82699 7.21198 5.69512 7.48057 5.64169C7.74916 5.58827 8.02756 5.61569 8.28057 5.72048C8.53357 5.82528 8.74982 6.00275 8.90196 6.23045C9.05411 6.45815 9.13531 6.72585 9.13531 6.9997C9.13531 7.36693 8.98943 7.71911 8.72977 7.97877C8.4701 8.23844 8.11792 8.38432 7.7507 8.38432Z" fill="#93989A"/>
</svg>
