<svg width="14" height="15" viewBox="0 0 14 15" fill="none" xmlns="http://www.w3.org/2000/svg">
<path d="M11.4796 10.4082C10.9343 10.4082 10.4311 10.5995 10.037 10.919L6.0727 8.05102C6.13908 7.68667 6.13908 7.31333 6.0727 6.94898L10.037 4.08099C10.4311 4.40051 10.9343 4.59184 11.4796 4.59184C12.7462 4.59184 13.7755 3.5625 13.7755 2.29592C13.7755 1.02934 12.7462 0 11.4796 0C10.213 0 9.18367 1.02934 9.18367 2.29592C9.18367 2.51786 9.21429 2.73023 9.2736 2.93304L5.50829 5.65944C4.94962 4.919 4.06186 4.43878 3.06122 4.43878C1.3699 4.43878 0 5.80867 0 7.5C0 9.19133 1.3699 10.5612 3.06122 10.5612C4.06186 10.5612 4.94962 10.081 5.50829 9.34056L9.2736 12.067C9.21429 12.2698 9.18367 12.4841 9.18367 12.7041C9.18367 13.9707 10.213 15 11.4796 15C12.7462 15 13.7755 13.9707 13.7755 12.7041C13.7755 11.4375 12.7462 10.4082 11.4796 10.4082ZM11.4796 1.30102C12.0287 1.30102 12.4745 1.74681 12.4745 2.29592C12.4745 2.84503 12.0287 3.29082 11.4796 3.29082C10.9305 3.29082 10.4847 2.84503 10.4847 2.29592C10.4847 1.74681 10.9305 1.30102 11.4796 1.30102ZM3.06122 9.18367C2.13329 9.18367 1.37755 8.42793 1.37755 7.5C1.37755 6.57207 2.13329 5.81633 3.06122 5.81633C3.98916 5.81633 4.7449 6.57207 4.7449 7.5C4.7449 8.42793 3.98916 9.18367 3.06122 9.18367ZM11.4796 13.699C10.9305 13.699 10.4847 13.2532 10.4847 12.7041C10.4847 12.155 10.9305 11.7092 11.4796 11.7092C12.0287 11.7092 12.4745 12.155 12.4745 12.7041C12.4745 13.2532 12.0287 13.699 11.4796 13.699Z" fill="#0072BA"/>
</svg>
