<svg width="20" height="20" viewBox="0 0 20 20" fill="none" xmlns="http://www.w3.org/2000/svg">
<path d="M4.63852 12.8648C5.3814 12.8626 6.09617 12.5766 6.64041 12.0638L11.9573 15.145C11.7791 15.851 11.8577 16.5984 12.1785 17.2505C12.4993 17.9026 13.041 18.4156 13.7043 18.6958C14.3677 18.9759 15.1083 19.0044 15.7907 18.776C16.473 18.5476 17.0514 18.0776 17.42 17.452C17.7886 16.8264 17.9227 16.0871 17.7978 15.3695C17.6728 14.6518 17.2972 14.0038 16.7397 13.5441C16.1822 13.0843 15.48 12.8436 14.7618 12.866C14.0436 12.8884 13.3574 13.1724 12.8287 13.6659L7.51184 10.5847C7.56789 10.3694 7.59847 10.1463 7.60357 9.92319L12.827 6.8954C13.33 7.3595 13.975 7.63405 14.6539 7.67299C15.3328 7.71194 16.0042 7.51291 16.5556 7.1093C17.1069 6.70569 17.5047 6.12205 17.682 5.45629C17.8594 4.79054 17.8056 4.08318 17.5297 3.45288C17.2538 2.82258 16.7725 2.30769 16.1666 1.99459C15.5608 1.6815 14.8672 1.58924 14.2022 1.7333C13.5372 1.87737 12.9413 2.24898 12.5145 2.78581C12.0877 3.32263 11.8558 3.992 11.8579 4.68162C11.8613 4.9297 11.8944 5.17692 11.9573 5.41639L7.12963 8.21333C6.84967 7.77408 6.46185 7.41624 6.00427 7.17499C5.54669 6.93373 5.0351 6.81736 4.51976 6.8373C4.00442 6.85724 3.50305 7.01281 3.06493 7.28872C2.62681 7.56464 2.267 7.9514 2.02085 8.41102C1.7747 8.87063 1.65069 9.38728 1.66099 9.91021C1.6713 10.4331 1.81556 10.9444 2.07962 11.3936C2.34367 11.8429 2.71843 12.2148 3.16707 12.4727C3.61571 12.7307 4.1228 12.8658 4.63852 12.8648Z" fill="#111111"/>
</svg>
