<svg width="31" height="26" viewBox="0 0 31 26" fill="none" xmlns="http://www.w3.org/2000/svg">
<g clip-path="url(#clip0_602_85324)">
<path d="M29.6283 17.449H27.388C27.1826 17.449 27.0146 17.6241 27.0146 17.838V24.8392C27.0146 25.0531 27.1826 25.2282 27.388 25.2282H29.6283C29.8337 25.2282 30.0017 25.0531 30.0017 24.8392V17.838C30.0017 17.6241 29.8337 17.449 29.6283 17.449ZM25.955 4.56972C25.689 4.38497 25.521 4.08353 25.521 3.75292V0.723917C25.521 0.509991 25.3529 0.334961 25.1476 0.334961H22.9072C22.7018 0.334961 22.5338 0.509991 22.5338 0.723917V3.75292C22.5338 4.82255 23.0099 5.863 23.8687 6.44644C25.8384 7.77375 27.0146 10.0346 27.0146 12.4753V13.9484C27.0146 14.1624 27.1826 14.3374 27.388 14.3374H29.6283C29.8337 14.3374 30.0017 14.1624 30.0017 13.9484V12.4753C30.0017 9.29068 28.4895 6.33948 25.955 4.56972ZM20.2934 17.449H2.37027C1.13339 17.449 0.129883 18.4944 0.129883 19.7828V22.8944C0.129883 24.1829 1.13339 25.2282 2.37027 25.2282H20.2934C20.7041 25.2282 21.0402 24.8781 21.0402 24.4503V18.227C21.0402 17.7991 20.7041 17.449 20.2934 17.449ZM18.7998 22.8944H10.585V19.7828H18.7998V22.8944ZM22.8932 7.21949C21.7776 6.41241 21.0402 5.16288 21.0402 3.75292V0.723917C21.0402 0.509991 20.8722 0.334961 20.6668 0.334961H18.4264C18.221 0.334961 18.053 0.509991 18.053 0.723917V3.95226C18.053 6.07693 19.2012 7.91961 20.8675 9.13996C21.913 9.90329 22.5338 11.1431 22.5338 12.4753V13.9484C22.5338 14.1624 22.7018 14.3374 22.9072 14.3374H25.1476C25.3529 14.3374 25.521 14.1624 25.521 13.9484V12.4753C25.521 10.37 24.5408 8.42039 22.8932 7.21949ZM25.1476 17.449H22.9072C22.7018 17.449 22.5338 17.6241 22.5338 17.838V24.8392C22.5338 25.0531 22.7018 25.2282 22.9072 25.2282H25.1476C25.3529 25.2282 25.521 25.0531 25.521 24.8392V17.838C25.521 17.6241 25.3529 17.449 25.1476 17.449Z" fill="#283E5B"/>
</g>
<defs>
<clipPath id="clip0_602_85324">
<rect width="29.8719" height="24.8932" fill="white" transform="translate(0.129883 0.334961)"/>
</clipPath>
</defs>
</svg>
