<svg width="32" height="32" viewBox="0 0 32 32" fill="none" xmlns="http://www.w3.org/2000/svg">
<path d="M20.5594 12.5628C20.3266 8.95462 18.8653 5.43699 16.1236 2.69531C13.4702 5.33506 11.8428 8.83286 11.5326 12.5628C13.1879 13.4422 14.7139 14.5802 16.046 15.964C17.378 14.5932 18.904 13.4551 20.5594 12.5628ZM16.1106 6.82076C16.9254 8.15281 17.4944 9.64004 17.7919 11.1919C17.184 11.5799 16.615 12.0067 16.0589 12.4593C15.5157 12.0196 14.9338 11.5928 14.3389 11.2049C14.6622 9.65297 15.2571 8.16574 16.1106 6.82076ZM16.046 20.0895C14.9924 18.4785 13.6509 17.0756 12.0886 15.9511C11.9205 15.8347 11.7395 15.7442 11.5713 15.6148C11.7395 15.7312 11.9205 15.8347 12.0757 15.9381C9.46943 14.0499 6.33196 13.0357 3.11353 13.0413C3.11353 19.9213 7.45883 25.7409 13.4983 27.9007C14.313 28.1981 15.1666 28.418 16.046 28.5602C16.9254 28.405 17.766 28.1852 18.5937 27.9007C24.6331 25.7409 28.9784 19.9213 28.9784 13.0413C23.5727 13.0413 18.8265 15.8476 16.046 20.0895ZM17.7531 25.4564C17.184 25.6504 16.615 25.8056 16.033 25.9349C15.464 25.8185 14.9079 25.6633 14.3777 25.4694C10.1229 23.9433 7.00619 20.3093 6.03626 15.964C7.45883 16.3003 8.81674 16.8822 10.0712 17.684L10.0453 17.697C10.2134 17.8133 10.3816 17.9297 10.5497 18.0203L10.6402 18.072C11.9205 19.0031 13.0198 20.1541 13.8863 21.4991L16.046 24.8098L18.2057 21.512C19.0791 20.1767 20.1877 19.0111 21.4776 18.072L21.5681 18.0073C21.6845 17.9427 21.8009 17.8651 21.9173 17.7875L21.9044 17.7616C23.1718 16.921 24.5814 16.3003 26.0557 15.9511C25.0858 20.3093 21.982 23.9433 17.7531 25.4564ZM12.1533 15.9899C12.1274 15.9769 12.1016 15.9511 12.0886 15.9381C12.0886 15.9381 12.1016 15.9381 12.1016 15.9511C12.1145 15.964 12.1274 15.9769 12.1533 15.9899Z" fill="#283E5B"/>
</svg>
