<svg width="31" height="31" viewBox="0 0 31 31" fill="none" xmlns="http://www.w3.org/2000/svg">
<path d="M13.9457 8.36034C14.1176 8.28056 14.3097 8.25476 14.4966 8.28635C14.6835 8.31793 14.8564 8.40543 14.9926 8.53728L16.9134 10.5918L10.9519 15.8516C11.51 15.9626 11.9046 16.1461 12.2448 16.3048C12.6992 16.5169 13.0582 16.6845 13.8522 16.6845C14.6461 16.6845 15.0051 16.517 15.4597 16.3048L15.4687 16.3006C16.3467 15.8913 17.1614 15.3582 17.888 14.7175L19.468 13.3234L22.5582 16.6281C22.9191 16.5617 23.1751 16.4429 23.4708 16.305C23.7878 16.1481 24.1184 16.0204 24.4584 15.9233L16.3453 7.24719L16.3236 7.2247C15.9159 6.81884 15.3936 6.54773 14.8271 6.44793C14.2605 6.34813 13.677 6.42443 13.1552 6.66655L9.38501 8.426L10.1755 10.12L13.9457 8.36034Z" fill="#283E5B"/>
<path d="M22.6317 10.1424C23.7932 10.1424 24.7347 9.20087 24.7347 8.03945C24.7347 6.87804 23.7932 5.93652 22.6317 5.93652C21.4703 5.93652 20.5288 6.87804 20.5288 8.03945C20.5288 9.20087 21.4703 10.1424 22.6317 10.1424Z" fill="#283E5B"/>
<path d="M25.8697 22.2924C24.6609 22.2924 24.0014 22.6002 23.4716 22.8474C23.017 23.0595 22.658 23.2271 21.8638 23.2271C21.0697 23.2271 20.7108 23.0595 20.2563 22.8474C19.7264 22.6002 19.067 22.2924 17.8582 22.2924C16.6494 22.2924 15.9901 22.6002 15.4602 22.8474C15.0057 23.0595 14.6468 23.2271 13.8527 23.2271C13.0587 23.2271 12.6998 23.0595 12.2453 22.8474C11.7155 22.6002 11.0561 22.2924 9.84741 22.2924C8.63869 22.2924 7.97925 22.6002 7.44943 22.8474C6.99491 23.0595 6.63595 23.2271 5.84192 23.2271C5.04789 23.2271 4.68893 23.0595 4.23441 22.8474C3.70458 22.6002 3.04514 22.2924 1.83643 22.2924V24.1617C2.63046 24.1617 2.98941 24.3292 3.44394 24.5414C3.97376 24.7886 4.6332 25.0963 5.84192 25.0963C7.05063 25.0963 7.71008 24.7885 8.2399 24.5414C8.69442 24.3293 9.05338 24.1617 9.84741 24.1617C10.6414 24.1617 11.0003 24.3292 11.4548 24.5414C11.9846 24.7886 12.644 25.0963 13.8527 25.0963C15.0614 25.0963 15.7209 24.7885 16.2507 24.5414C16.7052 24.3293 17.0642 24.1617 17.8582 24.1617C18.6522 24.1617 19.0113 24.3292 19.4658 24.5414C19.9957 24.7886 20.6551 25.0963 21.8638 25.0963C23.0726 25.0963 23.7321 24.7886 24.262 24.5414C24.7165 24.3293 25.0756 24.1617 25.8697 24.1617C26.6638 24.1617 27.0228 24.3292 27.4773 24.5414C28.0072 24.7887 28.6667 25.0963 29.8755 25.0963V23.2271C29.0814 23.2271 28.7223 23.0595 28.2678 22.8474C27.7379 22.6002 27.0784 22.2924 25.8697 22.2924ZM29.7177 18.5514C29.0319 18.5304 28.691 18.3718 28.2679 18.1743C27.7617 17.938 27.136 17.6474 26.0275 17.6218C25.9756 17.6206 25.9238 17.6193 25.8698 17.6193C25.8158 17.6193 25.7639 17.6206 25.7121 17.6218C24.6035 17.6474 23.9779 17.938 23.4717 18.1743C23.0485 18.3718 22.7077 18.5306 22.0218 18.5514C21.971 18.5529 21.9187 18.5539 21.8641 18.5539C21.8094 18.5539 21.757 18.5529 21.7063 18.5514C21.0205 18.5304 20.6797 18.3718 20.2565 18.1743C19.7504 17.9381 19.1248 17.6474 18.0163 17.6218C17.9644 17.6206 17.9127 17.6193 17.8586 17.6193C17.8045 17.6193 17.7528 17.6206 17.7008 17.6218C16.5924 17.6474 15.9667 17.9381 15.4606 18.1743C15.0374 18.3718 14.6966 18.5306 14.0109 18.5514C13.9601 18.5529 13.9078 18.5539 13.8531 18.5539C13.7985 18.5539 13.7462 18.5529 13.6954 18.5514C13.0097 18.5304 12.6689 18.3718 12.2458 18.1743C11.7397 17.9381 11.1141 17.6474 10.0057 17.6218C9.96769 17.6207 9.92972 17.6201 9.89175 17.6198C9.87685 17.6198 9.86254 17.6191 9.84776 17.6191C9.79367 17.6191 9.74191 17.6205 9.69004 17.6217C8.58162 17.6472 7.95594 17.938 7.44984 18.1741C7.02662 18.3716 6.68589 18.5305 6.0001 18.5513C5.94934 18.5528 5.89706 18.5538 5.84238 18.5538C5.78771 18.5538 5.73543 18.5528 5.68467 18.5513C4.99841 18.5305 4.65785 18.3718 4.23441 18.1742C3.7283 17.938 3.10268 17.6473 1.9942 17.6217C1.94227 17.6205 1.89052 17.6192 1.83648 17.6192V19.4885C2.63051 19.4885 2.98947 19.656 3.444 19.8682C3.97382 20.1154 4.63326 20.4231 5.84198 20.4231C7.05069 20.4231 7.71013 20.1153 8.23996 19.8682C8.69448 19.6561 9.05344 19.4885 9.84747 19.4885C10.6415 19.4885 11.0004 19.656 11.4549 19.8682C11.9847 20.1154 12.6441 20.4231 13.8528 20.4231C15.0615 20.4231 15.7209 20.1153 16.2508 19.8682C16.7053 19.6561 17.0643 19.4885 17.8583 19.4885C18.6522 19.4885 19.0113 19.656 19.4658 19.8682C19.9957 20.1154 20.6551 20.4231 21.8639 20.4231C23.0727 20.4231 23.7322 20.1154 24.262 19.8682C24.7166 19.6561 25.0756 19.4885 25.8697 19.4885C26.6638 19.4885 27.0229 19.656 27.4774 19.8682C28.0073 20.1154 28.6667 20.4231 29.8755 20.4231V18.5539C29.8207 18.5539 29.7684 18.5529 29.7177 18.5514Z" fill="#283E5B"/>
</svg>
