<svg width="45" height="35" viewBox="0 0 45 35" fill="none" xmlns="http://www.w3.org/2000/svg">
<path d="M27.5483 20.9635C27.5483 21.6509 27.3801 22.309 27.0438 22.9379C26.7074 23.5521 26.2028 24.064 25.5301 24.4735C24.8573 24.883 24.0383 25.1097 23.0731 25.1536V26.9085H22.1079V25.1316C20.8062 25.0146 19.7533 24.5905 18.9489 23.8593C18.1445 23.1134 17.7131 22.192 17.6546 21.0952H19.2999C19.3584 21.7533 19.6216 22.3529 20.0896 22.894C20.5722 23.4205 21.245 23.7423 22.1079 23.8593V17.7826C21.128 17.5194 20.3383 17.2561 19.7386 16.9929C19.1536 16.7296 18.6564 16.3274 18.2469 15.7863C17.8374 15.2306 17.6326 14.492 17.6326 13.5706C17.6326 12.4153 18.0348 11.4647 18.8392 10.7188C19.6436 9.9583 20.7331 9.5488 22.1079 9.4903V7.64757H23.0731V9.51224C24.287 9.62924 25.2595 10.0241 25.9908 10.6969C26.722 11.3696 27.1535 12.2105 27.2851 13.2197H25.6617C25.574 12.6785 25.3034 12.174 24.85 11.706C24.4113 11.238 23.819 10.9455 23.0731 10.8285V16.6857C24.0237 16.9344 24.7988 17.1976 25.3985 17.4755C26.0127 17.7387 26.5246 18.1482 26.9341 18.704C27.3436 19.2597 27.5483 20.0129 27.5483 20.9635ZM19.1902 13.5048C19.1902 14.3238 19.4388 14.9454 19.9361 15.3695C20.4479 15.779 21.1719 16.1227 22.1079 16.4006V10.7627C21.2304 10.8065 20.5211 11.0625 19.9799 11.5305C19.4534 11.9985 19.1902 12.6566 19.1902 13.5048ZM23.0731 23.9031C24.0091 23.8446 24.733 23.5521 25.2449 23.0256C25.7568 22.4845 26.0127 21.8191 26.0127 21.0293C26.0127 20.1957 25.7568 19.5669 25.2449 19.1427C24.7477 18.7186 24.0237 18.3603 23.0731 18.0678V23.9031Z" fill="#283E5B"/>
<path fill-rule="evenodd" clip-rule="evenodd" d="M16.5 0H14.5C8.97715 0 4.5 4.47715 4.5 10V25C4.5 25.3375 4.51672 25.6711 4.54938 26H6.56189C6.52104 25.6724 6.5 25.3387 6.5 25V10C6.5 5.58172 10.0817 2 14.5 2H16.5V0ZM37.4381 9C37.479 9.32759 37.5 9.66134 37.5 10V25C37.5 29.4183 33.9183 33 29.5 33H27.5V35H29.5C35.0228 35 39.5 30.5228 39.5 25V10C39.5 9.6625 39.4833 9.32891 39.4506 9H37.4381Z" fill="#283E5B"/>
<path d="M5.5 26L4.88606 26.7894C5.24717 27.0702 5.75283 27.0702 6.11394 26.7894L5.5 26ZM0.386059 23.2894L4.88606 26.7894L6.11394 25.2106L1.61394 21.7106L0.386059 23.2894ZM6.11394 26.7894L10.6139 23.2894L9.38606 21.7106L4.88606 25.2106L6.11394 26.7894Z" fill="#283E5B"/>
<path d="M39 8L39.6139 7.21065C39.2528 6.92978 38.7472 6.92978 38.3861 7.21065L39 8ZM44.1139 10.7106L39.6139 7.21065L38.3861 8.78935L42.8861 12.2894L44.1139 10.7106ZM38.3861 7.21065L33.8861 10.7106L35.1139 12.2894L39.6139 8.78935L38.3861 7.21065Z" fill="#283E5B"/>
</svg>
