<svg width="20" height="22" viewBox="0 0 20 22" fill="none" xmlns="http://www.w3.org/2000/svg">
<path d="M19.0993 15.3072C18.6242 13.9341 17.8115 12.6537 16.7103 11.5435L16.4756 11.3049C16.4756 11.0731 16.4756 10.8412 16.4337 10.6231C15.8637 2.97306 10.7505 0.409422 10.5409 0.300331C10.4135 0.240489 10.2689 0.208984 10.1218 0.208984C9.97464 0.208984 9.8301 0.240489 9.70267 0.300331C9.48473 0.409422 4.37987 2.97306 3.83502 10.5958C3.83502 10.814 3.83502 11.039 3.79311 11.2776L3.51649 11.5572C1.38457 13.6907 0.351142 16.4128 0.632962 19.1526C0.651846 19.3226 0.74843 19.4807 0.90363 19.5955C1.05883 19.7104 1.26136 19.7738 1.4712 19.7731H5.18458C5.40576 20.3591 5.68612 20.9292 6.02281 21.4776C6.0956 21.5829 6.20147 21.6706 6.32961 21.7317C6.45775 21.7928 6.60355 21.8251 6.75208 21.8253H13.4412C13.5897 21.8251 13.7355 21.7928 13.8637 21.7317C13.9918 21.6706 14.0977 21.5829 14.1705 21.4776C14.5083 20.9296 14.7887 20.3594 15.0087 19.7731H18.6885C18.8984 19.7738 19.1009 19.7104 19.2561 19.5955C19.4113 19.4807 19.5079 19.3226 19.5268 19.1526C19.6749 17.8603 19.53 16.5569 19.0993 15.3072V15.3072ZM12.9131 20.4549H7.30531C6.70501 19.3086 6.25817 18.1131 5.97252 16.889L4.29605 17.1617C4.4134 17.6049 4.53076 18.014 4.65649 18.4026H2.25914C2.20549 16.7284 2.72808 15.0754 3.76796 13.6299C3.76796 14.0049 3.82664 14.3799 3.87693 14.7617L5.5534 14.6185C5.38516 13.3117 5.35432 11.9955 5.4612 10.6844C5.89708 5.0117 8.95664 2.48215 10.0883 1.72533C11.245 2.48897 14.3213 5.0117 14.7488 10.6912C15.0375 14.0164 14.4104 17.3519 12.9131 20.4549V20.4549ZM15.5284 18.4094C16.0158 16.8591 16.3218 15.2748 16.4421 13.6776C17.4616 15.1138 17.9722 16.7516 17.9174 18.4094H15.5284Z" fill="#2892F3"/>
</svg>
