<svg width="22" height="17" viewBox="0 0 22 17" fill="none" xmlns="http://www.w3.org/2000/svg">
<path d="M20.53 7.17744C21.0206 7.81913 21.0206 8.68542 20.53 9.32607C18.9848 11.3433 15.2775 15.4967 10.9491 15.4967C6.62082 15.4967 2.91349 11.3433 1.36825 9.32607C1.12957 9.01882 1 8.64083 1 8.25176C1 7.86269 1.12957 7.48469 1.36825 7.17744C2.91349 5.16025 6.62082 1.00684 10.9491 1.00684C15.2775 1.00684 18.9848 5.16025 20.53 7.17744V7.17744Z" stroke="#6B7380" stroke-width="1.9212" stroke-linecap="round" stroke-linejoin="round"/>
<path d="M10.9492 11.3574C12.664 11.3574 14.0542 9.96725 14.0542 8.25243C14.0542 6.5376 12.664 5.14746 10.9492 5.14746C9.23438 5.14746 7.84424 6.5376 7.84424 8.25243C7.84424 9.96725 9.23438 11.3574 10.9492 11.3574Z" stroke="#6B7380" stroke-width="1.9212" stroke-linecap="round" stroke-linejoin="round"/>
</svg>
