<svg width="30" height="24" viewBox="0 0 30 24" fill="none" xmlns="http://www.w3.org/2000/svg">
<g clip-path="url(#clip0_602_85294)">
<path d="M14.7184 16.4573C13.1112 16.4573 11.8086 17.7604 11.8086 19.3676C11.8086 20.9748 13.1116 22.2778 14.7184 22.2778C16.3251 22.2778 17.6282 20.9748 17.6282 19.3676C17.6282 17.7604 16.3642 16.4573 14.7184 16.4573ZM14.7593 9.1828C11.5653 9.1828 8.48958 10.3467 6.09808 12.4577C5.49794 13.0292 5.43883 13.9476 5.97078 14.5523C6.50728 15.1524 7.42568 15.2115 8.02583 14.6796C9.88537 13.0383 12.2769 12.1335 14.7593 12.1335C17.2417 12.1335 19.6378 13.0374 21.4928 14.6796C21.7701 14.9251 22.1156 15.0433 22.4566 15.0433C22.663 15.0435 22.867 14.9998 23.0551 14.915C23.2432 14.8303 23.4112 14.7065 23.5478 14.5518C24.0798 13.9476 24.0252 13.0292 23.4205 12.4972C21.029 10.3876 17.9555 9.1828 14.7593 9.1828ZM28.8627 7.61879C25.0482 3.96244 20.0424 1.94922 14.7593 1.94922C9.47618 1.94922 4.46996 3.96244 0.657846 7.61879C0.0781587 8.17574 0.0595178 9.09642 0.615199 9.67611C1.17079 10.2572 2.09147 10.2726 2.67252 9.71875C5.89804 6.5458 10.2309 4.85902 14.7593 4.85902C19.2877 4.85902 23.5387 6.58535 26.8441 9.7193C27.1305 9.98755 27.4897 10.1239 27.8534 10.1239C28.2356 10.1239 28.6177 9.97477 28.9032 9.67638C29.4583 9.09642 29.4402 8.13709 28.8627 7.61879Z" fill="#283E5B"/>
</g>
<defs>
<clipPath id="clip0_602_85294">
<rect width="29.098" height="23.2784" fill="white" transform="translate(0.210693 0.494141)"/>
</clipPath>
</defs>
</svg>
