<svg width="21" height="15" viewBox="0 0 21 15" fill="none" xmlns="http://www.w3.org/2000/svg">
<path id="Vector" d="M8.51358 10.3231L13.5325 7.42204L8.51358 4.52095V10.3231ZM19.6924 2.75129C19.8182 3.20579 19.9052 3.81502 19.9632 4.58864C20.0309 5.36227 20.0599 6.02952 20.0599 6.60973L20.1179 7.42204C20.1179 9.53983 19.9632 11.0968 19.6924 12.0928C19.4507 12.9631 18.8898 13.524 18.0195 13.7658C17.565 13.8915 16.7333 13.9785 15.4569 14.0365C14.1997 14.1042 13.0489 14.1332 11.9852 14.1332L10.4476 14.1912C6.39578 14.1912 3.87184 14.0365 2.8758 13.7658C2.00547 13.524 1.44459 12.9631 1.20284 12.0928C1.07712 11.6383 0.99009 11.0291 0.932069 10.2554C0.864376 9.48181 0.835365 8.81456 0.835365 8.23434L0.777344 7.42204C0.777344 5.30424 0.932069 3.74733 1.20284 2.75129C1.44459 1.88096 2.00547 1.32008 2.8758 1.07833C3.3303 0.952611 4.16195 0.865578 5.43843 0.807557C6.69556 0.739865 7.84633 0.710854 8.91006 0.710854L10.4476 0.652832C14.4995 0.652832 17.0234 0.807557 18.0195 1.07833C18.8898 1.32008 19.4507 1.88096 19.6924 2.75129Z" fill="#C9C9C9"/>
</svg>
