<svg width="19" height="19" viewBox="0 0 19 19" fill="none" xmlns="http://www.w3.org/2000/svg">
<g id="Group">
<path id="Vector" d="M9.68452 13.6273C10.7104 13.6273 11.6943 13.2198 12.4197 12.4944C13.1451 11.769 13.5526 10.7851 13.5526 9.75923C13.5526 8.73334 13.1451 7.74947 12.4197 7.02406C11.6943 6.29865 10.7104 5.89111 9.68452 5.89111C8.65864 5.89111 7.67476 6.29865 6.94935 7.02406C6.22394 7.74947 5.81641 8.73334 5.81641 9.75923C5.81641 10.7851 6.22394 11.769 6.94935 12.4944C7.67476 13.2198 8.65864 13.6273 9.68452 13.6273Z" stroke="#C9C9C9" stroke-width="1.01534" stroke-linecap="round" stroke-linejoin="round"/>
<path id="Vector_2" d="M0.980469 13.6275V5.8913C0.980469 4.60894 1.48988 3.3791 2.39665 2.47233C3.30342 1.56557 4.53325 1.05615 5.81562 1.05615H13.5519C14.8342 1.05615 16.064 1.56557 16.9708 2.47233C17.8776 3.3791 18.387 4.60894 18.387 5.8913V13.6275C18.387 14.9099 17.8776 16.1397 16.9708 17.0465C16.064 17.9533 14.8342 18.4627 13.5519 18.4627H5.81562C4.53325 18.4627 3.30342 17.9533 2.39665 17.0465C1.48988 16.1397 0.980469 14.9099 0.980469 13.6275Z" stroke="#C9C9C9" stroke-width="1.01534"/>
<path id="Vector_3" d="M15.0039 4.45144L15.0148 4.43945" stroke="#C9C9C9" stroke-width="1.01534" stroke-linecap="round" stroke-linejoin="round"/>
</g>
</svg>
