<svg width="21" height="20" viewBox="0 0 21 20" fill="none" xmlns="http://www.w3.org/2000/svg">
<path id="Vector" d="M10.6508 0.0961914C5.31276 0.0961914 0.980469 4.42848 0.980469 9.76649C0.980469 15.1045 5.31276 19.4368 10.6508 19.4368C15.9888 19.4368 20.3211 15.1045 20.3211 9.76649C20.3211 4.42848 15.9888 0.0961914 10.6508 0.0961914ZM15.1378 6.67199C14.9927 8.1999 14.3642 11.9133 14.045 13.6249C13.9097 14.3502 13.6389 14.592 13.3875 14.621C12.8266 14.6693 12.4011 14.2535 11.8595 13.8957C11.0086 13.3348 10.525 12.9867 9.70307 12.4452C8.74572 11.8166 9.36461 11.4685 9.91582 10.9076C10.0609 10.7625 12.5365 8.50935 12.5848 8.30627C12.5915 8.27551 12.5906 8.24358 12.5822 8.21325C12.5738 8.18291 12.5581 8.15509 12.5365 8.13221C12.4784 8.08385 12.4011 8.1032 12.3334 8.11287C12.2464 8.13221 10.8925 9.03154 8.25253 10.8109C7.86572 11.072 7.51759 11.2074 7.20814 11.1977C6.86001 11.188 6.20243 11.0043 5.70924 10.8399C5.10001 10.6465 4.62617 10.5401 4.66485 10.2016C4.68419 10.0276 4.92595 9.85352 5.38045 9.66978C8.20418 8.44166 10.0802 7.62935 11.0182 7.24254C13.7066 6.12078 14.2578 5.92738 14.6253 5.92738C14.7026 5.92738 14.8864 5.94672 15.0024 6.04342C15.0991 6.12078 15.1281 6.22716 15.1378 6.30452C15.1281 6.36254 15.1474 6.53661 15.1378 6.67199Z" fill="#C9C9C9"/>
</svg>
