<svg width="293" height="293" viewBox="0 0 293 293" fill="none" xmlns="http://www.w3.org/2000/svg">
<circle cx="146.502" cy="146.454" r="145.873" fill="#0072BA"/>
<path d="M145.757 75.239C107.042 75.239 75.6055 106.685 75.6055 145.4C75.6055 184.114 107.042 215.559 145.756 215.559C184.47 215.559 215.916 184.114 215.916 145.4C215.916 106.685 184.471 75.239 145.757 75.239V75.239ZM179.904 90.5639C198.184 101.963 210.339 122.244 210.339 145.4C210.339 150.516 209.744 155.495 208.623 160.267L198.4 154.876L204.967 171.255C202.145 177.716 198.292 183.621 193.625 188.771L180.743 179.538L161.454 193.781L143.051 195.86L138.901 183.39L124.06 191.402L103.736 185.75L106.47 196.672C97.9899 190.168 91.1787 181.609 86.7702 171.731L94.3536 160.92L103.979 166.031L121.655 163.084L122.504 150.874L111.357 150.361L112.821 145.035L122.008 137.48L114.519 132.816L134.582 121.297L121.048 112.445L101.162 124.44L86.4064 119.88C90.5289 110.287 96.9157 101.905 104.884 95.3855L103.764 108.63L116.711 98.4451L138.201 105.077L131.486 96.8969L139.647 92.5971L147.65 101.094L168.842 104.033L167.797 93.7442L180.174 97.5219L179.904 90.5639H179.904ZM180.249 126.39L153.078 129.581L161.706 142.48L162.648 161.722L171.36 165.854L174.774 157.385L193.475 171.908L188.233 157.795L190.145 143.366L177.087 136.585L180.249 126.39L180.249 126.39ZM136.065 127.482L126.635 133.806L137.521 138.217L142.501 133.806L136.065 127.481V127.482ZM142.688 170.667L148.266 186.365L154.169 173.661L142.688 170.667Z" fill="white"/>
</svg>
