<?xml version="1.0" standalone="no"?>
<!DOCTYPE svg PUBLIC "-//W3C//DTD SVG 20010904//EN"
 "http://www.w3.org/TR/2001/REC-SVG-20010904/DTD/svg10.dtd">
<svg version="1.0" xmlns="http://www.w3.org/2000/svg"
 width="199.000000pt" height="199.000000pt" viewBox="0 0 199.000000 199.000000"
 preserveAspectRatio="xMidYMid meet">
<metadata>
Created by potrace 1.14, written by Peter Selinger 2001-2017
</metadata>
<g transform="translate(0.000000,199.000000) scale(0.100000,-0.100000)"
fill="#000000" stroke="none">
<path d="M833 1965 c-380 -67 -680 -341 -779 -711 -44 -161 -38 -378 13 -539
134 -423 549 -706 988 -673 110 8 134 12 220 39 158 49 282 124 400 243 86 86
124 137 172 226 79 148 115 295 114 466 -1 72 -3 105 -16 179 -15 95 -80 251
-146 350 -209 315 -598 485 -966 420z"/>
</g>
</svg>
