<svg width="29" height="29" viewBox="0 0 29 29" fill="none" xmlns="http://www.w3.org/2000/svg">
<path d="M2.1844 3.73052C2.1844 3.32047 2.34729 2.92722 2.63724 2.63727C2.92719 2.34732 3.32045 2.18443 3.7305 2.18443H9.9149C10.325 2.18443 10.7182 2.34732 11.0082 2.63727C11.2981 2.92722 11.461 3.32047 11.461 3.73052V11.461C11.461 11.8711 11.2981 12.2643 11.0082 12.5543C10.7182 12.8442 10.325 13.0071 9.9149 13.0071H3.7305C3.32045 13.0071 2.92719 12.8442 2.63724 12.5543C2.34729 12.2643 2.1844 11.8711 2.1844 11.461V3.73052ZM17.6454 3.73052C17.6454 3.32047 17.8083 2.92722 18.0982 2.63727C18.3882 2.34732 18.7814 2.18443 19.1915 2.18443H25.3759C25.7859 2.18443 26.1792 2.34732 26.4692 2.63727C26.7591 2.92722 26.922 3.32047 26.922 3.73052V6.82272C26.922 7.23277 26.7591 7.62603 26.4692 7.91598C26.1792 8.20593 25.7859 8.36882 25.3759 8.36882H19.1915C18.7814 8.36882 18.3882 8.20593 18.0982 7.91598C17.8083 7.62603 17.6454 7.23277 17.6454 6.82272V3.73052ZM2.1844 20.7376C2.1844 20.3276 2.34729 19.9343 2.63724 19.6444C2.92719 19.3544 3.32045 19.1915 3.7305 19.1915H9.9149C10.325 19.1915 10.7182 19.3544 11.0082 19.6444C11.2981 19.9343 11.461 20.3276 11.461 20.7376V25.3759C11.461 25.786 11.2981 26.1792 11.0082 26.4692C10.7182 26.7591 10.325 26.922 9.9149 26.922H3.7305C3.32045 26.922 2.92719 26.7591 2.63724 26.4692C2.34729 26.1792 2.1844 25.786 2.1844 25.3759V20.7376ZM17.6454 16.0993C17.6454 15.6893 17.8083 15.296 18.0982 15.0061C18.3882 14.7161 18.7814 14.5532 19.1915 14.5532H25.3759C25.7859 14.5532 26.1792 14.7161 26.4692 15.0061C26.7591 15.296 26.922 15.6893 26.922 16.0993V25.3759C26.922 25.786 26.7591 26.1792 26.4692 26.4692C26.1792 26.7591 25.7859 26.922 25.3759 26.922H19.1915C18.7814 26.922 18.3882 26.7591 18.0982 26.4692C17.8083 26.1792 17.6454 25.786 17.6454 25.3759V16.0993Z" stroke="#0072BA" stroke-width="3.0922"/>
</svg>
