<svg width="30" height="34" viewBox="0 0 30 34" fill="none" xmlns="http://www.w3.org/2000/svg">
<path d="M8.8131 34C1.84704 30.074 0.0130181 26.3579 1.06158 21.2825C1.83567 17.5348 4.3704 14.4858 4.61344 10.7453C5.6962 12.7157 6.14863 14.1365 6.26961 16.1956C9.71333 11.9764 11.989 6.13547 12.1238 0C12.1238 0 21.0934 5.27028 21.682 13.2311C22.4541 11.5902 22.8428 8.98416 22.0707 7.29515C24.3871 8.98425 37.9456 23.9789 20.2341 34C23.5641 27.5163 21.0932 18.7677 15.3115 14.7272C15.6977 16.4645 15.0207 22.9444 12.4629 25.7917C13.1716 21.0341 11.7885 19.0224 11.7885 19.0224C11.7885 19.0224 11.3138 21.6873 9.47204 24.3792C7.79018 26.8375 6.62483 29.4466 8.8131 34Z" fill="#0072B9"/>
</svg>
