<svg width="32" height="32" viewBox="0 0 32 32" fill="none" xmlns="http://www.w3.org/2000/svg">
<path fill-rule="evenodd" clip-rule="evenodd" d="M28.277 25.6252C30.4209 22.8938 31.5983 19.5284 31.6247 16.0561C31.651 12.5839 30.5249 9.20096 28.4227 6.4373C26.8718 4.39691 24.8447 2.76747 22.5186 1.69144C20.1925 0.6154 17.6382 0.125521 15.0791 0.264624C12.5199 0.403727 10.0338 1.16758 7.83808 2.4894C5.64232 3.81122 3.80378 5.65078 2.48315 7.84725V2.48316H0.241577V10.3287L1.36237 11.4495H9.20789V9.20789H4.30107C5.79853 6.61912 8.11507 4.60244 10.8854 3.47584C13.6558 2.34924 16.7223 2.17682 19.6015 2.98577C22.4807 3.79473 25.0087 5.53903 26.7869 7.94362C28.5651 10.3482 29.4923 13.2763 29.4224 16.2661C29.3524 19.256 28.2893 22.1375 26.4005 24.4563C24.5118 26.7751 21.905 28.3993 18.9911 29.0727C16.0773 29.7461 13.0222 29.4304 10.3075 28.1755C7.5929 26.9206 5.3732 24.7978 3.99846 22.1418L2.01018 23.1774C3.22091 25.5062 4.9965 27.4941 7.17436 28.9591C9.35223 30.424 11.8628 31.3193 14.4762 31.5628C17.0896 31.8063 19.7224 31.3904 22.1334 30.3531C24.5445 29.3158 26.6568 27.6902 28.277 25.6252ZM20.743 23.4509L22.3301 21.8661L15.9326 15.4664V6.96631H13.691V15.9326L14.0183 16.7261L20.743 23.4509Z" fill="#0072BA" fill-opacity="0.8" />
</svg>
