<svg width="17" height="18" viewBox="0 0 17 18" fill="none" xmlns="http://www.w3.org/2000/svg">
<rect width="17" height="18" rx="1" fill="#0072BA"/>
<path d="M9.37183 7.17625L7.22495 7.44531L7.14808 7.80156L7.56996 7.87937C7.84558 7.945 7.89996 8.04438 7.83996 8.31906L7.14808 11.5703C6.96621 12.4113 7.24652 12.8069 7.90558 12.8069C8.41652 12.8069 9.00996 12.5706 9.27902 12.2463L9.36152 11.8563C9.17402 12.0213 8.90027 12.0869 8.71839 12.0869C8.46058 12.0869 8.36683 11.9059 8.43339 11.5872L9.37183 7.17625ZM9.43746 5.21875C9.43746 5.46739 9.33868 5.70585 9.16287 5.88166C8.98705 6.05748 8.7486 6.15625 8.49996 6.15625C8.25131 6.15625 8.01286 6.05748 7.83704 5.88166C7.66123 5.70585 7.56246 5.46739 7.56246 5.21875C7.56246 4.97011 7.66123 4.73165 7.83704 4.55584C8.01286 4.38002 8.25131 4.28125 8.49996 4.28125C8.7486 4.28125 8.98705 4.38002 9.16287 4.55584C9.33868 4.73165 9.43746 4.97011 9.43746 5.21875Z" fill="white"/>
</svg>
