<svg width="31" height="30" viewBox="0 0 31 30" fill="none" xmlns="http://www.w3.org/2000/svg">
<path id="Vector" d="M26.2055 4.32015C24.8407 2.94845 23.215 1.86086 21.4234 1.12083C19.6317 0.380798 17.7099 0.00312967 15.77 0.00985386C7.64202 0.00985386 1.01753 6.6012 1.01753 14.6886C1.01753 17.2807 1.70231 19.7987 2.98255 22.0205L0.898438 29.6339L8.71384 27.5898C10.8724 28.76 13.2989 29.3821 15.77 29.3821C23.8981 29.3821 30.5226 22.7907 30.5226 14.7034C30.5226 10.7782 28.9892 7.09 26.2055 4.32015ZM15.77 26.8937C13.5668 26.8937 11.4083 26.3012 9.51772 25.1903L9.07112 24.9237L4.42654 26.1382L5.66211 21.6354L5.36438 21.1762C4.14034 19.2314 3.49038 16.9833 3.48869 14.6886C3.48869 7.9639 8.99669 2.48346 15.7552 2.48346C19.0302 2.48346 22.1117 3.75729 24.4191 6.06797C25.5616 7.19955 26.467 8.54552 27.0829 10.0278C27.6987 11.5102 28.0127 13.0994 28.0067 14.7034C28.0365 21.428 22.5285 26.8937 15.77 26.8937ZM22.4987 17.7695C22.1266 17.5917 20.3104 16.703 19.9829 16.5697C19.6405 16.4512 19.4023 16.3919 19.1493 16.7474C18.8962 17.1177 18.1965 17.9472 17.9881 18.1842C17.7797 18.436 17.5564 18.4656 17.1843 18.2731C16.8121 18.0953 15.6212 17.6954 14.2218 16.4512C13.1202 15.4736 12.3908 14.2738 12.1675 13.9035C11.9591 13.5332 12.1377 13.3407 12.3313 13.1481C12.495 12.9852 12.7034 12.7186 12.8821 12.5112C13.0607 12.3038 13.1351 12.1409 13.2542 11.9039C13.3733 11.6521 13.3138 11.4447 13.2245 11.267C13.1351 11.0892 12.3908 9.28218 12.0931 8.54157C11.7953 7.8306 11.4827 7.91947 11.2594 7.90466H10.5449C10.2918 7.90466 9.90476 7.99353 9.56237 8.36383C9.23487 8.73413 8.28214 9.62285 8.28214 11.4299C8.28214 13.237 9.60703 14.9848 9.78567 15.2218C9.96431 15.4736 12.3908 19.1766 16.0827 20.7615C16.961 21.1466 17.6457 21.3688 18.1817 21.5317C19.06 21.8131 19.8638 21.7687 20.5039 21.6798C21.2185 21.5761 22.6923 20.7911 22.99 19.932C23.3026 19.0729 23.3026 18.3471 23.1984 18.1842C23.0942 18.0213 22.8709 17.9472 22.4987 17.7695Z" fill="white"/>
</svg>
