<svg width="31" height="31" viewBox="0 0 31 31" fill="none" xmlns="http://www.w3.org/2000/svg">
<path id="Vector" d="M27.4284 0.365723H3.88656C2.03684 0.365723 0.523438 1.87913 0.523438 3.72885V27.2707C0.523438 29.1221 2.03684 30.6338 3.88656 30.6338H15.6575V18.8629H12.2944V14.701H15.6575V11.2538C15.6575 7.61494 17.6956 5.05896 21.9903 5.05896L25.0221 5.06233V9.44279H23.0093C21.3378 9.44279 20.7022 10.6972 20.7022 11.8609V14.7027H25.0204L24.0653 18.8629H20.7022V30.6338H27.4284C29.2782 30.6338 30.7916 29.1221 30.7916 27.2707V3.72885C30.7916 1.87913 29.2782 0.365723 27.4284 0.365723Z" fill="white"/>
</svg>
