<svg width="33" height="31" viewBox="0 0 33 31" fill="none" xmlns="http://www.w3.org/2000/svg">
<path d="M31.0142 16.0993H27.922V6.82273H14.9131L11.8209 3.73053H3.18442V25.3759H17.0993V28.4681H1.63832C1.22827 28.4681 0.835016 28.3052 0.545066 28.0153C0.255116 27.7253 0.0922241 27.3321 0.0922241 26.922V2.18443C0.0922241 1.77438 0.255116 1.38112 0.545066 1.09117C0.835016 0.801221 1.22827 0.638329 1.63832 0.638329H13.1011L16.1933 3.73053H29.4681C29.8782 3.73053 30.2714 3.89342 30.5614 4.18337C30.8513 4.47332 31.0142 4.86658 31.0142 5.27663V16.0993ZM27.922 22.2837H32.5603V25.3759H27.922V30.7873L20.1915 23.8298L27.922 16.8724V22.2837Z" fill="#0072BA" fill-opacity="0.8"/>
</svg>
