<svg width="112" height="112" viewBox="0 0 112 112" fill="none" xmlns="http://www.w3.org/2000/svg">
<path d="M112 56C112 70.8521 106.1 85.0959 95.598 95.598C85.0959 106.1 70.8521 112 56 112C41.1479 112 26.9041 106.1 16.402 95.598C5.89998 85.0959 0 70.8521 0 56C0 41.1479 5.89998 26.9041 16.402 16.402C26.9041 5.89998 41.1479 0 56 0C70.8521 0 85.0959 5.89998 95.598 16.402C106.1 26.9041 112 41.1479 112 56ZM56 28C55.1152 28.0005 54.2404 28.1863 53.4318 28.5455C52.6233 28.9047 51.8989 29.4292 51.3054 30.0854C50.7119 30.7415 50.2624 31.5147 49.9859 32.3552C49.7094 33.1956 49.612 34.0846 49.7 34.965L52.15 59.514C52.2323 60.4784 52.6736 61.3768 53.3865 62.0314C54.0994 62.6861 55.0321 63.0494 56 63.0494C56.9679 63.0494 57.9006 62.6861 58.6135 62.0314C59.3264 61.3768 59.7677 60.4784 59.85 59.514L62.3 34.965C62.388 34.0846 62.2906 33.1956 62.0141 32.3552C61.7376 31.5147 61.2881 30.7415 60.6946 30.0854C60.1011 29.4292 59.3767 28.9047 58.5682 28.5455C57.7596 28.1863 56.8848 28.0005 56 28ZM56.014 70C54.1575 70 52.377 70.7375 51.0643 72.0503C49.7515 73.363 49.014 75.1435 49.014 77C49.014 78.8565 49.7515 80.637 51.0643 81.9497C52.377 83.2625 54.1575 84 56.014 84C57.8705 84 59.651 83.2625 60.9637 81.9497C62.2765 80.637 63.014 78.8565 63.014 77C63.014 75.1435 62.2765 73.363 60.9637 72.0503C59.651 70.7375 57.8705 70 56.014 70Z" fill="#E44242"/>
</svg>
