<svg width="21" height="23" viewBox="0 0 21 23" fill="none" xmlns="http://www.w3.org/2000/svg">
<path d="M18.5426 0.618944C19.4944 0.095819 20.625 0.800069 20.625 1.85419V21.1457C20.625 22.1998 19.4944 22.9041 18.5426 22.3809C17.2635 21.6789 13.4767 19.6337 11.2099 18.7326C9.80421 18.1659 8.34204 17.7511 6.84825 17.4951L5.97862 21.8454C5.94967 21.9904 5.89245 22.1282 5.81024 22.251C5.72802 22.3738 5.62242 22.4792 5.49946 22.5612C5.37651 22.6432 5.2386 22.7002 5.09362 22.7289C4.94864 22.7577 4.79943 22.7575 4.6545 22.7286C4.50957 22.6996 4.37176 22.6424 4.24895 22.5602C4.12613 22.478 4.02071 22.3724 3.9387 22.2494C3.8567 22.1264 3.79971 21.9885 3.771 21.8436C3.74229 21.6986 3.74242 21.5494 3.77138 21.4044L4.60725 17.2251C4.30415 17.2024 4.00075 17.184 3.69712 17.1699C1.89375 17.0867 0.375 15.6298 0.375 13.7499V9.24994C0.375 7.37007 1.89375 5.91319 3.69712 5.82994C4.0965 5.81082 4.48912 5.78607 4.875 5.75344V15.9999H4.91325C5.01199 15.8289 5.15401 15.6869 5.32502 15.5882C5.49604 15.4895 5.69003 15.4375 5.8875 15.4375C6.08497 15.4375 6.27896 15.4895 6.44998 15.5882C6.62099 15.6869 6.76301 15.8289 6.86175 15.9999H7.125V5.45644C8.52241 5.19689 9.89044 4.79854 11.2087 4.26732C13.4768 3.36619 17.2635 1.31982 18.5426 0.618944Z" fill="#646464"/>
</svg>
