<svg width="49" height="48" viewBox="0 0 49 48" fill="none" xmlns="http://www.w3.org/2000/svg">
<path d="M22.9432 43.6462C18.9871 43.2379 15.2305 41.4503 12.4267 38.6557C10.9114 37.1313 9.94052 35.7611 9.015 33.8193C8.4978 32.7395 7.79004 30.7977 7.79004 30.453C7.79004 30.335 8.05318 30.3169 9.72275 30.3169H11.6464L11.8642 30.9339C11.9821 31.2696 12.2997 31.9774 12.5719 32.5127C14.6226 36.5687 18.5061 39.2726 23.0702 39.8443C24.1591 39.9895 26.1371 39.9169 27.2079 39.7082C31.3817 38.8825 34.857 36.2783 36.7626 32.5218C37.0347 31.9865 37.3523 31.2696 37.4702 30.9339L37.688 30.3169H39.6117C41.2813 30.3169 41.5443 30.335 41.5443 30.453C41.5443 30.7977 40.8367 32.7395 40.3195 33.8284C39.3939 35.7611 38.5229 37.0042 36.9803 38.5649C33.3054 42.2852 28.1061 44.1725 22.9432 43.6462Z" fill="white"/>
<path d="M22.7617 33.6016V30.3169H25.266C27.235 30.3169 27.7522 30.3441 27.6978 30.4348C27.6434 30.5164 22.925 36.6958 22.798 36.8409C22.7798 36.8591 22.7617 35.4073 22.7617 33.6016Z" fill="white"/>
<path d="M7.66287 29.9103C7.39974 28.5674 7.32715 27.8324 7.32715 26.3715C7.32715 24.0123 7.68103 22.125 8.53395 19.9564L8.99672 18.7949H11.1653H13.343L13.1434 19.1398C11.9911 21.0633 11.374 22.9144 11.1381 25.1012C10.9839 26.5621 11.1653 28.6309 11.5555 29.9193C11.6281 30.1644 11.6916 30.4093 11.6916 30.4729C11.6916 30.5545 11.1926 30.5909 9.74984 30.609L7.80805 30.6362L7.66287 29.9103Z" fill="white"/>
<path d="M25.148 30.609L22.7616 30.5907V29.4112V28.2316L19.9125 28.2135L17.0723 28.1862L20.6655 23.4952L24.2587 18.804H25.4201L26.5725 18.7949V21.6078V24.4206L29.4399 24.4388L32.3071 24.466L29.9752 27.5057C28.6957 29.1753 27.616 30.5636 27.5797 30.5907C27.5525 30.618 26.4546 30.6271 25.148 30.609Z" fill="white"/>
<path d="M39.5753 30.609C38.1144 30.5909 37.6427 30.5636 37.6427 30.4729C37.6427 30.4184 37.7062 30.1644 37.7788 29.9193C38.1689 28.6309 38.3504 26.5621 38.1961 25.1012C37.9602 22.9144 37.3432 21.0633 36.1909 19.1398L35.9912 18.7949H38.1689H40.3376L40.8003 19.9564C41.6442 22.0978 41.9981 23.9852 41.9981 26.3443C41.9981 27.8051 41.871 29.1299 41.6078 30.1825L41.499 30.6362L39.5753 30.609Z" fill="white"/>
<path d="M9.10525 18.6167C9.49542 17.8455 10.1487 16.7838 10.6115 16.1577C10.8565 15.822 11.0561 15.5226 11.0561 15.4772C11.0561 15.4318 10.4391 14.7877 9.69505 14.0345L8.33398 12.6734L9.6769 11.3305L11.0107 9.99667L12.4081 11.394L13.8145 12.8004L14.1321 12.5464C15.5566 11.4212 17.7707 10.2961 19.8123 9.66093L20.6289 9.40687L24.458 9.37965C28.1056 9.35243 28.3144 9.3615 29.0403 9.54298C31.0728 10.0602 33.6407 11.3124 35.2013 12.5464L35.519 12.8004L36.9254 11.394L38.3227 9.99667L39.6566 11.3305L40.9995 12.6734L39.6384 14.0345C38.8944 14.7877 38.2774 15.4318 38.2774 15.4772C38.2774 15.5226 38.477 15.822 38.722 16.1577C39.2029 16.8202 39.8471 17.8636 40.2191 18.5986L40.4551 19.0705L38.3046 19.0613H36.145L35.5552 18.2447C33.6951 15.6678 30.6372 13.735 27.2981 13.0182C26.2002 12.7823 23.1333 12.7823 22.0354 13.0182C18.6962 13.735 15.6384 15.6678 13.7782 18.2447L13.1885 19.0613H11.0289L8.87841 19.0705L9.10525 18.6167Z" fill="white"/>
<path d="M24.1769 18.9581C24.2585 18.822 26.3727 16.0727 26.4907 15.9456C26.5361 15.8911 26.5723 16.5354 26.5723 17.4609V19.067H25.3383C24.3856 19.067 24.1316 19.0398 24.1769 18.9581Z" fill="white"/>
<path d="M20.7645 9.43122C22.8605 8.90494 25.8458 8.8505 28.0235 9.30419C28.6405 9.43122 29.1668 9.55825 29.194 9.58547C29.2122 9.60362 27.1705 9.62177 24.6572 9.6127L20.084 9.60362L20.7645 9.43122Z" fill="white"/>
<path d="M16.9541 5.09249V3.18701H24.6668H32.3794V5.09249V6.99799H24.6668H16.9541V5.09249Z" fill="white"/>
</svg>
