<svg width="145" height="23" viewBox="0 0 145 23" fill="none" xmlns="http://www.w3.org/2000/svg">
<g clip-path="url(#clip0_2039_21537)">
<rect x="-15.8594" y="-18" width="176.398" height="58.9959" rx="2.35984" fill="white"/>
<path d="M3.5279 19.408C1.79975 17.7621 0.894531 15.3757 0.894531 12.3308V0.974451H7.80711V12.084C7.80711 13.5652 8.05399 14.7173 8.63004 15.3757C9.20609 16.034 9.94672 16.3632 10.9342 16.3632C11.9217 16.3632 12.7447 16.034 13.2384 15.3757C13.8145 14.7173 14.0614 13.5652 14.0614 12.084V0.974451H20.8916V12.2485C20.8916 15.2934 19.9864 17.6799 18.2583 19.408C16.4478 21.1361 14.0614 21.9591 10.8519 21.9591C7.72482 21.9591 5.25604 21.1361 3.5279 19.408ZM26.6521 3.03177C27.3928 3.03177 27.8042 3.27865 27.9688 3.52552C28.2157 3.7724 28.4626 4.01928 28.4626 4.75991C28.4626 5.50055 28.2157 5.82972 27.9688 5.9943C27.7219 6.24118 27.3928 6.48806 26.6521 6.48806C25.9115 6.48806 25.5823 6.24118 25.3354 5.9943C25.0886 5.74742 24.8417 5.41825 24.8417 4.75991C24.8417 4.10157 25.0886 3.7724 25.3354 3.52552C25.5823 3.36094 25.9115 3.03177 26.6521 3.03177ZM26.6521 0.974451C25.5823 0.974451 24.6771 1.38591 23.9365 2.04426C23.1958 2.7026 22.8667 3.60782 22.8667 4.75991C22.8667 5.91201 23.1958 6.81723 23.9365 7.47557C24.6771 8.2162 25.5823 8.54537 26.7344 8.54537C27.8865 8.54537 28.7917 8.2162 29.5324 7.47557C30.273 6.73494 30.6022 5.82972 30.6022 4.75991C30.6022 3.69011 30.273 2.7026 29.5324 2.04426C28.7094 1.38591 27.8042 0.974451 26.6521 0.974451ZM38.6669 6.40577H32.6595V0.974451H51.5868V6.32347H45.5794V21.4653H38.6669V6.40577ZM57.9233 20.6424C56.242 19.7655 54.8224 18.4595 53.8087 16.8569C52.8212 15.2111 52.3274 13.4006 52.3274 11.3433C52.3274 9.28601 52.8212 7.47557 53.8087 5.82972C54.7962 4.18386 56.1952 2.94947 57.9233 2.04426C59.6515 0.974451 61.6265 0.562988 63.8484 0.562988C66.0703 0.562988 68.0453 1.05674 69.7735 1.96196C71.4548 2.83886 72.8744 4.14483 73.8881 5.74742C74.8756 7.31098 75.3694 9.20372 75.3694 11.261C75.3694 13.3183 74.8756 15.1288 73.8881 16.7746C72.9006 18.4205 71.5016 19.6549 69.7735 20.5601C68.0453 21.4653 66.0703 21.9591 63.8484 21.9591C61.6265 21.9591 59.6515 21.5476 57.9233 20.6424ZM66.1526 15.7871C66.8606 15.3505 67.431 14.723 67.7984 13.9767C68.2099 13.2361 68.3745 12.3308 68.3745 11.261C68.3745 10.1912 68.2099 9.28601 67.7984 8.54537C67.387 7.80474 66.8109 7.1464 66.1526 6.73494C65.4943 6.32347 64.6713 6.0766 63.8484 6.0766C63.0255 6.08003 62.2199 6.3129 61.5222 6.74902C60.8244 7.18514 60.262 7.80723 59.8984 8.54537C59.4869 9.28601 59.3223 10.1912 59.3223 11.261C59.3223 12.3308 59.5692 13.2361 59.8984 13.9767C60.3098 14.7173 60.8859 15.3757 61.5442 15.7871C62.2025 16.1986 63.0255 16.4455 63.8484 16.4455C64.6713 16.3632 65.4943 16.1986 66.1526 15.7871ZM77.9204 0.974451H88.0424C90.3466 0.974451 92.3217 1.38591 94.1321 2.20884C95.7986 2.99423 97.2207 4.21724 98.2467 5.74742C99.2342 7.31098 99.728 9.12142 99.728 11.1787C99.728 13.2361 99.2342 15.0465 98.2467 16.6101C97.2592 18.1736 95.9425 19.3257 94.1321 20.1486C92.4039 20.9716 90.3466 21.383 88.0424 21.383H77.9204V0.974451ZM87.7956 16.1163C89.2768 16.1163 90.4289 15.7048 91.3341 14.8819C92.2394 14.059 92.6508 12.8246 92.6508 11.261C92.6508 9.69747 92.2394 8.54537 91.3341 7.64016C90.4289 6.81723 89.2768 6.40577 87.7956 6.40577H84.833V16.1163H87.7956ZM115.857 17.9267H108.04L106.641 21.4653H99.6457L108.616 0.974451H115.446L124.333 21.5476H117.174L115.857 17.9267ZM113.965 12.9892L111.99 7.80474L110.015 12.9892H113.965ZM136.348 14.059V21.4653H129.436V13.8944L121.7 0.892159H129.024L133.221 7.96933L137.418 0.892159H144.084L136.348 14.059Z" fill="#263238"/>
</g>
<defs>
<clipPath id="clip0_2039_21537">
<rect width="144.835" height="21.9447" fill="white" transform="translate(0.0703125 0.288574)"/>
</clipPath>
</defs>
</svg>
