<svg width="28" height="27" viewBox="0 0 28 27" fill="none" xmlns="http://www.w3.org/2000/svg">
<path d="M14 27C21.4558 27 27.5 20.9558 27.5 13.5C27.5 6.04416 21.4558 0 14 0C6.54416 0 0.5 6.04416 0.5 13.5C0.5 20.9558 6.54416 27 14 27Z" fill="#26A17B"/>
<path fill-rule="evenodd" clip-rule="evenodd" d="M15.6225 14.667V14.6653C15.5297 14.6721 15.0513 14.7008 13.9839 14.7008C13.1317 14.7008 12.5318 14.6755 12.3209 14.6653V14.6679C9.04037 14.5236 6.59181 13.9524 6.59181 13.2689C6.59181 12.5863 9.04037 12.0151 12.3209 11.8683V14.0992C12.5352 14.1144 13.1494 14.1507 13.9983 14.1507C15.0167 14.1507 15.5271 14.1085 15.6225 14.1V11.87C18.8962 12.016 21.3389 12.5872 21.3389 13.2689C21.3389 13.9524 18.8962 14.5219 15.6225 14.667ZM15.6225 11.638V9.64166H20.1905V6.59741H7.75281V9.64166H12.3209V11.6371C8.60837 11.8076 5.81641 12.5433 5.81641 13.4242C5.81641 14.3051 8.60837 15.04 12.3209 15.2113V21.6086H15.6225V15.2096C19.3291 15.0391 22.1143 14.3042 22.1143 13.4242C22.1143 12.5442 19.3291 11.8093 15.6225 11.638Z" fill="white"/>
</svg>
