<svg width="20" height="16" viewBox="0 0 20 16" fill="none" xmlns="http://www.w3.org/2000/svg">
<path d="M19.75 1.96017C19.0328 2.26954 18.2523 2.4922 17.4484 2.57892C18.283 2.08306 18.9081
 1.2997 19.2062 0.375791C18.423 0.841703 17.565 1.16841 16.6703 1.34142C16.2963 0.941634
  15.844 0.62315 15.3416 0.405808C14.8392 0.188467 14.2974 0.0769255 13.75
   0.0781347C11.5351 0.0781347 9.75387 1.87345 9.75387 4.07657C9.75387
    4.38595 9.79137 4.69532 9.85231 4.99298C6.5359 4.81954 3.57809 
    3.23517 1.61168 0.809385C1.25338 1.42137 1.06562 2.1182 1.06793 2.82735C1.06793
     4.21485 1.7734 5.43829 2.84918 6.15782C2.21521 6.13285 1.59608 5.9586 1.04215
      5.64923V5.69845C1.04215 7.64142 2.41559 9.25157 4.24606 9.62189C3.90237 9.71116
       3.54881 9.75683 3.19371 9.75782C2.93356 9.75782 2.68746 9.73204 2.43903 9.69689C2.94528
        11.2813 4.41949 12.432 6.17496 12.4695C4.80153 13.5453 3.08121 14.1781 1.21324
         14.1781C0.878089 14.1781 0.568713 14.1664 0.24762 14.1289C2.01949 15.2656 4.12184 
         15.9219 6.3859 15.9219C13.7359 15.9219 17.7578 9.83282 17.7578 4.54767C17.7578
         4.37423 17.7578 4.20079 17.7461 4.02735C18.5242 3.45782 19.2062 2.75235 19.75 1.96017Z" fill="#929292"/>
</svg>
