<svg width="35" height="35" viewBox="0 0 35 35" fill="none" xmlns="http://www.w3.org/2000/svg">
<path d="M17.5 0C7.84 0 0 7.84 0 17.5C0 27.16 7.84 35 17.5 35C27.16 35 35 27.16 35 17.5C35 7.84 27.16 0 17.5 0ZM17.5 31.5C9.765 31.5 3.5 25.235 3.5 17.5C3.5 9.765 9.765 3.5 17.5 3.5C25.235 3.5 31.5 9.765 31.5 17.5C31.5 25.235 25.235 31.5 17.5 31.5Z" fill="#0072BA" fill-opacity="0.8" />
<path d="M24.447 15.8025C22.522 13.6325 19.7395 12.25 16.6245 12.25C11.6895 12.25 7.55945 15.6625 6.43945 20.23L8.11945 20.79C9.01195 16.905 12.477 14 16.6245 14C19.267 14 21.612 15.19 23.2045 17.045L19.2495 21H27.9995V12.25L24.447 15.8025Z" fill="#0072BA" fill-opacity="0.8" />
</svg>
